<?xml version="1.0" encoding="UTF-8"?><svg id="Calque_2" xmlns="http://www.w3.org/2000/svg" viewBox="0 0 1728 1152"><defs><style>.cls-1,.cls-2,.cls-3,.cls-4,.cls-5,.cls-6{fill:none;}.cls-2{stroke:#722828;}.cls-2,.cls-7,.cls-4,.cls-8,.cls-5,.cls-6{font-family:GillSans-Bold, 'Gill Sans';font-size:16px;font-weight:700;}.cls-2,.cls-3,.cls-4,.cls-5,.cls-6{stroke-width:2px;}.cls-7,.cls-9,.cls-5{letter-spacing:0em;}.cls-7,.cls-10,.cls-8{fill:#fff;}.cls-3,.cls-5,.cls-6{stroke:#4a5091;}.cls-4{stroke:#5d6f89;}.cls-11{letter-spacing:0em;}.cls-12{letter-spacing:-.1em;}.cls-13{letter-spacing:-.1em;}.cls-14{letter-spacing:-.09em;}.cls-15{letter-spacing:-.09em;}.cls-16{letter-spacing:-.07em;}.cls-17{letter-spacing:-.06em;}.cls-18{letter-spacing:-.01em;}.cls-19{letter-spacing:-.01em;}.cls-20{letter-spacing:-.04em;}.cls-21{letter-spacing:-.04em;}.cls-22{letter-spacing:-.03em;}</style></defs><g id="Etiquettes_pays"><text class="cls-6" transform="translate(458.01 138.03)"><tspan x="0" y="0">É</tspan></text><text class="cls-6" transform="translate(468.36 138.03) scale(.7)"><tspan class="cls-15" x="0" y="0">T</tspan><tspan class="cls-12" x="10.91" y="0">A</tspan><tspan class="cls-9" x="22.64" y="0">TS</tspan></text><text class="cls-6" transform="translate(499.66 138.03)"><tspan x="0" y="0">-U</tspan></text><text class="cls-5" transform="translate(521.35 138.03) scale(.7)"><tspan x="0" y="0">NIS</tspan></text><text class="cls-8" transform="translate(458.01 138.03)"><tspan x="0" y="0">É</tspan></text><text class="cls-8" transform="translate(468.36 138.03) scale(.7)"><tspan class="cls-15" x="0" y="0">T</tspan><tspan class="cls-12" x="10.91" y="0">A</tspan><tspan class="cls-9" x="22.64" y="0">TS</tspan></text><text class="cls-8" transform="translate(499.66 138.03)"><tspan x="0" y="0">-U</tspan></text><text class="cls-7" transform="translate(521.35 138.03) scale(.7)"><tspan x="0" y="0">NIS</tspan></text><text class="cls-2" transform="translate(417.1 357)"><tspan x="0" y="0">M</tspan></text><text class="cls-2" transform="translate(432.42 357) scale(.7)"><tspan x="0" y="0">EXIQUE</tspan></text><text class="cls-8" transform="translate(417.1 357)"><tspan x="0" y="0">M</tspan></text><text class="cls-8" transform="translate(432.42 357) scale(.7)"><tspan x="0" y="0">EXIQUE</tspan></text><text class="cls-2" transform="translate(662.13 578.14)"><tspan x="0" y="0">N</tspan></text><text class="cls-2" transform="translate(676.6 578.14) scale(.7)"><tspan x="0" y="0">ICAR</tspan><tspan class="cls-18" x="43.2" y="0">A</tspan><tspan class="cls-11" x="56.3" y="0">G</tspan><tspan class="cls-21" x="69.09" y="0">U</tspan><tspan class="cls-11" x="82.24" y="0">A</tspan></text><text class="cls-8" transform="translate(662.13 578.14)"><tspan x="0" y="0">N</tspan></text><text class="cls-8" transform="translate(676.6 578.14) scale(.7)"><tspan x="0" y="0">ICAR</tspan><tspan class="cls-18" x="43.2" y="0">A</tspan><tspan class="cls-11" x="56.3" y="0">G</tspan><tspan class="cls-21" x="69.09" y="0">U</tspan><tspan class="cls-11" x="82.24" y="0">A</tspan></text><text class="cls-6" transform="translate(753.28 648.09)"><tspan x="0" y="0">P</tspan></text><text class="cls-6" transform="translate(764.47 648.09) scale(.7)"><tspan x="0" y="0">A</tspan><tspan class="cls-18" x="13.33" y="0">N</tspan><tspan x="27.58" y="0">AMA</tspan></text><text class="cls-8" transform="translate(753.28 648.09)"><tspan x="0" y="0">P</tspan></text><text class="cls-8" transform="translate(764.47 648.09) scale(.7)"><tspan x="0" y="0">A</tspan><tspan class="cls-18" x="13.33" y="0">N</tspan><tspan x="27.58" y="0">AMA</tspan></text><text class="cls-2" transform="translate(784.07 388.63)"><tspan x="0" y="0">C</tspan></text><text class="cls-2" transform="translate(795.96 388.63) scale(.7)"><tspan x="0" y="0">U</tspan><tspan class="cls-22" x="13.84" y="0">B</tspan><tspan class="cls-11" x="25.37" y="0">A</tspan></text><text class="cls-8" transform="translate(784.07 388.63)"><tspan x="0" y="0">C</tspan></text><text class="cls-8" transform="translate(795.96 388.63) scale(.7)"><tspan x="0" y="0">U</tspan><tspan class="cls-22" x="13.84" y="0">B</tspan><tspan class="cls-11" x="25.37" y="0">A</tspan></text><text class="cls-6" transform="translate(861.81 440.54)"><tspan x="0" y="0">H</tspan></text><text class="cls-6" transform="translate(875.96 440.54) scale(.7)"><tspan x="0" y="0">AÏTI</tspan></text><text class="cls-8" transform="translate(861.81 440.54)"><tspan x="0" y="0">H</tspan></text><text class="cls-8" transform="translate(875.96 440.54) scale(.7)"><tspan x="0" y="0">AÏTI</tspan></text><text class="cls-6" transform="translate(931.86 445.6) scale(.7)"><tspan x="0" y="0">ÉP</tspan></text><path class="cls-3" d="M931.73,445.6h-3.51l-.85-1.92c-.31-.7-.59-1.22-.84-1.54-.25-.33-.49-.53-.73-.62-.24-.09-.54-.14-.92-.14h-.37v4.23h-3.27v-10.83h5.55c.9,0,1.63.18,2.2.55.57.36.99.81,1.24,1.33.25.52.38,1.02.38,1.48,0,.55-.11,1.01-.32,1.39-.21.38-.43.65-.67.82s-.5.34-.79.49c.35.2.64.44.86.72.23.28.54.84.93,1.69l1.09,2.35ZM927.3,438.2c0-.5-.16-.85-.49-1.05-.33-.2-.86-.3-1.6-.3h-.69v2.61h.7c.8,0,1.34-.09,1.64-.26.29-.17.44-.51.44-1Z"/><path class="cls-3" d="M938.52,445.6h-5.71v-7.58h5.62v1.52h-3.34v1.39h3.18v1.53h-3.18v1.62h3.43v1.53ZM937.76,435.77l-2.02,1.73h-1.05l.94-1.73h2.13Z"/><path class="cls-3" d="M946.62,440.41c0,.28-.05.56-.14.82-.1.27-.25.52-.47.75s-.51.42-.87.56-.8.22-1.29.22h-1.5v2.84h-2.29v-7.58h3.79c.5,0,.93.07,1.29.22s.66.34.87.57.37.49.47.76.14.55.14.84ZM944.29,440.42c0-.36-.11-.61-.32-.74-.21-.13-.59-.2-1.15-.2h-.48v1.83h.49c.38,0,.67-.02.88-.07s.35-.13.44-.26c.09-.13.14-.31.14-.55Z"/><path class="cls-3" d="M950.87,444.06c0,.47-.16.87-.48,1.19-.32.33-.71.49-1.18.49s-.86-.16-1.2-.49-.5-.72-.5-1.19.17-.87.5-1.19c.33-.33.73-.49,1.2-.49.29,0,.57.08.83.23.26.15.47.35.61.61.15.26.22.54.22.84Z"/><path class="cls-3" d="M902.55,459.59c0,1.11-.2,2-.61,2.67s-.88,1.22-1.43,1.63c-.78.61-1.86.91-3.26.91h-5.84v-10.83h4.5c.68,0,1.26.04,1.74.11s.92.17,1.3.3c.39.13.71.27.98.43.27.16.51.33.73.51.37.3.69.66.97,1.07.28.41.5.89.66,1.43.16.54.25,1.13.25,1.77ZM899.23,459.44c0-.88-.17-1.57-.5-2.06s-.74-.82-1.21-.99c-.47-.17-.95-.25-1.44-.25h-1.39v6.41h1.39c.85,0,1.59-.2,2.22-.61s.94-1.24.94-2.51Z"/><path class="cls-3" d="M912.26,461.01c0,.71-.16,1.36-.49,1.95s-.81,1.07-1.46,1.42c-.65.35-1.43.53-2.36.53s-1.73-.18-2.38-.55c-.65-.36-1.13-.84-1.45-1.44s-.47-1.23-.47-1.91.16-1.32.47-1.91.8-1.07,1.45-1.43c.65-.36,1.44-.54,2.38-.54.7,0,1.32.1,1.87.31.55.21,1,.49,1.35.85s.62.77.8,1.24.27.97.27,1.49ZM909.94,461.01c0-.28-.04-.54-.13-.78-.08-.23-.21-.44-.38-.61-.17-.17-.38-.31-.62-.4s-.53-.15-.85-.15c-.61,0-1.09.18-1.44.54-.35.36-.53.83-.53,1.41s.18,1.05.53,1.41c.35.36.83.54,1.44.54.42,0,.78-.08,1.07-.25.29-.17.52-.4.67-.69.15-.29.23-.63.23-1.01Z"/><path class="cls-3" d="M922.5,464.8h-2.29v-4.39l-2.06,2.54h-.18l-2.07-2.54v4.39h-2.22v-7.58h2.07l2.33,2.84,2.34-2.84h2.07v7.58Z"/><path class="cls-3" d="M926.71,464.8h-2.29v-7.58h2.29v7.58Z"/><path class="cls-3" d="M936.86,464.8h-2.03l-3.93-4.22v4.22h-2.26v-7.58h2.03l3.92,4.2v-4.2h2.28v7.58Z"/><path class="cls-3" d="M941.06,464.8h-2.29v-7.58h2.29v7.58Z"/><path class="cls-3" d="M949.76,464.24c-.31.16-.63.3-.96.39-.33.1-.66.17-.99.21s-.68.06-1.04.06c-.66,0-1.25-.09-1.77-.27-.52-.18-.98-.45-1.36-.81s-.67-.77-.86-1.25-.29-1-.29-1.57c0-.65.11-1.22.34-1.71.23-.49.54-.9.95-1.22.41-.32.87-.56,1.39-.72s1.07-.23,1.64-.23c.86,0,1.84.19,2.93.57v2.01c-.38-.23-.75-.43-1.11-.58s-.8-.23-1.29-.23c-.44,0-.85.09-1.24.26-.38.18-.69.42-.92.75-.23.32-.35.7-.35,1.14,0,.38.1.73.31,1.05.2.32.49.57.85.76.36.19.77.28,1.23.28.37,0,.72-.04,1.04-.13s.6-.19.83-.3c.22-.11.45-.24.69-.39v1.92Z"/><path class="cls-3" d="M959.62,464.8h-2.34l-.62-1.54h-3.29l-.63,1.54h-2.34l3.35-7.58h2.53l3.34,7.58ZM956.13,461.95l-1.11-2.77-1.12,2.77h2.23Z"/><path class="cls-3" d="M962.92,464.8h-2.29v-7.58h2.29v7.58Z"/><path class="cls-3" d="M973.07,464.8h-2.03l-3.93-4.22v4.22h-2.26v-7.58h2.03l3.92,4.2v-4.2h2.28v7.58Z"/><path class="cls-3" d="M980.68,464.8h-5.71v-7.58h5.62v1.52h-3.34v1.39h3.18v1.53h-3.18v1.62h3.43v1.53Z"/><text class="cls-8" transform="translate(931.86 445.6) scale(.7)"><tspan x="0" y="0">ÉP</tspan></text><path class="cls-10" d="M931.73,445.6h-3.51l-.85-1.92c-.31-.7-.59-1.22-.84-1.54-.25-.33-.49-.53-.73-.62-.24-.09-.54-.14-.92-.14h-.37v4.23h-3.27v-10.83h5.55c.9,0,1.63.18,2.2.55.57.36.99.81,1.24,1.33.25.52.38,1.02.38,1.48,0,.55-.11,1.01-.32,1.39-.21.38-.43.65-.67.82s-.5.34-.79.49c.35.2.64.44.86.72.23.28.54.84.93,1.69l1.09,2.35ZM927.3,438.2c0-.5-.16-.85-.49-1.05-.33-.2-.86-.3-1.6-.3h-.69v2.61h.7c.8,0,1.34-.09,1.64-.26.29-.17.44-.51.44-1Z"/><path class="cls-10" d="M938.52,445.6h-5.71v-7.58h5.62v1.52h-3.34v1.39h3.18v1.53h-3.18v1.62h3.43v1.53ZM937.76,435.77l-2.02,1.73h-1.05l.94-1.73h2.13Z"/><path class="cls-10" d="M946.62,440.41c0,.28-.05.56-.14.82-.1.27-.25.52-.47.75s-.51.42-.87.56-.8.22-1.29.22h-1.5v2.84h-2.29v-7.58h3.79c.5,0,.93.07,1.29.22s.66.34.87.57.37.49.47.76.14.55.14.84ZM944.29,440.42c0-.36-.11-.61-.32-.74-.21-.13-.59-.2-1.15-.2h-.48v1.83h.49c.38,0,.67-.02.88-.07s.35-.13.44-.26c.09-.13.14-.31.14-.55Z"/><path class="cls-10" d="M950.87,444.06c0,.47-.16.87-.48,1.19-.32.33-.71.49-1.18.49s-.86-.16-1.2-.49-.5-.72-.5-1.19.17-.87.5-1.19c.33-.33.73-.49,1.2-.49.29,0,.57.08.83.23.26.15.47.35.61.61.15.26.22.54.22.84Z"/><path class="cls-10" d="M902.55,459.59c0,1.11-.2,2-.61,2.67s-.88,1.22-1.43,1.63c-.78.61-1.86.91-3.26.91h-5.84v-10.83h4.5c.68,0,1.26.04,1.74.11s.92.17,1.3.3c.39.13.71.27.98.43.27.16.51.33.73.51.37.3.69.66.97,1.07.28.41.5.89.66,1.43.16.54.25,1.13.25,1.77ZM899.23,459.44c0-.88-.17-1.57-.5-2.06s-.74-.82-1.21-.99c-.47-.17-.95-.25-1.44-.25h-1.39v6.41h1.39c.85,0,1.59-.2,2.22-.61s.94-1.24.94-2.51Z"/><path class="cls-10" d="M912.26,461.01c0,.71-.16,1.36-.49,1.95s-.81,1.07-1.46,1.42c-.65.35-1.43.53-2.36.53s-1.73-.18-2.38-.55c-.65-.36-1.13-.84-1.45-1.44s-.47-1.23-.47-1.91.16-1.32.47-1.91.8-1.07,1.45-1.43c.65-.36,1.44-.54,2.38-.54.7,0,1.32.1,1.87.31.55.21,1,.49,1.35.85s.62.77.8,1.24.27.97.27,1.49ZM909.94,461.01c0-.28-.04-.54-.13-.78-.08-.23-.21-.44-.38-.61-.17-.17-.38-.31-.62-.4s-.53-.15-.85-.15c-.61,0-1.09.18-1.44.54-.35.36-.53.83-.53,1.41s.18,1.05.53,1.41c.35.36.83.54,1.44.54.42,0,.78-.08,1.07-.25.29-.17.52-.4.67-.69.15-.29.23-.63.23-1.01Z"/><path class="cls-10" d="M922.5,464.8h-2.29v-4.39l-2.06,2.54h-.18l-2.07-2.54v4.39h-2.22v-7.58h2.07l2.33,2.84,2.34-2.84h2.07v7.58Z"/><path class="cls-10" d="M926.71,464.8h-2.29v-7.58h2.29v7.58Z"/><path class="cls-10" d="M936.86,464.8h-2.03l-3.93-4.22v4.22h-2.26v-7.58h2.03l3.92,4.2v-4.2h2.28v7.58Z"/><path class="cls-10" d="M941.06,464.8h-2.29v-7.58h2.29v7.58Z"/><path class="cls-10" d="M949.76,464.24c-.31.16-.63.3-.96.39-.33.1-.66.17-.99.21s-.68.06-1.04.06c-.66,0-1.25-.09-1.77-.27-.52-.18-.98-.45-1.36-.81s-.67-.77-.86-1.25-.29-1-.29-1.57c0-.65.11-1.22.34-1.71.23-.49.54-.9.95-1.22.41-.32.87-.56,1.39-.72s1.07-.23,1.64-.23c.86,0,1.84.19,2.93.57v2.01c-.38-.23-.75-.43-1.11-.58s-.8-.23-1.29-.23c-.44,0-.85.09-1.24.26-.38.18-.69.42-.92.75-.23.32-.35.7-.35,1.14,0,.38.1.73.31,1.05.2.32.49.57.85.76.36.19.77.28,1.23.28.37,0,.72-.04,1.04-.13s.6-.19.83-.3c.22-.11.45-.24.69-.39v1.92Z"/><path class="cls-10" d="M959.62,464.8h-2.34l-.62-1.54h-3.29l-.63,1.54h-2.34l3.35-7.58h2.53l3.34,7.58ZM956.13,461.95l-1.11-2.77-1.12,2.77h2.23Z"/><path class="cls-10" d="M962.92,464.8h-2.29v-7.58h2.29v7.58Z"/><path class="cls-10" d="M973.07,464.8h-2.03l-3.93-4.22v4.22h-2.26v-7.58h2.03l3.92,4.2v-4.2h2.28v7.58Z"/><path class="cls-10" d="M980.68,464.8h-5.71v-7.58h5.62v1.52h-3.34v1.39h3.18v1.53h-3.18v1.62h3.43v1.53Z"/><text class="cls-6" transform="translate(655.98 522.05)"><tspan x="0" y="0">H</tspan></text><text class="cls-6" transform="translate(670.14 522.05) scale(.7)"><tspan class="cls-18" x="0" y="0">O</tspan><tspan class="cls-9" x="13.39" y="0">NDURAS</tspan></text><text class="cls-8" transform="translate(655.98 522.05)"><tspan x="0" y="0">H</tspan></text><text class="cls-8" transform="translate(670.14 522.05) scale(.7)"><tspan class="cls-18" x="0" y="0">O</tspan><tspan class="cls-9" x="13.39" y="0">NDURAS</tspan></text><text class="cls-6" transform="translate(580.2 558.05)"><tspan x="0" y="0">E</tspan></text><text class="cls-6" transform="translate(590.56 558.05) scale(.7)"><tspan x="0" y="0">L</tspan></text><text class="cls-6" transform="translate(597.64 558.05)"><tspan x="0" y="0" xml:space="preserve"> S</tspan></text><text class="cls-6" transform="translate(612.18 558.05) scale(.7)"><tspan x="0" y="0">A</tspan><tspan class="cls-12" x="13.33" y="0">L</tspan><tspan class="cls-16" x="21.85" y="0">V</tspan><tspan class="cls-11" x="32.78" y="0">ADOR</tspan></text><text class="cls-8" transform="translate(580.2 558.05)"><tspan x="0" y="0">E</tspan></text><text class="cls-8" transform="translate(590.56 558.05) scale(.7)"><tspan x="0" y="0">L</tspan></text><text class="cls-8" transform="translate(597.64 558.05)"><tspan x="0" y="0" xml:space="preserve"> S</tspan></text><text class="cls-8" transform="translate(612.18 558.05) scale(.7)"><tspan x="0" y="0">A</tspan><tspan class="cls-12" x="13.33" y="0">L</tspan><tspan class="cls-16" x="21.85" y="0">V</tspan><tspan class="cls-11" x="32.78" y="0">ADOR</tspan></text><text class="cls-6" transform="translate(568.87 529.99)"><tspan x="0" y="0">G</tspan></text><text class="cls-6" transform="translate(581.65 529.99) scale(.7)"><tspan class="cls-20" x="0" y="0">U</tspan><tspan class="cls-13" x="13.16" y="0">A</tspan><tspan x="24.88" y="0">TEMA</tspan><tspan class="cls-19" x="76.18" y="0">L</tspan><tspan x="86.08" y="0">A</tspan></text><text class="cls-8" transform="translate(568.87 529.99)"><tspan x="0" y="0">G</tspan></text><text class="cls-8" transform="translate(581.65 529.99) scale(.7)"><tspan class="cls-20" x="0" y="0">U</tspan><tspan class="cls-13" x="13.16" y="0">A</tspan><tspan x="24.88" y="0">TEMA</tspan><tspan class="cls-19" x="76.18" y="0">L</tspan><tspan x="86.08" y="0">A</tspan></text><text class="cls-6" transform="translate(682.1 625.64)"><tspan x="0" y="0">C</tspan></text><text class="cls-6" transform="translate(693.99 625.64) scale(.7)"><tspan x="0" y="0">OS</tspan><tspan class="cls-14" x="23.41" y="0">T</tspan><tspan x="34.32" y="0">A</tspan></text><text class="cls-6" transform="translate(727.35 625.64)"><tspan x="0" y="0" xml:space="preserve"> R</tspan></text><text class="cls-6" transform="translate(744.07 625.64) scale(.7)"><tspan x="0" y="0">ICA</tspan></text><text class="cls-8" transform="translate(682.1 625.64)"><tspan x="0" y="0">C</tspan></text><text class="cls-8" transform="translate(693.99 625.64) scale(.7)"><tspan x="0" y="0">OS</tspan><tspan class="cls-14" x="23.41" y="0">T</tspan><tspan x="34.32" y="0">A</tspan></text><text class="cls-8" transform="translate(727.35 625.64)"><tspan x="0" y="0" xml:space="preserve"> R</tspan></text><text class="cls-8" transform="translate(744.07 625.64) scale(.7)"><tspan x="0" y="0">ICA</tspan></text><text class="cls-6" transform="translate(864 746.18)"><tspan x="0" y="0">C</tspan></text><text class="cls-6" transform="translate(875.89 746.18) scale(.7)"><tspan x="0" y="0">O</tspan><tspan class="cls-17" x="13.62" y="0">L</tspan><tspan x="22.83" y="0">OMBIE</tspan></text><text class="cls-8" transform="translate(864 746.18)"><tspan x="0" y="0">C</tspan></text><text class="cls-8" transform="translate(875.89 746.18) scale(.7)"><tspan x="0" y="0">O</tspan><tspan class="cls-17" x="13.62" y="0">L</tspan><tspan x="22.83" y="0">OMBIE</tspan></text><text class="cls-2" transform="translate(785.2 853.29)"><tspan x="0" y="0">É</tspan></text><text class="cls-2" transform="translate(795.55 853.29) scale(.7)"><tspan x="0" y="0">Q</tspan><tspan class="cls-21" x="13.62" y="0">U</tspan><tspan class="cls-12" x="26.77" y="0">A</tspan><tspan class="cls-9" x="38.5" y="0">TEUR</tspan></text><text class="cls-8" transform="translate(785.2 853.29)"><tspan x="0" y="0">É</tspan></text><text class="cls-8" transform="translate(795.55 853.29) scale(.7)"><tspan x="0" y="0">Q</tspan><tspan class="cls-21" x="13.62" y="0">U</tspan><tspan class="cls-12" x="26.77" y="0">A</tspan><tspan class="cls-9" x="38.5" y="0">TEUR</tspan></text><text class="cls-6" transform="translate(834.3941 1008.7581)"><tspan x="0" y="0">P</tspan></text><text class="cls-6" transform="translate(845.5816 1008.7581) scale(.7)"><tspan x="0" y="0">ÉROU</tspan></text><text class="cls-8" transform="translate(834.3941 1008.7581)"><tspan x="0" y="0">P</tspan></text><text class="cls-8" transform="translate(845.5816 1008.7581) scale(.7)"><tspan x="0" y="0">ÉROU</tspan></text><text class="cls-6" transform="translate(1133.116 984.7887)"><tspan x="0" y="0">B</tspan></text><text class="cls-6" transform="translate(1145.1004 984.7887) scale(.7)"><tspan x="0" y="0">RÉSIL</tspan></text><text class="cls-8" transform="translate(1133.116 984.7887)"><tspan x="0" y="0">B</tspan></text><text class="cls-8" transform="translate(1145.1004 984.7887) scale(.7)"><tspan x="0" y="0">RÉSIL</tspan></text><text class="cls-2" transform="translate(981.7803 1115.9039)"><tspan x="0" y="0">B</tspan></text><text class="cls-2" transform="translate(993.7647 1115.9039) scale(.7)"><tspan x="0" y="0">OLIVIE</tspan></text><text class="cls-8" transform="translate(981.7803 1115.9039)"><tspan x="0" y="0">B</tspan></text><text class="cls-8" transform="translate(993.7647 1115.9039) scale(.7)"><tspan x="0" y="0">OLIVIE</tspan></text><text class="cls-4" transform="translate(972.52 665.65)"><tspan x="0" y="0">V</tspan></text><text class="cls-4" transform="translate(984.6 665.65) scale(.7)"><tspan x="0" y="0">ÉNÉZUÉ</tspan><tspan class="cls-18" x="71.04" y="0">L</tspan><tspan x="80.94" y="0">A</tspan></text><text class="cls-8" transform="translate(972.52 665.65)"><tspan x="0" y="0">V</tspan></text><text class="cls-8" transform="translate(984.6 665.65) scale(.7)"><tspan x="0" y="0">ÉNÉZUÉ</tspan><tspan class="cls-18" x="71.04" y="0">L</tspan><tspan x="80.94" y="0">A</tspan></text><text class="cls-6" transform="translate(1067.2104 621.4746)"><tspan x="0" y="0">T</tspan></text><text class="cls-6" transform="translate(1079.4995 621.4746) scale(.7)"><tspan x="0" y="0">RINITÉ</tspan></text><text class="cls-6" transform="translate(1122.2817 621.4746)"><tspan x="0" y="0">-</tspan></text><text class="cls-6" transform="translate(1130.1255 621.4746) scale(.7)"><tspan x="0" y="0">ET</tspan></text><text class="cls-6" transform="translate(1145.9736 621.4746)"><tspan x="0" y="0">-T</tspan></text><text class="cls-6" transform="translate(1166.1064 621.4746) scale(.7)"><tspan x="0" y="0">O</tspan><tspan class="cls-22" x="13.62" y="0">B</tspan><tspan class="cls-18" x="25.14" y="0">A</tspan><tspan x="38.24" y="0">GO</tspan></text><text class="cls-8" transform="translate(1067.2104 621.4746)"><tspan x="0" y="0">T</tspan></text><text class="cls-8" transform="translate(1079.4995 621.4746) scale(.7)"><tspan x="0" y="0">RINITÉ</tspan></text><text class="cls-8" transform="translate(1122.2817 621.4746)"><tspan x="0" y="0">-</tspan></text><text class="cls-8" transform="translate(1130.1255 621.4746) scale(.7)"><tspan x="0" y="0">ET</tspan></text><text class="cls-8" transform="translate(1145.9736 621.4746)"><tspan x="0" y="0">-T</tspan></text><text class="cls-8" transform="translate(1166.1064 621.4746) scale(.7)"><tspan x="0" y="0">O</tspan><tspan class="cls-22" x="13.62" y="0">B</tspan><tspan class="cls-18" x="25.14" y="0">A</tspan><tspan x="38.24" y="0">GO</tspan></text><text class="cls-6" transform="translate(821.93 351.43)"><tspan x="0" y="0">B</tspan></text><text class="cls-6" transform="translate(833.91 351.43) scale(.7)"><tspan x="0" y="0">AHAMAS</tspan></text><text class="cls-8" transform="translate(821.93 351.43)"><tspan x="0" y="0">B</tspan></text><text class="cls-8" transform="translate(833.91 351.43) scale(.7)"><tspan x="0" y="0">AHAMAS</tspan></text><rect id="Cadre" class="cls-1" width="1728" height="1152"/></g></svg>