<?xml version="1.0" encoding="UTF-8"?><svg id="Calque_2" xmlns="http://www.w3.org/2000/svg" viewBox="0 0 886.94 591.29"><defs><style>.cls-1,.cls-2,.cls-3,.cls-4,.cls-5,.cls-6,.cls-7{fill:none;}.cls-2{stroke:#732828;}.cls-2,.cls-3,.cls-4,.cls-5,.cls-6,.cls-7{stroke-width:2px;}.cls-2,.cls-3,.cls-5,.cls-8,.cls-9,.cls-10,.cls-6,.cls-7{font-family:GillSans-Bold, 'Gill Sans';font-size:8.21px;font-weight:700;}.cls-3,.cls-4,.cls-6,.cls-7{stroke:#4b5192;}.cls-3,.cls-11,.cls-9{letter-spacing:0em;}.cls-12,.cls-8,.cls-9,.cls-10{fill:#fff;}.cls-5{stroke:#5e708a;}.cls-8,.cls-6{letter-spacing:0em;}.cls-13{letter-spacing:-.1em;}.cls-14{letter-spacing:-.09em;}.cls-15{letter-spacing:-.07em;}.cls-16{letter-spacing:-.06em;}.cls-17{letter-spacing:-.01em;}.cls-18{letter-spacing:-.01em;}.cls-19{letter-spacing:-.04em;}.cls-20{letter-spacing:-.03em;}</style></defs><g id="Etiquettes_pays"><text class="cls-7" transform="translate(235.08 70.85)"><tspan x="0" y="0">É</tspan></text><text class="cls-7" transform="translate(240.4 70.85) scale(.7)"><tspan class="cls-14" x="0" y="0">T</tspan><tspan class="cls-13" x="5.6" y="0">A</tspan><tspan x="11.62" y="0">TS</tspan></text><text class="cls-7" transform="translate(256.46 70.85)"><tspan x="0" y="0">-U</tspan></text><text class="cls-3" transform="translate(267.59 70.85) scale(.7)"><tspan x="0" y="0">NIS</tspan></text><text class="cls-10" transform="translate(235.08 70.85)"><tspan x="0" y="0">É</tspan></text><text class="cls-10" transform="translate(240.4 70.85) scale(.7)"><tspan class="cls-14" x="0" y="0">T</tspan><tspan class="cls-13" x="5.6" y="0">A</tspan><tspan x="11.62" y="0">TS</tspan></text><text class="cls-10" transform="translate(256.46 70.85)"><tspan x="0" y="0">-U</tspan></text><text class="cls-9" transform="translate(267.59 70.85) scale(.7)"><tspan x="0" y="0">NIS</tspan></text><text class="cls-2" transform="translate(214.08 183.24)"><tspan x="0" y="0">M</tspan></text><text class="cls-2" transform="translate(221.95 183.24) scale(.7)"><tspan x="0" y="0">EXIQUE</tspan></text><text class="cls-10" transform="translate(214.08 183.24)"><tspan x="0" y="0">M</tspan></text><text class="cls-10" transform="translate(221.95 183.24) scale(.7)"><tspan x="0" y="0">EXIQUE</tspan></text><text class="cls-2" transform="translate(339.85 296.74)"><tspan x="0" y="0">N</tspan></text><text class="cls-2" transform="translate(347.28 296.74) scale(.7)"><tspan x="0" y="0">ICAR</tspan><tspan class="cls-17" x="22.17" y="0">A</tspan><tspan x="28.9" y="0">G</tspan><tspan class="cls-19" x="35.46" y="0">U</tspan><tspan x="42.21" y="0">A</tspan></text><text class="cls-10" transform="translate(339.85 296.74)"><tspan x="0" y="0">N</tspan></text><text class="cls-10" transform="translate(347.28 296.74) scale(.7)"><tspan x="0" y="0">ICAR</tspan><tspan class="cls-17" x="22.17" y="0">A</tspan><tspan x="28.9" y="0">G</tspan><tspan class="cls-19" x="35.46" y="0">U</tspan><tspan x="42.21" y="0">A</tspan></text><text class="cls-7" transform="translate(386.64 332.65)"><tspan x="0" y="0">P</tspan></text><text class="cls-7" transform="translate(392.38 332.65) scale(.7)"><tspan x="0" y="0">A</tspan><tspan class="cls-18" x="6.84" y="0">N</tspan><tspan x="14.16" y="0">AMA</tspan></text><text class="cls-10" transform="translate(386.64 332.65)"><tspan x="0" y="0">P</tspan></text><text class="cls-10" transform="translate(392.38 332.65) scale(.7)"><tspan x="0" y="0">A</tspan><tspan class="cls-18" x="6.84" y="0">N</tspan><tspan x="14.16" y="0">AMA</tspan></text><text class="cls-2" transform="translate(402.44 199.47)"><tspan x="0" y="0">C</tspan></text><text class="cls-2" transform="translate(408.54 199.47) scale(.7)"><tspan x="0" y="0">U</tspan><tspan class="cls-20" x="7.11" y="0">B</tspan><tspan x="13.02" y="0">A</tspan></text><text class="cls-10" transform="translate(402.44 199.47)"><tspan x="0" y="0">C</tspan></text><text class="cls-10" transform="translate(408.54 199.47) scale(.7)"><tspan x="0" y="0">U</tspan><tspan class="cls-20" x="7.11" y="0">B</tspan><tspan x="13.02" y="0">A</tspan></text><text class="cls-7" transform="translate(442.34 226.12)"><tspan x="0" y="0">H</tspan></text><text class="cls-7" transform="translate(449.61 226.12) scale(.7)"><tspan x="0" y="0">AÏTI</tspan></text><text class="cls-10" transform="translate(442.34 226.12)"><tspan x="0" y="0">H</tspan></text><text class="cls-10" transform="translate(449.61 226.12) scale(.7)"><tspan x="0" y="0">AÏTI</tspan></text><text class="cls-7" transform="translate(478.3 228.72) scale(.7)"><tspan x="0" y="0">ÉP</tspan></text><path class="cls-4" d="M478.23,228.72h-1.8l-.44-.99c-.16-.36-.3-.62-.43-.79s-.25-.27-.38-.32-.28-.07-.47-.07h-.19v2.17h-1.68v-5.56h2.85c.46,0,.84.09,1.13.28.29.19.51.41.64.68.13.27.19.52.19.76,0,.28-.05.52-.16.71s-.22.33-.34.42-.25.17-.4.25c.18.1.33.23.44.37s.28.43.48.87l.56,1.21ZM475.96,224.92c0-.26-.08-.44-.25-.54-.17-.1-.44-.15-.82-.15h-.35v1.34h.36c.41,0,.69-.04.84-.13.15-.09.23-.26.23-.52Z"/><path class="cls-4" d="M481.72,228.72h-2.93v-3.89h2.89v.78h-1.71v.71h1.63v.78h-1.63v.83h1.76v.78ZM481.33,223.67l-1.04.89h-.54l.48-.89h1.09Z"/><path class="cls-4" d="M485.87,226.05c0,.14-.02.28-.07.42s-.13.27-.24.38c-.11.12-.26.21-.45.29-.19.07-.41.11-.66.11h-.77v1.46h-1.17v-3.89h1.94c.25,0,.48.04.66.11.19.08.34.17.45.29s.19.25.24.39c.05.14.07.28.07.43ZM484.68,226.06c0-.19-.05-.31-.17-.38-.11-.07-.3-.1-.59-.1h-.25v.94h.25c.19,0,.34-.01.45-.04s.18-.07.23-.13.07-.16.07-.28Z"/><path class="cls-4" d="M488.06,227.93c0,.24-.08.44-.25.61-.17.17-.37.25-.61.25s-.44-.08-.61-.25c-.17-.17-.26-.37-.26-.61s.08-.44.26-.61c.17-.17.38-.25.61-.25.15,0,.29.04.43.12s.24.18.31.31c.08.13.11.28.11.43Z"/><path class="cls-4" d="M463.25,235.89c0,.57-.1,1.03-.31,1.37-.21.34-.45.62-.73.84-.4.31-.96.47-1.67.47h-3v-5.56h2.31c.35,0,.64.02.89.05.25.04.47.09.67.15.2.07.37.14.51.22.14.08.26.17.37.26.19.16.36.34.5.55.14.21.26.46.34.73.08.28.13.58.13.91ZM461.55,235.82c0-.45-.09-.8-.26-1.06-.17-.25-.38-.42-.62-.51-.24-.09-.49-.13-.74-.13h-.71v3.29h.71c.44,0,.82-.1,1.14-.31.32-.21.48-.64.48-1.29Z"/><path class="cls-4" d="M468.24,236.62c0,.36-.08.7-.25,1-.17.3-.42.55-.75.73s-.73.27-1.21.27-.89-.09-1.22-.28c-.33-.19-.58-.43-.74-.74-.16-.31-.24-.63-.24-.98s.08-.68.24-.98c.16-.3.41-.55.74-.74.33-.19.74-.28,1.22-.28.36,0,.68.05.96.16.28.11.51.25.69.43s.32.4.41.64.14.5.14.76ZM467.05,236.62c0-.15-.02-.28-.06-.4s-.11-.23-.2-.31-.19-.16-.32-.21-.27-.07-.44-.07c-.31,0-.56.09-.74.27s-.27.42-.27.72.09.54.27.72c.18.18.43.28.74.28.22,0,.4-.04.55-.13.15-.08.27-.2.34-.35.08-.15.12-.32.12-.52Z"/><path class="cls-4" d="M473.5,238.57h-1.17v-2.25l-1.06,1.31h-.09l-1.06-1.31v2.25h-1.14v-3.89h1.06l1.2,1.46,1.2-1.46h1.06v3.89Z"/><path class="cls-4" d="M475.66,238.57h-1.17v-3.89h1.17v3.89Z"/><path class="cls-4" d="M480.86,238.57h-1.04l-2.02-2.17v2.17h-1.16v-3.89h1.04l2.01,2.16v-2.16h1.17v3.89Z"/><path class="cls-4" d="M483.02,238.57h-1.17v-3.89h1.17v3.89Z"/><path class="cls-4" d="M487.49,238.28c-.16.08-.33.15-.49.2-.17.05-.34.09-.51.11-.17.02-.35.03-.53.03-.34,0-.64-.05-.91-.14s-.5-.23-.7-.41-.34-.4-.44-.64c-.1-.24-.15-.51-.15-.8,0-.33.06-.63.17-.88.12-.25.28-.46.49-.63.21-.17.45-.29.71-.37.27-.08.55-.12.84-.12.44,0,.94.1,1.5.29v1.03c-.19-.12-.38-.22-.57-.3-.19-.08-.41-.12-.66-.12-.23,0-.44.04-.63.13-.2.09-.35.22-.47.38-.12.17-.18.36-.18.58,0,.2.05.38.16.54.1.16.25.29.44.39.19.1.4.14.63.14.19,0,.37-.02.54-.07.17-.05.31-.1.42-.15.12-.06.23-.12.36-.2v.99Z"/><path class="cls-4" d="M492.55,238.57h-1.2l-.32-.79h-1.69l-.32.79h-1.2l1.72-3.89h1.3l1.72,3.89ZM490.76,237.11l-.57-1.42-.58,1.42h1.15Z"/><path class="cls-4" d="M494.24,238.57h-1.17v-3.89h1.17v3.89Z"/><path class="cls-4" d="M499.45,238.57h-1.04l-2.02-2.17v2.17h-1.16v-3.89h1.04l2.01,2.16v-2.16h1.17v3.89Z"/><path class="cls-4" d="M503.36,238.57h-2.93v-3.89h2.89v.78h-1.71v.71h1.63v.78h-1.63v.83h1.76v.78Z"/><text class="cls-10" transform="translate(478.3 228.72) scale(.7)"><tspan x="0" y="0">ÉP</tspan></text><path class="cls-12" d="M478.23,228.72h-1.8l-.44-.99c-.16-.36-.3-.62-.43-.79s-.25-.27-.38-.32-.28-.07-.47-.07h-.19v2.17h-1.68v-5.56h2.85c.46,0,.84.09,1.13.28.29.19.51.41.64.68.13.27.19.52.19.76,0,.28-.05.52-.16.71s-.22.33-.34.42-.25.17-.4.25c.18.1.33.23.44.37s.28.43.48.87l.56,1.21ZM475.96,224.92c0-.26-.08-.44-.25-.54-.17-.1-.44-.15-.82-.15h-.35v1.34h.36c.41,0,.69-.04.84-.13.15-.09.23-.26.23-.52Z"/><path class="cls-12" d="M481.72,228.72h-2.93v-3.89h2.89v.78h-1.71v.71h1.63v.78h-1.63v.83h1.76v.78ZM481.33,223.67l-1.04.89h-.54l.48-.89h1.09Z"/><path class="cls-12" d="M485.87,226.05c0,.14-.02.28-.07.42s-.13.27-.24.38c-.11.12-.26.21-.45.29-.19.07-.41.11-.66.11h-.77v1.46h-1.17v-3.89h1.94c.25,0,.48.04.66.11.19.08.34.17.45.29s.19.25.24.39c.05.14.07.28.07.43ZM484.68,226.06c0-.19-.05-.31-.17-.38-.11-.07-.3-.1-.59-.1h-.25v.94h.25c.19,0,.34-.01.45-.04s.18-.07.23-.13.07-.16.07-.28Z"/><path class="cls-12" d="M488.06,227.93c0,.24-.08.44-.25.61-.17.17-.37.25-.61.25s-.44-.08-.61-.25c-.17-.17-.26-.37-.26-.61s.08-.44.26-.61c.17-.17.38-.25.61-.25.15,0,.29.04.43.12s.24.18.31.31c.08.13.11.28.11.43Z"/><path class="cls-12" d="M463.25,235.89c0,.57-.1,1.03-.31,1.37-.21.34-.45.62-.73.84-.4.31-.96.47-1.67.47h-3v-5.56h2.31c.35,0,.64.02.89.05.25.04.47.09.67.15.2.07.37.14.51.22.14.08.26.17.37.26.19.16.36.34.5.55.14.21.26.46.34.73.08.28.13.58.13.91ZM461.55,235.82c0-.45-.09-.8-.26-1.06-.17-.25-.38-.42-.62-.51-.24-.09-.49-.13-.74-.13h-.71v3.29h.71c.44,0,.82-.1,1.14-.31.32-.21.48-.64.48-1.29Z"/><path class="cls-12" d="M468.24,236.62c0,.36-.08.7-.25,1-.17.3-.42.55-.75.73s-.73.27-1.21.27-.89-.09-1.22-.28c-.33-.19-.58-.43-.74-.74-.16-.31-.24-.63-.24-.98s.08-.68.24-.98c.16-.3.41-.55.74-.74.33-.19.74-.28,1.22-.28.36,0,.68.05.96.16.28.11.51.25.69.43s.32.4.41.64.14.5.14.76ZM467.05,236.62c0-.15-.02-.28-.06-.4s-.11-.23-.2-.31-.19-.16-.32-.21-.27-.07-.44-.07c-.31,0-.56.09-.74.27s-.27.42-.27.72.09.54.27.72c.18.18.43.28.74.28.22,0,.4-.04.55-.13.15-.08.27-.2.34-.35.08-.15.12-.32.12-.52Z"/><path class="cls-12" d="M473.5,238.57h-1.17v-2.25l-1.06,1.31h-.09l-1.06-1.31v2.25h-1.14v-3.89h1.06l1.2,1.46,1.2-1.46h1.06v3.89Z"/><path class="cls-12" d="M475.66,238.57h-1.17v-3.89h1.17v3.89Z"/><path class="cls-12" d="M480.86,238.57h-1.04l-2.02-2.17v2.17h-1.16v-3.89h1.04l2.01,2.16v-2.16h1.17v3.89Z"/><path class="cls-12" d="M483.02,238.57h-1.17v-3.89h1.17v3.89Z"/><path class="cls-12" d="M487.49,238.28c-.16.08-.33.15-.49.2-.17.05-.34.09-.51.11-.17.02-.35.03-.53.03-.34,0-.64-.05-.91-.14s-.5-.23-.7-.41-.34-.4-.44-.64c-.1-.24-.15-.51-.15-.8,0-.33.06-.63.17-.88.12-.25.28-.46.49-.63.21-.17.45-.29.71-.37.27-.08.55-.12.84-.12.44,0,.94.1,1.5.29v1.03c-.19-.12-.38-.22-.57-.3-.19-.08-.41-.12-.66-.12-.23,0-.44.04-.63.13-.2.09-.35.22-.47.38-.12.17-.18.36-.18.58,0,.2.05.38.16.54.1.16.25.29.44.39.19.1.4.14.63.14.19,0,.37-.02.54-.07.17-.05.31-.1.42-.15.12-.06.23-.12.36-.2v.99Z"/><path class="cls-12" d="M492.55,238.57h-1.2l-.32-.79h-1.69l-.32.79h-1.2l1.72-3.89h1.3l1.72,3.89ZM490.76,237.11l-.57-1.42-.58,1.42h1.15Z"/><path class="cls-12" d="M494.24,238.57h-1.17v-3.89h1.17v3.89Z"/><path class="cls-12" d="M499.45,238.57h-1.04l-2.02-2.17v2.17h-1.16v-3.89h1.04l2.01,2.16v-2.16h1.17v3.89Z"/><path class="cls-12" d="M503.36,238.57h-2.93v-3.89h2.89v.78h-1.71v.71h1.63v.78h-1.63v.83h1.76v.78Z"/><text class="cls-7" transform="translate(336.7 267.95)"><tspan x="0" y="0">H</tspan></text><text class="cls-7" transform="translate(343.96 267.95) scale(.7)"><tspan class="cls-17" x="0" y="0">O</tspan><tspan x="6.87" y="0">NDURAS</tspan></text><text class="cls-10" transform="translate(336.7 267.95)"><tspan x="0" y="0">H</tspan></text><text class="cls-10" transform="translate(343.96 267.95) scale(.7)"><tspan class="cls-17" x="0" y="0">O</tspan><tspan x="6.87" y="0">NDURAS</tspan></text><text class="cls-7" transform="translate(297.8 286.43)"><tspan x="0" y="0">E</tspan></text><text class="cls-3" transform="translate(303.12 286.43) scale(.7)"><tspan x="0" y="0">L</tspan></text><text class="cls-7" transform="translate(306.75 286.43)"><tspan x="0" y="0" xml:space="preserve"> S</tspan></text><text class="cls-7" transform="translate(314.22 286.43) scale(.7)"><tspan x="0" y="0">A</tspan><tspan class="cls-13" x="6.84" y="0">L</tspan><tspan class="cls-15" x="11.22" y="0">V</tspan><tspan class="cls-11" x="16.83" y="0">ADOR</tspan></text><text class="cls-10" transform="translate(297.8 286.43)"><tspan x="0" y="0">E</tspan></text><text class="cls-9" transform="translate(303.12 286.43) scale(.7)"><tspan x="0" y="0">L</tspan></text><text class="cls-10" transform="translate(306.75 286.43)"><tspan x="0" y="0" xml:space="preserve"> S</tspan></text><text class="cls-10" transform="translate(314.22 286.43) scale(.7)"><tspan x="0" y="0">A</tspan><tspan class="cls-13" x="6.84" y="0">L</tspan><tspan class="cls-15" x="11.22" y="0">V</tspan><tspan class="cls-11" x="16.83" y="0">ADOR</tspan></text><text class="cls-7" transform="translate(291.99 272.03)"><tspan x="0" y="0">G</tspan></text><text class="cls-7" transform="translate(298.55 272.03) scale(.7)"><tspan class="cls-19" x="0" y="0">U</tspan><tspan class="cls-13" x="6.75" y="0">A</tspan><tspan x="12.77" y="0">TEMA</tspan><tspan class="cls-17" x="39.1" y="0">L</tspan><tspan class="cls-11" x="44.18" y="0">A</tspan></text><text class="cls-10" transform="translate(291.99 272.03)"><tspan x="0" y="0">G</tspan></text><text class="cls-10" transform="translate(298.55 272.03) scale(.7)"><tspan class="cls-19" x="0" y="0">U</tspan><tspan class="cls-13" x="6.75" y="0">A</tspan><tspan x="12.77" y="0">TEMA</tspan><tspan class="cls-17" x="39.1" y="0">L</tspan><tspan class="cls-11" x="44.18" y="0">A</tspan></text><text class="cls-7" transform="translate(350.11 321.12)"><tspan x="0" y="0">C</tspan></text><text class="cls-7" transform="translate(356.21 321.12) scale(.7)"><tspan x="0" y="0">OS</tspan><tspan class="cls-14" x="12.01" y="0">T</tspan><tspan x="17.62" y="0">A</tspan></text><text class="cls-6" transform="translate(373.33 321.12)"><tspan x="0" y="0" xml:space="preserve"> R</tspan></text><text class="cls-7" transform="translate(381.91 321.12) scale(.7)"><tspan x="0" y="0">ICA</tspan></text><text class="cls-10" transform="translate(350.11 321.12)"><tspan x="0" y="0">C</tspan></text><text class="cls-10" transform="translate(356.21 321.12) scale(.7)"><tspan x="0" y="0">OS</tspan><tspan class="cls-14" x="12.01" y="0">T</tspan><tspan x="17.62" y="0">A</tspan></text><text class="cls-8" transform="translate(373.33 321.12)"><tspan x="0" y="0" xml:space="preserve"> R</tspan></text><text class="cls-10" transform="translate(381.91 321.12) scale(.7)"><tspan x="0" y="0">ICA</tspan></text><text class="cls-7" transform="translate(443.47 382.99)"><tspan x="0" y="0">C</tspan></text><text class="cls-7" transform="translate(449.57 382.99) scale(.7)"><tspan x="0" y="0">O</tspan><tspan class="cls-16" x="6.99" y="0">L</tspan><tspan x="11.72" y="0">OMBIE</tspan></text><text class="cls-10" transform="translate(443.47 382.99)"><tspan x="0" y="0">C</tspan></text><text class="cls-10" transform="translate(449.57 382.99) scale(.7)"><tspan x="0" y="0">O</tspan><tspan class="cls-16" x="6.99" y="0">L</tspan><tspan x="11.72" y="0">OMBIE</tspan></text><text class="cls-2" transform="translate(403.02 437.97)"><tspan x="0" y="0">É</tspan></text><text class="cls-2" transform="translate(408.34 437.97) scale(.7)"><tspan x="0" y="0">Q</tspan><tspan class="cls-19" x="6.99" y="0">U</tspan><tspan class="cls-13" x="13.74" y="0">A</tspan><tspan x="19.76" y="0">TEUR</tspan></text><text class="cls-10" transform="translate(403.02 437.97)"><tspan x="0" y="0">É</tspan></text><text class="cls-10" transform="translate(408.34 437.97) scale(.7)"><tspan x="0" y="0">Q</tspan><tspan class="cls-19" x="6.99" y="0">U</tspan><tspan class="cls-13" x="13.74" y="0">A</tspan><tspan x="19.76" y="0">TEUR</tspan></text><text class="cls-7" transform="translate(428.27 517.77)"><tspan x="0" y="0">P</tspan></text><text class="cls-7" transform="translate(434.01 517.77) scale(.7)"><tspan x="0" y="0">ÉROU</tspan></text><text class="cls-10" transform="translate(428.27 517.77)"><tspan x="0" y="0">P</tspan></text><text class="cls-10" transform="translate(434.01 517.77) scale(.7)"><tspan x="0" y="0">ÉROU</tspan></text><text class="cls-7" transform="translate(581.6 505.47)"><tspan x="0" y="0">B</tspan></text><text class="cls-7" transform="translate(587.75 505.47) scale(.7)"><tspan x="0" y="0">RÉSIL</tspan></text><text class="cls-10" transform="translate(581.6 505.47)"><tspan x="0" y="0">B</tspan></text><text class="cls-10" transform="translate(587.75 505.47) scale(.7)"><tspan x="0" y="0">RÉSIL</tspan></text><text class="cls-2" transform="translate(503.92 572.76)"><tspan x="0" y="0">B</tspan></text><text class="cls-2" transform="translate(510.07 572.76) scale(.7)"><tspan x="0" y="0">OLIVIE</tspan></text><text class="cls-10" transform="translate(503.92 572.76)"><tspan x="0" y="0">B</tspan></text><text class="cls-10" transform="translate(510.07 572.76) scale(.7)"><tspan x="0" y="0">OLIVIE</tspan></text><text class="cls-5" transform="translate(499.17 341.66)"><tspan x="0" y="0">V</tspan></text><text class="cls-5" transform="translate(505.37 341.66) scale(.7)"><tspan x="0" y="0">ÉNÉZUÉ</tspan><tspan class="cls-18" x="36.46" y="0">L</tspan><tspan x="41.54" y="0">A</tspan></text><text class="cls-10" transform="translate(499.17 341.66)"><tspan x="0" y="0">V</tspan></text><text class="cls-10" transform="translate(505.37 341.66) scale(.7)"><tspan x="0" y="0">ÉNÉZUÉ</tspan><tspan class="cls-18" x="36.46" y="0">L</tspan><tspan x="41.54" y="0">A</tspan></text><text class="cls-7" transform="translate(547.77 318.99)"><tspan x="0" y="0">T</tspan></text><text class="cls-7" transform="translate(554.08 318.99) scale(.7)"><tspan x="0" y="0">RINITÉ</tspan></text><text class="cls-7" transform="translate(576.04 318.99)"><tspan x="0" y="0">-</tspan></text><text class="cls-7" transform="translate(580.06 318.99) scale(.7)"><tspan x="0" y="0">ET</tspan></text><text class="cls-7" transform="translate(588.2 318.99)"><tspan x="0" y="0">-T</tspan></text><text class="cls-7" transform="translate(598.53 318.99) scale(.7)"><tspan x="0" y="0">O</tspan><tspan class="cls-20" x="6.99" y="0">B</tspan><tspan class="cls-18" x="12.9" y="0">A</tspan><tspan x="19.63" y="0">GO</tspan></text><text class="cls-10" transform="translate(547.77 318.99)"><tspan x="0" y="0">T</tspan></text><text class="cls-10" transform="translate(554.08 318.99) scale(.7)"><tspan x="0" y="0">RINITÉ</tspan></text><text class="cls-10" transform="translate(576.04 318.99)"><tspan x="0" y="0">-</tspan></text><text class="cls-10" transform="translate(580.06 318.99) scale(.7)"><tspan x="0" y="0">ET</tspan></text><text class="cls-10" transform="translate(588.2 318.99)"><tspan x="0" y="0">-T</tspan></text><text class="cls-10" transform="translate(598.53 318.99) scale(.7)"><tspan x="0" y="0">O</tspan><tspan class="cls-20" x="6.99" y="0">B</tspan><tspan class="cls-18" x="12.9" y="0">A</tspan><tspan x="19.63" y="0">GO</tspan></text><text class="cls-7" transform="translate(421.87 180.38)"><tspan x="0" y="0">B</tspan></text><text class="cls-7" transform="translate(428.03 180.38) scale(.7)"><tspan x="0" y="0">AHAMAS</tspan></text><text class="cls-10" transform="translate(421.87 180.38)"><tspan x="0" y="0">B</tspan></text><text class="cls-10" transform="translate(428.03 180.38) scale(.7)"><tspan x="0" y="0">AHAMAS</tspan></text><rect id="Cadre" class="cls-1" width="886.94" height="591.29"/></g></svg>