<?xml version="1.0" encoding="UTF-8"?><svg id="Calque_2" xmlns="http://www.w3.org/2000/svg" viewBox="0 0 1728 1152"><defs><style>.cls-1,.cls-2,.cls-3{fill:none;}.cls-2{stroke:#773232;}.cls-2,.cls-4,.cls-3{font-family:GillSans-Bold, 'Gill Sans';font-size:16px;font-weight:700;}.cls-2,.cls-3{stroke-width:2px;}.cls-5{letter-spacing:0em;}.cls-4{fill:#fff;}.cls-3{stroke:#ba9090;}.cls-6{letter-spacing:-.01em;}.cls-7{letter-spacing:-.04em;}.cls-8{letter-spacing:-.03em;}</style></defs><g id="Etiquettes_pays"><text class="cls-2" transform="translate(662.13 578.14)"><tspan x="0" y="0">N</tspan></text><text class="cls-2" transform="translate(676.6 578.14) scale(.7)"><tspan x="0" y="0">ICAR</tspan><tspan class="cls-6" x="43.2" y="0">A</tspan><tspan class="cls-5" x="56.3" y="0">G</tspan><tspan class="cls-7" x="69.09" y="0">U</tspan><tspan class="cls-5" x="82.24" y="0">A</tspan></text><text class="cls-4" transform="translate(662.13 578.14)"><tspan x="0" y="0">N</tspan></text><text class="cls-4" transform="translate(676.6 578.14) scale(.7)"><tspan x="0" y="0">ICAR</tspan><tspan class="cls-6" x="43.2" y="0">A</tspan><tspan class="cls-5" x="56.3" y="0">G</tspan><tspan class="cls-7" x="69.09" y="0">U</tspan><tspan class="cls-5" x="82.24" y="0">A</tspan></text><text class="cls-2" transform="translate(784.07 388.63)"><tspan x="0" y="0">C</tspan></text><text class="cls-2" transform="translate(795.96 388.63) scale(.7)"><tspan x="0" y="0">U</tspan><tspan class="cls-8" x="13.84" y="0">B</tspan><tspan class="cls-5" x="25.37" y="0">A</tspan></text><text class="cls-4" transform="translate(784.07 388.63)"><tspan x="0" y="0">C</tspan></text><text class="cls-4" transform="translate(795.96 388.63) scale(.7)"><tspan x="0" y="0">U</tspan><tspan class="cls-8" x="13.84" y="0">B</tspan><tspan class="cls-5" x="25.37" y="0">A</tspan></text><text class="cls-3" transform="translate(834.3941 1008.7581)"><tspan x="0" y="0">P</tspan></text><text class="cls-3" transform="translate(845.5816 1008.7581) scale(.7)"><tspan x="0" y="0">ÉROU</tspan></text><text class="cls-4" transform="translate(834.3941 1008.7581)"><tspan x="0" y="0">P</tspan></text><text class="cls-4" transform="translate(845.5816 1008.7581) scale(.7)"><tspan x="0" y="0">ÉROU</tspan></text><text class="cls-3" transform="translate(1133.116 984.7887)"><tspan x="0" y="0">B</tspan></text><text class="cls-3" transform="translate(1145.1004 984.7887) scale(.7)"><tspan x="0" y="0">RÉSIL</tspan></text><text class="cls-4" transform="translate(1133.116 984.7887)"><tspan x="0" y="0">B</tspan></text><text class="cls-4" transform="translate(1145.1004 984.7887) scale(.7)"><tspan x="0" y="0">RÉSIL</tspan></text><text class="cls-3" transform="translate(981.7803 1115.9039)"><tspan x="0" y="0">B</tspan></text><text class="cls-3" transform="translate(993.7647 1115.9039) scale(.7)"><tspan x="0" y="0">OLIVIE</tspan></text><text class="cls-4" transform="translate(981.7803 1115.9039)"><tspan x="0" y="0">B</tspan></text><text class="cls-4" transform="translate(993.7647 1115.9039) scale(.7)"><tspan x="0" y="0">OLIVIE</tspan></text><text class="cls-2" transform="translate(972.52 665.65)"><tspan x="0" y="0">V</tspan></text><text class="cls-2" transform="translate(984.6 665.65) scale(.7)"><tspan x="0" y="0">ÉNÉZUÉ</tspan><tspan class="cls-6" x="71.04" y="0">L</tspan><tspan x="80.94" y="0">A</tspan></text><text class="cls-4" transform="translate(972.52 665.65)"><tspan x="0" y="0">V</tspan></text><text class="cls-4" transform="translate(984.6 665.65) scale(.7)"><tspan x="0" y="0">ÉNÉZUÉ</tspan><tspan class="cls-6" x="71.04" y="0">L</tspan><tspan x="80.94" y="0">A</tspan></text><rect id="Cadre" class="cls-1" width="1728" height="1152"/></g></svg>