<?xml version="1.0" encoding="UTF-8"?><svg id="Calque_2" xmlns="http://www.w3.org/2000/svg" viewBox="0 0 886.94 591.29"><defs><style>.cls-1,.cls-2,.cls-3{fill:none;}.cls-2{stroke:#783333;}.cls-2,.cls-3,.cls-4{font-family:GillSans-Bold, 'Gill Sans';font-size:8.21px;font-weight:700;}.cls-3{stroke:#bb9191;}.cls-4{fill:#fff;}.cls-5{letter-spacing:-.01em;}.cls-6{letter-spacing:-.01em;}.cls-7{letter-spacing:-.04em;}.cls-8{letter-spacing:-.03em;}</style></defs><g id="Etiquettes_pays"><text class="cls-2" transform="translate(339.85 296.74)"><tspan x="0" y="0">N</tspan></text><text class="cls-2" transform="translate(347.28 296.74) scale(.7)"><tspan x="0" y="0">ICAR</tspan><tspan class="cls-5" x="22.17" y="0">A</tspan><tspan x="28.9" y="0">G</tspan><tspan class="cls-7" x="35.46" y="0">U</tspan><tspan x="42.21" y="0">A</tspan></text><text class="cls-4" transform="translate(339.85 296.74)"><tspan x="0" y="0">N</tspan></text><text class="cls-4" transform="translate(347.28 296.74) scale(.7)"><tspan x="0" y="0">ICAR</tspan><tspan class="cls-5" x="22.17" y="0">A</tspan><tspan x="28.9" y="0">G</tspan><tspan class="cls-7" x="35.46" y="0">U</tspan><tspan x="42.21" y="0">A</tspan></text><text class="cls-2" transform="translate(402.44 199.47)"><tspan x="0" y="0">C</tspan></text><text class="cls-2" transform="translate(408.54 199.47) scale(.7)"><tspan x="0" y="0">U</tspan><tspan class="cls-8" x="7.11" y="0">B</tspan><tspan x="13.02" y="0">A</tspan></text><text class="cls-4" transform="translate(402.44 199.47)"><tspan x="0" y="0">C</tspan></text><text class="cls-4" transform="translate(408.54 199.47) scale(.7)"><tspan x="0" y="0">U</tspan><tspan class="cls-8" x="7.11" y="0">B</tspan><tspan x="13.02" y="0">A</tspan></text><text class="cls-3" transform="translate(428.27 517.77)"><tspan x="0" y="0">P</tspan></text><text class="cls-3" transform="translate(434.01 517.77) scale(.7)"><tspan x="0" y="0">ÉROU</tspan></text><text class="cls-4" transform="translate(428.27 517.77)"><tspan x="0" y="0">P</tspan></text><text class="cls-4" transform="translate(434.01 517.77) scale(.7)"><tspan x="0" y="0">ÉROU</tspan></text><text class="cls-3" transform="translate(581.6 505.47)"><tspan x="0" y="0">B</tspan></text><text class="cls-3" transform="translate(587.75 505.47) scale(.7)"><tspan x="0" y="0">RÉSIL</tspan></text><text class="cls-4" transform="translate(581.6 505.47)"><tspan x="0" y="0">B</tspan></text><text class="cls-4" transform="translate(587.75 505.47) scale(.7)"><tspan x="0" y="0">RÉSIL</tspan></text><text class="cls-3" transform="translate(503.92 572.76)"><tspan x="0" y="0">B</tspan></text><text class="cls-3" transform="translate(510.07 572.76) scale(.7)"><tspan x="0" y="0">OLIVIE</tspan></text><text class="cls-4" transform="translate(503.92 572.76)"><tspan x="0" y="0">B</tspan></text><text class="cls-4" transform="translate(510.07 572.76) scale(.7)"><tspan x="0" y="0">OLIVIE</tspan></text><text class="cls-2" transform="translate(499.17 341.66)"><tspan x="0" y="0">V</tspan></text><text class="cls-2" transform="translate(505.37 341.66) scale(.7)"><tspan x="0" y="0">ÉNÉZUÉ</tspan><tspan class="cls-6" x="36.46" y="0">L</tspan><tspan x="41.54" y="0">A</tspan></text><text class="cls-4" transform="translate(499.17 341.66)"><tspan x="0" y="0">V</tspan></text><text class="cls-4" transform="translate(505.37 341.66) scale(.7)"><tspan x="0" y="0">ÉNÉZUÉ</tspan><tspan class="cls-6" x="36.46" y="0">L</tspan><tspan x="41.54" y="0">A</tspan></text><rect id="Cadre" class="cls-1" width="886.94" height="591.29"/></g></svg>