<?xml version="1.0" encoding="UTF-8"?><svg id="Calque_2" xmlns="http://www.w3.org/2000/svg" viewBox="0 0 1728 1152"><defs><style>.cls-1,.cls-2{fill:none;}.cls-3{fill:#fff;}.cls-2{stroke:#000;stroke-miterlimit:10;stroke-width:.75px;}.cls-4{fill:#0b2256;}</style></defs><g id="Bases_2"><rect class="cls-3" x="845.66" y="412.2" width="18" height="18" transform="translate(-47.51 727.7) rotate(-45)"/><path class="cls-4" d="M854.66,410.59l10.61,10.61-10.61,10.61-10.61-10.61,10.61-10.61M854.66,406.35l-14.85,14.85,14.85,14.85,14.85-14.85-14.85-14.85h0Z"/><path class="cls-4" d="M861.01,420.04c-.7.24-2.09,1.44-2.39,2.67.26.07.53.05.78,0-.91,1.69-2.4,2.36-3.16,2.59-.29.09-.05.01-.05.01-.1.03-.21,0-.3-.06s-.13-.16-.13-.27v-.07s-.05-6.5-.05-6.5h1.22c.12.25.37.43.67.43.4,0,.73-.33.73-.73s-.33-.73-.73-.73c-.3,0-.55.18-.67.43h-1.23v-1.39s-.01-.07-.01-.07c0-.12.06-.23.15-.29,0,0,.06-.02.15-.1.34-.29.55-.71.55-1.18,0-.86-.7-1.56-1.56-1.56s-1.56.7-1.56,1.56c0,.47.21.9.55,1.18.09.08.15.1.15.1.1.06.16.17.15.29v.07s-.01,1.39-.01,1.39h-1.23c-.12-.25-.37-.43-.67-.43-.41,0-.73.33-.73.73s.33.73.73.73c.3,0,.55-.18.67-.43h1.22l-.05,6.5v.07c0,.11-.05.21-.14.27s-.19.09-.3.06c0,0,.24.08-.05-.01-.76-.24-2.25-.9-3.16-2.59.25.05.53.06.78,0-.3-1.23-1.68-2.44-2.39-2.67-.7.79-.85,2.42-.35,3.58.29-.11.53-.34.72-.56.3.76,1.57,3.35,5.08,4.4.18.06.39.16.57.22.17-.07.38-.17.57-.22,3.51-1.05,4.77-3.64,5.08-4.4.19.22.43.45.72.56.5-1.16.35-2.79-.35-3.58ZM849.71,422.54c.03-.06.05-.1.05-.1,0,0,.02,0,.05.03l-.1.07ZM855,415.54c-.42,0-.76-.34-.76-.76s.34-.76.76-.76.76.34.76.76-.34.76-.76.76ZM860.19,422.46s.05-.03.05-.03c0,0,.02.04.05.1l-.1-.07Z"/><circle class="cls-2" cx="654.57" cy="551.52" r="7.22"/><path class="cls-4" d="M654.57,557.74c-3.43,0-6.22-2.79-6.22-6.22s2.79-6.22,6.22-6.22,6.22,2.79,6.22,6.22-2.79,6.22-6.22,6.22Z"/><path class="cls-3" d="M654.57,546.31c2.88,0,5.22,2.34,5.22,5.22s-2.34,5.22-5.22,5.22-5.22-2.34-5.22-5.22,2.34-5.22,5.22-5.22M654.57,544.31c-3.99,0-7.22,3.23-7.22,7.22s3.23,7.22,7.22,7.22,7.22-3.23,7.22-7.22-3.23-7.22-7.22-7.22h0Z"/><circle class="cls-2" cx="955.28" cy="576" r="7.22"/><path class="cls-4" d="M955.28,582.22c-3.43,0-6.22-2.79-6.22-6.22s2.79-6.22,6.22-6.22,6.22,2.79,6.22,6.22-2.79,6.22-6.22,6.22Z"/><path class="cls-3" d="M955.28,570.78c2.88,0,5.22,2.34,5.22,5.22s-2.34,5.22-5.22,5.22-5.22-2.34-5.22-5.22,2.34-5.22,5.22-5.22M955.28,568.78c-3.99,0-7.22,3.23-7.22,7.22s3.23,7.22,7.22,7.22,7.22-3.23,7.22-7.22-3.23-7.22-7.22-7.22h0Z"/><rect class="cls-3" x="663.57" y="524.26" width="18" height="18" transform="translate(-180.08 631.77) rotate(-45)"/><path class="cls-4" d="M672.57,522.66l10.61,10.61-10.61,10.61-10.61-10.61,10.61-10.61M672.57,518.41l-14.85,14.85,14.85,14.85,14.85-14.85-14.85-14.85h0Z"/><path class="cls-4" d="M671.82,527.21l-.35,2.88-.36,1.08v.54s-3.31,2.64-3.31,2.64v-.89c0-.26-.06-.48-.14-.48s-.13.22-.13.48v2.58s.28,0,.28,0v-.36s3.68-.01,3.68-.01v1.08s-1.79,1.51-1.79,1.51v.78s.24.24.24.24h1.56s0-.19,0-.19h.36s0-1.08,0-1.08h.06s.19,1.44.19,1.44h.96s.17-1.44.17-1.44h.06s0,1.08,0,1.08h.36s0,.18,0,.18h1.56s.24-.25.24-.25v-.78s-1.81-1.49-1.81-1.49v-1.08s3.68-.01,3.68-.01v.36s.27,0,.27,0v-2.58c-.01-.26-.07-.48-.15-.48s-.13.22-.13.48v.89s-3.33-2.61-3.33-2.61v-.54s-.37-1.08-.37-1.08l-.37-2.88c-.49-2.16-.61-2.16-.73-2.15s-.24,0-.71,2.16Z"/><rect id="Cadre" class="cls-1" width="1728" height="1152"/><rect class="cls-3" x="989.13" y="446.38" width="18" height="18" transform="translate(-29.66 839.14) rotate(-45)"/><path class="cls-4" d="M998.13,444.77l10.61,10.61-10.61,10.61-10.61-10.61,10.61-10.61M998.13,440.53l-14.85,14.85,14.85,14.85,14.85-14.85-14.85-14.85h0Z"/><path class="cls-4" d="M1004.49,454.22c-.7.24-2.09,1.44-2.39,2.67.26.07.53.05.78,0-.91,1.69-2.4,2.36-3.16,2.59-.29.09-.05.01-.05.01-.1.03-.21,0-.3-.06s-.13-.16-.13-.27v-.07s-.05-6.5-.05-6.5h1.22c.12.25.37.43.67.43.4,0,.73-.33.73-.73s-.33-.73-.73-.73c-.3,0-.55.18-.67.43h-1.23v-1.39s-.01-.07-.01-.07c0-.12.06-.23.15-.29,0,0,.06-.02.15-.1.34-.29.55-.71.55-1.18,0-.86-.7-1.56-1.56-1.56s-1.56.7-1.56,1.56c0,.47.21.9.55,1.18.09.08.15.1.15.1.1.06.16.17.15.29v.07s-.01,1.39-.01,1.39h-1.23c-.12-.25-.37-.43-.67-.43-.41,0-.73.33-.73.73s.33.73.73.73c.3,0,.55-.18.67-.43h1.22l-.05,6.5v.07c0,.11-.05.21-.14.27s-.19.09-.3.06c0,0,.24.08-.05-.01-.76-.24-2.25-.9-3.16-2.59.25.05.53.06.78,0-.3-1.23-1.68-2.44-2.39-2.67-.7.79-.85,2.42-.35,3.58.29-.11.53-.34.72-.56.3.76,1.57,3.35,5.08,4.4.18.06.39.16.57.22.17-.07.38-.17.57-.22,3.51-1.05,4.77-3.64,5.08-4.4.19.22.43.45.72.56.5-1.16.35-2.79-.35-3.58ZM993.18,456.71c.03-.06.05-.1.05-.1,0,0,.02,0,.05.03l-.1.07ZM998.47,449.72c-.42,0-.76-.34-.76-.76s.34-.76.76-.76.76.34.76.76-.34.76-.76.76ZM1003.66,456.64s.05-.03.05-.03c0,0,.02.04.05.1l-.1-.07Z"/></g></svg>