<?xml version="1.0" encoding="UTF-8"?><svg id="Calque_2" xmlns="http://www.w3.org/2000/svg" viewBox="0 0 886.94 591.29"><defs><style>.cls-1,.cls-2{fill:none;}.cls-3{fill:#202b51;}.cls-2{stroke:#010101;stroke-miterlimit:10;stroke-width:.75px;}.cls-4{fill:#fff;}</style></defs><g id="Etiquettes_pays"><rect id="Cadre" class="cls-1" width="886.94" height="591.29"/></g><g id="Bases_2"><rect class="cls-4" x="433.78" y="211.3" width="9.78" height="9.78" transform="translate(-24.39 373.49) rotate(-45)"/><path class="cls-3" d="M438.67,209.98l6.21,6.21-6.21,6.21-6.21-6.21,6.21-6.21M438.67,208.57l-7.62,7.62,7.62,7.62,7.62-7.62-7.62-7.62h0Z"/><path class="cls-3" d="M441.94,215.6c-.36.12-1.07.74-1.23,1.37.13.04.27.03.4,0-.47.87-1.23,1.21-1.62,1.33-.15.05-.02,0-.02,0-.05.01-.11,0-.15-.03s-.07-.08-.07-.14v-.03s-.03-3.34-.03-3.34h.63c.06.13.19.22.34.22.21,0,.38-.17.38-.38s-.17-.38-.38-.38c-.15,0-.28.09-.34.22h-.63v-.71s0-.04,0-.04c0-.06.03-.12.08-.15,0,0,.03-.01.08-.05.17-.15.28-.36.28-.61,0-.44-.36-.8-.8-.8s-.8.36-.8.8c0,.24.11.46.28.61.05.04.08.05.08.05.05.03.08.09.08.15v.04s0,.71,0,.71h-.63c-.06-.13-.19-.22-.34-.22-.21,0-.38.17-.38.38s.17.38.38.38c.15,0,.28-.09.34-.22h.63l-.03,3.34v.03c0,.05-.03.11-.07.14s-.1.05-.15.03c0,0,.12.04-.02,0-.39-.12-1.15-.46-1.62-1.33.13.02.27.03.4,0-.15-.63-.86-1.25-1.23-1.37-.36.41-.44,1.24-.18,1.84.15-.06.27-.17.37-.29.16.39.81,1.72,2.6,2.26.09.03.2.08.29.11.09-.03.2-.09.29-.11,1.8-.54,2.45-1.87,2.61-2.26.1.12.22.23.37.29.26-.6.18-1.43-.18-1.84ZM436.13,216.88s.03-.05.03-.05c0,0,0,0,.03.01l-.05.04ZM438.85,213.29c-.22,0-.39-.18-.39-.39s.18-.39.39-.39.39.18.39.39-.18.39-.39.39ZM441.51,216.84s.03-.01.03-.01c0,0,0,.02.03.05l-.05-.04Z"/><circle class="cls-2" cx="335.97" cy="283.08" r="3.7"/><path class="cls-3" d="M335.97,285.79c-1.49,0-2.7-1.21-2.7-2.7s1.21-2.7,2.7-2.7,2.7,1.21,2.7,2.7-1.21,2.7-2.7,2.7Z"/><path class="cls-4" d="M335.97,281.38c.94,0,1.7.76,1.7,1.7s-.76,1.7-1.7,1.7-1.7-.76-1.7-1.7.76-1.7,1.7-1.7M335.97,279.38c-2.05,0-3.7,1.66-3.7,3.7s1.66,3.7,3.7,3.7,3.7-1.66,3.7-3.7-1.66-3.7-3.7-3.7h0Z"/><circle class="cls-2" cx="490.32" cy="295.65" r="3.7"/><circle class="cls-3" cx="490.32" cy="295.65" r="2.7"/><path class="cls-4" d="M490.32,293.94c.94,0,1.7.76,1.7,1.7s-.76,1.7-1.7,1.7-1.7-.76-1.7-1.7.76-1.7,1.7-1.7M490.32,291.94c-2.05,0-3.7,1.66-3.7,3.7s1.66,3.7,3.7,3.7,3.7-1.66,3.7-3.7-1.66-3.7-3.7-3.7h0Z"/><rect class="cls-4" x="340.32" y="268.82" width="9.78" height="9.78" transform="translate(-92.43 324.27) rotate(-45)"/><path class="cls-3" d="M345.21,267.5l6.21,6.21-6.21,6.21-6.21-6.21,6.21-6.21M345.21,266.09l-7.62,7.62,7.62,7.62,7.62-7.62-7.62-7.62h0Z"/><path class="cls-3" d="M344.83,270.6l-.18,1.48-.18.55v.28s-1.7,1.35-1.7,1.35v-.46c0-.13-.03-.25-.07-.25s-.07.11-.07.25v1.32s.14,0,.14,0v-.18s1.89,0,1.89,0v.55s-.92.77-.92.77v.4s.13.12.13.12h.8s0-.1,0-.1h.18s0-.55,0-.55h.03s.1.74.1.74h.49s.09-.74.09-.74h.03s0,.55,0,.55h.18s0,.09,0,.09h.8s.12-.13.12-.13v-.4s-.93-.77-.93-.77v-.55s1.89,0,1.89,0v.18s.14,0,.14,0v-1.32c0-.13-.04-.25-.08-.25s-.07.11-.07.25v.46s-1.71-1.34-1.71-1.34v-.28s-.19-.55-.19-.55l-.19-1.48c-.25-1.11-.31-1.11-.37-1.11s-.12,0-.36,1.11Z"/><rect id="Cadre-2" class="cls-1" width="886.94" height="591.29"/><rect class="cls-4" x="507.43" y="228.84" width="9.78" height="9.78" transform="translate(-15.23 430.7) rotate(-45)"/><path class="cls-3" d="M512.32,227.52l6.21,6.21-6.21,6.21-6.21-6.21,6.21-6.21M512.32,226.11l-7.62,7.62,7.62,7.62,7.62-7.62-7.62-7.62h0Z"/><path class="cls-3" d="M515.58,233.14c-.36.12-1.07.74-1.23,1.37.13.04.27.03.4,0-.47.87-1.23,1.21-1.62,1.33-.15.05-.02,0-.02,0-.05.01-.11,0-.15-.03s-.07-.08-.07-.14v-.03s-.03-3.34-.03-3.34h.63c.06.13.19.22.34.22.21,0,.38-.17.38-.38s-.17-.38-.38-.38c-.15,0-.28.09-.34.22h-.63v-.71s0-.04,0-.04c0-.06.03-.12.08-.15,0,0,.03-.01.08-.05.17-.15.28-.36.28-.61,0-.44-.36-.8-.8-.8s-.8.36-.8.8c0,.24.11.46.28.61.05.04.08.05.08.05.05.03.08.09.08.15v.04s0,.71,0,.71h-.63c-.06-.13-.19-.22-.34-.22-.21,0-.38.17-.38.38s.17.38.38.38c.15,0,.28-.09.34-.22h.63l-.03,3.34v.03c0,.05-.03.11-.07.14s-.1.05-.15.03c0,0,.12.04-.02,0-.39-.12-1.15-.46-1.62-1.33.13.02.27.03.4,0-.15-.63-.86-1.25-1.23-1.37-.36.41-.44,1.24-.18,1.84.15-.06.27-.17.37-.29.16.39.81,1.72,2.6,2.26.09.03.2.08.29.11.09-.03.2-.09.29-.11,1.8-.54,2.45-1.87,2.61-2.26.1.12.22.23.37.29.26-.6.18-1.43-.18-1.84ZM509.77,234.42s.03-.05.03-.05c0,0,0,0,.03.01l-.05.04ZM512.49,230.83c-.22,0-.39-.18-.39-.39s.18-.39.39-.39.39.18.39.39-.18.39-.39.39ZM515.15,234.38s.03-.01.03-.01c0,0,0,.02.03.05l-.05-.04Z"/></g></svg>