<?xml version="1.0" encoding="UTF-8"?><svg id="Calque_2" xmlns="http://www.w3.org/2000/svg" viewBox="0 0 886.94 591.29"><defs><style>.cls-1{fill:none;}.cls-2{fill:#1d1d1b;font-family:GillSans, 'Gill Sans';font-size:5px;}</style></defs><g id="Etiquettes_bassins_pétroliers"><text class="cls-2" transform="translate(467.66 335.67) rotate(-6.82)"><tspan x="0" y="0">L</tspan></text><text class="cls-2" transform="translate(469.99 335.4) rotate(-10.74)"><tspan x="0" y="0">a</tspan></text><text class="cls-2" transform="translate(471.99 335.02) rotate(-14.94)"><tspan x="0" y="0">c</tspan></text><text class="cls-2" transform="translate(474.01 334.47) rotate(-18.75)"><tspan x="0" y="0"> </tspan></text><text class="cls-2" transform="translate(475.34 334.1) rotate(-25.41)"><tspan x="0" y="0">M</tspan></text><text class="cls-2" transform="translate(478.89 332.34) rotate(-34.23)"><tspan x="0" y="0">a</tspan></text><text class="cls-2" transform="translate(480.65 331.14) rotate(-40.56)"><tspan x="0" y="0">r</tspan></text><text class="cls-2" transform="translate(482.14 329.87) rotate(-46.99)"><tspan x="0" y="0">a</tspan></text><text class="cls-2" transform="translate(483.6 328.31) rotate(-53.86)"><tspan x="0" y="0">c</tspan></text><text class="cls-2" transform="translate(484.87 326.56) rotate(-60.42)"><tspan x="0" y="0">a</tspan></text><text class="cls-2" transform="translate(485.87 324.77) rotate(-64.96)"><tspan x="0" y="0">i</tspan></text><text class="cls-2" transform="translate(486.34 323.84) rotate(-69.88)"><tspan x="0" y="0">b</tspan></text><text class="cls-2" transform="translate(487.2 321.51) rotate(-76.93)"><tspan x="0" y="0">o</tspan></text><text class="cls-2" transform="translate(510.55 343.32) rotate(6.33)"><tspan x="0" y="0">C</tspan></text><text class="cls-2" transform="translate(513.91 343.68) rotate(4.16)"><tspan x="0" y="0">e</tspan></text><text class="cls-2" transform="translate(516.08 343.83) rotate(2.9)"><tspan x="0" y="0">i</tspan></text><text class="cls-2" transform="translate(516.97 343.89) rotate(1.53)"><tspan x="0" y="0">n</tspan></text><text class="cls-2" transform="translate(519.3 343.95)"><tspan x="0" y="0">t</tspan></text><text class="cls-2" transform="translate(520.79 343.95) rotate(-1.98)"><tspan x="0" y="0">u</tspan></text><text class="cls-2" transform="translate(523.09 343.87) rotate(-4.03)"><tspan x="0" y="0">r</tspan></text><text class="cls-2" transform="translate(524.78 343.76) rotate(-6.03)"><tspan x="0" y="0">e</tspan></text><text class="cls-2" transform="translate(527 343.52) rotate(-7.94)"><tspan x="0" y="0"> </tspan></text><text class="cls-2" transform="translate(528.24 343.39) rotate(-10.99)"><tspan x="0" y="0">O</tspan></text><text class="cls-2" transform="translate(532.15 342.6) rotate(-14.69)"><tspan x="0" y="0">r</tspan></text><text class="cls-2" transform="translate(533.93 342.14) rotate(-17.47)"><tspan x="0" y="0">é</tspan></text><text class="cls-2" transform="translate(536.08 341.47) rotate(-20.79)"><tspan x="0" y="0">n</tspan></text><text class="cls-2" transform="translate(538.32 340.63) rotate(-24.73)"><tspan x="0" y="0">o</tspan></text><text class="cls-2" transform="translate(540.73 339.52) rotate(-29.01)"><tspan x="0" y="0">q</tspan></text><text class="cls-2" transform="translate(542.87 338.34) rotate(-33.64)"><tspan x="0" y="0">u</tspan></text><text class="cls-2" transform="translate(544.9 336.99) rotate(-39)"><tspan x="0" y="0">e</tspan></text></g><g id="Symboles_Pétrole"><rect id="Cadre" class="cls-1" width="886.94" height="591.29"/></g></svg>