<?xml version="1.0" encoding="UTF-8"?><svg id="Calque_2" xmlns="http://www.w3.org/2000/svg" viewBox="0 0 886.94 591.29"><defs><style>.cls-1{fill:none;}.cls-2{fill:#010101;}.cls-3{fill:#5c6eb3;}.cls-4{fill:#fff;}</style></defs><g id="Raffineries_US_pétrole_sable"><g id="Raffinerie_1"><path class="cls-2" d="M317.31,111.45l3.49,3.49-3.49,3.49-3.49-3.49,3.49-3.49M317.31,111.09l-.18.18-3.49,3.49-.18.18.18.18,3.49,3.49.18.18.18-.18,3.49-3.49.18-.18-.18-.18-3.49-3.49-.18-.18h0Z"/><rect class="cls-3" x="315.09" y="112.72" width="4.44" height="4.44" transform="translate(11.65 258.01) rotate(-45)"/><path class="cls-4" d="M317.31,112.16l2.79,2.79-2.79,2.79-2.79-2.79,2.79-2.79M317.31,111.45l-3.49,3.49,3.49,3.49,3.49-3.49-3.49-3.49h0Z"/><path class="cls-4" d="M318.23,113.83h0c0,.16-.32.28-.92.28-.63,0-.92-.13-.92-.28h0c0-.1.1-.17.3-.22.17-.04.39-.07.63-.07s.46.02.63.07c.2.05.3.12.3.21h0ZM317.17,113.82s-.08-.04-.17-.04-.18.02-.18.04.08.04.18.04.17-.02.17-.04ZM318.17,114.4v-.36c-.05.04-.13.07-.24.1-.17.04-.39.07-.63.07s-.46-.02-.63-.07c-.11-.03-.18-.06-.24-.1v.36s-.06.07-.06.11h0c0,.16.29.29.92.29s.92-.12.92-.28h0s-.02-.08-.06-.11ZM318.17,115.17v-.44c-.05.04-.13.07-.24.1-.17.04-.39.07-.63.07s-.46-.02-.63-.07c-.11-.03-.18-.06-.24-.1v.44s-.06.07-.06.11h0c0,.16.29.28.92.28s.92-.12.92-.28h0s-.02-.08-.06-.11ZM318.22,116.03s-.02-.06-.05-.08v-.45c-.05.04-.13.07-.24.1-.17.04-.39.07-.63.07s-.46-.02-.63-.07c-.11-.03-.18-.06-.24-.1v.45s-.05.05-.05.08c0,0,0,.01,0,.02h0s.01.07.04.1c.1.11.39.18.88.18.36,0,.62-.04.77-.11.1-.04.16-.1.16-.16h0s0-.02,0-.02h0Z"/></g><g id="Raffinerie_2"><path class="cls-2" d="M288.53,116.29l3.49,3.49-3.49,3.49-3.49-3.49,3.49-3.49M288.53,115.93l-.18.18-3.49,3.49-.18.18.18.18,3.49,3.49.18.18.18-.18,3.49-3.49.18-.18-.18-.18-3.49-3.49-.18-.18h0Z"/><rect class="cls-3" x="286.31" y="117.56" width="4.44" height="4.44" transform="translate(-.18 239.13) rotate(-45)"/><path class="cls-4" d="M288.53,116.99l2.79,2.79-2.79,2.79-2.79-2.79,2.79-2.79M288.53,116.29l-3.49,3.49,3.49,3.49,3.49-3.49-3.49-3.49h0Z"/><path class="cls-4" d="M289.45,118.66h0c0,.16-.32.28-.92.28-.63,0-.92-.13-.92-.28h0c0-.1.1-.17.3-.22.17-.04.39-.07.63-.07s.46.02.63.07c.2.05.3.12.3.21h0ZM288.4,118.66s-.08-.04-.17-.04-.18.02-.18.04.08.04.18.04.17-.02.17-.04ZM289.39,119.24v-.36c-.05.04-.13.07-.24.1-.17.04-.39.07-.63.07s-.46-.02-.63-.07c-.11-.03-.18-.06-.24-.1v.36s-.06.07-.06.11h0c0,.16.29.29.92.29s.92-.12.92-.28h0s-.02-.08-.06-.11ZM289.39,120.01v-.44c-.05.04-.13.07-.24.1-.17.04-.39.07-.63.07s-.46-.02-.63-.07c-.11-.03-.18-.06-.24-.1v.44s-.06.07-.06.11h0c0,.16.29.28.92.28s.92-.12.92-.28h0s-.02-.08-.06-.11ZM289.45,120.87s-.02-.06-.05-.08v-.45c-.05.04-.13.07-.24.1-.17.04-.39.07-.63.07s-.46-.02-.63-.07c-.11-.03-.18-.06-.24-.1v.45s-.05.05-.05.08c0,0,0,.01,0,.02h0s.01.07.04.1c.1.11.39.18.88.18.36,0,.62-.04.77-.11.1-.04.16-.1.16-.16h0s0-.02,0-.02h0Z"/></g><g id="Raffinerie_3"><path class="cls-2" d="M293.94,113.42l3.49,3.49-3.49,3.49-3.49-3.49,3.49-3.49M293.94,113.07l-.18.18-3.49,3.49-.18.18.18.18,3.49,3.49.18.18.18-.18,3.49-3.49.18-.18-.18-.18-3.49-3.49-.18-.18h0Z"/><rect class="cls-3" x="291.72" y="114.69" width="4.44" height="4.44" transform="translate(3.42 242.09) rotate(-45)"/><path class="cls-4" d="M293.94,114.13l2.79,2.79-2.79,2.79-2.79-2.79,2.79-2.79M293.94,113.42l-3.49,3.49,3.49,3.49,3.49-3.49-3.49-3.49h0Z"/><path class="cls-4" d="M294.86,115.8h0c0,.16-.32.28-.92.28-.63,0-.92-.13-.92-.28h0c0-.1.1-.17.3-.22.17-.04.39-.07.63-.07s.46.02.63.07c.2.05.3.12.3.21h0ZM293.8,115.79s-.08-.04-.17-.04-.18.02-.18.04.08.04.18.04.17-.02.17-.04ZM294.8,116.38v-.36c-.05.04-.13.07-.24.1-.17.04-.39.07-.63.07s-.46-.02-.63-.07c-.11-.03-.18-.06-.24-.1v.36s-.06.07-.06.11h0c0,.16.29.29.92.29s.92-.12.92-.28h0s-.02-.08-.06-.11ZM294.8,117.14v-.44c-.05.04-.13.07-.24.1-.17.04-.39.07-.63.07s-.46-.02-.63-.07c-.11-.03-.18-.06-.24-.1v.44s-.06.07-.06.11h0c0,.16.29.28.92.28s.92-.12.92-.28h0s-.02-.08-.06-.11ZM294.85,118.01s-.02-.06-.05-.08v-.45c-.05.04-.13.07-.24.1-.17.04-.39.07-.63.07s-.46-.02-.63-.07c-.11-.03-.18-.06-.24-.1v.45s-.05.05-.05.08c0,0,0,.01,0,.02h0s.01.07.04.1c.1.11.39.18.88.18.36,0,.62-.04.77-.11.1-.04.16-.1.16-.16h0s0-.02,0-.02h0Z"/></g><g id="Raffinerie_4"><path class="cls-2" d="M271.28,131.04l3.49,3.49-3.49,3.49-3.49-3.49,3.49-3.49M271.28,130.68l-.18.18-3.49,3.49-.18.18.18.18,3.49,3.49.18.18.18-.18,3.49-3.49.18-.18-.18-.18-3.49-3.49-.18-.18h0Z"/><rect class="cls-3" x="269.06" y="132.31" width="4.44" height="4.44" transform="translate(-15.67 231.23) rotate(-45)"/><path class="cls-4" d="M271.28,131.75l2.79,2.79-2.79,2.79-2.79-2.79,2.79-2.79M271.28,131.04l-3.49,3.49,3.49,3.49,3.49-3.49-3.49-3.49h0Z"/><path class="cls-4" d="M272.2,133.42h0c0,.16-.32.28-.92.28-.63,0-.92-.13-.92-.28h0c0-.1.1-.17.3-.22.17-.04.39-.07.63-.07s.46.02.63.07c.2.05.3.12.3.21h0ZM271.15,133.41s-.08-.04-.17-.04-.18.02-.18.04.08.04.18.04.17-.02.17-.04ZM272.15,133.99v-.36c-.05.04-.13.07-.24.1-.17.04-.39.07-.63.07s-.46-.02-.63-.07c-.11-.03-.18-.06-.24-.1v.36s-.06.07-.06.11h0c0,.16.29.29.92.29s.92-.12.92-.28h0s-.02-.08-.06-.11ZM272.15,134.76v-.44c-.05.04-.13.07-.24.1-.17.04-.39.07-.63.07s-.46-.02-.63-.07c-.11-.03-.18-.06-.24-.1v.44s-.06.07-.06.11h0c0,.16.29.28.92.28s.92-.12.92-.28h0s-.02-.08-.06-.11ZM272.2,135.62s-.02-.06-.05-.08v-.45c-.05.04-.13.07-.24.1-.17.04-.39.07-.63.07s-.46-.02-.63-.07c-.11-.03-.18-.06-.24-.1v.45s-.05.05-.05.08c0,0,0,.01,0,.02h0s.01.07.04.1c.1.11.39.18.88.18.36,0,.62-.04.77-.11.1-.04.16-.1.16-.16h0s0-.02,0-.02h0Z"/></g><g id="Raffinerie_5"><path class="cls-2" d="M290.36,111.27l3.49,3.49-3.49,3.49-3.49-3.49,3.49-3.49M290.36,110.92l-.18.18-3.49,3.49-.18.18.18.18,3.49,3.49.18.18.18-.18,3.49-3.49.18-.18-.18-.18-3.49-3.49-.18-.18h0Z"/><rect class="cls-3" x="288.14" y="112.54" width="4.44" height="4.44" transform="translate(3.9 238.93) rotate(-45)"/><path class="cls-4" d="M290.36,111.98l2.79,2.79-2.79,2.79-2.79-2.79,2.79-2.79M290.36,111.27l-3.49,3.49,3.49,3.49,3.49-3.49-3.49-3.49h0Z"/><path class="cls-4" d="M291.28,113.65h0c0,.16-.32.28-.92.28-.63,0-.92-.13-.92-.28h0c0-.1.1-.17.3-.22.17-.04.39-.07.63-.07s.46.02.63.07c.2.05.3.12.3.21h0ZM290.23,113.65s-.08-.04-.17-.04-.18.02-.18.04.08.04.18.04.17-.02.17-.04ZM291.23,114.23v-.36c-.05.04-.13.07-.24.1-.17.04-.39.07-.63.07s-.46-.02-.63-.07c-.11-.03-.18-.06-.24-.1v.36s-.06.07-.06.11h0c0,.16.29.29.92.29s.92-.12.92-.28h0s-.02-.08-.06-.11ZM291.23,114.99v-.44c-.05.04-.13.07-.24.1-.17.04-.39.07-.63.07s-.46-.02-.63-.07c-.11-.03-.18-.06-.24-.1v.44s-.06.07-.06.11h0c0,.16.29.28.92.28s.92-.12.92-.28h0s-.02-.08-.06-.11ZM291.28,115.86s-.02-.06-.05-.08v-.45c-.05.04-.13.07-.24.1-.17.04-.39.07-.63.07s-.46-.02-.63-.07c-.11-.03-.18-.06-.24-.1v.45s-.05.05-.05.08c0,0,0,.01,0,.02h0s.01.07.04.1c.1.11.39.18.88.18.36,0,.62-.04.77-.11.1-.04.16-.1.16-.16h0s0-.02,0-.02h0Z"/></g><g id="Raffinerie_6"><path class="cls-2" d="M283.85,120l3.49,3.49-3.49,3.49-3.49-3.49,3.49-3.49M283.85,119.65l-.18.18-3.49,3.49-.18.18.18.18,3.49,3.49.18.18.18-.18,3.49-3.49.18-.18-.18-.18-3.49-3.49-.18-.18h0Z"/><rect class="cls-3" x="281.63" y="121.27" width="4.44" height="4.44" transform="translate(-4.2 236.86) rotate(-45)"/><path class="cls-4" d="M283.85,120.71l2.79,2.79-2.79,2.79-2.79-2.79,2.79-2.79M283.85,120l-3.49,3.49,3.49,3.49,3.49-3.49-3.49-3.49h0Z"/><path class="cls-4" d="M284.77,122.38h0c0,.16-.32.28-.92.28-.63,0-.92-.13-.92-.28h0c0-.1.1-.17.3-.22.17-.04.39-.07.63-.07s.46.02.63.07c.2.05.3.12.3.21h0ZM283.72,122.38s-.08-.04-.17-.04-.18.02-.18.04.08.04.18.04.17-.02.17-.04ZM284.71,122.96v-.36c-.05.04-.13.07-.24.1-.17.04-.39.07-.63.07s-.46-.02-.63-.07c-.11-.03-.18-.06-.24-.1v.36s-.06.07-.06.11h0c0,.16.29.29.92.29s.92-.12.92-.28h0s-.02-.08-.06-.11ZM284.71,123.72v-.44c-.05.04-.13.07-.24.1-.17.04-.39.07-.63.07s-.46-.02-.63-.07c-.11-.03-.18-.06-.24-.1v.44s-.06.07-.06.11h0c0,.16.29.28.92.28s.92-.12.92-.28h0s-.02-.08-.06-.11ZM284.76,124.59s-.02-.06-.05-.08v-.45c-.05.04-.13.07-.24.1-.17.04-.39.07-.63.07s-.46-.02-.63-.07c-.11-.03-.18-.06-.24-.1v.45s-.05.05-.05.08c0,0,0,.01,0,.02h0s.01.07.04.1c.1.11.39.18.88.18.36,0,.62-.04.77-.11.1-.04.16-.1.16-.16h0s0-.02,0-.02h0Z"/></g><g id="Raffinerie_7"><path class="cls-2" d="M321.18,113.54l3.49,3.49-3.49,3.49-3.49-3.49,3.49-3.49M321.18,113.19l-.18.18-3.49,3.49-.18.18.18.18,3.49,3.49.18.18.18-.18,3.49-3.49.18-.18-.18-.18-3.49-3.49-.18-.18h0Z"/><rect class="cls-3" x="318.96" y="114.82" width="4.44" height="4.44" transform="translate(11.31 261.38) rotate(-45)"/><path class="cls-4" d="M321.18,114.25l2.79,2.79-2.79,2.79-2.79-2.79,2.79-2.79M321.18,113.54l-3.49,3.49,3.49,3.49,3.49-3.49-3.49-3.49h0Z"/><path class="cls-4" d="M322.1,115.92h0c0,.16-.32.28-.92.28-.63,0-.92-.13-.92-.28h0c0-.1.1-.17.3-.22.17-.04.39-.07.63-.07s.46.02.63.07c.2.05.3.12.3.21h0ZM321.05,115.92s-.08-.04-.17-.04-.18.02-.18.04.08.04.18.04.17-.02.17-.04ZM322.04,116.5v-.36c-.05.04-.13.07-.24.1-.17.04-.39.07-.63.07s-.46-.02-.63-.07c-.11-.03-.18-.06-.24-.1v.36s-.06.07-.06.11h0c0,.16.29.29.92.29s.92-.12.92-.28h0s-.02-.08-.06-.11ZM322.04,117.27v-.44c-.05.04-.13.07-.24.1-.17.04-.39.07-.63.07s-.46-.02-.63-.07c-.11-.03-.18-.06-.24-.1v.44s-.06.07-.06.11h0c0,.16.29.28.92.28s.92-.12.92-.28h0s-.02-.08-.06-.11ZM322.09,118.13s-.02-.06-.05-.08v-.45c-.05.04-.13.07-.24.1-.17.04-.39.07-.63.07s-.46-.02-.63-.07c-.11-.03-.18-.06-.24-.1v.45s-.05.05-.05.08c0,0,0,.01,0,.02h0s.01.07.04.1c.1.11.39.18.88.18.36,0,.62-.04.77-.11.1-.04.16-.1.16-.16h0s0-.02,0-.02h0Z"/></g><g id="Raffinerie_8"><path class="cls-2" d="M305.55,111.96l3.49,3.49-3.49,3.49-3.49-3.49,3.49-3.49M305.55,111.61l-.18.18-3.49,3.49-.18.18.18.18,3.49,3.49.18.18.18-.18,3.49-3.49.18-.18-.18-.18-3.49-3.49-.18-.18h0Z"/><rect class="cls-3" x="303.33" y="113.24" width="4.44" height="4.44" transform="translate(7.86 249.87) rotate(-45)"/><path class="cls-4" d="M305.55,112.67l2.79,2.79-2.79,2.79-2.79-2.79,2.79-2.79M305.55,111.96l-3.49,3.49,3.49,3.49,3.49-3.49-3.49-3.49h0Z"/><path class="cls-4" d="M306.47,114.34h0c0,.16-.32.28-.92.28-.63,0-.92-.13-.92-.28h0c0-.1.1-.17.3-.22.17-.04.39-.07.63-.07s.46.02.63.07c.2.05.3.12.3.21h0ZM305.42,114.34s-.08-.04-.17-.04-.18.02-.18.04.08.04.18.04.17-.02.17-.04ZM306.42,114.92v-.36c-.05.04-.13.07-.24.1-.17.04-.39.07-.63.07s-.46-.02-.63-.07c-.11-.03-.18-.06-.24-.1v.36s-.06.07-.06.11h0c0,.16.29.29.92.29s.92-.12.92-.28h0s-.02-.08-.06-.11ZM306.42,115.68v-.44c-.05.04-.13.07-.24.1-.17.04-.39.07-.63.07s-.46-.02-.63-.07c-.11-.03-.18-.06-.24-.1v.44s-.06.07-.06.11h0c0,.16.29.28.92.28s.92-.12.92-.28h0s-.02-.08-.06-.11ZM306.47,116.55s-.02-.06-.05-.08v-.45c-.05.04-.13.07-.24.1-.17.04-.39.07-.63.07s-.46-.02-.63-.07c-.11-.03-.18-.06-.24-.1v.45s-.05.05-.05.08c0,0,0,.01,0,.02h0s.01.07.04.1c.1.11.39.18.88.18.36,0,.62-.04.77-.11.1-.04.16-.1.16-.16h0s0-.02,0-.02h0Z"/></g><g id="Raffinerie_9"><path class="cls-2" d="M337.54,105.78l3.49,3.49-3.49,3.49-3.49-3.49,3.49-3.49M337.54,105.42l-.18.18-3.49,3.49-.18.18.18.18,3.49,3.49.18.18.18-.18,3.49-3.49.18-.18-.18-.18-3.49-3.49-.18-.18h0Z"/><rect class="cls-3" x="335.32" y="107.05" width="4.44" height="4.44" transform="translate(21.6 270.68) rotate(-45)"/><path class="cls-4" d="M337.54,106.48l2.79,2.79-2.79,2.79-2.79-2.79,2.79-2.79M337.54,105.78l-3.49,3.49,3.49,3.49,3.49-3.49-3.49-3.49h0Z"/><path class="cls-4" d="M338.46,108.15h0c0,.16-.32.28-.92.28-.63,0-.92-.13-.92-.28h0c0-.1.1-.17.3-.22.17-.04.39-.07.63-.07s.46.02.63.07c.2.05.3.12.3.21h0ZM337.41,108.15s-.08-.04-.17-.04-.18.02-.18.04.08.04.18.04.17-.02.17-.04ZM338.4,108.73v-.36c-.05.04-.13.07-.24.1-.17.04-.39.07-.63.07s-.46-.02-.63-.07c-.11-.03-.18-.06-.24-.1v.36s-.06.07-.06.11h0c0,.16.29.29.92.29s.92-.12.92-.28h0s-.02-.08-.06-.11ZM338.4,109.5v-.44c-.05.04-.13.07-.24.1-.17.04-.39.07-.63.07s-.46-.02-.63-.07c-.11-.03-.18-.06-.24-.1v.44s-.06.07-.06.11h0c0,.16.29.28.92.28s.92-.12.92-.28h0s-.02-.08-.06-.11ZM338.46,110.36s-.02-.06-.05-.08v-.45c-.05.04-.13.07-.24.1-.17.04-.39.07-.63.07s-.46-.02-.63-.07c-.11-.03-.18-.06-.24-.1v.45s-.05.05-.05.08c0,0,0,.01,0,.02h0s.01.07.04.1c.1.11.39.18.88.18.36,0,.62-.04.77-.11.1-.04.16-.1.16-.16h0s0-.02,0-.02h0Z"/></g><g id="Raffinerie_10"><path class="cls-2" d="M318.48,114.64l3.49,3.49-3.49,3.49-3.49-3.49,3.49-3.49M318.48,114.28l-.18.18-3.49,3.49-.18.18.18.18,3.49,3.49.18.18.18-.18,3.49-3.49.18-.18-.18-.18-3.49-3.49-.18-.18h0Z"/><rect class="cls-3" x="316.26" y="115.91" width="4.44" height="4.44" transform="translate(9.75 259.8) rotate(-45)"/><path class="cls-4" d="M318.48,115.34l2.79,2.79-2.79,2.79-2.79-2.79,2.79-2.79M318.48,114.64l-3.49,3.49,3.49,3.49,3.49-3.49-3.49-3.49h0Z"/><path class="cls-4" d="M319.4,117.01h0c0,.16-.32.28-.92.28-.63,0-.92-.13-.92-.28h0c0-.1.1-.17.3-.22.17-.04.39-.07.63-.07s.46.02.63.07c.2.05.3.12.3.21h0ZM318.35,117.01s-.08-.04-.17-.04-.18.02-.18.04.08.04.18.04.17-.02.17-.04ZM319.35,117.59v-.36c-.05.04-.13.07-.24.1-.17.04-.39.07-.63.07s-.46-.02-.63-.07c-.11-.03-.18-.06-.24-.1v.36s-.06.07-.06.11h0c0,.16.29.29.92.29s.92-.12.92-.28h0s-.02-.08-.06-.11ZM319.35,118.36v-.44c-.05.04-.13.07-.24.1-.17.04-.39.07-.63.07s-.46-.02-.63-.07c-.11-.03-.18-.06-.24-.1v.44s-.06.07-.06.11h0c0,.16.29.28.92.28s.92-.12.92-.28h0s-.02-.08-.06-.11ZM319.4,119.22s-.02-.06-.05-.08v-.45c-.05.04-.13.07-.24.1-.17.04-.39.07-.63.07s-.46-.02-.63-.07c-.11-.03-.18-.06-.24-.1v.45s-.05.05-.05.08c0,0,0,.01,0,.02h0s.01.07.04.1c.1.11.39.18.88.18.36,0,.62-.04.77-.11.1-.04.16-.1.16-.16h0s0-.02,0-.02h0Z"/></g><rect id="Cadre" class="cls-1" width="886.94" height="591.29"/></g></svg>