<?xml version="1.0" encoding="UTF-8"?><svg id="Calque_2" xmlns="http://www.w3.org/2000/svg" viewBox="0 0 886.94 591.29"><defs><style>.cls-1{fill:none;}.cls-2{opacity:.3;}.cls-3{fill:#4b5a7f;}</style></defs><g id="Symboles_Pétrole"><rect id="Cadre" class="cls-1" width="886.94" height="591.29"/></g><g id="Flux_exportations"><g class="cls-2"><path class="cls-3" d="M478.2,297.09c-.58-2.87-.98-5.84-.88-8.87-.04-4.42,1.83-8.39,2.49-12.46.29-4.02-1.44-7.8-1.93-11.86,0,0,1.95-.42,1.95-.42,1.07,4.08,3.53,8.08,3.41,12.5-.21,4.2-1.8,8.18-1.4,12.21.13,2.54.69,5.1,1.44,7.63l-5.07,1.28h0Z"/></g><g class="cls-2"><path class="cls-3" d="M521.41,310.72c-.91-5.43-2.3-10.76-4.25-15.85-1-2.53-2.12-5.01-3.42-7.39-1.34-2.35-2.74-4.67-4.42-6.79-.39-.55-.82-1.07-1.26-1.58-.44-.51-.86-1.04-1.31-1.54-.94-.96-1.83-1.98-2.85-2.86-1.94-1.87-4.09-3.5-6.34-4.92-4.51-2.86-9.61-4.62-14.98-5.54-5.37-.95-10.98-1.2-16.63-1.54-5.65-.33-11.37-.73-17.05-1.53-5.68-.77-11.32-1.97-16.85-3.5-5.53-1.53-10.94-3.5-16.21-5.68-10.57-4.38-20.66-9.98-29.81-16.87-4.58-3.44-8.95-7.16-12.96-11.26l-1.52-1.52-1.45-1.59c-.95-1.07-1.94-2.11-2.87-3.2-1.8-2.23-3.65-4.42-5.31-6.76-3.37-4.63-6.36-9.5-9.1-14.5-2.74-5-5.21-10.13-7.45-15.37-4.47-10.46-7.97-21.35-10.31-32.48l1.95-.43c2.45,10.97,6.03,21.67,10.57,31.95,2.27,5.14,4.76,10.18,7.52,15.06,2.75,4.88,5.74,9.63,9.08,14.11,1.64,2.26,3.47,4.37,5.25,6.52.91,1.05,1.89,2.05,2.83,3.08l1.42,1.53,1.5,1.46c3.95,3.94,8.25,7.52,12.75,10.81,9,6.61,18.9,11.95,29.26,16.1,10.37,4.22,21.16,7.17,32.22,8.54,5.53.71,11.1,1.05,16.74,1.3,5.63.28,11.36.45,17.14,1.39,5.77.91,11.59,2.81,16.68,5.97,2.54,1.57,4.94,3.35,7.1,5.37,1.13.96,2.12,2.07,3.17,3.11.5.54.97,1.11,1.46,1.67.49.56.97,1.12,1.41,1.71,1.86,2.3,3.43,4.81,4.91,7.35,1.45,2.57,2.69,5.23,3.8,7.94,2.17,5.44,3.7,11.09,4.73,16.8l-5.15.9Z"/><polygon class="cls-3" points="338.57 149.42 336.2 148.97 334.23 150.37 335.28 144.75 338.57 149.42"/><path class="cls-3" d="M511.61,282.77c1.98-8.46,4.06-16.89,5.99-25.31,1.9-8.42,3.72-16.85,4.34-25.25.28-4.19.2-8.35-.54-12.36-.76-4-2.19-7.82-4.32-11.3-1.03-1.76-2.27-3.41-3.58-5-1.33-1.63-2.68-3.04-4.24-4.4-3.1-2.66-6.68-4.85-10.46-6.71-7.58-3.72-15.85-6.24-24.13-8.76-4.15-1.26-8.32-2.5-12.47-3.93-4.14-1.43-8.29-3.01-12.22-5.22-1.96-1.11-3.87-2.38-5.58-3.95-.85-.77-1.67-1.68-2.34-2.52-.69-.86-1.43-1.68-2.08-2.56-2.72-3.46-5.19-7.11-7.44-10.87-2.25-3.76-4.28-7.65-6.14-11.61-1.87-3.95-3.51-8.01-5.14-12.01l1.84-.78c1.73,3.99,3.43,7.95,5.35,11.8,1.91,3.86,3.99,7.63,6.27,11.26,2.28,3.63,4.76,7.13,7.47,10.44.65.85,1.39,1.63,2.07,2.44.71.84,1.36,1.53,2.13,2.2,1.51,1.34,3.26,2.45,5.09,3.44,3.69,1.96,7.71,3.42,11.79,4.73,4.09,1.31,8.25,2.45,12.43,3.63,8.35,2.35,16.82,4.72,24.92,8.48,4.04,1.88,7.98,4.16,11.53,7.08,1.75,1.46,3.46,3.13,4.87,4.87,1.45,1.74,2.84,3.56,4.02,5.54,2.44,3.9,4.13,8.32,5.01,12.84.87,4.53.97,9.1.71,13.56-.6,8.93-2.41,17.53-4.26,26.04-1.88,8.51-3.9,16.94-5.81,25.39l-5.1-1.18Z"/><polygon class="cls-3" points="424.88 131.3 422.47 131.3 420.79 133.04 420.77 127.32 424.88 131.3"/><path class="cls-3" d="M520.53,304.79c1.21-4.04,3.11-8.09,6.13-11.38,2.99-3.32,7.02-5.62,11.14-6.83,4.14-1.23,8.35-1.59,12.45-1.58,4.11,0,8.14.39,12.12.87,7.96.99,15.73,2.48,23.47,3.37,1.93.22,3.86.4,5.78.51l5.86.25c3.92.1,7.84.15,11.77.09,15.71-.21,31.42-1.57,47.01-3.75,15.59-2.19,31.07-5.25,46.3-9.23,15.21-4.01,30.22-8.92,44.52-15.42,7.14-3.24,14.06-6.96,20.54-11.31,6.46-4.41,12.63-9.3,18.4-14.6,5.78-5.3,11.16-11.03,16.09-17.13,4.93-6.1,9.36-12.6,13.33-19.37,3.94-6.79,7.37-13.87,10.23-21.19,2.81-7.3,5.19-14.89,6.48-22.53l1.98.26c-1.27,7.98-3.61,15.59-6.41,23.06-2.84,7.45-6.26,14.67-10.21,21.6-3.97,6.91-8.42,13.55-13.38,19.8-4.96,6.24-10.39,12.12-16.22,17.57-5.83,5.45-12.05,10.46-18.61,15.03-6.62,4.53-13.65,8.38-20.88,11.74-14.47,6.73-29.6,11.82-44.93,16-15.35,4.15-30.93,7.37-46.66,9.72-15.72,2.33-31.58,3.85-47.51,4.2-3.98.09-7.97.08-11.96,0l-5.99-.21c-2.03-.1-4.04-.27-6.04-.48-7.99-.85-15.78-2.28-23.54-3.18-3.87-.44-7.73-.77-11.54-.74-3.8.02-7.55.4-11,1.46-3.44,1.06-6.5,2.87-8.81,5.46-2.33,2.57-3.89,5.87-4.91,9.39l-5.02-1.47Z"/><polygon class="cls-3" points="835.13 157.66 833.05 156.43 830.73 157.08 833.62 152.15 835.13 157.66"/></g></g></svg>