<?xml version="1.0" encoding="UTF-8"?><svg id="Calque_2" xmlns="http://www.w3.org/2000/svg" viewBox="0 0 886.94 591.29"><defs><style>.cls-1,.cls-2,.cls-3,.cls-4,.cls-5{fill:none;}.cls-2{stroke:#4b5193;}.cls-2,.cls-3,.cls-4,.cls-6,.cls-5{font-family:GillSans-Bold, 'Gill Sans';font-size:8.21px;font-weight:700;}.cls-2,.cls-3,.cls-4,.cls-5{stroke-width:2px;}.cls-3{stroke:#783333;}.cls-4{stroke:#732728;}.cls-7{letter-spacing:-.1em;}.cls-6{fill:#fff;}.cls-8{letter-spacing:-.06em;}.cls-9{letter-spacing:-.01em;}.cls-5{stroke:#4b5192;}</style></defs><g id="Symboles_Pétrole"><rect id="Cadre" class="cls-1" width="886.94" height="591.29"/></g><g id="Etiquettes_pays"><text class="cls-2" transform="translate(214.08 183.24)"><tspan x="0" y="0">M</tspan></text><text class="cls-2" transform="translate(221.95 183.24) scale(.7)"><tspan x="0" y="0">EXIQUE</tspan></text><text class="cls-6" transform="translate(214.08 183.24)"><tspan x="0" y="0">M</tspan></text><text class="cls-6" transform="translate(221.95 183.24) scale(.7)"><tspan x="0" y="0">EXIQUE</tspan></text><text class="cls-5" transform="translate(443.47 382.99)"><tspan x="0" y="0">C</tspan></text><text class="cls-5" transform="translate(449.57 382.99) scale(.7)"><tspan x="0" y="0">O</tspan><tspan class="cls-8" x="6.99" y="0">L</tspan><tspan x="11.72" y="0">OMBIE</tspan></text><text class="cls-6" transform="translate(443.47 382.99)"><tspan x="0" y="0">C</tspan></text><text class="cls-6" transform="translate(449.57 382.99) scale(.7)"><tspan x="0" y="0">O</tspan><tspan class="cls-8" x="6.99" y="0">L</tspan><tspan x="11.72" y="0">OMBIE</tspan></text><text class="cls-4" transform="translate(581.6 505.47)"><tspan x="0" y="0">B</tspan></text><text class="cls-4" transform="translate(587.75 505.47) scale(.7)"><tspan x="0" y="0">RÉSIL</tspan></text><text class="cls-6" transform="translate(581.6 505.47)"><tspan x="0" y="0">B</tspan></text><text class="cls-6" transform="translate(587.75 505.47) scale(.7)"><tspan x="0" y="0">RÉSIL</tspan></text><text class="cls-3" transform="translate(499.17 341.66)"><tspan x="0" y="0">V</tspan></text><text class="cls-3" transform="translate(505.37 341.66) scale(.7)"><tspan x="0" y="0">ÉNÉZUÉ</tspan><tspan class="cls-9" x="36.46" y="0">L</tspan><tspan x="41.54" y="0">A</tspan></text><text class="cls-6" transform="translate(499.17 341.66)"><tspan x="0" y="0">V</tspan></text><text class="cls-6" transform="translate(505.37 341.66) scale(.7)"><tspan x="0" y="0">ÉNÉZUÉ</tspan><tspan class="cls-9" x="36.46" y="0">L</tspan><tspan x="41.54" y="0">A</tspan></text><text class="cls-5" transform="translate(551.72 364.81)"><tspan x="0" y="0">G</tspan></text><text class="cls-5" transform="translate(558.28 364.81) scale(.7)"><tspan x="0" y="0">U</tspan><tspan class="cls-7" x="7.11" y="0">Y</tspan><tspan x="12.45" y="0">A</tspan><tspan class="cls-9" x="19.29" y="0">N</tspan><tspan x="26.61" y="0">A</tspan></text><text class="cls-6" transform="translate(551.72 364.81)"><tspan x="0" y="0">G</tspan></text><text class="cls-6" transform="translate(558.28 364.81) scale(.7)"><tspan x="0" y="0">U</tspan><tspan class="cls-7" x="7.11" y="0">Y</tspan><tspan x="12.45" y="0">A</tspan><tspan class="cls-9" x="19.29" y="0">N</tspan><tspan x="26.61" y="0">A</tspan></text></g></svg>