<?xml version="1.0" encoding="UTF-8"?><svg id="Calque_2" xmlns="http://www.w3.org/2000/svg" viewBox="0 0 886.94 591.29"><defs><style>.cls-1{fill:none;}.cls-2{fill:#010101;}.cls-3{fill:#e83b3d;}.cls-4{fill:#e62832;}.cls-5{fill:#e62531;}.cls-6{fill:#fff;}.cls-7{fill:#fffefe;}.cls-8{fill:#e84044;}.cls-9{fill:#e62532;}.cls-10{fill:#e62632;}</style></defs><g id="Départs"><g id="Trajectoire"><path d="M541.03,300.48c9.08-24.9,15.69-50.76,18.5-77.13l.3-2.47c.07-.82.11-1.65.16-2.48l.31-4.96c.18-3.31.5-6.61.42-9.92l.02-9.93-.57-9.92c-1.04-13.2-3.29-26.31-7-39.02-7.39-25.44-20.88-49.01-38.81-68.46-2.26-2.41-4.48-4.87-6.89-7.14l-3.55-3.46-3.69-3.32-1.84-1.66c-.62-.54-1.27-1.06-1.9-1.59l-3.82-3.17c-1.29-1.03-2.62-2.02-3.92-3.04-1.3-1.02-2.62-2.02-3.98-2.96-10.71-7.76-22.16-14.52-34.2-19.96l.4-.9c12.1,5.51,23.58,12.34,34.31,20.16,1.36.95,2.68,1.96,3.98,2.99,1.31,1.02,2.64,2.02,3.93,3.06l3.82,3.19c.63.54,1.28,1.06,1.9,1.6l1.85,1.67,3.69,3.34,3.56,3.49c2.41,2.29,4.63,4.76,6.89,7.19,17.94,19.58,31.41,43.29,38.74,68.82,3.68,12.76,5.89,25.91,6.9,39.13l.54,9.93-.05,9.95c.07,3.32-.27,6.62-.45,9.93l-.32,4.96c-.06.83-.1,1.66-.17,2.48l-.3,2.47c-2.89,26.38-9.59,52.23-18.74,77.1Z"/><polygon points="454.77 27.17 451.88 29.97 451.89 33.99 445.25 27.17 454.77 27.17"/></g><path class="cls-6" d="M536.32,119.05c-8.44,0-15.3-6.86-15.3-15.3s6.86-15.3,15.3-15.3,15.3,6.86,15.3,15.3-6.86,15.3-15.3,15.3Z"/><path d="M536.32,88.96c8.16,0,14.8,6.64,14.8,14.8s-6.64,14.8-14.8,14.8-14.8-6.64-14.8-14.8,6.64-14.8,14.8-14.8M536.32,87.96c-8.73,0-15.8,7.07-15.8,15.8s7.07,15.8,15.8,15.8,15.8-7.07,15.8-15.8-7.07-15.8-15.8-15.8h0Z"/><path class="cls-5" d="M539.34,105.16c-.03.21-.27.3-.74.24l.03,5.35c.05.2.25.12.61-.24.28,0,1.24.39,1.29.68.01.08-.12.16-.22.21-.32-.08-.62-.12-.95-.38,0,.08-.07.31-.17.31h-1.14s0-6.29,0-6.29l-1.5-.04-2.33-2.38-1.31,1.66-1.52-.03,1.96-2.48-.87-.89-1.41,1.8h-1.53s2.09-2.66,2.09-2.66l-1.85-1.89,1.82-.03.87.86,1.54-1.98,1.52.04-2.21,2.81.88.87,2.01-2.58h1.55s-2.7,3.45-2.7,3.45l3.45,3.48c.26.01.65-.1.82.1Z"/><polygon class="cls-5" points="530.32 111.35 530.26 106.71 529.1 111.32 527.61 111.34 526.5 106.71 526.43 111.34 525.11 111.34 525.11 105.1 527.31 105.1 528.4 109.63 529.48 105.11 531.62 105.1 531.63 111.34 530.32 111.35"/><path class="cls-5" d="M529.08,100.02h-2.56s0,1.49,0,1.49l2.68.02v1.16s-4.08,0-4.08,0v-6.24s4.08,0,4.08,0c.06.43.05.77,0,1.16h-2.66s0,1.29,0,1.29h2.56s0,1.13,0,1.13Z"/><path class="cls-5" d="M539.34,105.16l.02,1.93c.79-.52,1.64-.57,2.39-.17.67.36,1.15,1.11,1.19,1.96.05.78-.22,1.49-.79,2-.49.44-1.17.69-1.85.53.02-.14-.01-.3-.11-.33l-.42-.12c-.13-.04-.25-.3-.41-.26-.28.07-.46.54-.75.38-.07-.04-.21-.17-.22-.31l-.03-5.62h.96Z"/><path class="cls-5" d="M534.85,111.45c-1.44.01-2.45-1.12-2.45-2.4,0-1.36,1.09-2.42,2.5-2.39s2.36,1.1,2.37,2.39-.99,2.39-2.42,2.4Z"/><path class="cls-5" d="M540.04,102.79c-1.49.11-2.61-.99-2.65-2.31-.03-1.43,1.12-2.56,2.59-2.46,1.3.08,2.26,1.1,2.27,2.36s-.86,2.31-2.22,2.42Z"/><path class="cls-9" d="M546.04,102.69v-2.58c0-.55-.35-.91-.83-.92s-.86.36-.86.9v2.59s-1.34,0-1.34,0v-4.55s1.22-.02,1.22-.02l.07.41c.49-.42,1.08-.6,1.79-.45,1.69.35,1.32,2.78,1.27,4.63h-1.32Z"/><polygon class="cls-10" points="547.52 111.32 546.15 111.34 546.15 105.11 547.5 105.11 547.52 111.32"/><polygon class="cls-4" points="545.11 111.32 543.75 111.34 543.75 106.79 545.09 106.77 545.11 111.32"/><polygon class="cls-3" points="545.09 106.26 543.76 106.24 543.76 105.1 545.09 105.11 545.09 106.26"/><path class="cls-7" d="M540.32,107.92c.72-.09,1.22.45,1.27,1.02.06.66-.38,1.18-1.01,1.25s-1.16-.36-1.25-.94c-.1-.62.29-1.25.99-1.33Z"/><path class="cls-7" d="M534.68,107.92c.72-.1,1.23.41,1.28,1.01s-.32,1.19-1,1.27c-.57.07-1.14-.32-1.23-.97-.08-.55.23-1.21.95-1.31Z"/><path class="cls-7" d="M539.32,99.38c.63-.32,1.3-.04,1.55.54.23.54.05,1.21-.51,1.51-.53.28-1.2.08-1.48-.41-.31-.54-.19-1.32.45-1.64Z"/><path class="cls-6" d="M550.71,152.22c-8.44,0-15.3-6.86-15.3-15.3s6.86-15.3,15.3-15.3,15.3,6.86,15.3,15.3-6.86,15.3-15.3,15.3Z"/><path d="M550.71,122.12c8.16,0,14.8,6.64,14.8,14.8s-6.64,14.8-14.8,14.8-14.8-6.64-14.8-14.8,6.64-14.8,14.8-14.8M550.71,121.12c-8.73,0-15.8,7.07-15.8,15.8s7.07,15.8,15.8,15.8,15.8-7.07,15.8-15.8-7.07-15.8-15.8-15.8h0Z"/><path class="cls-2" d="M563.28,138.27v.14c-.04.3-.28.47-.57.53-.24.05-.48.03-.71-.03-.09-.03-.16-.05-.25-.09l.11-.38c.22.12.55.21.77.12.08-.03.13-.11.13-.2,0-.07-.03-.12-.09-.16-.13-.09-.31-.11-.48-.19-.24-.11-.41-.29-.38-.57.04-.3.29-.49.58-.54.21-.04.43-.02.64.04.05.02.1.04.15.06l-.1.36c-.19-.1-.46-.17-.64-.09-.1.04-.15.16-.1.26.05.09.22.14.32.17l.22.08c.22.09.37.23.39.47Z"/><path class="cls-2" d="M560.04,139.73s-.03,0-.05,0h-.43s-.03,0-.05,0v-2.03s-.02-.77-.02-.77h.46s.03.33.03.33c.19-.28.48-.39.8-.38.44.01.77.33.86.76.04.21.03.43-.03.64-.13.43-.52.7-.98.69-.13,0-.25-.03-.36-.09-.1-.05-.17-.11-.24-.2v1.05Z"/><path class="cls-2" d="M553.46,137.23c-.1.3-.36.47-.66.55-.19.05-.38.06-.58.05l-.18-.02v1.12s-.52,0-.52,0v-2.81c.28-.04.55-.06.83-.06.16,0,.32,0,.48.05.11.03.21.06.31.12.35.21.45.63.33,1Z"/><path class="cls-2" d="M555.05,138.92v-1.09c0-.25-.09-.48-.35-.51-.2-.03-.38.06-.48.23-.03.06-.05.12-.05.19v1.19s-.53,0-.53,0v-2.92s.53,0,.53,0v1.23c.21-.3.57-.41.9-.31.36.12.5.44.51.8v1.2s-.53,0-.53,0Z"/><path class="cls-2" d="M539.65,138.53c.24.02.53-.02.76-.11l.09.41c-.08.04-.16.06-.24.08-.28.06-.58.08-.87.04-.48-.06-.91-.3-1.12-.75-.08-.16-.12-.33-.13-.51v-.22c.03-.49.3-.91.73-1.14.19-.1.39-.16.61-.19.27-.03.54-.02.8.04.09.02.16.05.24.08l-.12.41c-.26-.12-.56-.15-.84-.11-.38.05-.71.27-.82.65-.06.21-.07.43,0,.64.07.25.24.45.47.57.14.07.29.1.45.11Z"/><path class="cls-2" d="M542.68,138.22c-.13.48-.58.75-1.07.75-.21,0-.41-.04-.59-.14-.25-.14-.43-.37-.48-.65-.04-.19-.03-.38.02-.57.08-.27.27-.48.52-.6.32-.15.76-.16,1.09,0,.47.22.65.73.52,1.22Z"/><path class="cls-2" d="M547.18,138.18c-.12.52-.59.79-1.1.79-.2,0-.39-.04-.56-.14-.25-.14-.43-.37-.49-.65-.04-.19-.03-.38.03-.57.08-.26.25-.46.49-.59.33-.17.77-.18,1.1-.03.46.21.65.7.54,1.19Z"/><path class="cls-2" d="M550.82,138.82c-.34.19-.79.2-1.14.04-.29-.13-.49-.39-.55-.7-.03-.17-.03-.34.02-.51.08-.3.28-.53.56-.66.33-.14.76-.14,1.08.02.45.23.62.73.49,1.21-.07.26-.24.47-.47.6Z"/><path class="cls-2" d="M543.51,137.5c-.06.08-.09.16-.09.26v1.16s-.53,0-.53,0v-1.39c0-.2,0-.4-.02-.59h.46s.03.33.03.33c.2-.32.59-.44.94-.34.21.06.36.2.45.4.06.13.08.26.08.4v1.2s-.53,0-.53,0v-1.1c0-.25-.1-.48-.36-.51-.17-.02-.33.05-.44.19Z"/><path class="cls-8" d="M550,134.62c-.09-.11-.18-.19-.29-.28l.65.28c.2.09.4.16.62.22.53.15,1.05.18,1.59.04l.32-.27c.2-.16.4-.3.64-.4l.31-.12c-.21.22-.44.41-.7.57-.15.09-.3.17-.46.24l-.8.55-.65.37c-.19.1-.38.18-.59.25-.1-.52-.3-1.04-.64-1.45Z"/><path class="cls-2" d="M548.2,138.46c.25.15.57.12.84.01l.08.39-.19.06c-.33.08-.7.08-1.01-.07-.25-.12-.43-.33-.5-.6-.06-.22-.05-.45.02-.67.08-.23.24-.42.46-.54.31-.17.71-.19,1.06-.11l.17.05-.1.39c-.12-.06-.25-.08-.38-.09-.11,0-.22,0-.33.04-.19.07-.33.22-.38.42-.06.27.02.55.26.7Z"/><rect class="cls-2" x="557.7" y="136" width=".53" height="2.92"/><polygon class="cls-2" points="557.3 138.92 556.77 138.92 556.77 136 557.3 136 557.3 138.92"/><rect class="cls-2" x="555.89" y="136.94" width=".53" height="1.99" transform="translate(-.29 1.16)"/><polygon class="cls-2" points="559.11 138.92 558.58 138.92 558.58 136.94 559.11 136.94 559.11 138.92"/><path class="cls-2" d="M556.46,136.33c0,.13-.07.24-.18.28-.08.03-.16.03-.24,0-.12-.04-.19-.14-.2-.26,0-.13.07-.24.2-.28.09-.03.18-.02.26.02.09.04.15.13.16.24Z"/><path class="cls-2" d="M559.16,136.33c0,.12-.06.23-.17.28-.08.03-.17.03-.25,0-.12-.04-.19-.14-.2-.26s.06-.23.18-.27c.08-.03.17-.03.25,0,.11.04.18.14.19.26Z"/><path class="cls-6" d="M561.13,137.93c0,.32-.16.59-.49.63-.22.03-.44-.07-.55-.27-.03-.06-.06-.12-.06-.19v-.33c.03-.31.31-.52.61-.48.32.04.49.32.48.64Z"/><path class="cls-6" d="M552.98,136.85c.03.24-.08.43-.31.52-.12.05-.25.06-.39.05-.08,0-.16,0-.24-.03v-.92c.14-.02.29-.03.44-.02.1,0,.19.03.27.07.13.06.22.18.24.32Z"/><path class="cls-6" d="M542.16,138.01c-.03.31-.2.56-.52.58-.2.02-.39-.08-.5-.25-.19-.31-.13-.86.21-1.02.14-.07.3-.07.44-.02.12.04.21.13.27.24.08.14.1.31.09.47Z"/><path class="cls-6" d="M546.14,138.59c-.22.02-.41-.09-.51-.27-.06-.12-.09-.25-.09-.38,0-.35.18-.66.55-.67s.58.32.57.68c0,.13-.03.26-.09.37-.09.16-.24.27-.43.28Z"/><path class="cls-6" d="M550.69,138.33c-.09.16-.25.25-.42.26-.2.01-.39-.08-.49-.25-.06-.1-.09-.21-.1-.34-.03-.37.15-.74.55-.74s.58.34.57.7c0,.13-.03.25-.1.37Z"/><rect id="Cadre" class="cls-1" width="886.94" height="591.29"/></g></svg>