<?xml version="1.0" encoding="UTF-8"?><svg id="Calque_2" xmlns="http://www.w3.org/2000/svg" viewBox="0 0 887.94 592.29"><defs><style>.cls-1{fill:#0f74bb;}.cls-2{fill:#732728;}.cls-3{fill:#d21618;}.cls-4{fill:#059dd9;}.cls-5{fill:#d21718;}.cls-6{fill:#971832;}.cls-7{fill:#fffcfc;}.cls-8{fill:#e21b38;}.cls-9{fill:#fef8f5;}.cls-10{fill:#fefeff;}.cls-11{fill:#fff;}.cls-12{fill:#d21918;}.cls-13{fill:#d21617;}.cls-14{fill:none;stroke:#000;stroke-miterlimit:10;}.cls-15{fill:#f4f6fc;}.cls-16{fill:#d21818;}.cls-17{fill:#d21b19;}.cls-18{fill:#1374bb;}.cls-19{fill:#fdf3ef;}.cls-20{fill:#1074bb;}</style></defs><g id="Calque_1-2"><path class="cls-11" d="M501.36,354.83c-8.16,0-14.8-6.64-14.8-14.8s6.64-14.8,14.8-14.8,14.8,6.64,14.8,14.8-6.64,14.8-14.8,14.8Z"/><path class="cls-2" d="M501.36,326.23c7.61,0,13.8,6.19,13.8,13.8s-6.19,13.8-13.8,13.8-13.8-6.19-13.8-13.8,6.19-13.8,13.8-13.8M501.36,324.23c-8.73,0-15.8,7.07-15.8,15.8s7.07,15.8,15.8,15.8,15.8-7.07,15.8-15.8-7.07-15.8-15.8-15.8h0Z"/><path class="cls-4" d="M509.77,334.91v5.54s-8.37,2.77-8.37,2.77l-8.35-2.8.03-.15c2.71-.94,5.43-1.83,8.15-2.7.13.04.2.05.37,0l8.16-2.66Z"/><path class="cls-8" d="M509.77,346.93l-8.37,2.77-8.33-2.79v-.14c2.63-.89,5.27-1.77,7.9-2.66h.38s8.42-2.76,8.42-2.76v5.57Z"/><path class="cls-20" d="M509.77,332.49v1.74s-.71-.03-.71-.03v-1.41c0-.23-.17-.4-.39-.38-.15,0-.35.14-.35.34l-.02,1.45h-.71s-.02-2.33-.02-2.33h.64c.04.11.02.2.03.32.2-.23.43-.38.69-.39.5-.02.64.26.82.68Z"/><path class="cls-6" d="M501.35,344.13l-8.28,2.79c-.04-.1-.05-.18-.06-.3v-5.3s8.34,2.81,8.34,2.81Z"/><path class="cls-1" d="M501.24,337.57c.01.07,0,.1-.11.14l-8.07,2.71c-.04-.29-.05-.55-.05-.85l.02-4.73,8.21,2.73Z"/><path class="cls-20" d="M497.23,334.21v-1.4c-.01-.23-.17-.4-.36-.4s-.39.15-.39.38v1.42s-.72,0-.72,0v-2.95s.7-.25.7-.25l.03,1.08c.27-.26.6-.34.92-.25.29.09.5.4.5.76l.02,1.61h-.71Z"/><path class="cls-20" d="M494.05,333.34c.31.38.83.36,1.24.2.08.22.11.42.13.66-.62.18-1.31.19-1.83-.24-.74-.61-.78-1.82-.11-2.5.52-.52,1.3-.58,1.94-.35-.02.27-.05.46-.13.68-.43-.2-.96-.17-1.26.22-.28.36-.29.95.02,1.33Z"/><path class="cls-20" d="M499.03,333.29c.03.5.7.58,1.31.3.06.18.09.35.11.56-.36.16-.76.21-1.15.16-.6-.07-.99-.53-1.03-1.12-.04-.52.15-1.02.57-1.24.47-.24,1.08-.23,1.43.17.29.33.35.78.29,1.18h-1.52Z"/><path class="cls-20" d="M506.11,334.32c-.79.02-1.28-.57-1.26-1.32.02-.69.46-1.2,1.16-1.23.77-.03,1.28.54,1.27,1.3,0,.69-.44,1.24-1.18,1.25Z"/><polygon class="cls-20" points="502.28 331.89 503.07 331.88 502.3 334.2 501.42 334.22 500.64 331.88 501.41 331.88 501.85 333.5 502.28 331.89"/><path class="cls-18" d="M503.99,334.2h-.72s-.02-2.32-.02-2.32h.67c0,.13-.02.24.05.41.11-.33.43-.54.78-.44.04.25.03.45,0,.67-.22-.03-.4-.03-.55.1-.1.08-.21.25-.21.45v1.14Z"/><path class="cls-15" d="M499.87,332.75l-.84.02c-.04-.21.11-.42.34-.47.21-.04.46.05.5.44Z"/><path class="cls-10" d="M506.47,332.62c.18.49.03,1.1-.35,1.13-.19.01-.36-.08-.44-.28-.19-.5-.05-1.11.38-1.13.18,0,.34.09.41.28Z"/><path class="cls-11" d="M532.76,354.83c-8.16,0-14.8-6.64-14.8-14.8s6.64-14.8,14.8-14.8,14.8,6.64,14.8,14.8-6.64,14.8-14.8,14.8Z"/><path class="cls-2" d="M532.76,326.23c7.61,0,13.8,6.19,13.8,13.8s-6.19,13.8-13.8,13.8-13.8-6.19-13.8-13.8,6.19-13.8,13.8-13.8M532.76,324.23c-8.73,0-15.8,7.07-15.8,15.8s7.07,15.8,15.8,15.8,15.8-7.07,15.8-15.8-7.07-15.8-15.8-15.8h0Z"/><path class="cls-3" d="M545.47,341.54v.13s-1.1-.04-1.1-.04c-.06-.19-.09-.37-.2-.53h-1.14c-.11.17-.13.34-.2.53h-1.06s1.28-3.36,1.28-3.36l1.15.02,1.27,3.26Z"/><path class="cls-16" d="M523.24,336.42c.21.04.38.13.51.27l.59-.27h.27s.72.32.72.32l-1.55,1.52-1.53-1.51.68-.33c.11,0,.21,0,.31,0Z"/><path class="cls-19" d="M524.34,336.42c-.17.21-.36.38-.59.58l-.51-.58h1.1Z"/><path class="cls-13" d="M535.14,340.68c-.19.56-.66.93-1.23.94l-1.83.02v-3.38s1.8.01,1.8.01c.6,0,1.09.39,1.24.97.13.46.13.93.02,1.43Z"/><path class="cls-3" d="M541.14,341.52c-.58.26-1.29.24-1.84,0-.39-.17-.57-.59-.61-.99l.98-.05c.08.14.14.35.23.42.16.13.38.16.59.1.18-.05.27-.17.26-.32-.03-.59-1.95-.31-1.93-1.5.01-.8.99-1.13,2.05-.9.46.1.79.47.77.93-1.15.25-1.03-.29-1.3-.36-.18-.05-.61.03-.51.29.16.42,1.72.21,1.92,1.17.1.47-.08.99-.6,1.22Z"/><path class="cls-5" d="M529.98,340.38l-.03,1.25h-1.06s0-3.37,0-3.37l2.12.04c.49,0,.74.48.77.89s-.12.88-.55,1.07c-.37.16-.74.14-1.24.12Z"/><polygon class="cls-3" points="537.7 338.28 538.76 338.29 537.52 341.62 536.36 341.63 535.09 338.29 536.17 338.26 536.93 340.59 537.7 338.28"/><path class="cls-5" d="M523.7,339.8c.13-.28.29-.16.09.09l2.53,2.59c-.18.2-.41.39-.71.55l-1.85-1.8-1.83,1.81c-.29-.19-.51-.34-.7-.58l2.21-2.18c.15-.15.26-.28.26-.48Z"/><path class="cls-13" d="M523.78,339.9c.06-.05,0-.14-.09-.09l-2.48-2.37c.2-.25.41-.38.7-.56l1.86,1.8,1.82-1.79c.29.14.49.3.7.55l-2.52,2.46Z"/><path class="cls-3" d="M520.52,341.48l1.54-1.51-1.54-1.54c.11-.33.3-.57.49-.79l2.33,2.31-2.32,2.29c-.21-.19-.37-.42-.5-.77Z"/><path class="cls-3" d="M527.02,341.47c-.14.31-.27.55-.51.79l-2.32-2.3,2.32-2.3c.25.25.38.48.51.75l-1.54,1.53,1.54,1.53Z"/><path class="cls-16" d="M523.79,342.94l-.6.49c-.34.07-.69-.11-.95-.26l1.52-1.53,1.55,1.55c-.29.12-.63.32-1,.24-.18-.06-.29-.34-.53-.49Z"/><path class="cls-17" d="M527.16,341.19l-1.27-1.24,1.24-1.24c.34.82.31,1.65.02,2.49Z"/><path class="cls-12" d="M521.62,339.93l-1.24,1.25c-.33-.85-.32-1.66,0-2.46l1.24,1.21Z"/><path class="cls-9" d="M543.96,340.33c-.27.06-.46.04-.72.01l.35-1.14.37,1.13Z"/><path class="cls-7" d="M534,340.67c-.17.28-.63.23-.86.17v-1.78c.27-.04.67-.06.85.22.23.36.25.98,0,1.4Z"/><path class="cls-19" d="M530.74,339.37c-.04.36-.56.4-.78.29-.03-.29-.03-.49.02-.68.32-.12.8,0,.76.39Z"/><rect id="Cadre" class="cls-14" x=".5" y=".5" width="886.94" height="591.29"/></g></svg>