<?xml version="1.0" encoding="UTF-8"?><svg id="Calque_2" xmlns="http://www.w3.org/2000/svg" viewBox="0 0 886.94 591.29"><defs><style>.cls-1{fill:none;}.cls-2{fill:#b04b4b;}</style></defs><g id="Symboles_Pétrole"><rect id="Cadre" class="cls-1" width="886.94" height="591.29"/></g><g id="Sanctions"><path class="cls-2" d="M430.01,41.62l7.36,4.52c2.44,1.53,4.95,2.95,7.29,4.64,4.74,3.28,9.57,6.43,14.07,10.04,9.27,6.87,17.81,14.67,25.93,22.85,16.02,16.57,29.53,35.77,38.75,57.01,9.34,21.17,14.6,44.09,15.87,67.21.65,11.56.38,23.18-.88,34.7-.58,5.76-1.45,11.5-2.52,17.2-1.07,5.7-2.38,11.35-3.98,16.95l-2.82-.83c1.62-5.47,2.97-11.03,4.09-16.64,1.12-5.61,2.03-11.27,2.67-16.96,1.36-11.37,1.75-22.86,1.23-34.3-1.01-22.88-5.97-45.64-15.01-66.74-8.91-21.17-22.14-40.4-37.93-57.09-8-8.24-16.44-16.12-25.62-23.07-4.45-3.65-9.24-6.85-13.95-10.18-2.32-1.71-4.81-3.16-7.23-4.71l-7.31-4.6Z"/><polygon class="cls-2" points="528.03 272.9 530.79 275.25 534.39 274.9 528.84 281.44 528.03 272.9"/><path class="cls-2" d="M469.1,59.64c.42.34.74.78.96,1.31l-.61.75c-.23-.64-.52-1.1-.87-1.38-.21-.17-.41-.27-.6-.28-.19-.02-.33.05-.45.18-.13.16-.15.41-.04.73.03.09.17.4.43.93.22.46.33.85.32,1.19,0,.33-.13.64-.37.93-.3.37-.68.56-1.14.58-.46.01-.9-.16-1.32-.51-.28-.23-.49-.45-.64-.68-.15-.22-.29-.51-.42-.86l.67-.83c.15.76.43,1.31.84,1.65.21.17.41.26.61.27.2.01.36-.05.48-.2.16-.2.19-.45.07-.76-.1-.25-.24-.56-.41-.93-.22-.43-.32-.82-.32-1.17,0-.34.11-.65.33-.93.3-.36.67-.54,1.12-.54.45,0,.89.19,1.34.55Z"/><path class="cls-2" d="M471.03,63.65c.37.31.58.62.65.95.06.32-.03.62-.26.9l-1.18,1.4c-.09.11-.09.2,0,.27.04.03.1.06.19.08.09.02.18.03.26.03l-.37.44c-.4-.06-.71-.18-.93-.37-.13-.11-.22-.22-.25-.33-.04-.11-.02-.23.05-.37-.46-.04-.84-.18-1.13-.43-.21-.17-.33-.39-.36-.66-.03-.26.04-.49.2-.69.21-.25.45-.38.71-.4s.63.07,1.09.28l.76.34.11-.13c.24-.28.18-.56-.15-.85-.17-.15-.38-.25-.62-.32-.24-.06-.49-.08-.77-.04l.57-.68c.52.02,1,.21,1.43.57ZM468.76,65.42c-.09.1-.13.22-.11.33.01.12.07.22.17.3.17.14.4.2.69.19l.64-.75c-.27-.11-.49-.18-.67-.22-.17-.04-.31-.05-.43-.03-.11.02-.21.07-.29.17Z"/><path class="cls-2" d="M474.68,66.79c.3.26.46.57.46.93,0,.36-.13.7-.42,1.02l-1.57,1.79-.74-.65,1.5-1.72c.16-.18.24-.37.25-.55s-.07-.34-.22-.47c-.12-.1-.25-.16-.41-.18-.16-.02-.37,0-.63.05l-1.64,1.88-.74-.65,2.46-2.82.74.65-.35.4c.28-.04.52-.03.72.02.21.06.39.16.56.31Z"/><path class="cls-2" d="M477.76,69.53c.32.29.56.62.71.98l-.56.62c-.12-.39-.3-.68-.53-.89-.25-.23-.52-.33-.82-.32-.3.01-.57.15-.81.42-.24.26-.34.54-.33.84.02.3.16.57.42.81.2.18.51.34.94.49l-.54.59c-.39-.14-.74-.35-1.05-.63-.45-.41-.7-.87-.75-1.38-.05-.51.12-.98.51-1.41.4-.44.86-.67,1.38-.69s1,.17,1.43.56Z"/><path class="cls-2" d="M480.63,70.93l.06.05-.68.73.94.88-.51.55-.94-.88-1.18,1.26c-.12.12-.17.26-.17.4s.07.28.2.4c.17.16.42.28.75.36l-.54.58c-.37-.13-.67-.3-.89-.51-.31-.29-.47-.6-.49-.93-.02-.33.11-.64.38-.93l1.22-1.31-.43-.4.11-.12,2.17-.14Z"/><path class="cls-2" d="M482.16,73.74l-2.58,2.71-.71-.68,2.59-2.71.71.68ZM482.99,72.14c.11.1.17.24.17.39,0,.16-.05.29-.15.4-.1.11-.23.16-.39.17-.16,0-.29-.04-.4-.15-.11-.1-.16-.23-.17-.39,0-.16.05-.29.15-.4.11-.11.24-.17.39-.17.16,0,.29.05.39.15Z"/><path class="cls-2" d="M484.3,75.72c.28.27.47.58.59.92s.13.67.04,1.01c-.08.33-.25.63-.51.89-.27.28-.57.46-.89.55-.32.09-.66.08-1.01-.03-.35-.11-.66-.3-.94-.57-.28-.28-.48-.59-.59-.93-.11-.34-.12-.68-.04-1,.09-.32.26-.63.54-.9.26-.27.56-.45.89-.53s.67-.07,1,.03c.34.11.64.29.92.56ZM482.22,76.38c-.26.27-.41.54-.43.83-.03.29.07.54.29.75.23.23.48.33.77.3.28-.02.56-.18.84-.46.27-.27.41-.55.42-.82s-.09-.53-.32-.75c-.21-.21-.46-.3-.75-.28s-.56.17-.81.42Z"/><path class="cls-2" d="M487.87,79.31c.28.29.41.61.39.96-.02.35-.19.68-.49.98l-1.71,1.66-.69-.7,1.63-1.59c.17-.17.27-.35.29-.53.02-.18-.04-.35-.18-.49-.11-.11-.24-.18-.4-.21-.16-.03-.37-.03-.63,0l-1.78,1.74-.69-.71,2.68-2.62.69.71-.38.37c.28-.02.52,0,.72.08.2.07.38.19.53.35Z"/><path class="cls-2" d="M490.32,81.88c.14.15.26.31.35.47.09.16.17.36.23.57l-.58.54c-.04-.22-.11-.43-.2-.64-.09-.21-.2-.37-.31-.49-.1-.1-.19-.17-.29-.19-.09-.02-.18,0-.25.07-.04.04-.06.1-.05.19,0,.09.05.29.15.61.13.46.2.81.18,1.07-.01.25-.12.46-.3.64-.26.25-.56.35-.88.31s-.63-.22-.92-.53c-.18-.19-.33-.4-.45-.61-.12-.21-.2-.4-.24-.56l.6-.56c.14.53.32.92.54,1.16.12.12.23.2.35.24s.21.02.28-.05c.04-.04.07-.09.08-.15,0-.06,0-.13,0-.22-.01-.09-.09-.34-.21-.76-.1-.32-.14-.59-.12-.81.02-.22.12-.41.29-.57.24-.23.52-.31.84-.26.32.05.63.23.92.54Z"/></g></svg>