<?xml version="1.0" encoding="UTF-8"?><svg id="Calque_2" xmlns="http://www.w3.org/2000/svg" viewBox="0 0 886.94 591.29"><defs><style>.cls-1,.cls-2,.cls-3{fill:none;}.cls-2,.cls-3{stroke:#5f5f5e;}.cls-2,.cls-3,.cls-4,.cls-5{font-family:GillSans-Bold, 'Gill Sans';font-size:8.21px;font-weight:700;}.cls-2,.cls-6,.cls-4{letter-spacing:0em;}.cls-4,.cls-5{fill:#fff;}.cls-7{letter-spacing:-.1em;}.cls-8{letter-spacing:-.09em;}.cls-9{letter-spacing:-.06em;}.cls-10{letter-spacing:-.01em;}.cls-11{letter-spacing:-.01em;}.cls-12{letter-spacing:-.04em;}</style></defs><g id="Etiquettes_pays"><text class="cls-3" transform="translate(235.08 70.85)"><tspan x="0" y="0">É</tspan></text><text class="cls-3" transform="translate(240.4 70.85) scale(.7)"><tspan class="cls-8" x="0" y="0">T</tspan><tspan class="cls-7" x="5.6" y="0">A</tspan><tspan x="11.62" y="0">TS</tspan></text><text class="cls-3" transform="translate(256.46 70.85)"><tspan x="0" y="0">-U</tspan></text><text class="cls-2" transform="translate(267.59 70.85) scale(.7)"><tspan x="0" y="0">NIS</tspan></text><text class="cls-5" transform="translate(235.08 70.85)"><tspan x="0" y="0">É</tspan></text><text class="cls-5" transform="translate(240.4 70.85) scale(.7)"><tspan class="cls-8" x="0" y="0">T</tspan><tspan class="cls-7" x="5.6" y="0">A</tspan><tspan x="11.62" y="0">TS</tspan></text><text class="cls-5" transform="translate(256.46 70.85)"><tspan x="0" y="0">-U</tspan></text><text class="cls-4" transform="translate(267.59 70.85) scale(.7)"><tspan x="0" y="0">NIS</tspan></text><text class="cls-3" transform="translate(382.43 341.53)"><tspan x="0" y="0">P</tspan></text><text class="cls-3" transform="translate(388.17 341.53) scale(.7)"><tspan x="0" y="0">A</tspan><tspan class="cls-11" x="6.84" y="0">N</tspan><tspan x="14.16" y="0">AMA</tspan></text><text class="cls-5" transform="translate(382.43 341.53)"><tspan x="0" y="0">P</tspan></text><text class="cls-5" transform="translate(388.17 341.53) scale(.7)"><tspan x="0" y="0">A</tspan><tspan class="cls-11" x="6.84" y="0">N</tspan><tspan x="14.16" y="0">AMA</tspan></text><text class="cls-3" transform="translate(336.7 267.95)"><tspan x="0" y="0">H</tspan></text><text class="cls-3" transform="translate(343.96 267.95) scale(.7)"><tspan class="cls-10" x="0" y="0">O</tspan><tspan x="6.87" y="0">NDURAS</tspan></text><text class="cls-5" transform="translate(336.7 267.95)"><tspan x="0" y="0">H</tspan></text><text class="cls-5" transform="translate(343.96 267.95) scale(.7)"><tspan class="cls-10" x="0" y="0">O</tspan><tspan x="6.87" y="0">NDURAS</tspan></text><text class="cls-3" transform="translate(291.99 272.03)"><tspan x="0" y="0">G</tspan></text><text class="cls-3" transform="translate(298.55 272.03) scale(.7)"><tspan class="cls-12" x="0" y="0">U</tspan><tspan class="cls-7" x="6.75" y="0">A</tspan><tspan x="12.77" y="0">TEMA</tspan><tspan class="cls-10" x="39.1" y="0">L</tspan><tspan class="cls-6" x="44.18" y="0">A</tspan></text><text class="cls-5" transform="translate(291.99 272.03)"><tspan x="0" y="0">G</tspan></text><text class="cls-5" transform="translate(298.55 272.03) scale(.7)"><tspan class="cls-12" x="0" y="0">U</tspan><tspan class="cls-7" x="6.75" y="0">A</tspan><tspan x="12.77" y="0">TEMA</tspan><tspan class="cls-10" x="39.1" y="0">L</tspan><tspan class="cls-6" x="44.18" y="0">A</tspan></text><text class="cls-3" transform="translate(339.85 296.74)"><tspan x="0" y="0">N</tspan></text><text class="cls-3" transform="translate(347.28 296.74) scale(.7)"><tspan x="0" y="0">ICAR</tspan><tspan class="cls-10" x="22.17" y="0">A</tspan><tspan x="28.9" y="0">G</tspan><tspan class="cls-12" x="35.46" y="0">U</tspan><tspan x="42.21" y="0">A</tspan></text><text class="cls-5" transform="translate(339.85 296.74)"><tspan x="0" y="0">N</tspan></text><text class="cls-5" transform="translate(347.28 296.74) scale(.7)"><tspan x="0" y="0">ICAR</tspan><tspan class="cls-10" x="22.17" y="0">A</tspan><tspan x="28.9" y="0">G</tspan><tspan class="cls-12" x="35.46" y="0">U</tspan><tspan x="42.21" y="0">A</tspan></text><text class="cls-3" transform="translate(214.08 183.24)"><tspan x="0" y="0">M</tspan></text><text class="cls-3" transform="translate(221.95 183.24) scale(.7)"><tspan x="0" y="0">EXIQUE</tspan></text><text class="cls-5" transform="translate(214.08 183.24)"><tspan x="0" y="0">M</tspan></text><text class="cls-5" transform="translate(221.95 183.24) scale(.7)"><tspan x="0" y="0">EXIQUE</tspan></text><text class="cls-3" transform="translate(443.47 382.99)"><tspan x="0" y="0">C</tspan></text><text class="cls-3" transform="translate(449.57 382.99) scale(.7)"><tspan x="0" y="0">O</tspan><tspan class="cls-9" x="6.99" y="0">L</tspan><tspan x="11.72" y="0">OMBIE</tspan></text><text class="cls-5" transform="translate(443.47 382.99)"><tspan x="0" y="0">C</tspan></text><text class="cls-5" transform="translate(449.57 382.99) scale(.7)"><tspan x="0" y="0">O</tspan><tspan class="cls-9" x="6.99" y="0">L</tspan><tspan x="11.72" y="0">OMBIE</tspan></text><text class="cls-3" transform="translate(499.17 341.66)"><tspan x="0" y="0">V</tspan></text><text class="cls-3" transform="translate(505.37 341.66) scale(.7)"><tspan x="0" y="0">ÉNÉZUÉ</tspan><tspan class="cls-11" x="36.46" y="0">L</tspan><tspan x="41.54" y="0">A</tspan></text><text class="cls-5" transform="translate(499.17 341.66)"><tspan x="0" y="0">V</tspan></text><text class="cls-5" transform="translate(505.37 341.66) scale(.7)"><tspan x="0" y="0">ÉNÉZUÉ</tspan><tspan class="cls-11" x="36.46" y="0">L</tspan><tspan x="41.54" y="0">A</tspan></text><rect id="Cadre" class="cls-1" width="886.94" height="591.29"/></g></svg>