<?xml version="1.0" encoding="UTF-8"?><svg id="Calque_2" xmlns="http://www.w3.org/2000/svg" viewBox="0 0 886.94 591.29"><defs><style>.cls-1{fill:none;}.cls-2{fill:#010101;}.cls-3{fill:#fff;}</style></defs><g id="Groupes_armés"><g id="Groupe_1"><path d="M465.24,332.77l5.52,5.52-5.52,5.52-5.52-5.52,5.52-5.52M465.24,329.94l-1.41,1.41-5.52,5.52-1.41,1.41,1.41,1.41,5.52,5.52,1.41,1.41,1.41-1.41,5.52-5.52,1.41-1.41-1.41-1.41-5.52-5.52-1.41-1.41h0Z"/><rect class="cls-2" x="460.84" y="333.88" width="8.81" height="8.81" transform="translate(-102.93 428.1) rotate(-45)"/><path class="cls-3" d="M465.24,332.77l5.52,5.52-5.52,5.52-5.52-5.52,5.52-5.52M465.24,331.35l-.71.71-5.52,5.52-.71.71.71.71,5.52,5.52.71.71.71-.71,5.52-5.52.71-.71-.71-.71-5.52-5.52-.71-.71h0Z"/><path class="cls-3" d="M465.74,338.43l-.31.31c.38.24.84.33,1.28.24l-.08-.42c-.3.06-.61.01-.88-.13ZM464.29,339.22s0,.02.01.03l.19.19s.03.02.05.01c.05-.02.09.03.11.12l.07.32c.01.05.06.09.12.08h0s.04,0,.04,0c.09-.02.14-.1.12-.19h0s-.07-.34-.07-.34c0-.04,0-.07.03-.1l.28-.28c.05-.05.05-.13,0-.18l-.11-.11.53-.53-.34-.34-.34.34.04.04-.73.73s0,.15,0,.21h0ZM464.89,339.2s-.04-.1,0-.14h0s.11-.11.11-.11c.04-.04.1-.04.14,0h0s.02.02.02.02c.04.04.04.1,0,.14h0s-.11.11-.11.11c-.04.04-.1.04-.14,0l-.02-.02ZM463.85,340.87s-.01.02-.02.03l-.05.05s-.05.02-.07,0l-.44-.44s-.03-.08,0-.11l.66-.72h0s.03-.03.05-.03h.04s.05-.04.06-.06l.12-.18.24.24-.58,1.23ZM466.68,336.9s-.05-.02-.07,0l-.16.16-.05-.05.22-.22.09.03c.05.02.11,0,.15-.04l.27-.27-.09-.21s0-.06.01-.08h0s.08-.04.11-.01l.16.16.07-.07.07.07-.07.07.03.03-.79.79-.12-.12.16-.16s.02-.05,0-.07ZM466.26,337.15l.19.19s.03.07,0,.1l-.54.64s-.07.04-.11,0c0,0,0,0,0,0l-.24-.24s-.03-.08,0-.11l.59-.59s.08-.03.11,0h0s0,0,0,0Z"/></g><g id="Groupe_2"><path d="M502.46,385.65l5.52,5.52-5.52,5.52-5.52-5.52,5.52-5.52M502.46,382.82l-1.41,1.41-5.52,5.52-1.41,1.41,1.41,1.41,5.52,5.52,1.41,1.41,1.41-1.41,5.52-5.52,1.41-1.41-1.41-1.41-5.52-5.52-1.41-1.41h0Z"/><rect class="cls-2" x="498.05" y="386.77" width="8.81" height="8.81" transform="translate(-129.43 469.86) rotate(-45)"/><path class="cls-3" d="M502.46,385.65l5.52,5.52-5.52,5.52-5.52-5.52,5.52-5.52M502.46,384.24l-.71.71-5.52,5.52-.71.71.71.71,5.52,5.52.71.71.71-.71,5.52-5.52.71-.71-.71-.71-5.52-5.52-.71-.71h0Z"/><path class="cls-3" d="M502.95,391.31l-.31.31c.38.24.84.33,1.28.24l-.08-.42c-.3.06-.61.01-.88-.13ZM501.51,392.1s0,.02.01.03l.19.19s.03.02.05.01c.05-.02.09.03.11.12l.07.32c.01.05.06.09.12.08h0s.04,0,.04,0c.09-.02.14-.1.12-.19h0s-.07-.34-.07-.34c0-.04,0-.07.03-.1l.28-.28c.05-.05.05-.13,0-.18l-.11-.11.53-.53-.34-.34-.34.34.04.04-.73.73s0,.15,0,.21h0ZM502.11,392.08s-.04-.1,0-.14h0s.11-.11.11-.11c.04-.04.1-.04.14,0h0s.02.02.02.02c.04.04.04.1,0,.14h0s-.11.11-.11.11c-.04.04-.1.04-.14,0l-.02-.02ZM501.06,393.76s-.01.02-.02.03l-.05.05s-.05.02-.07,0l-.44-.44s-.03-.08,0-.11l.66-.72h0s.03-.03.05-.03h.04s.05-.04.06-.06l.12-.18.24.24-.58,1.23ZM503.89,389.78s-.05-.02-.07,0l-.16.16-.05-.05.22-.22.09.03c.05.02.11,0,.15-.04l.27-.27-.09-.21s0-.06.01-.08h0s.08-.04.11-.01l.16.16.07-.07.07.07-.07.07.03.03-.79.79-.12-.12.16-.16s.02-.05,0-.07ZM503.48,390.03l.19.19s.03.07,0,.1l-.54.64s-.07.04-.11,0c0,0,0,0,0,0l-.24-.24s-.03-.08,0-.11l.59-.59s.08-.03.11,0h0s0,0,0,0Z"/></g><g id="Groupe_3"><path d="M433.44,343.42l5.52,5.52-5.52,5.52-5.52-5.52,5.52-5.52M433.44,340.6l-1.41,1.41-5.52,5.52-1.41,1.41,1.41,1.41,5.52,5.52,1.41,1.41,1.41-1.41,5.52-5.52,1.41-1.41-1.41-1.41-5.52-5.52-1.41-1.41h0Z"/><rect class="cls-2" x="429.04" y="344.54" width="8.81" height="8.81" transform="translate(-119.79 408.69) rotate(-45)"/><path class="cls-3" d="M433.44,343.42l5.52,5.52-5.52,5.52-5.52-5.52,5.52-5.52M433.44,342.01l-.71.71-5.52,5.52-.71.71.71.71,5.52,5.52.71.71.71-.71,5.52-5.52.71-.71-.71-.71-5.52-5.52-.71-.71h0Z"/><path class="cls-3" d="M433.93,349.09l-.31.31c.38.24.84.33,1.28.24l-.08-.42c-.3.06-.61.01-.88-.13ZM432.49,349.88s0,.02.01.03l.19.19s.03.02.05.01c.05-.02.09.03.11.12l.07.32c.01.05.06.09.12.08h0s.04,0,.04,0c.09-.02.14-.1.12-.19h0s-.07-.34-.07-.34c0-.04,0-.07.03-.1l.28-.28c.05-.05.05-.13,0-.18l-.11-.11.53-.53-.34-.34-.34.34.04.04-.73.73s0,.15,0,.21h0ZM433.09,349.86s-.04-.1,0-.14h0s.11-.11.11-.11c.04-.04.1-.04.14,0h0s.02.02.02.02c.04.04.04.1,0,.14h0s-.11.11-.11.11c-.04.04-.1.04-.14,0l-.02-.02ZM432.04,351.53s-.01.02-.02.03l-.05.05s-.05.02-.07,0l-.44-.44s-.03-.08,0-.11l.66-.72h0s.03-.03.05-.03h.04s.05-.04.06-.06l.12-.18.24.24-.58,1.23ZM434.87,347.55s-.05-.02-.07,0l-.16.16-.05-.05.22-.22.09.03c.05.02.11,0,.15-.04l.27-.27-.09-.21s0-.06.01-.08h0s.08-.04.11-.01l.16.16.07-.07.07.07-.07.07.03.03-.79.79-.12-.12.16-.16s.02-.05,0-.07ZM434.46,347.81l.19.19s.03.07,0,.1l-.54.64s-.07.04-.11,0c0,0,0,0,0,0l-.24-.24s-.03-.08,0-.11l.59-.59s.08-.03.11,0h0s0,0,0,0Z"/></g><g id="Groupe_4"><path d="M530.11,376.39l5.52,5.52-5.52,5.52-5.52-5.52,5.52-5.52M530.11,373.56l-1.41,1.41-5.52,5.52-1.41,1.41,1.41,1.41,5.52,5.52,1.41,1.41,1.41-1.41,5.52-5.52,1.41-1.41-1.41-1.41-5.52-5.52-1.41-1.41h0Z"/><rect class="cls-2" x="525.71" y="377.51" width="8.81" height="8.81" transform="translate(-114.78 486.71) rotate(-45)"/><path class="cls-3" d="M530.11,376.39l5.52,5.52-5.52,5.52-5.52-5.52,5.52-5.52M530.11,374.97l-.71.71-5.52,5.52-.71.71.71.71,5.52,5.52.71.71.71-.71,5.52-5.52.71-.71-.71-.71-5.52-5.52-.71-.71h0Z"/><path class="cls-3" d="M530.61,382.05l-.31.31c.38.24.84.33,1.28.24l-.08-.42c-.3.06-.61.01-.88-.13ZM529.16,382.84s0,.02.01.03l.19.19s.03.02.05.01c.05-.02.09.03.11.12l.07.32c.01.05.06.09.12.08h0s.04,0,.04,0c.09-.02.14-.1.12-.19h0s-.07-.34-.07-.34c0-.04,0-.07.03-.1l.28-.28c.05-.05.05-.13,0-.18l-.11-.11.53-.53-.34-.34-.34.34.04.04-.73.73s0,.15,0,.21h0ZM529.76,382.82s-.04-.1,0-.14h0s.11-.11.11-.11c.04-.04.1-.04.14,0h0s.02.02.02.02c.04.04.04.1,0,.14h0s-.11.11-.11.11c-.04.04-.1.04-.14,0l-.02-.02ZM528.72,384.49s-.01.02-.02.03l-.05.05s-.05.02-.07,0l-.44-.44s-.03-.08,0-.11l.66-.72h0s.03-.03.05-.03h.04s.05-.04.06-.06l.12-.18.24.24-.58,1.23ZM531.55,380.52s-.05-.02-.07,0l-.16.16-.05-.05.22-.22.09.03c.05.02.11,0,.15-.04l.27-.27-.09-.21s0-.06.01-.08h0s.08-.04.11-.01l.16.16.07-.07.07.07-.07.07.03.03-.79.79-.12-.12.16-.16s.02-.05,0-.07ZM531.13,380.77l.19.19s.03.07,0,.1l-.54.64s-.07.04-.11,0c0,0,0,0,0,0l-.24-.24s-.03-.08,0-.11l.59-.59s.08-.03.11,0h0s0,0,0,0Z"/></g><g id="Groupe_5"><path d="M454.2,448.98l5.52,5.52-5.52,5.52-5.52-5.52,5.52-5.52M454.2,446.16l-1.41,1.41-5.52,5.52-1.41,1.41,1.41,1.41,5.52,5.52,1.41,1.41,1.41-1.41,5.52-5.52,1.41-1.41-1.41-1.41-5.52-5.52-1.41-1.41h0Z"/><rect class="cls-2" x="449.8" y="450.1" width="8.81" height="8.81" transform="translate(-188.35 454.29) rotate(-45)"/><path class="cls-3" d="M454.2,448.98l5.52,5.52-5.52,5.52-5.52-5.52,5.52-5.52M454.2,447.57l-.71.71-5.52,5.52-.71.71.71.71,5.52,5.52.71.71.71-.71,5.52-5.52.71-.71-.71-.71-5.52-5.52-.71-.71h0Z"/><path class="cls-3" d="M454.7,454.65l-.31.31c.38.24.84.33,1.28.24l-.08-.42c-.3.06-.61.01-.88-.13ZM453.25,455.44s0,.02.01.03l.19.19s.03.02.05.01c.05-.02.09.03.11.12l.07.32c.01.05.06.09.12.08h0s.04,0,.04,0c.09-.02.14-.1.12-.19h0s-.07-.34-.07-.34c0-.04,0-.07.03-.1l.28-.28c.05-.05.05-.13,0-.18l-.11-.11.53-.53-.34-.34-.34.34.04.04-.73.73s0,.15,0,.21h0ZM453.85,455.42s-.04-.1,0-.14h0s.11-.11.11-.11c.04-.04.1-.04.14,0h0s.02.02.02.02c.04.04.04.1,0,.14h0s-.11.11-.11.11c-.04.04-.1.04-.14,0l-.02-.02ZM452.81,457.09s-.01.02-.02.03l-.05.05s-.05.02-.07,0l-.44-.44s-.03-.08,0-.11l.66-.72h0s.03-.03.05-.03h.04s.05-.04.06-.06l.12-.18.24.24-.58,1.23ZM455.64,453.11s-.05-.02-.07,0l-.16.16-.05-.05.22-.22.09.03c.05.02.11,0,.15-.04l.27-.27-.09-.21s0-.06.01-.08h0s.08-.04.11-.01l.16.16.07-.07.07.07-.07.07.03.03-.79.79-.12-.12.16-.16s.02-.05,0-.07ZM455.22,453.37l.19.19s.03.07,0,.1l-.54.64s-.07.04-.11,0c0,0,0,0,0,0l-.24-.24s-.03-.08,0-.11l.59-.59s.08-.03.11,0h0s0,0,0,0Z"/></g><g id="Groupe_6"><path d="M411.55,320.84l5.52,5.52-5.52,5.52-5.52-5.52,5.52-5.52M411.55,318.01l-1.41,1.41-5.52,5.52-1.41,1.41,1.41,1.41,5.52,5.52,1.41,1.41,1.41-1.41,5.52-5.52,1.41-1.41-1.41-1.41-5.52-5.52-1.41-1.41h0Z"/><rect class="cls-2" x="407.14" y="321.95" width="8.81" height="8.81" transform="translate(-110.23 386.57) rotate(-45)"/><path class="cls-3" d="M411.55,320.84l5.52,5.52-5.52,5.52-5.52-5.52,5.52-5.52M411.55,319.42l-.71.71-5.52,5.52-.71.71.71.71,5.52,5.52.71.71.71-.71,5.52-5.52.71-.71-.71-.71-5.52-5.52-.71-.71h0Z"/><path class="cls-3" d="M412.04,326.5l-.31.31c.38.24.84.33,1.28.24l-.08-.42c-.3.06-.61.01-.88-.13ZM410.59,327.29s0,.02.01.03l.19.19s.03.02.05.01c.05-.02.09.03.11.12l.07.32c.01.05.06.09.12.08h0s.04,0,.04,0c.09-.02.14-.1.12-.19h0s-.07-.34-.07-.34c0-.04,0-.07.03-.1l.28-.28c.05-.05.05-.13,0-.18l-.11-.11.53-.53-.34-.34-.34.34.04.04-.73.73s0,.15,0,.21h0ZM411.19,327.27s-.04-.1,0-.14h0s.11-.11.11-.11c.04-.04.1-.04.14,0h0s.02.02.02.02c.04.04.04.1,0,.14h0s-.11.11-.11.11c-.04.04-.1.04-.14,0l-.02-.02ZM410.15,328.94s-.01.02-.02.03l-.05.05s-.05.02-.07,0l-.44-.44s-.03-.08,0-.11l.66-.72h0s.03-.03.05-.03h.04s.05-.04.06-.06l.12-.18.24.24-.58,1.23ZM412.98,324.97s-.05-.02-.07,0l-.16.16-.05-.05.22-.22.09.03c.05.02.11,0,.15-.04l.27-.27-.09-.21s0-.06.01-.08h0s.08-.04.11-.01l.16.16.07-.07.07.07-.07.07.03.03-.79.79-.12-.12.16-.16s.02-.05,0-.07ZM412.56,325.22l.19.19s.03.07,0,.1l-.54.64s-.07.04-.11,0c0,0,0,0,0,0l-.24-.24s-.03-.08,0-.11l.59-.59s.08-.03.11,0h0s0,0,0,0Z"/></g><g id="Groupe_7"><path d="M357.08,270.72l5.52,5.52-5.52,5.52-5.52-5.52,5.52-5.52M357.08,267.9l-1.41,1.41-5.52,5.52-1.41,1.41,1.41,1.41,5.52,5.52,1.41,1.41,1.41-1.41,5.52-5.52,1.41-1.41-1.41-1.41-5.52-5.52-1.41-1.41h0Z"/><rect class="cls-2" x="352.68" y="271.84" width="8.81" height="8.81" transform="translate(-90.75 333.39) rotate(-45)"/><path class="cls-3" d="M357.08,270.72l5.52,5.52-5.52,5.52-5.52-5.52,5.52-5.52M357.08,269.31l-.71.71-5.52,5.52-.71.71.71.71,5.52,5.52.71.71.71-.71,5.52-5.52.71-.71-.71-.71-5.52-5.52-.71-.71h0Z"/><path class="cls-3" d="M357.57,276.39l-.31.31c.38.24.84.33,1.28.24l-.08-.42c-.3.06-.61.01-.88-.13ZM356.13,277.18s0,.02.01.03l.19.19s.03.02.05.01c.05-.02.09.03.11.12l.07.32c.01.05.06.09.12.08h0s.04,0,.04,0c.09-.02.14-.1.12-.19h0s-.07-.34-.07-.34c0-.04,0-.07.03-.1l.28-.28c.05-.05.05-.13,0-.18l-.11-.11.53-.53-.34-.34-.34.34.04.04-.73.73s0,.15,0,.21h0ZM356.73,277.15s-.04-.1,0-.14h0s.11-.11.11-.11c.04-.04.1-.04.14,0h0s.02.02.02.02c.04.04.04.1,0,.14h0s-.11.11-.11.11c-.04.04-.1.04-.14,0l-.02-.02ZM355.68,278.83s-.01.02-.02.03l-.05.05s-.05.02-.07,0l-.44-.44s-.03-.08,0-.11l.66-.72h0s.03-.03.05-.03h.04s.05-.04.06-.06l.12-.18.24.24-.58,1.23ZM358.51,274.85s-.05-.02-.07,0l-.16.16-.05-.05.22-.22.09.03c.05.02.11,0,.15-.04l.27-.27-.09-.21s0-.06.01-.08h0s.08-.04.11-.01l.16.16.07-.07.07.07-.07.07.03.03-.79.79-.12-.12.16-.16s.02-.05,0-.07ZM358.1,275.11l.19.19s.03.07,0,.1l-.54.64s-.07.04-.11,0c0,0,0,0,0,0l-.24-.24s-.03-.08,0-.11l.59-.59s.08-.03.11,0h0s0,0,0,0Z"/></g><g id="Groupe_8"><path d="M311.56,254.49l5.52,5.52-5.52,5.52-5.52-5.52,5.52-5.52M311.56,251.66l-1.41,1.41-5.52,5.52-1.41,1.41,1.41,1.41,5.52,5.52,1.41,1.41,1.41-1.41,5.52-5.52,1.41-1.41-1.41-1.41-5.52-5.52-1.41-1.41h0Z"/><rect class="cls-2" x="307.16" y="255.61" width="8.81" height="8.81" transform="translate(-92.6 296.46) rotate(-45)"/><path class="cls-3" d="M311.56,254.49l5.52,5.52-5.52,5.52-5.52-5.52,5.52-5.52M311.56,253.08l-.71.71-5.52,5.52-.71.71.71.71,5.52,5.52.71.71.71-.71,5.52-5.52.71-.71-.71-.71-5.52-5.52-.71-.71h0Z"/><path class="cls-3" d="M312.06,260.16l-.31.31c.38.24.84.33,1.28.24l-.08-.42c-.3.06-.61.01-.88-.13ZM310.61,260.94s0,.02.01.03l.19.19s.03.02.05.01c.05-.02.09.03.11.12l.07.32c.01.05.06.09.12.08h0s.04,0,.04,0c.09-.02.14-.1.12-.19h0s-.07-.34-.07-.34c0-.04,0-.07.03-.1l.28-.28c.05-.05.05-.13,0-.18l-.11-.11.53-.53-.34-.34-.34.34.04.04-.73.73s0,.15,0,.21h0ZM311.21,260.92s-.04-.1,0-.14h0s.11-.11.11-.11c.04-.04.1-.04.14,0h0s.02.02.02.02c.04.04.04.1,0,.14h0s-.11.11-.11.11c-.04.04-.1.04-.14,0l-.02-.02ZM310.16,262.6s-.01.02-.02.03l-.05.05s-.05.02-.07,0l-.44-.44s-.03-.08,0-.11l.66-.72h0s.03-.03.05-.03h.04s.05-.04.06-.06l.12-.18.24.24-.58,1.23ZM313,258.62s-.05-.02-.07,0l-.16.16-.05-.05.22-.22.09.03c.05.02.11,0,.15-.04l.27-.27-.09-.21s0-.06.01-.08h0s.08-.04.11-.01l.16.16.07-.07.07.07-.07.07.03.03-.79.79-.12-.12.16-.16s.02-.05,0-.07ZM312.58,258.88l.19.19s.03.07,0,.1l-.54.64s-.07.04-.11,0c0,0,0,0,0,0l-.24-.24s-.03-.08,0-.11l.59-.59s.08-.03.11,0h0s0,0,0,0Z"/></g><rect id="Cadre" class="cls-1" width="886.94" height="591.29"/></g></svg>