<?xml version="1.0" encoding="UTF-8"?><svg id="Calque_2" xmlns="http://www.w3.org/2000/svg" viewBox="0 0 886.94 591.29"><defs><style>.cls-1,.cls-2{fill:none;}.cls-3{fill:#a55e5e;}.cls-2{stroke:#a55e5e;stroke-miterlimit:10;}</style></defs><g id="Routes_drogues"><path id="Tracé_3a" class="cls-2" d="M513.64,307.81c-24.55-24.94-32.9-62.84-32.9-62.84"/><path id="Tracé_4" class="cls-2" d="M473.01,208.59c.79-69.79-72.21-85.01-72.21-85.01"/><path id="Tracé_3b" class="cls-2" d="M519.89,308.87c18.6-22.12,44.95-48.11,80.87-70.83,92.56-58.55,187.88-56.9,227.91-53.77"/><path id="Tracé_2b" class="cls-2" d="M465.24,404.16c-32.37-87.75,42.74-88.67,42.74-88.67"/><path id="Tracé_2a" class="cls-2" d="M435.66,392.29c4.42-24.02,21.48-33.11,21.48-33.11"/><path id="Tracé_2c" class="cls-2" d="M458.44,352.47c-27.86-8.25-38.62-25.56-45.51-25.84s-8.47,8.46-16.83,9.34-20.44-11.14-26.54-24.16.43-32.63-12.47-41.09-42.72-1.29-46.99-8.04-4.54-16.93-15.27-22.02-42.65-7.48-54.54-30.28-17.74-79.27-17.74-79.27"/><path id="Tracé_1" class="cls-2" d="M433.06,480.77c-1.63-36.82,24.96-51.97,24.96-51.97"/><polygon id="Flèche_1" class="cls-3" points="454.82 428.23 460.65 426.78 457.57 431.86 457.74 428.99 454.82 428.23"/><polygon id="Flèche_2c" class="cls-3" points="220.26 133.35 222.62 127.83 224.82 133.35 222.63 131.49 220.26 133.35"/><polygon id="Flèche_4" class="cls-3" points="402.15 126.55 397.83 122.39 403.77 122.3 401.25 123.68 402.15 126.55"/><polygon id="Flèche_3b" class="cls-3" points="825.85 181.97 831.49 184.03 826.1 186.52 827.84 184.23 825.85 181.97"/><polygon id="Flèche_2b" class="cls-3" points="504.98 313.97 510.98 314.41 506.46 318.27 507.52 315.6 504.98 313.97"/><polygon id="Flèche_3a" class="cls-3" points="478.87 247.48 480.02 241.58 483.33 246.52 480.79 245.16 478.87 247.48"/><rect id="Cadre" class="cls-1" width="886.94" height="591.29"/></g></svg>