<?xml version="1.0" encoding="UTF-8"?><svg id="Calque_2" xmlns="http://www.w3.org/2000/svg" viewBox="0 0 886.94 591.29"><defs><style>.cls-1,.cls-2{fill:none;}.cls-2,.cls-3,.cls-4{stroke:#000;stroke-miterlimit:10;stroke-width:.1px;}.cls-5,.cls-4{fill:#3d3d3d;}.cls-3{fill:#9c9b9b;}</style></defs><g id="Patrouilleurs"><g id="Patrouilleur_1"><path class="cls-3" d="M399.75,234.19v2.38s-2.8.2-5.78.45c-6.14.51-7.02-1.66-7.02-1.66,0,0,.43-.7,1.58-1.17s3.26-.43,3.26-.43c0,0,4.39.1,5.2.19s2.76.24,2.76.24Z"/><polygon class="cls-5" points="390.86 234.61 390.47 235.4 390.92 236.23 390.5 236.23 390.04 235.4 390.49 234.57 390.86 234.57 390.86 234.61"/><polygon class="cls-4" points="388.59 235.22 388.59 235.57 389.04 235.7 389.04 235.08 388.59 235.22"/><polyline class="cls-2" points="397.58 234.49 399.64 234.69 399.64 236.07 397.58 236.27"/><polygon class="cls-5" points="397.89 234.78 397.89 236.02 399.18 235.93 399.18 234.86 397.89 234.78"/><polygon class="cls-2" points="393.51 234.57 393.51 234.81 393.23 234.81 393.23 235.99 393.51 235.99 393.51 236.23 390.5 236.23 390.04 235.4 390.49 234.57 393.51 234.57"/></g><g id="Patrouilleur_2"><path class="cls-3" d="M412.9,253.87l1.27-2.02s2.48,1.33,5.13,2.7c5.47,2.83,5.05,5.14,5.05,5.14,0,0-.74.37-1.96.15s-2.99-1.37-2.99-1.37c0,0-3.66-2.42-4.3-2.93s-2.21-1.67-2.21-1.67Z"/><polygon class="cls-5" points="420.66 258.24 421.4 257.78 421.46 256.84 421.82 257.06 421.77 258.01 420.95 258.48 420.63 258.28 420.66 258.24"/><polygon class="cls-4" points="422.89 258.94 423.08 258.64 422.78 258.29 422.44 258.82 422.89 258.94"/><polyline class="cls-2" points="414.9 254.77 413.26 253.5 413.99 252.34 415.85 253.27"/><polygon class="cls-5" points="414.79 254.36 415.45 253.31 414.31 252.7 413.74 253.61 414.79 254.36"/><polygon class="cls-2" points="418.39 256.87 418.52 256.67 418.75 256.81 419.38 255.81 419.15 255.66 419.28 255.46 421.82 257.06 421.77 258.01 420.95 258.48 418.39 256.87"/></g><g id="Patrouilleur_3"><path class="cls-3" d="M494.52,265.89v-2.38s2.8-.2,5.78-.45c6.14-.51,7.02,1.66,7.02,1.66,0,0-.43.7-1.58,1.17s-3.26.43-3.26.43c0,0-4.39-.1-5.2-.19s-2.76-.24-2.76-.24Z"/><polygon class="cls-5" points="503.41 265.47 503.8 264.68 503.34 263.85 503.76 263.85 504.23 264.68 503.78 265.51 503.4 265.51 503.41 265.47"/><polygon class="cls-4" points="505.67 264.86 505.67 264.51 505.23 264.37 505.23 265 505.67 264.86"/><polyline class="cls-2" points="496.69 265.59 494.62 265.39 494.62 264.01 496.69 263.81"/><polygon class="cls-5" points="496.37 265.3 496.37 264.06 495.09 264.15 495.09 265.22 496.37 265.3"/><polygon class="cls-2" points="500.76 265.51 500.76 265.27 501.04 265.27 501.04 264.09 500.76 264.09 500.76 263.85 503.76 263.85 504.23 264.68 503.78 265.51 500.76 265.51"/></g><g id="Patrouilleur_4"><path class="cls-3" d="M408.52,299.43l-1.55-1.82s2.01-1.97,4.11-4.09c4.34-4.37,6.42-3.28,6.42-3.28,0,0,.13.81-.45,1.91s-2.2,2.44-2.2,2.44c0,0-3.41,2.77-4.08,3.23s-2.26,1.61-2.26,1.61Z"/><polygon class="cls-5" points="415.02 293.35 414.81 292.5 413.92 292.16 414.24 291.88 415.13 292.22 415.33 293.14 415.05 293.38 415.02 293.35"/><polygon class="cls-4" points="416.36 291.42 416.13 291.15 415.7 291.34 416.11 291.81 416.36 291.42"/><polyline class="cls-2" points="409.99 297.8 408.28 298.98 407.39 297.93 408.83 296.44"/><polygon class="cls-5" points="409.56 297.78 408.76 296.84 407.84 297.74 408.53 298.55 409.56 297.78"/><polygon class="cls-2" points="413.03 295.1 412.88 294.91 413.09 294.74 412.32 293.83 412.11 294.01 411.96 293.83 414.24 291.88 415.13 292.22 415.33 293.14 413.03 295.1"/></g><rect id="Cadre" class="cls-1" width="886.94" height="591.29"/></g></svg>