<?xml version="1.0" encoding="UTF-8"?><svg id="Calque_2" xmlns="http://www.w3.org/2000/svg" viewBox="0 0 905.67 603.78"><defs><style>.cls-1,.cls-2,.cls-3,.cls-4,.cls-5,.cls-6,.cls-7,.cls-8,.cls-9,.cls-10,.cls-11{fill:none;}.cls-12,.cls-13,.cls-14{fill:#b9c1c9;}.cls-12,.cls-13,.cls-14,.cls-15,.cls-16,.cls-17,.cls-18,.cls-2,.cls-19,.cls-20,.cls-21,.cls-3,.cls-4,.cls-5,.cls-6,.cls-7,.cls-22,.cls-8,.cls-9,.cls-10,.cls-11,.cls-23{stroke-linecap:round;stroke-linejoin:round;}.cls-12,.cls-13,.cls-14,.cls-15,.cls-16,.cls-17,.cls-18,.cls-19,.cls-20,.cls-21,.cls-5,.cls-6,.cls-23{stroke:#344250;}.cls-12,.cls-17,.cls-20,.cls-4,.cls-6,.cls-22,.cls-11{stroke-width:.2px;}.cls-13,.cls-16,.cls-21,.cls-5,.cls-23{stroke-width:.25px;}.cls-14,.cls-15{stroke-width:.3px;}.cls-15,.cls-16,.cls-17,.cls-18,.cls-22{fill:#d0d6dd;}.cls-18,.cls-19,.cls-8{stroke-width:.15px;}.cls-2{stroke-dasharray:8 7;stroke-width:1.6px;}.cls-2,.cls-3,.cls-4,.cls-7,.cls-8,.cls-9{stroke:#8c96a1;}.cls-19,.cls-20,.cls-21{fill:#9199a2;}.cls-3{stroke-dasharray:10 9;}.cls-3,.cls-7,.cls-10{stroke-width:.5px;}.cls-22,.cls-10,.cls-11{stroke:#5b6874;}.cls-9{stroke-width:1.4px;}.cls-24{fill:#5b6874;}.cls-23{fill:#dfe4e9;}</style></defs><g id="Navires"><g id="ship_1"><path class="cls-23" d="M528.7,208.49c-1.42-1.19-2.2-2.99-2.33-5.42.04-.91.17-1.76.4-2.54l9.74-33.16c.46-1.56,1.19-2.23,2.21-2.01l4.89,1.44c.97.36,1.23,1.32.77,2.88l-9.74,33.16c-.23.78-.57,1.56-1.04,2.35-1.42,1.97-3.06,3.07-4.89,3.3Z"/><path class="cls-7" d="M528.98,207.53c-1.18-.96-1.84-2.5-1.99-4.63.02-.84.14-1.65.37-2.43l9.62-32.73c.4-1.35.99-1.94,1.79-1.78l4.46,1.31c.76.3.94,1.12.54,2.47l-9.62,32.73c-.23.78-.56,1.53-1.01,2.24-1.27,1.7-2.66,2.64-4.17,2.81Z"/><path class="cls-16" d="M538.72,188.92l1.38.41,1.09-3.72-1.38-.41"/><line class="cls-7" x1="540.65" y1="187.46" x2="539.27" y2="187.06"/><path class="cls-16" d="M534.63,173.75l-1.38-.41,1.09-3.72,1.38.41"/><line class="cls-7" x1="535.18" y1="171.89" x2="533.8" y2="171.48"/><rect class="cls-13" x="533.12" y="174.78" width="1.66" height="9.3" rx=".83" ry=".83" transform="translate(995.67 502.08) rotate(-163.63)"/><line class="cls-5" x1="533.47" y1="183.22" x2="532.3" y2="182.87"/><rect class="cls-21" x="533.15" y="180.37" width=".78" height=".89" transform="translate(994.49 504.68) rotate(-163.63)"/><rect class="cls-21" x="533.78" y="178.25" width=".78" height=".89" transform="translate(996.31 500.69) rotate(-163.63)"/><circle class="cls-21" cx="534.73" cy="176.78" r=".22"/><line class="cls-3" x1="529.83" y1="204.66" x2="540.75" y2="167.46"/><circle class="cls-10" cx="531.69" cy="201.86" r=".66"/><circle class="cls-10" cx="532.94" cy="197.61" r=".66"/><circle class="cls-10" cx="534.19" cy="193.36" r=".66"/><circle class="cls-10" cx="535.43" cy="189.11" r=".66"/><circle class="cls-10" cx="537.78" cy="181.13" r=".66"/><circle class="cls-10" cx="539.18" cy="176.35" r=".66"/><circle class="cls-10" cx="540.59" cy="171.57" r=".66"/></g><g id="ship_2"><path class="cls-23" d="M552.09,214.13h2.14c.11,0,.17-.11.17-.34v-17.31c0-.26-.11-.39-.34-.39h-1.8c-.22,0-.34.13-.34.39v17.31c0,.22.06.34.17.34Z"/><path class="cls-15" d="M552.26,214.81h1.8l.17-.67h-2.14l.17.67Z"/><line class="cls-4" x1="552.48" y1="214.7" x2="552.31" y2="214.19"/><line class="cls-4" x1="552.82" y1="214.7" x2="552.71" y2="214.19"/><line class="cls-4" x1="553.16" y1="214.7" x2="553.16" y2="214.19"/><line class="cls-4" x1="553.49" y1="214.7" x2="553.61" y2="214.19"/><line class="cls-4" x1="553.83" y1="214.7" x2="554" y2="214.19"/><line class="cls-6" x1="552.09" y1="214.13" x2="554.22" y2="214.13"/><rect class="cls-4" x="552.26" y="199.69" width="1.8" height="13.32" rx=".9" ry=".9"/><rect class="cls-22" x="552.48" y="210.42" width="1.35" height="1.97" rx=".67" ry=".67"/><rect class="cls-22" x="552.48" y="207.9" width="1.35" height="1.97" rx=".67" ry=".67"/><rect class="cls-22" x="552.48" y="205.37" width="1.35" height="1.97" rx=".67" ry=".67"/><rect class="cls-14" x="553.27" y="196.94" width=".96" height="2.19" rx=".48" ry=".48"/><line class="cls-6" x1="553.38" y1="198.73" x2="554.11" y2="198.73"/><circle class="cls-19" cx="553.75" cy="197.78" r=".11"/><circle class="cls-24" cx="552.15" cy="213.97" r=".08"/><circle class="cls-24" cx="554.17" cy="213.97" r=".08"/><circle class="cls-24" cx="552.15" cy="196.32" r=".08"/><circle class="cls-24" cx="554.17" cy="196.32" r=".08"/></g><g id="ship_3"><path class="cls-23" d="M499.19,219.11c1.51-1.62,3.08-4.17,4.39-7.26l10.68-26.62c.71-1.84,1.05-3.05,1-3.64l-1.37-.56c-.44.39-1.05,1.49-1.82,3.3l-10.95,26.51c-1.22,3.12-1.88,6.05-1.93,8.26Z"/><path class="cls-7" d="M499.6,218.1c1.22-1.42,2.5-3.66,3.7-6.47l10.61-26.44c.61-1.59.92-2.64.91-3.14l-.91-.37c-.36.35-.87,1.31-1.55,2.88l-10.88,26.33c-1.11,2.85-1.75,5.35-1.87,7.22Z"/><line class="cls-6" x1="500.9" y1="214.91" x2="501.42" y2="213.63"/><circle class="cls-12" cx="501.46" cy="213.54" r=".59"/><rect class="cls-17" x="501.58" y="210.54" width="1.38" height="1.97" transform="translate(116.86 -173.8) rotate(22.16)"/><line class="cls-8" x1="501.58" y1="212.31" x2="502.33" y2="210.49"/><line class="cls-8" x1="501.9" y1="212.44" x2="502.64" y2="210.62"/><line class="cls-8" x1="502.22" y1="212.57" x2="502.96" y2="210.75"/><line class="cls-8" x1="501.45" y1="211.73" x2="502.73" y2="212.25"/><line class="cls-8" x1="501.63" y1="211.27" x2="502.91" y2="211.79"/><line class="cls-8" x1="501.82" y1="210.81" x2="503.1" y2="211.33"/><rect class="cls-12" x="502.72" y="205.6" width="1.97" height="4.83" rx=".53" ry=".53" transform="translate(115.64 -174.6) rotate(22.16)"/><path class="cls-19" d="M502.1,209.33l.49.63.5-.97-.62-.57-.37.91Z"/><path class="cls-19" d="M503.93,210.08l-.79.1.32-1.04.84.02-.37.91Z"/><line class="cls-6" x1="502.41" y1="209.35" x2="503.69" y2="209.87"/><rect class="cls-20" x="505.03" y="202.8" width=".99" height="1.48" transform="translate(114.09 -175.62) rotate(22.16)"/><circle class="cls-19" cx="506.32" cy="201.58" r=".3"/><rect class="cls-20" x="506.78" y="198.51" width=".99" height="1.48" transform="translate(112.6 -176.59) rotate(22.16)"/><rect class="cls-18" x="505.63" y="199.81" width=".34" height=".99" transform="translate(112.89 -175.96) rotate(22.16)"/><rect class="cls-18" x="507.41" y="200.54" width=".34" height=".99" transform="translate(113.29 -176.58) rotate(22.16)"/><rect class="cls-17" x="508.89" y="190.82" width="1.77" height="4.53" transform="translate(110.46 -177.99) rotate(22.16)"/><line class="cls-8" x1="508.52" y1="195.02" x2="510.23" y2="190.82"/><line class="cls-8" x1="508.93" y1="195.19" x2="510.64" y2="190.99"/><line class="cls-8" x1="509.34" y1="195.36" x2="511.05" y2="191.16"/><line class="cls-8" x1="508.38" y1="194.17" x2="510.03" y2="194.84"/><line class="cls-8" x1="508.66" y1="193.49" x2="510.31" y2="194.15"/><line class="cls-8" x1="508.94" y1="192.8" x2="510.58" y2="193.47"/><line class="cls-8" x1="509.22" y1="192.12" x2="510.86" y2="192.79"/><line class="cls-8" x1="509.5" y1="191.43" x2="511.14" y2="192.1"/><rect class="cls-12" x="510.77" y="186.36" width="1.77" height="4.24" rx=".48" ry=".48" transform="translate(108.86 -179.04) rotate(22.16)"/><line class="cls-9" x1="510.86" y1="190.44" x2="512.46" y2="186.52"/><line class="cls-6" x1="511.49" y1="186.55" x2="513.13" y2="187.22"/><circle class="cls-11" cx="513.5" cy="183.96" r=".79"/><line class="cls-11" x1="513.13" y1="183.81" x2="513.86" y2="184.11"/><line class="cls-11" x1="513.35" y1="184.33" x2="513.65" y2="183.6"/><line class="cls-2" x1="512.76" y1="185.79" x2="513.2" y2="184.69"/><path class="cls-24" d="M499.86,217.46l-.02-.86.64.26-.62.6Z"/></g><rect id="Cadre" class="cls-1" width="905.67" height="603.78"/></g><g id="Trajectoire_navires"><path id="Trajectoire_ship_1" class="cls-1" d="M543.12,149.82c-4.13,27.17-29.93,110.68-29.93,110.68"/><path id="Trajectoire_ship_2" class="cls-1" d="M552.71,187.46c1.71,37.46,0,55.31,0,55.31"/><path id="Trajectoire_ship_3" class="cls-1" d="M519.4,167.46c-30.02,80.62-29.36,74.4-29.36,74.4"/><rect id="Cadre-2" class="cls-1" width="905.67" height="603.78"/></g></svg>