<?xml version="1.0" encoding="UTF-8"?><svg id="Calque_2" xmlns="http://www.w3.org/2000/svg" viewBox="0 0 905.67 603.78"><defs><style>.cls-1,.cls-2,.cls-3,.cls-4,.cls-5,.cls-6,.cls-7,.cls-8,.cls-9,.cls-10,.cls-11{fill:none;}.cls-12{stroke-miterlimit:10;}.cls-12,.cls-13,.cls-14,.cls-15,.cls-16,.cls-17,.cls-18,.cls-19,.cls-20,.cls-21,.cls-22,.cls-4,.cls-5,.cls-7,.cls-23{stroke:#344250;}.cls-12,.cls-15,.cls-18,.cls-4,.cls-23{stroke-width:.25px;}.cls-12,.cls-23{fill:#dfe4e9;}.cls-13,.cls-14,.cls-15,.cls-16{fill:#b9c1c9;}.cls-13,.cls-14,.cls-15,.cls-16,.cls-17,.cls-18,.cls-19,.cls-20,.cls-2,.cls-21,.cls-22,.cls-3,.cls-4,.cls-5,.cls-6,.cls-24,.cls-7,.cls-8,.cls-9,.cls-10,.cls-11,.cls-23{stroke-linecap:round;stroke-linejoin:round;}.cls-13,.cls-19,.cls-22,.cls-3,.cls-5,.cls-24,.cls-10,.cls-11{stroke-width:.2px;}.cls-14,.cls-20,.cls-21,.cls-7,.cls-8{stroke-width:.15px;}.cls-16,.cls-17{stroke-width:.3px;}.cls-17,.cls-18,.cls-19,.cls-20,.cls-24{fill:#d0d6dd;}.cls-2{stroke-dasharray:8 7;stroke-width:1.6px;}.cls-2,.cls-3,.cls-6,.cls-8,.cls-9,.cls-11{stroke:#8c96a1;}.cls-21,.cls-22{fill:#9199a2;}.cls-6{stroke-width:.5px;}.cls-24,.cls-10{stroke:#5b6874;}.cls-9{stroke-width:1.4px;}.cls-25{fill:#5b6874;}.cls-11{stroke-dasharray:12 9;}</style></defs><g id="Déploiement_naval_2"><g id="ship_1"><path class="cls-12" d="M457.18,191.7c-1.03-2.35-1.51-5.29-.77-8.94l9.36-42.42c.33-1.48.82-2.2,1.47-2.15l6.47,1.44c.81.18,1.11.95.9,2.32l-4.81,22.28-4.06,7.45-2.99,12.49c-.88,3.63-3.63,5.84-5.57,7.54Z"/><line class="cls-11" x1="468.53" y1="140.6" x2="467.5" y2="170.08"/><line class="cls-10" x1="467.39" y1="142.04" x2="469.59" y2="142.12"/><line class="cls-10" x1="467.34" y1="143.51" x2="469.55" y2="143.59"/><line class="cls-10" x1="467.3" y1="144.99" x2="469.5" y2="145.07"/><line class="cls-3" x1="462.66" y1="174.67" x2="460.97" y2="184.19"/><line class="cls-3" x1="461.04" y1="174.31" x2="459.15" y2="183.79"/><line class="cls-3" x1="467" y1="162.47" x2="466.71" y2="170.47"/><line class="cls-3" x1="466.21" y1="161.87" x2="465.92" y2="169.87"/><path class="cls-20" d="M459.55,168.31l-1.62-.36.93-4.18,1.62.36"/><line class="cls-3" x1="460.01" y1="166.22" x2="458.39" y2="165.87"/><path class="cls-20" d="M463.02,152.68l-1.62-.36.93-4.18,1.62.36"/><line class="cls-3" x1="463.49" y1="150.59" x2="461.87" y2="150.23"/><path class="cls-20" d="M473.09,149.39l1.62.36.93-4.18-1.62-.36"/><line class="cls-3" x1="475.17" y1="147.66" x2="473.55" y2="147.3"/><rect class="cls-14" x="461.91" y="154.24" width="1.38" height="8.29" rx=".56" ry=".56" transform="translate(879.83 413.35) rotate(-167.47)"/><line class="cls-7" x1="462.42" y1="161.45" x2="461.47" y2="161.24"/><path class="cls-21" d="M462.83,160.55l-.63.28.13-1.24.73-.12-.24,1.08Z"/><path class="cls-21" d="M461.48,160.26l.45.52.4-1.18-.61-.42-.24,1.08Z"/><circle class="cls-21" cx="462.87" cy="157.17" r=".28"/><rect class="cls-21" x="462.85" y="154.86" width=".83" height="1.1" transform="translate(881.78 407.63) rotate(-167.47)"/><path class="cls-25" d="M457.72,189.27l.71-.97-.94-.21.23,1.18Z"/></g><g id="ship_2"><path class="cls-23" d="M395.23,184.18c.14-2.21-.26-5.18-1.21-8.4l-8.63-27.35c-.61-1.87-1.13-3.02-1.53-3.45l-1.41.44c-.1.58.13,1.82.68,3.71l8.35,27.44c1.04,3.19,2.38,5.87,3.75,7.61Z"/><path class="cls-6" d="M394.91,183.15c.04-1.87-.39-4.42-1.25-7.35l-8.57-27.17c-.54-1.62-.97-2.62-1.29-3l-.94.29c-.05.5.16,1.57.63,3.21l8.29,27.25c.95,2.9,2.04,5.25,3.13,6.77Z"/><line class="cls-5" x1="393.89" y1="179.85" x2="393.48" y2="178.54"/><circle class="cls-13" cx="393.45" cy="178.44" r=".59"/><rect class="cls-19" x="392.12" y="175.38" width="1.38" height="1.97" transform="translate(-34.6 124.13) rotate(-17.21)"/><line class="cls-8" x1="392.77" y1="177.41" x2="392.19" y2="175.53"/><line class="cls-8" x1="393.1" y1="177.31" x2="392.52" y2="175.43"/><line class="cls-8" x1="393.43" y1="177.21" x2="392.85" y2="175.33"/><line class="cls-8" x1="392.3" y1="177.04" x2="393.61" y2="176.64"/><line class="cls-8" x1="392.15" y1="176.57" x2="393.47" y2="176.17"/><line class="cls-8" x1="392" y1="176.1" x2="393.32" y2="175.7"/><rect class="cls-13" x="390.7" y="170.33" width="1.97" height="4.83" rx=".53" ry=".53" transform="translate(-33.57 123.63) rotate(-17.21)"/><path class="cls-21" d="M391.28,174.78l.78.17-.23-1.06-.84-.05.29.94Z"/><path class="cls-21" d="M393.17,174.2l-.54.58-.41-1.01.67-.52.29.94Z"/><line class="cls-5" x1="391.54" y1="174.6" x2="392.86" y2="174.19"/><rect class="cls-22" x="389.76" y="167.39" width=".99" height="1.48" transform="translate(-32.27 123) rotate(-17.21)"/><circle class="cls-21" cx="389.63" cy="166.11" r=".3"/><rect class="cls-22" x="388.39" y="162.97" width=".99" height="1.48" transform="translate(-31.03 122.4) rotate(-17.21)"/><rect class="cls-20" x="388.25" y="164.96" width=".34" height=".99" transform="translate(-31.56 122.34) rotate(-17.21)"/><rect class="cls-20" x="390.08" y="164.39" width=".34" height=".99" transform="translate(-31.31 122.86) rotate(-17.21)"/><rect class="cls-19" x="386.03" y="155.08" width="1.77" height="4.53" transform="translate(-29.23 121.53) rotate(-17.21)"/><line class="cls-8" x1="387.17" y1="159.65" x2="385.82" y2="155.32"/><line class="cls-8" x1="387.59" y1="159.52" x2="386.25" y2="155.19"/><line class="cls-8" x1="388.01" y1="159.39" x2="386.67" y2="155.05"/><line class="cls-8" x1="386.52" y1="159.07" x2="388.22" y2="158.55"/><line class="cls-8" x1="386.3" y1="158.37" x2="388" y2="157.84"/><line class="cls-8" x1="386.09" y1="157.66" x2="387.78" y2="157.14"/><line class="cls-8" x1="385.87" y1="156.95" x2="387.56" y2="156.43"/><line class="cls-8" x1="385.65" y1="156.25" x2="387.34" y2="155.72"/><rect class="cls-13" x="384.56" y="150.48" width="1.77" height="4.24" rx=".48" ry=".48" transform="translate(-27.89 120.88) rotate(-17.21)"/><line class="cls-9" x1="386.07" y1="154.62" x2="384.82" y2="150.57"/><line class="cls-5" x1="384.09" y1="151.21" x2="385.78" y2="150.69"/><circle class="cls-10" cx="384" cy="147.94" r=".79"/><line class="cls-10" x1="383.62" y1="148.05" x2="384.38" y2="147.82"/><line class="cls-10" x1="384.12" y1="148.31" x2="383.88" y2="147.56"/><line class="cls-2" x1="384.58" y1="149.82" x2="384.23" y2="148.69"/><path class="cls-25" d="M394.7,182.49l-.56-.65.66-.2-.1.86Z"/></g><g id="ship_3"><path class="cls-23" d="M582.5,248.15c1.51-1.62,3.08-4.17,4.39-7.26l10.68-26.62c.71-1.84,1.05-3.05,1-3.64l-1.37-.56c-.44.39-1.05,1.49-1.82,3.3l-10.95,26.51c-1.22,3.12-1.88,6.05-1.93,8.26Z"/><path class="cls-6" d="M582.9,247.14c1.22-1.42,2.5-3.66,3.7-6.47l10.61-26.44c.61-1.59.92-2.64.91-3.14l-.91-.37c-.36.35-.87,1.31-1.55,2.88l-10.88,26.33c-1.11,2.85-1.75,5.35-1.87,7.22Z"/><line class="cls-5" x1="584.21" y1="243.95" x2="584.73" y2="242.67"/><circle class="cls-13" cx="584.76" cy="242.58" r=".59"/><rect class="cls-19" x="584.89" y="239.59" width="1.38" height="1.97" transform="translate(133.96 -203.07) rotate(22.16)"/><line class="cls-8" x1="584.89" y1="241.35" x2="585.63" y2="239.53"/><line class="cls-8" x1="585.21" y1="241.48" x2="585.95" y2="239.66"/><line class="cls-8" x1="585.53" y1="241.61" x2="586.27" y2="239.79"/><line class="cls-8" x1="584.76" y1="240.77" x2="586.03" y2="241.29"/><line class="cls-8" x1="584.94" y1="240.31" x2="586.22" y2="240.83"/><line class="cls-8" x1="585.13" y1="239.85" x2="586.41" y2="240.38"/><rect class="cls-13" x="586.03" y="234.64" width="1.97" height="4.83" rx=".53" ry=".53" transform="translate(132.74 -203.87) rotate(22.16)"/><path class="cls-21" d="M585.41,238.37l.49.63.5-.97-.62-.57-.37.91Z"/><path class="cls-21" d="M587.24,239.12l-.79.1.32-1.04.84.02-.37.91Z"/><line class="cls-5" x1="585.72" y1="238.39" x2="587" y2="238.91"/><rect class="cls-22" x="588.34" y="231.84" width=".99" height="1.48" transform="translate(131.19 -204.89) rotate(22.16)"/><circle class="cls-21" cx="589.63" cy="230.62" r=".3"/><rect class="cls-22" x="590.09" y="227.55" width=".99" height="1.48" transform="translate(129.7 -205.86) rotate(22.16)"/><rect class="cls-20" x="588.94" y="228.85" width=".34" height=".99" transform="translate(129.99 -205.23) rotate(22.16)"/><rect class="cls-20" x="590.72" y="229.58" width=".34" height=".99" transform="translate(130.39 -205.85) rotate(22.16)"/><rect class="cls-19" x="592.2" y="219.86" width="1.77" height="4.53" transform="translate(127.56 -207.27) rotate(22.16)"/><line class="cls-8" x1="591.82" y1="224.06" x2="593.53" y2="219.86"/><line class="cls-8" x1="592.23" y1="224.23" x2="593.94" y2="220.03"/><line class="cls-8" x1="592.65" y1="224.4" x2="594.36" y2="220.2"/><line class="cls-8" x1="591.69" y1="223.21" x2="593.33" y2="223.88"/><line class="cls-8" x1="591.97" y1="222.53" x2="593.61" y2="223.2"/><line class="cls-8" x1="592.25" y1="221.84" x2="593.89" y2="222.51"/><line class="cls-8" x1="592.53" y1="221.16" x2="594.17" y2="221.83"/><line class="cls-8" x1="592.81" y1="220.47" x2="594.45" y2="221.14"/><rect class="cls-13" x="594.08" y="215.4" width="1.77" height="4.24" rx=".48" ry=".48" transform="translate(125.96 -208.31) rotate(22.16)"/><line class="cls-9" x1="594.17" y1="219.48" x2="595.77" y2="215.56"/><line class="cls-5" x1="594.8" y1="215.59" x2="596.44" y2="216.26"/><circle class="cls-10" cx="596.81" cy="213" r=".79"/><line class="cls-10" x1="596.44" y1="212.85" x2="597.17" y2="213.15"/><line class="cls-10" x1="596.66" y1="213.37" x2="596.96" y2="212.64"/><line class="cls-2" x1="596.06" y1="214.83" x2="596.51" y2="213.73"/><path class="cls-25" d="M583.16,246.51l-.02-.86.64.26-.62.6Z"/></g><g id="ship_4"><path class="cls-23" d="M433.06,214.33c.45-2.17.48-5.17,0-8.48l-4.65-28.3c-.34-1.94-.68-3.15-1.03-3.63l-1.46.23c-.18.56-.13,1.82.15,3.77l4.36,28.35c.58,3.3,1.53,6.14,2.63,8.06Z"/><path class="cls-6" d="M432.89,213.26c.31-1.85.24-4.43-.19-7.46l-4.62-28.11c-.3-1.68-.59-2.73-.85-3.16l-.97.15c-.12.49-.07,1.57.17,3.27l4.33,28.15c.53,3.01,1.27,5.49,2.14,7.15Z"/><line class="cls-5" x1="432.35" y1="209.86" x2="432.13" y2="208.49"/><circle class="cls-13" cx="432.12" cy="208.4" r=".59"/><rect class="cls-19" x="431.08" y="205.27" width="1.38" height="1.97" transform="translate(-27.06 70.44) rotate(-9.04)"/><line class="cls-8" x1="431.59" y1="207.28" x2="431.28" y2="205.34"/><line class="cls-8" x1="431.93" y1="207.23" x2="431.62" y2="205.28"/><line class="cls-8" x1="432.27" y1="207.17" x2="431.96" y2="205.23"/><line class="cls-8" x1="431.17" y1="206.85" x2="432.53" y2="206.63"/><line class="cls-8" x1="431.09" y1="206.36" x2="432.46" y2="206.15"/><line class="cls-8" x1="431.02" y1="205.88" x2="432.38" y2="205.66"/><rect class="cls-13" x="430.19" y="200.09" width="1.97" height="4.83" rx=".53" ry=".53" transform="translate(-26.47 70.3) rotate(-9.04)"/><path class="cls-21" d="M430.49,204.46l.74.28-.07-1.09-.83-.17.15.97Z"/><path class="cls-21" d="M432.44,204.15l-.62.5-.27-1.06.73-.42.15.97Z"/><line class="cls-5" x1="430.77" y1="204.32" x2="432.13" y2="204.1"/><rect class="cls-22" x="429.93" y="197" width=".99" height="1.48" transform="translate(-25.73 70.12) rotate(-9.04)"/><circle class="cls-21" cx="430.09" cy="195.65" r=".3"/><rect class="cls-22" x="429.2" y="192.42" width=".99" height="1.48" transform="translate(-25.02 69.95) rotate(-9.04)"/><rect class="cls-20" x="428.81" y="194.33" width=".34" height=".99" transform="translate(-25.29 69.86) rotate(-9.04)"/><rect class="cls-20" x="430.71" y="194.03" width=".34" height=".99" transform="translate(-25.22 70.15) rotate(-9.04)"/><rect class="cls-19" x="427.76" y="184.33" width="1.77" height="4.53" transform="translate(-24 69.7) rotate(-9.04)"/><line class="cls-8" x1="428.56" y1="188.9" x2="427.85" y2="184.42"/><line class="cls-8" x1="429" y1="188.83" x2="428.29" y2="184.35"/><line class="cls-8" x1="429.44" y1="188.76" x2="428.73" y2="184.28"/><line class="cls-8" x1="428.01" y1="188.24" x2="429.76" y2="187.96"/><line class="cls-8" x1="427.89" y1="187.51" x2="429.64" y2="187.23"/><line class="cls-8" x1="427.78" y1="186.78" x2="429.53" y2="186.5"/><line class="cls-8" x1="427.66" y1="186.05" x2="429.41" y2="185.77"/><line class="cls-8" x1="427.54" y1="185.32" x2="429.3" y2="185.04"/><rect class="cls-13" x="426.98" y="179.56" width="1.77" height="4.24" rx=".48" ry=".48" transform="translate(-23.24 69.52) rotate(-9.04)"/><line class="cls-9" x1="428.2" y1="183.77" x2="427.53" y2="179.58"/><line class="cls-5" x1="426.72" y1="180.11" x2="428.47" y2="179.83"/><circle class="cls-10" cx="427.1" cy="176.86" r=".79"/><line class="cls-10" x1="426.71" y1="176.92" x2="427.48" y2="176.8"/><line class="cls-10" x1="427.16" y1="177.25" x2="427.03" y2="176.47"/><line class="cls-2" x1="427.41" y1="178.81" x2="427.22" y2="177.64"/><path class="cls-25" d="M432.78,212.58l-.46-.72.68-.11-.22.83Z"/></g><g id="ship_5"><path class="cls-23" d="M396.31,247.68c-.4-2.18-1.51-4.96-3.2-7.86l-14.98-24.46c-1.05-1.67-1.82-2.66-2.32-2.97l-1.26.77c.05.59.57,1.73,1.56,3.43l14.73,24.61c1.78,2.84,3.73,5.11,5.48,6.48Z"/><path class="cls-6" d="M395.75,246.75c-.41-1.82-1.45-4.19-2.99-6.83l-14.88-24.29c-.91-1.44-1.57-2.31-1.98-2.6l-.84.51c.07.5.53,1.48,1.39,2.96l14.63,24.44c1.62,2.59,3.25,4.6,4.67,5.81Z"/><line class="cls-5" x1="393.96" y1="243.8" x2="393.25" y2="242.62"/><circle class="cls-13" cx="393.2" cy="242.54" r=".59"/><rect class="cls-19" x="391.38" y="239.7" width="1.38" height="1.97" transform="translate(-67.97 237.92) rotate(-31.2)"/><line class="cls-8" x1="392.29" y1="241.7" x2="391.27" y2="240.02"/><line class="cls-8" x1="392.58" y1="241.52" x2="391.56" y2="239.84"/><line class="cls-8" x1="392.88" y1="241.35" x2="391.86" y2="239.66"/><line class="cls-8" x1="391.74" y1="241.46" x2="392.92" y2="240.75"/><line class="cls-8" x1="391.48" y1="241.04" x2="392.66" y2="240.32"/><line class="cls-8" x1="391.23" y1="240.62" x2="392.41" y2="239.9"/><rect class="cls-13" x="389.12" y="235.02" width="1.97" height="4.83" rx=".53" ry=".53" transform="translate(-66.57 236.43) rotate(-31.2)"/><path class="cls-21" d="M390.21,239.51l.79-.02-.48-.98-.83.16.51.84Z"/><path class="cls-21" d="M391.9,238.48l-.39.69-.65-.88.52-.66.51.84Z"/><line class="cls-5" x1="390.41" y1="239.27" x2="391.59" y2="238.55"/><rect class="cls-22" x="387.11" y="232.56" width=".99" height="1.48" transform="translate(-64.8 234.53) rotate(-31.2)"/><circle class="cls-21" cx="386.51" cy="231.49" r=".3"/><rect class="cls-22" x="384.71" y="228.6" width=".99" height="1.48" transform="translate(-63.09 232.72) rotate(-31.2)"/><rect class="cls-20" x="385" y="230.65" width=".34" height=".99" transform="translate(-64.03 232.96) rotate(-31.2)"/><rect class="cls-20" x="386.65" y="229.66" width=".34" height=".99" transform="translate(-63.28 233.67) rotate(-31.2)"/><rect class="cls-19" x="380.87" y="221.38" width="1.77" height="4.53" transform="translate(-60.64 230.11) rotate(-31.2)"/><line class="cls-8" x1="382.56" y1="225.82" x2="380.21" y2="221.94"/><line class="cls-8" x1="382.93" y1="225.59" x2="380.59" y2="221.71"/><line class="cls-8" x1="383.31" y1="225.36" x2="380.97" y2="221.48"/><line class="cls-8" x1="381.79" y1="225.42" x2="383.31" y2="224.5"/><line class="cls-8" x1="381.41" y1="224.78" x2="382.93" y2="223.87"/><line class="cls-8" x1="381.03" y1="224.15" x2="382.54" y2="223.23"/><line class="cls-8" x1="380.64" y1="223.52" x2="382.16" y2="222.6"/><line class="cls-8" x1="380.26" y1="222.89" x2="381.78" y2="221.97"/><rect class="cls-13" x="378.29" y="217.27" width="1.77" height="4.24" rx=".48" ry=".48" transform="translate(-58.81 228.16) rotate(-31.2)"/><line class="cls-9" x1="380.28" y1="221.21" x2="378.08" y2="217.58"/><line class="cls-5" x1="377.53" y1="218.38" x2="379.05" y2="217.46"/><circle class="cls-10" cx="376.65" cy="215.22" r=".79"/><line class="cls-10" x1="376.32" y1="215.42" x2="376.99" y2="215.02"/><line class="cls-10" x1="376.86" y1="215.56" x2="376.45" y2="214.88"/><line class="cls-2" x1="377.68" y1="216.91" x2="377.06" y2="215.89"/><path class="cls-25" d="M395.39,246.16l-.7-.5.59-.36.11.85Z"/></g><g id="ship_6"><path class="cls-23" d="M475.28,205.3c1.51-1.62,3.08-4.17,4.39-7.26l10.68-26.62c.71-1.84,1.05-3.05,1-3.64l-1.37-.56c-.44.39-1.05,1.49-1.82,3.3l-10.95,26.51c-1.22,3.12-1.88,6.05-1.93,8.26Z"/><path class="cls-6" d="M475.69,204.3c1.22-1.42,2.5-3.66,3.7-6.47l10.61-26.44c.61-1.59.92-2.64.91-3.14l-.91-.37c-.36.35-.87,1.31-1.55,2.88l-10.88,26.33c-1.11,2.85-1.75,5.35-1.87,7.22Z"/><line class="cls-5" x1="476.99" y1="201.1" x2="477.51" y2="199.83"/><circle class="cls-13" cx="477.55" cy="199.73" r=".59"/><rect class="cls-19" x="477.68" y="196.74" width="1.38" height="1.97" transform="translate(109.89 -165.8) rotate(22.16)"/><line class="cls-8" x1="477.67" y1="198.51" x2="478.42" y2="196.68"/><line class="cls-8" x1="477.99" y1="198.64" x2="478.74" y2="196.81"/><line class="cls-8" x1="478.31" y1="198.77" x2="479.06" y2="196.94"/><line class="cls-8" x1="477.54" y1="197.92" x2="478.82" y2="198.44"/><line class="cls-8" x1="477.73" y1="197.47" x2="479" y2="197.99"/><line class="cls-8" x1="477.91" y1="197.01" x2="479.19" y2="197.53"/><rect class="cls-13" x="478.81" y="191.8" width="1.97" height="4.83" rx=".53" ry=".53" transform="translate(108.67 -166.6) rotate(22.16)"/><path class="cls-21" d="M478.2,195.53l.49.63.5-.97-.62-.57-.37.91Z"/><path class="cls-21" d="M480.02,196.27l-.79.1.32-1.04.84.02-.37.91Z"/><line class="cls-5" x1="478.51" y1="195.55" x2="479.79" y2="196.07"/><rect class="cls-22" x="481.13" y="189" width=".99" height="1.48" transform="translate(107.12 -167.62) rotate(22.16)"/><circle class="cls-21" cx="482.42" cy="187.78" r=".3"/><rect class="cls-22" x="482.87" y="184.71" width=".99" height="1.48" transform="translate(105.63 -168.59) rotate(22.16)"/><rect class="cls-20" x="481.73" y="186.01" width=".34" height=".99" transform="translate(105.92 -167.96) rotate(22.16)"/><rect class="cls-20" x="483.51" y="186.73" width=".34" height=".99" transform="translate(106.32 -168.58) rotate(22.16)"/><rect class="cls-19" x="484.99" y="177.02" width="1.77" height="4.53" transform="translate(103.49 -170) rotate(22.16)"/><line class="cls-8" x1="484.61" y1="181.22" x2="486.32" y2="177.02"/><line class="cls-8" x1="485.02" y1="181.39" x2="486.73" y2="177.19"/><line class="cls-8" x1="485.43" y1="181.55" x2="487.14" y2="177.35"/><line class="cls-8" x1="484.48" y1="180.37" x2="486.12" y2="181.04"/><line class="cls-8" x1="484.76" y1="179.68" x2="486.4" y2="180.35"/><line class="cls-8" x1="485.03" y1="179" x2="486.68" y2="179.67"/><line class="cls-8" x1="485.31" y1="178.31" x2="486.96" y2="178.98"/><line class="cls-8" x1="485.59" y1="177.63" x2="487.23" y2="178.3"/><rect class="cls-13" x="486.86" y="172.56" width="1.77" height="4.24" rx=".48" ry=".48" transform="translate(101.89 -171.04) rotate(22.16)"/><line class="cls-9" x1="486.95" y1="176.64" x2="488.55" y2="172.71"/><line class="cls-5" x1="487.58" y1="172.74" x2="489.22" y2="173.41"/><circle class="cls-10" cx="489.59" cy="170.16" r=".79"/><line class="cls-10" x1="489.23" y1="170.01" x2="489.96" y2="170.31"/><line class="cls-10" x1="489.44" y1="170.52" x2="489.74" y2="169.79"/><line class="cls-2" x1="488.85" y1="171.98" x2="489.29" y2="170.89"/><path class="cls-25" d="M475.95,203.66l-.02-.86.64.26-.62.6Z"/></g><g id="ship_7"><path class="cls-23" d="M516.43,175.99c1.51-1.62,3.08-4.17,4.39-7.26l10.68-26.62c.71-1.84,1.05-3.05,1-3.64l-1.37-.56c-.44.39-1.05,1.49-1.82,3.3l-10.95,26.51c-1.22,3.12-1.88,6.05-1.93,8.26Z"/><path class="cls-6" d="M516.84,174.98c1.22-1.42,2.5-3.66,3.7-6.47l10.61-26.44c.61-1.59.92-2.64.91-3.14l-.91-.37c-.36.35-.87,1.31-1.55,2.88l-10.88,26.33c-1.11,2.85-1.75,5.35-1.87,7.22Z"/><line class="cls-5" x1="518.14" y1="171.79" x2="518.66" y2="170.51"/><circle class="cls-13" cx="518.69" cy="170.42" r=".59"/><rect class="cls-19" x="518.82" y="167.42" width="1.38" height="1.97" transform="translate(101.87 -183.48) rotate(22.16)"/><line class="cls-8" x1="518.82" y1="169.19" x2="519.56" y2="167.37"/><line class="cls-8" x1="519.14" y1="169.32" x2="519.88" y2="167.5"/><line class="cls-8" x1="519.46" y1="169.45" x2="520.2" y2="167.63"/><line class="cls-8" x1="518.69" y1="168.61" x2="519.96" y2="169.13"/><line class="cls-8" x1="518.87" y1="168.15" x2="520.15" y2="168.67"/><line class="cls-8" x1="519.06" y1="167.69" x2="520.34" y2="168.21"/><rect class="cls-13" x="519.96" y="162.48" width="1.97" height="4.83" rx=".53" ry=".53" transform="translate(100.65 -184.28) rotate(22.16)"/><path class="cls-21" d="M519.34,166.21l.49.63.5-.97-.62-.57-.37.91Z"/><path class="cls-21" d="M521.17,166.96l-.79.1.32-1.04.84.02-.37.91Z"/><line class="cls-5" x1="519.65" y1="166.23" x2="520.93" y2="166.75"/><rect class="cls-22" x="522.27" y="159.68" width=".99" height="1.48" transform="translate(99.1 -185.3) rotate(22.16)"/><circle class="cls-21" cx="523.56" cy="158.46" r=".3"/><rect class="cls-22" x="524.02" y="155.39" width=".99" height="1.48" transform="translate(97.61 -186.28) rotate(22.16)"/><rect class="cls-20" x="522.87" y="156.69" width=".34" height=".99" transform="translate(97.9 -185.65) rotate(22.16)"/><rect class="cls-20" x="524.65" y="157.42" width=".34" height=".99" transform="translate(98.3 -186.26) rotate(22.16)"/><rect class="cls-19" x="526.13" y="147.7" width="1.77" height="4.53" transform="translate(95.47 -187.68) rotate(22.16)"/><line class="cls-8" x1="525.75" y1="151.9" x2="527.46" y2="147.7"/><line class="cls-8" x1="526.17" y1="152.07" x2="527.87" y2="147.87"/><line class="cls-8" x1="526.58" y1="152.24" x2="528.29" y2="148.04"/><line class="cls-8" x1="525.62" y1="151.05" x2="527.27" y2="151.72"/><line class="cls-8" x1="525.9" y1="150.37" x2="527.54" y2="151.04"/><line class="cls-8" x1="526.18" y1="149.68" x2="527.82" y2="150.35"/><line class="cls-8" x1="526.46" y1="149" x2="528.1" y2="149.67"/><line class="cls-8" x1="526.74" y1="148.31" x2="528.38" y2="148.98"/><rect class="cls-13" x="528.01" y="143.24" width="1.77" height="4.24" rx=".48" ry=".48" transform="translate(93.87 -188.73) rotate(22.16)"/><line class="cls-9" x1="528.1" y1="147.32" x2="529.7" y2="143.4"/><line class="cls-5" x1="528.73" y1="143.43" x2="530.37" y2="144.1"/><circle class="cls-10" cx="530.74" cy="140.84" r=".79"/><line class="cls-10" x1="530.37" y1="140.69" x2="531.1" y2="140.99"/><line class="cls-10" x1="530.59" y1="141.21" x2="530.89" y2="140.48"/><line class="cls-2" x1="529.99" y1="142.67" x2="530.44" y2="141.57"/><path class="cls-25" d="M517.1,174.34l-.02-.86.64.26-.62.6Z"/></g><g id="ship_8"><path class="cls-23" d="M471.6,227.06h2.14c.11,0,.17-.11.17-.34v-17.31c0-.26-.11-.39-.34-.39h-1.8c-.22,0-.34.13-.34.39v17.31c0,.22.06.34.17.34Z"/><path class="cls-17" d="M471.77,227.74h1.8l.17-.67h-2.14l.17.67Z"/><line class="cls-3" x1="471.99" y1="227.62" x2="471.82" y2="227.12"/><line class="cls-3" x1="472.33" y1="227.62" x2="472.21" y2="227.12"/><line class="cls-3" x1="472.66" y1="227.62" x2="472.66" y2="227.12"/><line class="cls-3" x1="473" y1="227.62" x2="473.11" y2="227.12"/><line class="cls-3" x1="473.34" y1="227.62" x2="473.51" y2="227.12"/><line class="cls-5" x1="471.6" y1="227.06" x2="473.73" y2="227.06"/><rect class="cls-3" x="471.77" y="212.62" width="1.8" height="13.32" rx=".9" ry=".9"/><rect class="cls-24" x="471.99" y="223.35" width="1.35" height="1.97" rx=".67" ry=".67"/><rect class="cls-24" x="471.99" y="220.82" width="1.35" height="1.97" rx=".67" ry=".67"/><rect class="cls-24" x="471.99" y="218.29" width="1.35" height="1.97" rx=".67" ry=".67"/><rect class="cls-16" x="472.78" y="209.86" width=".96" height="2.19" rx=".48" ry=".48"/><line class="cls-5" x1="472.89" y1="211.66" x2="473.62" y2="211.66"/><circle class="cls-21" cx="473.25" cy="210.71" r=".11"/><circle class="cls-25" cx="471.65" cy="226.89" r=".08"/><circle class="cls-25" cx="473.68" cy="226.89" r=".08"/><circle class="cls-25" cx="471.65" cy="209.24" r=".08"/><circle class="cls-25" cx="473.68" cy="209.24" r=".08"/></g><g id="ship_9"><path class="cls-23" d="M570.23,201c.31-2.01,1.27-4.59,2.75-7.28l13.57-23.49c.95-1.61,1.65-2.56,2.1-2.86l1.18.67c-.03.54-.5,1.63-1.4,3.26l-13.34,23.62c-1.56,2.65-3.3,4.78-4.87,6.07Z"/><path class="cls-6" d="M570.72,200.13c.34-1.68,1.23-3.88,2.58-6.34l13.48-23.33c.83-1.4,1.43-2.24,1.8-2.51l.79.45c-.05.46-.47,1.4-1.25,2.83l-13.25,23.46c-1.43,2.41-2.87,4.3-4.15,5.44Z"/><line class="cls-4" x1="572.29" y1="197.39" x2="572.92" y2="196.29"/><circle class="cls-15" cx="572.96" cy="196.21" r=".54"/><rect class="cls-18" x="573.29" y="193.32" width="1.45" height="2.08" transform="translate(976.04 647.85) rotate(-150.26)"/><line class="cls-3" x1="573.82" y1="195.45" x2="574.85" y2="193.64"/><line class="cls-3" x1="573.5" y1="195.27" x2="574.53" y2="193.46"/><line class="cls-3" x1="573.19" y1="195.09" x2="574.22" y2="193.28"/><line class="cls-3" x1="574.38" y1="195.19" x2="573.12" y2="194.48"/><line class="cls-3" x1="574.65" y1="194.72" x2="573.39" y2="194"/><line class="cls-3" x1="574.91" y1="194.25" x2="573.66" y2="193.53"/><rect class="cls-15" x="575.13" y="188.16" width="1.81" height="5.33" rx=".9" ry=".9" transform="translate(981.56 642.25) rotate(-150.26)"/><path class="cls-22" d="M575.77,193.12h-.73s.41-.91.41-.91l.76.12-.45.79Z"/><path class="cls-22" d="M574.2,192.23l.37.63.57-.82-.49-.59-.45.79Z"/><line class="cls-5" x1="575.58" y1="192.91" x2="574.48" y2="192.28"/><rect class="cls-22" x="577.62" y="186.62" width=".9" height="1.27" transform="translate(987.15 636.59) rotate(-150.26)"/><circle class="cls-22" cx="578.97" cy="185.69" r=".27"/><rect class="cls-19" x="579.68" y="184.69" width=".36" height=".72" transform="translate(991.58 633.34) rotate(-150.26)"/><rect class="cls-19" x="578.89" y="184.24" width=".36" height=".72" transform="translate(990.33 632.12) rotate(-150.26)"/><rect class="cls-22" x="579.87" y="182.7" width=".9" height="1.27" transform="translate(993.29 630.36) rotate(-150.26)"/><rect class="cls-15" x="581.52" y="177.72" width="1.63" height="4.16" rx=".81" ry=".81" transform="translate(998.81 624.76) rotate(-150.26)"/><path class="cls-22" d="M583.81,178.87l-.42-.55-.57.82.54.52.45-.79Z"/><path class="cls-22" d="M582.39,178.06l.68.08-.41.91-.72-.2.45-.79Z"/><circle class="cls-22" cx="581.84" cy="180.66" r=".23"/><circle class="cls-15" cx="583.91" cy="177.05" r=".54"/><line class="cls-4" x1="583.95" y1="176.97" x2="584.58" y2="175.87"/><rect class="cls-18" x="584.86" y="172.37" width="1.63" height="3.16" transform="translate(1007.9518 615.4938) rotate(-150.2638)"/><line class="cls-3" x1="585.25" y1="175.53" x2="586.82" y2="172.78"/><line class="cls-3" x1="584.89" y1="175.32" x2="586.46" y2="172.58"/><line class="cls-3" x1="584.54" y1="175.12" x2="586.11" y2="172.37"/><line class="cls-3" x1="585.91" y1="175.18" x2="584.5" y2="174.37"/><line class="cls-3" x1="586.23" y1="174.63" x2="584.81" y2="173.82"/><line class="cls-3" x1="586.54" y1="174.08" x2="585.13" y2="173.27"/><line class="cls-3" x1="586.86" y1="173.53" x2="585.44" y2="172.72"/><rect class="cls-15" x="586.43" y="170.41" width="1.45" height="1.9" rx=".72" ry=".72" transform="translate(1012.0019 611.3874) rotate(-150.2638)"/><line class="cls-5" x1="588.12" y1="171.13" x2="586.87" y2="170.41"/><circle class="cls-10" cx="588.44" cy="169.12" r=".68"/><line class="cls-10" x1="588.75" y1="169.3" x2="588.12" y2="168.94"/><line class="cls-10" x1="588.26" y1="169.44" x2="588.62" y2="168.81"/><path class="cls-25" d="M571.03,199.58l.63-.47-.55-.31-.08.79Z"/></g><g id="ship_10"><path class="cls-23" d="M520.67,246.4c1.51-1.62,3.08-4.17,4.39-7.26l10.68-26.62c.71-1.84,1.05-3.05,1-3.64l-1.37-.56c-.44.39-1.05,1.49-1.82,3.3l-10.95,26.51c-1.22,3.12-1.88,6.05-1.93,8.26Z"/><path class="cls-6" d="M521.08,245.4c1.22-1.42,2.5-3.66,3.7-6.47l10.61-26.44c.61-1.59.92-2.64.91-3.14l-.91-.37c-.36.35-.87,1.31-1.55,2.88l-10.88,26.33c-1.11,2.85-1.75,5.35-1.87,7.22Z"/><line class="cls-5" x1="522.38" y1="242.2" x2="522.91" y2="240.92"/><circle class="cls-13" cx="522.94" cy="240.83" r=".59"/><rect class="cls-19" x="523.07" y="237.84" width="1.38" height="1.97" transform="translate(128.74 -179.89) rotate(22.16)"/><line class="cls-8" x1="523.07" y1="239.61" x2="523.81" y2="237.78"/><line class="cls-8" x1="523.39" y1="239.74" x2="524.13" y2="237.91"/><line class="cls-8" x1="523.71" y1="239.87" x2="524.45" y2="238.04"/><line class="cls-8" x1="522.94" y1="239.02" x2="524.21" y2="239.54"/><line class="cls-8" x1="523.12" y1="238.56" x2="524.4" y2="239.08"/><line class="cls-8" x1="523.31" y1="238.11" x2="524.58" y2="238.63"/><rect class="cls-13" x="524.21" y="232.89" width="1.97" height="4.83" rx=".53" ry=".53" transform="translate(127.52 -180.69) rotate(22.16)"/><path class="cls-21" d="M523.59,236.63l.49.63.5-.97-.62-.57-.37.91Z"/><path class="cls-21" d="M525.42,237.37l-.79.1.32-1.04.84.02-.37.91Z"/><line class="cls-5" x1="523.9" y1="236.65" x2="525.18" y2="237.17"/><rect class="cls-22" x="526.52" y="230.1" width=".99" height="1.48" transform="translate(125.97 -181.7) rotate(22.16)"/><circle class="cls-21" cx="527.81" cy="228.87" r=".3"/><rect class="cls-22" x="528.27" y="225.81" width=".99" height="1.48" transform="translate(124.48 -182.68) rotate(22.16)"/><rect class="cls-20" x="527.12" y="227.1" width=".34" height=".99" transform="translate(124.77 -182.05) rotate(22.16)"/><rect class="cls-20" x="528.9" y="227.83" width=".34" height=".99" transform="translate(125.17 -182.67) rotate(22.16)"/><rect class="cls-19" x="530.38" y="218.12" width="1.77" height="4.53" transform="translate(122.34 -184.08) rotate(22.16)"/><line class="cls-8" x1="530" y1="222.32" x2="531.71" y2="218.12"/><line class="cls-8" x1="530.41" y1="222.48" x2="532.12" y2="218.28"/><line class="cls-8" x1="530.82" y1="222.65" x2="532.53" y2="218.45"/><line class="cls-8" x1="529.87" y1="221.46" x2="531.51" y2="222.13"/><line class="cls-8" x1="530.15" y1="220.78" x2="531.79" y2="221.45"/><line class="cls-8" x1="530.43" y1="220.09" x2="532.07" y2="220.76"/><line class="cls-8" x1="530.71" y1="219.41" x2="532.35" y2="220.08"/><line class="cls-8" x1="530.99" y1="218.72" x2="532.63" y2="219.39"/><rect class="cls-13" x="532.26" y="213.65" width="1.77" height="4.24" rx=".48" ry=".48" transform="translate(120.74 -185.13) rotate(22.16)"/><line class="cls-9" x1="532.35" y1="217.74" x2="533.94" y2="213.81"/><line class="cls-5" x1="532.97" y1="213.84" x2="534.62" y2="214.51"/><circle class="cls-10" cx="534.99" cy="211.25" r=".79"/><line class="cls-10" x1="534.62" y1="211.11" x2="535.35" y2="211.4"/><line class="cls-10" x1="534.84" y1="211.62" x2="535.13" y2="210.89"/><line class="cls-2" x1="534.24" y1="213.08" x2="534.69" y2="211.98"/><path class="cls-25" d="M521.34,244.76l-.02-.86.64.26-.62.6Z"/></g><rect id="Cadre" class="cls-1" width="905.67" height="603.78"/></g></svg>