<?xml version="1.0" encoding="UTF-8"?><svg id="Calque_2" xmlns="http://www.w3.org/2000/svg" viewBox="0 0 905.67 603.78"><defs><style>.cls-1,.cls-2,.cls-3,.cls-4{fill:none;}.cls-5{fill:#b9c1c9;}.cls-5,.cls-6,.cls-7,.cls-8,.cls-2,.cls-3,.cls-4,.cls-9{stroke-linecap:round;stroke-linejoin:round;}.cls-5,.cls-6,.cls-8,.cls-2,.cls-9{stroke:#344250;}.cls-5,.cls-6,.cls-8,.cls-4{stroke-width:.2px;}.cls-10{fill:#344250;}.cls-6{fill:#d0d6dd;}.cls-7{fill:rgba(140,150,161,.15);stroke:rgba(140,150,161,.5);}.cls-7,.cls-3{stroke-width:.5px;}.cls-8{fill:#9199a2;}.cls-2,.cls-9{stroke-width:.25px;}.cls-3{stroke:#4b5560;}.cls-4{stroke:#5b6874;}.cls-9{fill:#dfe4e9;}</style></defs><g id="Déploiement_aérien"><g id="MQ-9"><path class="cls-9" d="M515.94,127.05l-7.81-2.19.07-.44,7.9,1.63-.16.99Z"/><path class="cls-9" d="M516.82,127.2l8.1.42.07-.44-8.01-.97-.16.99Z"/><path class="cls-6" d="M517.03,123.15l1.35-1.31-.19-.2-1.19,1.05.04.46Z"/><path class="cls-6" d="M517.03,123.15l-.86-1.67.25-.13.79,1.38-.18.42Z"/><path class="cls-9" d="M515.66,131.54c-.54-.54-.61-1.46-.45-2.45.24-1.44.73-2.38.97-3.47l.54-2.63c.16-.65.34-1.02.54-1.22.13.25.18.65.12,1.32l-.32,2.67c-.13,1.11.04,2.16-.19,3.6-.16.99-.53,1.84-1.21,2.18Z"/><circle class="cls-5" cx="515.86" cy="130.33" r=".36"/><path class="cls-8" d="M517.11,124.75c-.25.15-.47.11-.66-.11l.11-.66.66.11-.11.66Z"/><line class="cls-2" x1="517.23" y1="121.93" x2="517.38" y2="121.05"/><g id="rotor"><line class="cls-4" x1="517.97" y1="121.94" x2="516.64" y2="121.04"/><line class="cls-4" x1="518.08" y1="121.28" x2="516.53" y2="121.7"/></g><circle class="cls-10" cx="517.3" cy="121.49" r=".13"/></g><path id="F35" class="cls-9" d="M550.33,141.5l1.29-4.36.83-1.58.14-.84,5.82-3.22-.23,1.38c-.07.41-.03.76.09.78s.26-.3.33-.71l.65-3.99-.42-.07-.09.56-5.71-.94.27-1.67,3.16-1.86.2-1.21-.31-.43-2.41-.4-.05.28-.56-.09-.27,1.67-.09-.02.09-2.27-1.49-.24-.64,2.18-.09-.02.27-1.67-.56-.09.05-.28-2.41-.4-.43.31-.2,1.21,2.4,2.78-.27,1.67-5.71-.94.09-.56-.42-.07-.65,3.99c-.07.41-.03.76.09.78s.26-.3.33-.71l.23-1.38,4.49,4.91-.14.84.28,1.76-.17,4.55c.2,3.46.38,3.49.57,3.52s.37.06,1.66-3.16Z"/><g id="helicoptere"><g id="corps"><path class="cls-9" d="M571.03,131.04l-1.46-.28,1.71-6.87.73.14-.98,7.02Z"/><path class="cls-6" d="M572.72,126.25l-2.92-.57.14-.73,2.92.57-.14.73Z"/><line class="cls-4" x1="570.96" y1="124.58" x2="569.27" y2="123.49"/><line class="cls-4" x1="571.24" y1="123.12" x2="569.27" y2="123.49"/><circle class="cls-10" cx="570.55" cy="123.74" r=".19"/><path class="cls-9" d="M567.92,143.15c-1.44-.38-1.87-2.07-1.54-4.28l.97-5.5c.35-1.83,1.41-3.33,3.07-3.1,1.63.41,2.04,2.2,1.68,4.03l-1.16,5.47c-.52,2.18-1.55,3.59-3.03,3.39Z"/><rect class="cls-6" x="572.08" y="132.48" width=".84" height="2.05" rx=".21" ry=".21" transform="translate(1109.0549 373.6667) rotate(-169.0141)"/><rect class="cls-6" x="566.87" y="131.47" width=".84" height="2.05" rx=".21" ry=".21" transform="translate(1098.9257 370.6702) rotate(-169.0142)"/><path class="cls-5" d="M569.43,141.73c-.89.33-1.68.18-2.38-.46l.5-1.61c.61.43,1.28.56,2.01.39l-.14,1.68Z"/></g><g id="rotor-2"><circle class="cls-7" cx="569.38" cy="135.65" r="8.38"/><line class="cls-3" x1="569.38" y1="135.65" x2="562.6" y2="130.72"/><line class="cls-3" x1="569.38" y1="135.65" x2="574.3" y2="128.88"/><line class="cls-3" x1="569.38" y1="135.65" x2="576.15" y2="140.58"/><line class="cls-3" x1="569.38" y1="135.65" x2="564.45" y2="142.42"/><circle class="cls-10" cx="569.38" cy="135.65" r=".51"/></g></g><rect id="Cadre" class="cls-1" width="905.67" height="603.78"/></g></svg>