<?xml version="1.0" encoding="UTF-8"?><svg id="Calque_2" xmlns="http://www.w3.org/2000/svg" xmlns:xlink="http://www.w3.org/1999/xlink" viewBox="0 0 905.67 603.78"><defs><style>.cls-1{fill:none;}.cls-2,.cls-3{fill-rule:evenodd;}.cls-2,.cls-4{fill:#fff;}.cls-3{fill:#d48182;}</style><symbol id="Frappe" viewBox="0 0 19.95 10.25"><polygon class="cls-3" points="2.87 10.09 .2 5.92 4.9 4.9 5.94 .2 9.98 2.8 14.03 .22 15.05 4.91 19.75 5.95 17.07 10.12 2.87 10.09"/><path class="cls-4" d="M6.02.4l3.96,2.55L13.95.42l1,4.6,4.6,1.02-2.55,3.96-14.06-.03L.4,6l4.6-1L6.02.4M5.85,0l-.08.35-.98,4.44L.35,5.76l-.35.08.19.3,2.53,3.97.07.12h.14s14.06.03,14.06.03h.14s.07-.11.07-.11l2.55-3.96.19-.3-.35-.08-4.44-.98-.97-4.44-.08-.35-.3.19-3.83,2.45L6.16.19l-.3-.19h0Z"/><path class="cls-2" d="M4.5,9.96c0-.14,0-.27.01-.41.2-2.86,2.69-5.02,5.55-4.82s4.87,2.51,4.83,5.25l-10.4-.02Z"/></symbol></defs><g id="Frappes"><use id="Frappe_1" width="19.95" height="10.25" transform="translate(437.76 263.59) scale(.4)" xlink:href="#Frappe"/><use id="Frappe_2" width="19.95" height="10.25" transform="translate(522.34 265.88) scale(.4)" xlink:href="#Frappe"/><use id="Frappe_3" width="19.95" height="10.25" transform="translate(537.86 279.22) scale(.4)" xlink:href="#Frappe"/><use id="Frappe_4" width="19.95" height="10.25" transform="translate(592.59 264.73) scale(.4)" xlink:href="#Frappe"/><use id="Frappe_5" width="19.95" height="10.25" transform="translate(570.87 289.76) scale(.4)" xlink:href="#Frappe"/><use id="Frappe_6" width="19.95" height="10.25" transform="translate(416.54 243.38) scale(.4)" xlink:href="#Frappe"/><use id="Frappe_7" width="19.95" height="10.25" transform="translate(488.66 265.14) scale(.4)" xlink:href="#Frappe"/><use id="Frappe_8" width="19.95" height="10.25" transform="translate(273.22 460.96) scale(.4)" xlink:href="#Frappe"/><use id="Frappe_9" width="19.95" height="10.25" transform="translate(282.13 435.16) scale(.4)" xlink:href="#Frappe"/><use id="Frappe_10" width="19.95" height="10.25" transform="translate(508.63 279.96) scale(.4)" xlink:href="#Frappe"/><use id="Frappe_11" width="19.95" height="10.25" transform="translate(278.15 415.19) scale(.4)" xlink:href="#Frappe"/><use id="Frappe_12" width="19.95" height="10.25" transform="translate(284.22 448.47) scale(.4)" xlink:href="#Frappe"/><use id="Frappe_13" width="19.95" height="10.25" transform="translate(556.89 287.3) scale(.4)" xlink:href="#Frappe"/><use id="Frappe_14" width="19.95" height="10.25" transform="translate(280.97 400.75) scale(.4)" xlink:href="#Frappe"/><use id="Frappe_15" width="19.95" height="10.25" transform="translate(506.82 269.79) scale(.4)" xlink:href="#Frappe"/><use id="Frappe_16" width="19.95" height="10.25" transform="translate(552.92 260.53) scale(.4)" xlink:href="#Frappe"/><use id="Frappe_17" width="19.95" height="10.25" transform="translate(439.57 247.06) scale(.4)" xlink:href="#Frappe"/><use id="Frappe_18" width="19.95" height="10.25" transform="translate(272.16 445.27) scale(.4)" xlink:href="#Frappe"/><use id="Frappe_19" width="19.95" height="10.25" transform="translate(273.72 428.19) scale(.4)" xlink:href="#Frappe"/><use id="Frappe_20" width="19.95" height="10.25" transform="translate(293.02 448.47) scale(.4)" xlink:href="#Frappe"/><use id="Frappe_21" width="19.95" height="10.25" transform="translate(288.42 412.4) scale(.4)" xlink:href="#Frappe"/><use id="Frappe_22" width="19.95" height="10.25" transform="translate(284.91 460.96) scale(.4)" xlink:href="#Frappe"/><use id="Frappe_23" width="19.95" height="10.25" transform="translate(289.53 431) scale(.4)" xlink:href="#Frappe"/><use id="Frappe_24" width="19.95" height="10.25" transform="translate(285.64 405.81) scale(.4)" xlink:href="#Frappe"/><use id="Frappe_25" width="19.95" height="10.25" transform="translate(523.78 282.42) scale(.4)" xlink:href="#Frappe"/><rect id="Cadre" class="cls-1" width="905.67" height="603.78"/></g></svg>