<?xml version="1.0" encoding="UTF-8"?><svg id="Calque_2" xmlns="http://www.w3.org/2000/svg" viewBox="0 0 905.67 603.78"><defs><style>.cls-1{fill:none;}.cls-2{fill:rgba(214,117,117,.3);fill-rule:evenodd;stroke:#681412;stroke-linecap:square;stroke-linejoin:bevel;stroke-width:.25px;}</style></defs><g id="Frappes_aériennes"><path id="_1" class="cls-2" d="M471.54,265.64c0,16.72-13.33,30.27-29.79,30.27s-29.79-13.55-29.79-30.27,13.33-30.27,29.79-30.27,29.79,13.55,29.79,30.27" vector-effect="non-scaling-stroke"/><path id="_2" class="cls-2" d="M539.06,267.92c0,7.15-5.7,12.94-12.73,12.94s-12.73-5.79-12.73-12.94,5.7-12.94,12.73-12.94,12.73,5.79,12.73,12.94" vector-effect="non-scaling-stroke"/><path id="_3" class="cls-2" d="M554.58,281.26c0,7.15-5.7,12.94-12.73,12.94s-12.73-5.79-12.73-12.94,5.7-12.94,12.73-12.94,12.73,5.79,12.73,12.94" vector-effect="non-scaling-stroke"/><path id="_4" class="cls-2" d="M612.62,266.78c0,9.01-7.18,16.3-16.04,16.3s-16.04-7.29-16.04-16.3,7.18-16.3,16.04-16.3,16.04,7.29,16.04,16.3" vector-effect="non-scaling-stroke"/><path id="_5" class="cls-2" d="M595.81,291.81c0,11.75-9.38,21.29-20.95,21.29s-20.95-9.53-20.95-21.29,9.38-21.29,20.95-21.29,20.95,9.53,20.95,21.29" vector-effect="non-scaling-stroke"/><path id="_6" class="cls-2" d="M426.42,245.43c0,3.3-2.64,5.98-5.89,5.98s-5.89-2.68-5.89-5.98,2.64-5.98,5.89-5.98,5.89,2.68,5.89,5.98" vector-effect="non-scaling-stroke"/><path id="_7" class="cls-2" d="M505.38,267.18c0,7.15-5.7,12.94-12.73,12.94s-12.73-5.79-12.73-12.94,5.7-12.94,12.73-12.94,12.73,5.79,12.73,12.94" vector-effect="non-scaling-stroke"/><path id="_8" class="cls-2" d="M283.09,463.01c0,3.3-2.64,5.98-5.89,5.98s-5.89-2.68-5.89-5.98,2.64-5.98,5.89-5.98,5.89,2.68,5.89,5.98" vector-effect="non-scaling-stroke"/><path id="_9" class="cls-2" d="M298.65,436.71c0,7.15-5.7,12.94-12.73,12.94s-12.73-5.79-12.73-12.94,5.7-12.94,12.73-12.94,12.73,5.79,12.73,12.94" vector-effect="non-scaling-stroke"/><path id="_10" class="cls-2" d="M533.57,282c0,11.75-9.38,21.29-20.95,21.29s-20.95-9.53-20.95-21.29,9.38-21.29,20.95-21.29,20.95,9.53,20.95,21.29" vector-effect="non-scaling-stroke"/><path id="_11" class="cls-2" d="M317.5,417.24c0,19.85-15.83,35.94-35.36,35.94s-35.36-16.09-35.36-35.94,15.83-35.94,35.36-35.94,35.36,16.09,35.36,35.94" vector-effect="non-scaling-stroke"/><path id="_12" class="cls-2" d="M304.25,450.52c0,9.01-7.18,16.3-16.04,16.3s-16.04-7.29-16.04-16.3,7.18-16.3,16.04-16.3,16.04,7.29,16.04,16.3" vector-effect="non-scaling-stroke"/><path id="_13" class="cls-2" d="M573.61,289.57c0,7.15-5.7,12.94-12.73,12.94s-12.73-5.79-12.73-12.94,5.7-12.94,12.73-12.94,12.73,5.79,12.73,12.94" vector-effect="non-scaling-stroke"/><path id="_14" class="cls-2" d="M290.85,402.8c0,3.3-2.64,5.98-5.89,5.98s-5.91-2.68-5.91-5.98,2.64-5.98,5.91-5.98,5.89,2.68,5.89,5.98" vector-effect="non-scaling-stroke"/><path id="_15" class="cls-2" d="M523.54,271.84c0,7.15-5.7,12.94-12.73,12.94s-12.73-5.79-12.73-12.94,5.7-12.94,12.73-12.94,12.73,5.79,12.73,12.94" vector-effect="non-scaling-stroke"/><path id="_16" class="cls-2" d="M569.64,262.58c0,7.15-5.7,12.94-12.73,12.94s-12.73-5.79-12.73-12.94,5.7-12.94,12.73-12.94,12.73,5.79,12.73,12.94" vector-effect="non-scaling-stroke"/><path id="_17" class="cls-2" d="M459.6,249.11c0,9.01-7.18,16.3-16.04,16.3s-16.04-7.29-16.04-16.3,7.18-16.3,16.04-16.3,16.04,7.29,16.04,16.3" vector-effect="non-scaling-stroke"/><path id="_18" class="cls-2" d="M288.88,447.32c0,7.15-5.7,12.94-12.73,12.94s-12.73-5.79-12.73-12.94,5.7-12.94,12.73-12.94,12.73,5.79,12.73,12.94" vector-effect="non-scaling-stroke"/><path id="_19" class="cls-2" d="M293.74,430.24c0,9.01-7.18,16.3-16.04,16.3s-16.04-7.29-16.04-16.3,7.18-16.3,16.04-16.3,16.04,7.29,16.04,16.3" vector-effect="non-scaling-stroke"/><path id="_20" class="cls-2" d="M321.87,448.97c0,13.95-11.13,25.26-24.86,25.26s-24.86-11.31-24.86-25.26,11.13-25.26,24.86-25.26,24.86,11.31,24.86,25.26" vector-effect="non-scaling-stroke"/><path id="_21" class="cls-2" d="M308.45,414.45c0,9.01-7.18,16.3-16.04,16.3s-16.04-7.29-16.04-16.3,7.18-16.3,16.04-16.3,16.04,7.29,16.04,16.3" vector-effect="non-scaling-stroke"/><path id="_22" class="cls-2" d="M307.58,461.95c0,10.49-8.36,18.98-18.68,18.98s-18.68-8.5-18.68-18.98,8.36-18.98,18.68-18.98,18.68,8.5,18.68,18.98" vector-effect="non-scaling-stroke"/><path id="_23" class="cls-2" d="M309.55,432.65c0,9.01-7.18,16.3-16.04,16.3s-16.04-7.29-16.04-16.3,7.18-16.3,16.04-16.3,16.04,7.29,16.04,16.3" vector-effect="non-scaling-stroke"/><path id="_24" class="cls-2" d="M295.51,407.85c0,3.3-2.64,5.98-5.89,5.98s-5.89-2.68-5.89-5.98,2.64-5.98,5.89-5.98,5.89,2.68,5.89,5.98" vector-effect="non-scaling-stroke"/><path id="_25" class="cls-2" d="M546.44,284.14c0,10.49-8.36,18.98-18.68,18.98s-18.68-8.5-18.68-18.98,8.36-18.98,18.68-18.98,18.68,8.5,18.68,18.98" vector-effect="non-scaling-stroke"/><rect id="Cadre" class="cls-1" width="905.67" height="603.78"/></g></svg>