<svg id="Calque_2" xmlns="http://www.w3.org/2000/svg" viewBox="0 0 905.67 603.78"><?xml version="1" encoding="UTF-8"?><svg xmlns="http://www.w3.org/2000/svg" viewBox="0 0 905.67 603.78"><defs><style>.cls-1,.cls-2,.cls-3,.cls-4{fill:none;}.cls-5{fill:#b9c1c9;}.cls-5,.cls-6,.cls-7,.cls-2,.cls-3,.cls-8,.cls-4,.cls-9{stroke-linecap:round;stroke-linejoin:round;stroke-width:0.2px;}.cls-5,.cls-6,.cls-7,.cls-3,.cls-9{stroke:#344250;}.cls-10{fill:#344250;}.cls-6,.cls-8{fill:#d0d6dd;}.cls-11{fill:#8c96a1;}.cls-7{fill:#9199a2;}.cls-2{stroke:#8c96a1;}.cls-8,.cls-4{stroke:#5b6874;}.cls-12{fill:#5b6874;}.cls-9{fill:#dfe4e9;}</style></defs><g><g><path class="cls-9" d="M518.04,261.22c0.8,1.180.62,2.35-0.14,3.19l-13.5,13.8c-0.630.65-1.110.87-1.420.67l-2.27-2.23c-0.21-0.31,0-0.790.64-1.43l13.5-13.8c0.83-0.77,2-0.98,3.19-0.2Z"/><path class="cls-2" d="M517.73,261.55c0.620.930.46,1.95-0.18,2.67l-13.35,13.63c-0.580.59-1,0.81-1.270.66l-1.85-1.81c-0.16-0.260.05-0.690.63-1.28l13.35-13.63c0.71-0.65,1.73-0.84,2.67-0.24Z"/><path class="cls-4" d="M515.37,261.54c0.990.6,1.8,1.39,2.42,2.36"/><rect class="cls-6" x="516.29" y="262.17" width="0.4" height="0.28" rx="0.14" ry="0.14" transform="translate(330.88 -286.43) rotate(44.39)"/><rect class="cls-6" x="516.79" y="262.66" width="0.4" height="0.28" rx="0.14" ry="0.14" transform="translate(331.36 -286.64) rotate(44.39)"/><ellipse class="cls-7" cx="516.26" cy="263.04" rx="0.08" ry="0.15" transform="translate(-32.84 447.98) rotate(-45.61)"/><path class="cls-4" d="M516.24,262.78 504.63,274.64"/><path class="cls-4" d="M516.52,263.06 504.92,274.91"/><ellipse class="cls-8" cx="514.95" cy="263.1" rx="0.1" ry="0.18" transform="translate(-33.28 447.06) rotate(-45.61)"/><ellipse class="cls-8" cx="516.23" cy="264.36" rx="0.1" ry="0.18" transform="translate(-33.79 448.35) rotate(-45.61)"/><ellipse class="cls-8" cx="513.76" cy="264.32" rx="0.1" ry="0.18" transform="translate(-34.51 446.58) rotate(-45.61)"/><ellipse class="cls-8" cx="515.04" cy="265.57" rx="0.1" ry="0.18" transform="translate(-35.02 447.87) rotate(-45.61)"/><ellipse class="cls-8" cx="512.57" cy="265.53" rx="0.1" ry="0.18" transform="translate(-35.73 446.09) rotate(-45.61)"/><ellipse class="cls-8" cx="513.85" cy="266.78" rx="0.1" ry="0.18" transform="translate(-36.24 447.38) rotate(-45.61)"/><ellipse class="cls-8" cx="511.38" cy="266.75" rx="0.1" ry="0.18" transform="translate(-36.95 445.61) rotate(-45.61)"/><ellipse class="cls-8" cx="512.66" cy="268" rx="0.1" ry="0.18" transform="translate(-37.46 446.9) rotate(-45.61)"/><ellipse class="cls-8" cx="508.61" cy="269.58" rx="0.1" ry="0.18" transform="translate(-39.81 444.48) rotate(-45.61)"/><ellipse class="cls-8" cx="509.89" cy="270.83" rx="0.1" ry="0.18" transform="translate(-40.32 445.77) rotate(-45.61)"/><ellipse class="cls-8" cx="507.42" cy="270.79" rx="0.1" ry="0.18" transform="translate(-41.04 443.99) rotate(-45.61)"/><ellipse class="cls-8" cx="508.7" cy="272.04" rx="0.1" ry="0.18" transform="translate(-41.55 445.28) rotate(-45.61)"/><ellipse class="cls-8" cx="506.24" cy="272.01" rx="0.1" ry="0.18" transform="translate(-42.26 443.51) rotate(-45.61)"/><ellipse class="cls-8" cx="507.51" cy="273.26" rx="0.1" ry="0.18" transform="translate(-42.77 444.8) rotate(-45.61)"/><ellipse class="cls-8" cx="505.05" cy="273.22" rx="0.1" ry="0.18" transform="translate(-43.48 443.02) rotate(-45.61)"/><ellipse class="cls-8" cx="506.33" cy="274.47" rx="0.1" ry="0.18" transform="translate(-44 444.31) rotate(-45.61)"/><path class="cls-6" transform="translate(333.73 -280.52) rotate(44.39)" d="M508.53,268.63h4.28v0.25h-4.28Z"/><rect class="cls-7" x="509.03" y="267.12" width="0.55" height="0.59" rx="0.27" ry="0.27" transform="translate(332.4 -279.94) rotate(44.39)"/><rect class="cls-7" x="511.76" y="269.8" width="0.55" height="0.59" rx="0.27" ry="0.27" transform="translate(335.05 -281.09) rotate(44.39)"/><ellipse class="cls-5" cx="510.25" cy="268.33" rx="0.08" ry="0.15" transform="translate(-38.43 445.27) rotate(-45.61)"/><ellipse class="cls-5" cx="511.1" cy="269.16" rx="0.08" ry="0.15" transform="translate(-38.77 446.13) rotate(-45.61)"/><rect class="cls-5" x="502.18" y="274.59" width="3.18" height="2.43" rx="1.22" ry="1.22" transform="translate(336.69 -273.68) rotate(44.39)"/><path class="cls-3" d="M503.35,274.1 505.49,276.18"/><path class="cls-6" transform="translate(335.17 -273.74) rotate(44.39)" d="M502.86,273.74h0.45v0.34h-0.45Z"/><path class="cls-6" transform="translate(337.68 -274.83) rotate(44.39)" d="M505.45,276.28h0.45v0.34h-0.45Z"/><path class="cls-11" transform="translate(335.93 -273.63) rotate(44.39)" d="M503.08,274.82h0.5v0.17h-0.5Z"/><path class="cls-11" transform="translate(336.59 -273.91) rotate(44.39)" d="M503.76,275.48h0.5v0.17h-0.5Z"/><path class="cls-11" transform="translate(337.24 -274.2) rotate(44.39)" d="M504.43,276.14h0.5v0.17h-0.5Z"/><path class="cls-11" transform="translate(336.07 -273.32) rotate(44.39)" d="M502.76,275.14h0.5v0.17h-0.5Z"/><path class="cls-11" transform="translate(337.38 -273.88) rotate(44.39)" d="M504.11,276.46h0.5v0.17h-0.5Z"/><rect class="cls-7" x="501.92" y="276.7" width="0.99" height="0.96" rx="0.48" ry="0.48" transform="translate(337.27 -272.34) rotate(44.39)"/><path class="cls-10" transform="translate(337.12 -272.69) rotate(44.39)" d="M502.17,276.73h1.19v0.2h-1.19Z"/><path class="cls-12" d="M517.29,261.99l-0.570.080.50.490.07-0.57Z"/></g><g><path class="cls-9" d="M522.06,275.6c0.8,1.180.62,2.35-0.14,3.19l-13.5,13.8c-0.630.65-1.110.87-1.420.67l-2.27-2.23c-0.21-0.31,0-0.790.64-1.43l13.5-13.8c0.83-0.77,2-0.98,3.19-0.2Z"/><path class="cls-2" d="M521.74,275.92c0.620.930.46,1.95-0.18,2.67l-13.35,13.63c-0.580.59-1,0.81-1.270.66l-1.85-1.81c-0.16-0.260.05-0.690.63-1.28l13.35-13.63c0.71-0.65,1.73-0.84,2.67-0.24Z"/><path class="cls-4" d="M519.39,275.91c0.990.6,1.8,1.39,2.42,2.36"/><rect class="cls-6" x="520.3" y="276.55" width="0.4" height="0.28" rx="0.14" ry="0.14" transform="translate(342.08 -285.14) rotate(44.39)"/><rect class="cls-6" x="520.8" y="277.03" width="0.4" height="0.28" rx="0.14" ry="0.14" transform="translate(342.56 -285.34) rotate(44.39)"/><ellipse class="cls-7" cx="520.28" cy="277.42" rx="0.08" ry="0.15" transform="translate(-41.91 455.17) rotate(-45.61)"/><path class="cls-4" d="M520.25,277.16 508.65,289.01"/><path class="cls-4" d="M520.54,277.43 508.93,289.29"/><ellipse class="cls-8" cx="518.96" cy="277.48" rx="0.1" ry="0.18" transform="translate(-42.35 454.25) rotate(-45.61)"/><ellipse class="cls-8" cx="520.24" cy="278.73" rx="0.1" ry="0.18" transform="translate(-42.86 455.54) rotate(-45.61)"/><ellipse class="cls-8" cx="517.78" cy="278.69" rx="0.1" ry="0.18" transform="translate(-43.57 453.77) rotate(-45.61)"/><ellipse class="cls-8" cx="519.06" cy="279.94" rx="0.1" ry="0.18" transform="translate(-44.08 455.06) rotate(-45.61)"/><ellipse class="cls-8" cx="516.59" cy="279.91" rx="0.1" ry="0.18" transform="translate(-44.8 453.28) rotate(-45.61)"/><ellipse class="cls-8" cx="517.87" cy="281.16" rx="0.1" ry="0.18" transform="translate(-45.31 454.57) rotate(-45.61)"/><ellipse class="cls-8" cx="515.4" cy="281.12" rx="0.1" ry="0.18" transform="translate(-46.02 452.8) rotate(-45.61)"/><ellipse class="cls-8" cx="516.68" cy="282.37" rx="0.1" ry="0.18" transform="translate(-46.53 454.09) rotate(-45.61)"/><ellipse class="cls-8" cx="512.63" cy="283.95" rx="0.1" ry="0.18" transform="translate(-48.88 451.67) rotate(-45.61)"/><ellipse class="cls-8" cx="513.91" cy="285.2" rx="0.1" ry="0.18" transform="translate(-49.39 452.96) rotate(-45.61)"/><ellipse class="cls-8" cx="511.44" cy="285.17" rx="0.1" ry="0.18" transform="translate(-50.1 451.18) rotate(-45.61)"/><ellipse class="cls-8" cx="512.72" cy="286.42" rx="0.1" ry="0.18" transform="translate(-50.61 452.47) rotate(-45.61)"/><ellipse class="cls-8" cx="510.25" cy="286.38" rx="0.1" ry="0.18" transform="translate(-51.33 450.7) rotate(-45.61)"/><ellipse class="cls-8" cx="511.53" cy="287.63" rx="0.1" ry="0.18" transform="translate(-51.84 451.99) rotate(-45.61)"/><ellipse class="cls-8" cx="509.06" cy="287.59" rx="0.1" ry="0.18" transform="translate(-52.55 450.21) rotate(-45.61)"/><ellipse class="cls-8" cx="510.34" cy="288.85" rx="0.1" ry="0.18" transform="translate(-53.06 451.5) rotate(-45.61)"/><path class="cls-6" transform="translate(344.93 -279.23) rotate(44.39)" d="M512.55,283h4.28v0.25h-4.28Z"/><rect class="cls-7" x="513.04" y="281.5" width="0.55" height="0.59" rx="0.27" ry="0.27" transform="translate(343.6 -278.65) rotate(44.39)"/><rect class="cls-7" x="515.78" y="284.17" width="0.55" height="0.59" rx="0.27" ry="0.27" transform="translate(346.25 -279.8) rotate(44.39)"/><ellipse class="cls-5" cx="514.27" cy="282.7" rx="0.08" ry="0.15" transform="translate(-47.49 452.46) rotate(-45.61)"/><ellipse class="cls-5" cx="515.12" cy="283.54" rx="0.08" ry="0.15" transform="translate(-47.83 453.32) rotate(-45.61)"/><rect class="cls-5" x="506.19" y="288.96" width="3.18" height="2.43" rx="1.22" ry="1.22" transform="translate(347.89 -272.39) rotate(44.39)"/><path class="cls-3" d="M507.37,288.47 509.5,290.56"/><path class="cls-6" transform="translate(346.37 -272.45) rotate(44.39)" d="M506.88,288.12h0.45v0.34h-0.45Z"/><path class="cls-6" transform="translate(348.88 -273.54) rotate(44.39)" d="M509.47,290.65h0.45v0.34h-0.45Z"/><path class="cls-11" transform="translate(347.13 -272.34) rotate(44.39)" d="M507.1,289.19h0.5v0.17h-0.5Z"/><path class="cls-11" transform="translate(347.79 -272.62) rotate(44.39)" d="M507.77,289.85h0.5v0.17h-0.5Z"/><path class="cls-11" transform="translate(348.44 -272.91) rotate(44.39)" d="M508.45,290.51h0.5v0.17h-0.5Z"/><path class="cls-11" transform="translate(347.27 -272.02) rotate(44.39)" d="M506.78,289.52h0.5v0.17h-0.5Z"/><path class="cls-11" transform="translate(348.58 -272.59) rotate(44.39)" d="M508.13,290.84h0.5v0.17h-0.5Z"/><rect class="cls-7" x="505.94" y="291.08" width="0.99" height="0.96" rx="0.48" ry="0.48" transform="translate(348.47 -271.05) rotate(44.39)"/><path class="cls-10" transform="translate(348.32 -271.4) rotate(44.39)" d="M506.19,291.1h1.19v0.2h-1.19Z"/><path class="cls-12" d="M521.31,276.36l-0.570.080.50.490.07-0.57Z"/></g><g><path class="cls-9" d="M541.58,269.56c0.8,1.180.62,2.35-0.14,3.19l-13.5,13.8c-0.630.65-1.110.87-1.420.67l-2.27-2.23c-0.21-0.31,0-0.790.64-1.43l13.5-13.8c0.83-0.77,2-0.98,3.19-0.2Z"/><path class="cls-2" d="M541.26,269.88c0.620.930.46,1.95-0.18,2.67l-13.35,13.63c-0.580.59-1,0.81-1.270.66l-1.85-1.81c-0.16-0.260.05-0.690.63-1.28l13.35-13.63c0.71-0.65,1.73-0.84,2.67-0.24Z"/><path class="cls-4" d="M538.91,269.87c0.990.6,1.8,1.39,2.42,2.36"/><rect class="cls-6" x="539.82" y="270.51" width="0.4" height="0.28" rx="0.14" ry="0.14" transform="translate(343.43 -300.51) rotate(44.39)"/><rect class="cls-6" x="540.32" y="271" width="0.4" height="0.28" rx="0.14" ry="0.14" transform="translate(343.91 -300.72) rotate(44.39)"/><ellipse class="cls-7" cx="539.8" cy="271.38" rx="0.08" ry="0.15" transform="translate(-31.73 467.3) rotate(-45.61)"/><path class="cls-4" d="M539.77,271.12 528.17,282.97"/><path class="cls-4" d="M540.06,271.4 528.45,283.25"/><ellipse class="cls-8" cx="538.48" cy="271.44" rx="0.1" ry="0.18" transform="translate(-32.17 466.38) rotate(-45.61)"/><ellipse class="cls-8" cx="539.76" cy="272.69" rx="0.1" ry="0.18" transform="translate(-32.68 467.67) rotate(-45.61)"/><ellipse class="cls-8" cx="537.3" cy="272.66" rx="0.1" ry="0.18" transform="translate(-33.39 465.9) rotate(-45.61)"/><ellipse class="cls-8" cx="538.57" cy="273.91" rx="0.1" ry="0.18" transform="translate(-33.9 467.19) rotate(-45.61)"/><ellipse class="cls-8" cx="536.11" cy="273.87" rx="0.1" ry="0.18" transform="translate(-34.62 465.42) rotate(-45.61)"/><ellipse class="cls-8" cx="537.39" cy="275.12" rx="0.1" ry="0.18" transform="translate(-35.13 466.71) rotate(-45.61)"/><ellipse class="cls-8" cx="534.92" cy="275.08" rx="0.1" ry="0.18" transform="translate(-35.84 464.93) rotate(-45.61)"/><ellipse class="cls-8" cx="536.2" cy="276.34" rx="0.1" ry="0.18" transform="translate(-36.35 466.22) rotate(-45.61)"/><ellipse class="cls-8" cx="532.15" cy="277.92" rx="0.1" ry="0.18" transform="translate(-38.7 463.8) rotate(-45.61)"/><ellipse class="cls-8" cx="533.43" cy="279.17" rx="0.1" ry="0.18" transform="translate(-39.21 465.09) rotate(-45.61)"/><ellipse class="cls-8" cx="530.96" cy="279.13" rx="0.1" ry="0.18" transform="translate(-39.92 463.32) rotate(-45.61)"/><ellipse class="cls-8" cx="532.24" cy="280.38" rx="0.1" ry="0.18" transform="translate(-40.43 464.61) rotate(-45.61)"/><ellipse class="cls-8" cx="529.77" cy="280.34" rx="0.1" ry="0.18" transform="translate(-41.15 462.83) rotate(-45.61)"/><ellipse class="cls-8" cx="531.05" cy="281.59" rx="0.1" ry="0.18" transform="translate(-41.66 464.12) rotate(-45.61)"/><ellipse class="cls-8" cx="528.58" cy="281.56" rx="0.1" ry="0.18" transform="translate(-42.37 462.35) rotate(-45.61)"/><ellipse class="cls-8" cx="529.86" cy="282.81" rx="0.1" ry="0.18" transform="translate(-42.88 463.64) rotate(-45.61)"/><path class="cls-6" transform="translate(346.27 -294.6) rotate(44.39)" d="M532.06,276.97h4.28v0.25h-4.28Z"/><rect class="cls-7" x="532.56" y="275.46" width="0.55" height="0.59" rx="0.27" ry="0.27" transform="translate(344.95 -294.03) rotate(44.39)"/><rect class="cls-7" x="535.3" y="278.14" width="0.55" height="0.59" rx="0.27" ry="0.27" transform="translate(347.6 -295.18) rotate(44.39)"/><ellipse class="cls-5" cx="533.79" cy="276.67" rx="0.08" ry="0.15" transform="translate(-37.31 464.6) rotate(-45.61)"/><ellipse class="cls-5" cx="534.64" cy="277.5" rx="0.08" ry="0.15" transform="translate(-37.65 465.46) rotate(-45.61)"/><rect class="cls-5" x="525.71" y="282.93" width="3.18" height="2.43" rx="1.22" ry="1.22" transform="translate(349.24 -287.76) rotate(44.39)"/><path class="cls-3" d="M526.89,282.43 529.02,284.52"/><path class="cls-6" transform="translate(347.71 -287.83) rotate(44.39)" d="M526.4,282.08h0.45v0.34h-0.45Z"/><path class="cls-6" transform="translate(350.23 -288.92) rotate(44.39)" d="M528.99,284.62h0.45v0.34h-0.45Z"/><path class="cls-11" transform="translate(348.48 -287.71) rotate(44.39)" d="M526.62,283.16h0.5v0.17h-0.5Z"/><path class="cls-11" transform="translate(349.13 -288) rotate(44.39)" d="M527.29,283.82h0.5v0.17h-0.5Z"/><path class="cls-11" transform="translate(349.79 -288.28) rotate(44.39)" d="M527.97,284.48h0.5v0.17h-0.5Z"/><path class="cls-11" transform="translate(348.62 -287.4) rotate(44.39)" d="M526.3,283.48h0.5v0.17h-0.5Z"/><path class="cls-11" transform="translate(349.92 -287.97) rotate(44.39)" d="M527.65,284.8h0.5v0.17h-0.5Z"/><rect class="cls-7" x="525.46" y="285.04" width="0.99" height="0.96" rx="0.48" ry="0.48" transform="translate(349.81 -286.43) rotate(44.39)"/><path class="cls-10" transform="translate(349.67 -286.77) rotate(44.39)" d="M525.71,285.07h1.19v0.2h-1.19Z"/><path class="cls-12" d="M540.83,270.33l-0.570.080.50.490.07-0.57Z"/></g><g><path class="cls-9" d="M561.1,273.08c0.8,1.180.62,2.35-0.14,3.19l-13.5,13.8c-0.630.65-1.110.87-1.420.67l-2.27-2.23c-0.21-0.31,0-0.790.64-1.43l13.5-13.8c0.83-0.77,2-0.98,3.19-0.2Z"/><path class="cls-2" d="M560.78,273.4c0.620.930.46,1.95-0.18,2.67l-13.35,13.63c-0.580.59-1,0.81-1.270.66l-1.85-1.81c-0.16-0.260.05-0.690.63-1.28l13.35-13.63c0.71-0.65,1.73-0.84,2.67-0.24Z"/><path class="cls-4" d="M558.42,273.39c0.990.6,1.8,1.39,2.42,2.36"/><rect class="cls-6" x="559.34" y="274.03" width="0.4" height="0.28" rx="0.14" ry="0.14" transform="translate(351.46 -313.16) rotate(44.39)"/><rect class="cls-6" x="559.84" y="274.52" width="0.4" height="0.28" rx="0.14" ry="0.14" transform="translate(351.94 -313.37) rotate(44.39)"/><ellipse class="cls-7" cx="559.32" cy="274.9" rx="0.08" ry="0.15" transform="translate(-28.38 482.31) rotate(-45.61)"/><path class="cls-4" d="M559.29,274.64 547.69,286.49"/><path class="cls-4" d="M559.58,274.92 547.97,286.77"/><ellipse class="cls-8" cx="558" cy="274.96" rx="0.1" ry="0.18" transform="translate(-28.82 481.39) rotate(-45.61)"/><ellipse class="cls-8" cx="559.28" cy="276.21" rx="0.1" ry="0.18" transform="translate(-29.33 482.68) rotate(-45.61)"/><ellipse class="cls-8" cx="556.82" cy="276.18" rx="0.1" ry="0.18" transform="translate(-30.04 480.91) rotate(-45.61)"/><ellipse class="cls-8" cx="558.09" cy="277.43" rx="0.1" ry="0.18" transform="translate(-30.55 482.2) rotate(-45.61)"/><ellipse class="cls-8" cx="555.63" cy="277.39" rx="0.1" ry="0.18" transform="translate(-31.27 480.42) rotate(-45.61)"/><ellipse class="cls-8" cx="556.91" cy="278.64" rx="0.1" ry="0.18" transform="translate(-31.78 481.71) rotate(-45.61)"/><ellipse class="cls-8" cx="554.44" cy="278.6" rx="0.1" ry="0.18" transform="translate(-32.49 479.94) rotate(-45.61)"/><ellipse class="cls-8" cx="555.72" cy="279.85" rx="0.1" ry="0.18" transform="translate(-33 481.23) rotate(-45.61)"/><ellipse class="cls-8" cx="551.67" cy="281.44" rx="0.1" ry="0.18" transform="translate(-35.35 478.81) rotate(-45.61)"/><ellipse class="cls-8" cx="552.95" cy="282.69" rx="0.1" ry="0.18" transform="translate(-35.86 480.1) rotate(-45.61)"/><ellipse class="cls-8" cx="550.48" cy="282.65" rx="0.1" ry="0.18" transform="translate(-36.57 478.32) rotate(-45.61)"/><ellipse class="cls-8" cx="551.76" cy="283.9" rx="0.1" ry="0.18" transform="translate(-37.08 479.61) rotate(-45.61)"/><ellipse class="cls-8" cx="549.29" cy="283.86" rx="0.1" ry="0.18" transform="translate(-37.8 477.84) rotate(-45.61)"/><ellipse class="cls-8" cx="550.57" cy="285.11" rx="0.1" ry="0.18" transform="translate(-38.31 479.13) rotate(-45.61)"/><ellipse class="cls-8" cx="548.1" cy="285.08" rx="0.1" ry="0.18" transform="translate(-39.02 477.36) rotate(-45.61)"/><ellipse class="cls-8" cx="549.38" cy="286.33" rx="0.1" ry="0.18" transform="translate(-39.53 478.65) rotate(-45.61)"/><path class="cls-6" transform="translate(354.31 -307.25) rotate(44.39)" d="M551.58,280.49h4.28v0.25h-4.28Z"/><rect class="cls-7" x="552.08" y="278.98" width="0.55" height="0.59" rx="0.27" ry="0.27" transform="translate(352.98 -306.68) rotate(44.39)"/><rect class="cls-7" x="554.82" y="281.66" width="0.55" height="0.59" rx="0.27" ry="0.27" transform="translate(355.63 -307.83) rotate(44.39)"/><ellipse class="cls-5" cx="553.31" cy="280.19" rx="0.08" ry="0.15" transform="translate(-33.96 479.6) rotate(-45.61)"/><ellipse class="cls-5" cx="554.16" cy="281.02" rx="0.08" ry="0.15" transform="translate(-34.3 480.46) rotate(-45.61)"/><rect class="cls-5" x="545.23" y="286.45" width="3.18" height="2.43" rx="1.22" ry="1.22" transform="translate(357.27 -300.41) rotate(44.39)"/><path class="cls-3" d="M546.41,285.95 548.54,288.04"/><path class="cls-6" transform="translate(355.75 -300.48) rotate(44.39)" d="M545.91,285.6h0.45v0.34h-0.45Z"/><path class="cls-6" transform="translate(358.26 -301.57) rotate(44.39)" d="M548.51,288.14h0.45v0.34h-0.45Z"/><path class="cls-11" transform="translate(356.51 -300.36) rotate(44.39)" d="M546.14,286.68h0.5v0.17h-0.5Z"/><path class="cls-11" transform="translate(357.17 -300.65) rotate(44.39)" d="M546.81,287.34h0.5v0.17h-0.5Z"/><path class="cls-11" transform="translate(357.82 -300.93) rotate(44.39)" d="M547.49,288h0.5v0.17h-0.5Z"/><path class="cls-11" transform="translate(356.65 -300.05) rotate(44.39)" d="M545.82,287h0.5v0.17h-0.5Z"/><path class="cls-11" transform="translate(357.96 -300.62) rotate(44.39)" d="M547.17,288.32h0.5v0.17h-0.5Z"/><rect class="cls-7" x="544.98" y="288.56" width="0.99" height="0.96" rx="0.48" ry="0.48" transform="translate(357.85 -299.08) rotate(44.39)"/><path class="cls-10" transform="translate(357.7 -299.42) rotate(44.39)" d="M545.22,288.59h1.19v0.2h-1.19Z"/><path class="cls-12" d="M560.35,273.85l-0.570.080.50.490.07-0.57Z"/></g><rect class="cls-1" width="905.67" height="603.78"/></g></svg></svg>