<?xml version="1.0" encoding="UTF-8"?><svg id="Calque_2" xmlns="http://www.w3.org/2000/svg" xmlns:xlink="http://www.w3.org/1999/xlink" viewBox="0 0 588.66 588.66"><defs><style>.cls-1{fill:none;}.cls-2,.cls-3{fill-rule:evenodd;}.cls-2,.cls-4{fill:#fff;}.cls-3{fill:#d38081;}</style><symbol id="Frappe" viewBox="0 0 19.95 10.25"><polygon class="cls-3" points="2.87 10.09 .2 5.92 4.9 4.9 5.94 .2 9.98 2.8 14.03 .22 15.05 4.91 19.75 5.95 17.07 10.12 2.87 10.09"/><path class="cls-4" d="M6.02.4l3.96,2.55L13.95.42l1,4.6,4.6,1.02-2.55,3.96-14.06-.03L.4,6l4.6-1L6.02.4M5.85,0l-.08.35-.98,4.44L.35,5.76l-.35.08.19.3,2.53,3.97.07.12h.14l14.06.03h.14l.07-.12,2.55-3.96.19-.3-.35-.08-4.44-.98-.97-4.44-.08-.35-.3.19-3.83,2.45L6.16.19l-.3-.19h0Z"/><path class="cls-2" d="M4.5,9.96c0-.14,0-.27.01-.41.2-2.86,2.69-5.02,5.55-4.82s4.87,2.51,4.83,5.25l-10.4-.02Z"/></symbol></defs><g id="Frappes"><use id="Frappe_1" width="19.95" height="10.25" transform="translate(170.08 406.79) scale(.4)" xlink:href="#Frappe"/><use id="Frappe_2" width="19.95" height="10.25" transform="translate(144.33 393.83) scale(.4)" xlink:href="#Frappe"/><use id="Frappe_3" width="19.95" height="10.25" transform="translate(167.08 355.75) scale(.4)" xlink:href="#Frappe"/><use id="Frappe_4" width="19.95" height="10.25" transform="translate(381.27 263.33) scale(.4)" xlink:href="#Frappe"/><use id="Frappe_5" width="19.95" height="10.25" transform="translate(361.47 262.01) scale(.4)" xlink:href="#Frappe"/><circle class="cls-1" cx="294.33" cy="294.33" r="294.33"/></g></svg>