<?xml version="1.0" encoding="UTF-8"?><svg id="Calque_2" xmlns="http://www.w3.org/2000/svg" viewBox="0 0 588.66 588.66"><defs><style>.cls-1,.cls-2,.cls-3{fill:none;}.cls-2{stroke:#5b6874;}.cls-2,.cls-4,.cls-3,.cls-5,.cls-6,.cls-7{stroke-linecap:round;stroke-linejoin:round;}.cls-2,.cls-5,.cls-7{stroke-width:.2px;}.cls-8{fill:#33414f;}.cls-4{fill:rgba(138,149,160,.15);stroke:rgba(138,149,160,.5);}.cls-4,.cls-3{stroke-width:.5px;}.cls-3{stroke:#4b5460;}.cls-5{fill:#cfd5dc;}.cls-5,.cls-6,.cls-7{stroke:#33414f;}.cls-6{fill:#dee3e8;stroke-width:.25px;}.cls-7{fill:#b7bfc8;}</style></defs><g id="Hélicoptère"><g id="helicoptere_1"><g id="corps"><path class="cls-6" d="M354.13,44.74l-1.46-.28,1.71-6.87.73.14-.98,7.02Z"/><path class="cls-5" d="M355.82,39.95l-2.92-.57.14-.73,2.92.57-.14.73Z"/><line class="cls-2" x1="354.06" y1="38.28" x2="352.37" y2="37.19"/><line class="cls-2" x1="354.34" y1="36.82" x2="352.37" y2="37.19"/><circle class="cls-8" cx="353.65" cy="37.44" r=".19"/><path class="cls-6" d="M351.02,56.85c-1.44-.38-1.87-2.07-1.54-4.28l.97-5.5c.35-1.83,1.41-3.33,3.07-3.1,1.63.41,2.04,2.2,1.68,4.03l-1.16,5.47c-.52,2.18-1.55,3.59-3.03,3.39Z"/><rect class="cls-5" x="355.18" y="46.18" width=".84" height="2.05" rx=".21" ry=".21" transform="translate(695.68 161.31) rotate(-169.01)"/><rect class="cls-5" x="349.97" y="45.17" width=".84" height="2.05" rx=".21" ry=".21" transform="translate(685.55 158.32) rotate(-169.01)"/><path class="cls-7" d="M352.53,55.43c-.89.33-1.68.18-2.38-.46l.5-1.61c.61.43,1.28.56,2.01.39l-.14,1.68Z"/></g><g id="rotor"><circle class="cls-4" cx="352.48" cy="49.35" r="8.38"/><line class="cls-3" x1="352.48" y1="49.35" x2="345.71" y2="44.42"/><line class="cls-3" x1="352.48" y1="49.35" x2="357.41" y2="42.58"/><line class="cls-3" x1="352.48" y1="49.35" x2="359.25" y2="54.28"/><line class="cls-3" x1="352.48" y1="49.35" x2="347.55" y2="56.12"/><circle class="cls-8" cx="352.48" cy="49.35" r=".51"/></g></g><g id="helicoptere_2"><g id="corps-2"><path class="cls-6" d="M330.93,51.95l-1.46-.28,1.71-6.87.73.14-.98,7.02Z"/><path class="cls-5" d="M332.62,47.16l-2.92-.57.14-.73,2.92.57-.14.73Z"/><line class="cls-2" x1="330.85" y1="45.49" x2="329.17" y2="44.4"/><line class="cls-2" x1="331.14" y1="44.02" x2="329.17" y2="44.4"/><circle class="cls-8" cx="330.45" cy="44.65" r=".19"/><path class="cls-6" d="M327.82,64.05c-1.44-.38-1.87-2.07-1.54-4.28l.97-5.5c.35-1.83,1.41-3.33,3.07-3.1,1.63.41,2.04,2.2,1.68,4.03l-1.16,5.47c-.52,2.18-1.55,3.59-3.03,3.39Z"/><rect class="cls-5" x="331.97" y="53.39" width=".84" height="2.05" rx=".21" ry=".21" transform="translate(648.33 171.17) rotate(-169.01)"/><rect class="cls-5" x="326.77" y="52.38" width=".84" height="2.05" rx=".21" ry=".21" transform="translate(638.2 168.18) rotate(-169.01)"/><path class="cls-7" d="M329.33,62.64c-.89.33-1.68.18-2.38-.46l.5-1.61c.61.43,1.28.56,2.01.39l-.14,1.68Z"/></g><g id="rotor-2"><circle class="cls-4" cx="329.27" cy="56.56" r="8.38"/><line class="cls-3" x1="329.27" y1="56.56" x2="322.5" y2="51.63"/><line class="cls-3" x1="329.27" y1="56.56" x2="334.2" y2="49.79"/><line class="cls-3" x1="329.27" y1="56.56" x2="336.05" y2="61.49"/><line class="cls-3" x1="329.27" y1="56.56" x2="324.35" y2="63.33"/><circle class="cls-8" cx="329.27" cy="56.56" r=".51"/></g></g><g id="helicoptere_3"><g id="corps-3"><path class="cls-6" d="M354.87,76.63l-1.46-.28,1.71-6.87.73.14-.98,7.02Z"/><path class="cls-5" d="M356.56,71.83l-2.92-.57.14-.73,2.92.57-.14.73Z"/><line class="cls-2" x1="354.8" y1="70.16" x2="353.11" y2="69.08"/><line class="cls-2" x1="355.08" y1="68.7" x2="353.11" y2="69.08"/><circle class="cls-8" cx="354.39" cy="69.33" r=".19"/><path class="cls-6" d="M351.76,88.73c-1.44-.38-1.87-2.07-1.54-4.28l.97-5.5c.35-1.83,1.41-3.33,3.07-3.1,1.63.41,2.04,2.2,1.68,4.03l-1.16,5.47c-.52,2.18-1.55,3.59-3.03,3.39Z"/><rect class="cls-5" x="355.92" y="78.07" width=".84" height="2.05" rx=".21" ry=".21" transform="translate(691.07 224.64) rotate(-169.01)"/><rect class="cls-5" x="350.71" y="77.06" width=".84" height="2.05" rx=".21" ry=".21" transform="translate(680.94 221.64) rotate(-169.01)"/><path class="cls-7" d="M353.27,87.31c-.89.33-1.68.18-2.38-.46l.5-1.61c.61.43,1.28.56,2.01.39l-.14,1.68Z"/></g><g id="rotor-3"><circle class="cls-4" cx="353.22" cy="81.24" r="8.38"/><line class="cls-3" x1="353.22" y1="81.24" x2="346.44" y2="76.31"/><line class="cls-3" x1="353.22" y1="81.24" x2="358.14" y2="74.46"/><line class="cls-3" x1="353.22" y1="81.24" x2="359.99" y2="86.16"/><line class="cls-3" x1="353.22" y1="81.24" x2="348.29" y2="88.01"/><circle class="cls-8" cx="353.22" cy="81.24" r=".51"/></g></g><g id="helicoptere_4"><g id="corps-4"><path class="cls-6" d="M333.25,82.81l-1.46-.28,1.71-6.87.73.14-.98,7.02Z"/><path class="cls-5" d="M334.94,78.02l-2.92-.57.14-.73,2.92.57-.14.73Z"/><line class="cls-2" x1="333.17" y1="76.35" x2="331.49" y2="75.26"/><line class="cls-2" x1="333.46" y1="74.89" x2="331.49" y2="75.26"/><circle class="cls-8" cx="332.77" cy="75.51" r=".19"/><path class="cls-6" d="M330.14,94.91c-1.44-.38-1.87-2.07-1.54-4.28l.97-5.5c.35-1.83,1.41-3.33,3.07-3.1,1.63.41,2.04,2.2,1.68,4.03l-1.16,5.47c-.52,2.18-1.55,3.59-3.03,3.39Z"/><rect class="cls-5" x="334.29" y="84.25" width=".84" height="2.05" rx=".21" ry=".21" transform="translate(647.04 232.77) rotate(-169.01)"/><rect class="cls-5" x="329.08" y="83.24" width=".84" height="2.05" rx=".21" ry=".21" transform="translate(636.91 229.78) rotate(-169.01)"/><path class="cls-7" d="M331.65,93.5c-.89.33-1.68.18-2.38-.46l.5-1.61c.61.43,1.28.56,2.01.39l-.14,1.68Z"/></g><g id="rotor-4"><circle class="cls-4" cx="331.59" cy="87.42" r="8.38"/><line class="cls-3" x1="331.59" y1="87.42" x2="324.82" y2="82.49"/><line class="cls-3" x1="331.59" y1="87.42" x2="336.52" y2="80.65"/><line class="cls-3" x1="331.59" y1="87.42" x2="338.37" y2="92.35"/><line class="cls-3" x1="331.59" y1="87.42" x2="326.67" y2="94.19"/><circle class="cls-8" cx="331.59" cy="87.42" r=".51"/></g></g></g><g id="Trajectoire_hélicoptère"><line id="Trajectoire_helicoptere_1" class="cls-1" x1="351.41" y1="50.4" x2="175.41" y2="381"/><line id="Trajectoire_helicoptere_2" class="cls-1" x1="326.17" y1="56.05" x2="141.57" y2="384.37"/><line id="Trajectoire_helicoptere_3" class="cls-1" x1="353.09" y1="80.14" x2="174.31" y2="401.55"/><line id="Trajectoire_helicoptere_4" class="cls-1" x1="329.68" y1="85.87" x2="160.54" y2="393.07"/><circle id="Cadre" class="cls-1" cx="294.33" cy="294.33" r="294.33"/></g></svg>