<?xml version="1.0" encoding="UTF-8"?><svg id="Calque_2" xmlns="http://www.w3.org/2000/svg" viewBox="0 0 905.67 603.78"><defs><style>.cls-1,.cls-2,.cls-3{fill:none;}.cls-4{fill:#b9c1c9;}.cls-4,.cls-5,.cls-6,.cls-2,.cls-3,.cls-7{stroke-linecap:round;stroke-linejoin:round;}.cls-4,.cls-5,.cls-3{stroke-width:.2px;}.cls-4,.cls-5,.cls-7{stroke:#344250;}.cls-8{fill:#344250;}.cls-5{fill:#d0d6dd;}.cls-6{fill:rgba(140,150,161,.15);stroke:rgba(140,150,161,.5);}.cls-6,.cls-2{stroke-width:.5px;}.cls-2{stroke:#4b5560;}.cls-3{stroke:#5b6874;}.cls-7{fill:#dfe4e9;stroke-width:.25px;}</style></defs><g id="Extraction"><g id="helicoptere_1"><g id="corps"><path class="cls-7" d="M533.11,288.2l1.43-.42,1.65,6.89-.71.21-2.37-6.68Z"/><path class="cls-5" d="M533.82,293.23l2.86-.85.21.71-2.86.85-.21-.71Z"/><line class="cls-3" x1="536.16" y1="293.9" x2="538.15" y2="294.09"/><line class="cls-3" x1="536.58" y1="295.33" x2="538.15" y2="294.09"/><circle class="cls-8" cx="536.9" cy="294.46" r=".19"/><path class="cls-7" d="M530.28,276.03c1.45-.33,2.62.97,3.34,3.09l1.67,5.33c.53,1.79.29,3.6-1.29,4.17-1.63.39-2.82-1.01-3.35-2.79l-1.5-5.38c-.55-2.17-.28-3.9,1.12-4.41Z"/><rect class="cls-5" x="530.25" y="285.67" width=".84" height="2.05" rx=".21" ry=".21" transform="translate(-59.56 162.46) rotate(-16.49)"/><rect class="cls-5" x="535.34" y="284.16" width=".84" height="2.05" rx=".21" ry=".21" transform="translate(-58.92 163.84) rotate(-16.49)"/><path class="cls-4" d="M529.6,277.98c.63-.71,1.41-.93,2.32-.69l.3,1.66c-.74-.1-1.4.09-1.96.58l-.65-1.55Z"/></g><g id="rotor"><circle class="cls-6" cx="532.45" cy="283.35" r="8.38"/><line class="cls-2" x1="532.45" y1="283.35" x2="540.73" y2="284.6"/><line class="cls-2" x1="532.45" y1="283.35" x2="531.2" y2="291.63"/><line class="cls-2" x1="532.45" y1="283.35" x2="524.17" y2="282.1"/><line class="cls-2" x1="532.45" y1="283.35" x2="533.7" y2="275.07"/><circle class="cls-8" cx="532.45" cy="283.35" r=".51"/></g></g></g><g id="Trajectoire"><line id="trajectoire_helicoptere_1" class="cls-1" x1="532.45" y1="283.35" x2="464.05" y2="155.03"/><rect id="Cadre" class="cls-1" width="905.67" height="603.78"/></g></svg>