<?xml version="1.0" encoding="UTF-8"?><svg id="Calque_2" xmlns="http://www.w3.org/2000/svg" viewBox="0 0 905.67 603.78"><defs><style>.cls-1{fill:none;}.cls-2{fill:#68a0bd;}</style></defs><g id="Mers"><path class="cls-2" d="M152.72,76.73l-.35,2.45c-.74.4-1.47.6-2.2.6-.88,0-1.57-.29-2.09-.86-.52-.57-.78-1.29-.78-2.14,0-1.08.41-2.02,1.22-2.81s1.97-1.19,3.46-1.19c.29,0,.69.03,1.18.09l-.11.82c-.54-.06-.94-.09-1.21-.09-1.12,0-1.99.31-2.62.94s-.95,1.36-.95,2.2c0,.65.18,1.18.55,1.59s.84.62,1.42.62c.43,0,.87-.11,1.31-.33l.16-1.18h-.97l.1-.72h1.88Z"/><path class="cls-2" d="M157.5,75.06c.5,0,.91.18,1.21.53s.46.83.46,1.42c0,.82-.21,1.49-.62,2.02s-.91.79-1.51.79c-.53,0-.94-.18-1.24-.53s-.45-.85-.45-1.48c0-.78.21-1.44.62-1.97s.92-.79,1.53-.79ZM157.5,75.73c-.35,0-.65.22-.9.65s-.38.94-.38,1.53c0,.35.08.64.23.86s.34.33.56.33c.35,0,.66-.2.91-.61s.38-.91.38-1.52c0-.38-.07-.68-.22-.9s-.34-.34-.58-.34Z"/><path class="cls-2" d="M163.51,72.87l-.96,6.82h-.85l.96-6.82h.85Z"/><path class="cls-2" d="M168.23,75.2l-.11.75h-.91l-.72,5.63h-.83l.72-5.63h-.72l.11-.75h.71c.06-.77.27-1.37.65-1.79s.88-.63,1.52-.63c.33,0,.69.07,1.09.21l-.12.84c-.31-.17-.6-.25-.88-.25-.84,0-1.31.54-1.41,1.62h.91Z"/><path class="cls-2" d="M173.8,78.52l-.12.81c-.46.34-.96.5-1.5.5s-1.02-.2-1.36-.59-.52-.92-.52-1.58c0-.73.21-1.35.62-1.85s.92-.75,1.51-.75c.46,0,.83.17,1.14.52s.45.8.45,1.35c0,.14,0,.28-.03.42h-2.8c-.03.15-.04.29-.04.43,0,.41.11.74.34.98s.51.36.85.36c.42,0,.9-.2,1.46-.61ZM171.31,76.77h1.88c0-.31-.07-.56-.21-.74s-.34-.27-.6-.27c-.49,0-.85.34-1.07,1.01Z"/><path class="cls-2" d="M134.11,92.87l-.96,6.82c-.33.09-.71.14-1.15.14-.76,0-1.34-.18-1.75-.54s-.61-.87-.61-1.54.27-1.26.8-1.83,1.25-.86,2.16-.86h.36l.31-2.19h.85ZM132.39,99.11l.47-3.34h-.22c-.64,0-1.15.19-1.54.58s-.58.85-.58,1.38c0,.45.13.79.39,1.03s.62.36,1.1.36c.17,0,.3,0,.39-.02Z"/><path class="cls-2" d="M140.41,95.2l-.64,4.49h-.84l.08-.76c-.52.55-1.01.83-1.48.83-.3,0-.56-.11-.77-.32s-.31-.52-.31-.93c0-.11,0-.23.02-.35l.42-2.96h.85l-.42,2.96c-.01.1-.02.19-.02.27,0,.45.17.67.5.67s.8-.33,1.35-.99l.41-2.92h.85Z"/><path class="cls-2" d="M154.92,92.87v6.82h-.9v-5.2s-2.76,5.2-2.76,5.2l-1.2-5.22-1.68,5.22h-.9l2.25-6.82h.78l1.07,4.62,2.45-4.62h.9Z"/><path class="cls-2" d="M161.51,98.52l-.12.81c-.46.34-.96.5-1.5.5s-1.02-.2-1.36-.59-.52-.92-.52-1.58c0-.73.21-1.35.62-1.85s.92-.75,1.51-.75c.46,0,.83.17,1.14.52s.45.8.45,1.35c0,.14,0,.28-.03.42h-2.8c-.03.15-.04.29-.04.43,0,.41.11.74.34.98s.51.36.85.36c.42,0,.9-.2,1.46-.61ZM159.02,96.77h1.88c0-.31-.07-.56-.21-.74s-.34-.27-.6-.27c-.49,0-.85.34-1.07,1.01Z"/><path class="cls-2" d="M168.43,95.2l-1.81,2.23,1.14,2.26h-.91l-.82-1.68-1.29,1.68h-1.04l1.96-2.39-1.06-2.11h.91l.71,1.51,1.17-1.51h1.05Z"/><path class="cls-2" d="M171.98,95.2l-.63,4.49h-.85l.63-4.49h.85ZM171.22,93.79c0-.14.05-.25.14-.35s.21-.14.34-.14.25.05.34.14.14.21.14.35-.05.25-.14.34-.21.14-.34.14-.25-.05-.34-.14-.14-.21-.14-.34Z"/><path class="cls-2" d="M178.59,95.06l-.97,6.93h-.85l.34-2.43c-.37.18-.68.27-.93.27-.51,0-.93-.19-1.25-.56s-.48-.86-.48-1.46c0-.78.28-1.44.83-1.96s1.34-.79,2.35-.79h.95ZM177.2,98.93l.44-3.17c-.73-.04-1.29.14-1.7.52s-.61.91-.61,1.57c0,.38.11.69.32.92s.5.35.85.35c.19,0,.42-.07.7-.2Z"/><path class="cls-2" d="M185.23,95.2l-.64,4.49h-.84l.08-.76c-.52.55-1.01.83-1.48.83-.3,0-.56-.11-.77-.32s-.31-.52-.31-.93c0-.11,0-.23.02-.35l.42-2.96h.85l-.42,2.96c-.01.1-.02.19-.02.27,0,.45.17.67.5.67s.8-.33,1.35-.99l.41-2.92h.85Z"/><path class="cls-2" d="M191.42,98.52l-.12.81c-.46.34-.96.5-1.5.5s-1.02-.2-1.36-.59-.52-.92-.52-1.58c0-.73.21-1.35.62-1.85s.92-.75,1.51-.75c.46,0,.83.17,1.14.52s.45.8.45,1.35c0,.14,0,.28-.03.42h-2.8c-.03.15-.04.29-.04.43,0,.41.11.74.34.98s.51.36.85.36c.42,0,.9-.2,1.46-.61ZM188.94,96.77h1.88c0-.31-.07-.56-.21-.74s-.34-.27-.6-.27c-.49,0-.85.34-1.07,1.01Z"/><path class="cls-2" d="M290.06,214.42v8.19h-1.08v-6.23s-3.31,6.23-3.31,6.23l-1.44-6.26-2.01,6.26h-1.08l2.7-8.19h.94l1.28,5.55,2.94-5.55h1.08Z"/><path class="cls-2" d="M297.95,221.2l-.15.97c-.55.4-1.15.6-1.8.6s-1.23-.24-1.64-.71-.62-1.11-.62-1.9c0-.88.25-1.62.74-2.22s1.1-.9,1.81-.9c.55,0,1,.21,1.37.63s.54.96.54,1.63c0,.16-.01.33-.04.5h-3.36c-.03.18-.05.35-.05.52,0,.5.14.89.41,1.17s.61.43,1.02.43c.5,0,1.08-.24,1.75-.73ZM294.98,219.1h2.26c0-.38-.08-.67-.25-.89-.17-.22-.41-.33-.72-.33-.59,0-1.01.4-1.28,1.21Z"/><path class="cls-2" d="M303.17,217.22l-.16,1.03.02.02c.32-.46.57-.76.76-.91.19-.15.41-.22.67-.22.16,0,.31.03.45.08v1.15c-.21-.12-.42-.18-.63-.18s-.38.05-.53.15-.35.31-.57.64c-.22.33-.34.52-.35.59l-.42,3.04h-1.02l.76-5.39h1.02Z"/><path class="cls-2" d="M256.83,234.42l-1.15,8.19c-.39.11-.85.17-1.38.17-.91,0-1.61-.22-2.1-.65s-.74-1.05-.74-1.85.32-1.51.96-2.2,1.5-1.03,2.6-1.03h.43l.37-2.63h1.02ZM254.77,241.91l.56-4.01h-.26c-.76,0-1.38.23-1.85.69-.47.46-.7,1.02-.7,1.66,0,.54.15.95.46,1.24s.75.44,1.32.44c.21,0,.36,0,.47-.02Z"/><path class="cls-2" d="M263.78,241.2l-.15.97c-.55.4-1.15.6-1.8.6s-1.23-.24-1.64-.71-.62-1.11-.62-1.9c0-.88.25-1.62.74-2.22s1.1-.9,1.81-.9c.55,0,1,.21,1.37.63s.54.96.54,1.63c0,.16-.01.33-.04.5h-3.36c-.03.18-.05.35-.05.52,0,.5.14.89.41,1.17s.61.43,1.02.43c.5,0,1.08-.24,1.75-.73ZM260.81,239.1h2.26c0-.38-.08-.67-.25-.89-.17-.22-.41-.33-.72-.33-.59,0-1.01.4-1.28,1.21Z"/><path class="cls-2" d="M270.66,237.62v1.07c-.62-.47-1.16-.71-1.62-.71-.21,0-.38.06-.52.17s-.21.25-.21.4c0,.1.04.21.13.33s.37.33.83.64.78.6.94.86.24.53.24.8c0,.47-.16.86-.47,1.16s-.71.45-1.2.45c-.6,0-1.22-.24-1.87-.71l.18-.98c.67.54,1.22.8,1.66.8.2,0,.37-.06.5-.17s.2-.26.2-.43c0-.13-.05-.26-.14-.4-.1-.13-.37-.36-.83-.68-.46-.32-.77-.6-.91-.85-.15-.25-.22-.5-.22-.76,0-.46.15-.84.46-1.12s.72-.42,1.23-.42c.54,0,1.08.19,1.63.56Z"/><path class="cls-2" d="M286.12,234.32l-.22,1.03h-.6c-1.41,0-2.5.38-3.26,1.14s-1.14,1.68-1.14,2.75c0,.74.2,1.33.59,1.78s.91.67,1.56.67c.34,0,.73-.09,1.19-.27s.87-.43,1.26-.74l-.18,1.32c-.85.48-1.66.71-2.43.71-.93,0-1.68-.32-2.27-.95s-.88-1.45-.88-2.45c0-1.47.51-2.67,1.53-3.6s2.38-1.39,4.06-1.39h.78Z"/><path class="cls-2" d="M293.53,237.22l-.76,5.39h-1.02l.1-.62-.03-.03c-.47.5-.96.76-1.45.76s-.91-.21-1.26-.62c-.35-.42-.52-.92-.52-1.51,0-1.02.32-1.87.96-2.53.64-.66,1.54-1,2.69-1,.47,0,.89.05,1.27.16ZM291.98,241.05l.44-3.11c-.11,0-.21-.01-.32-.01-.8,0-1.41.25-1.83.76s-.63,1.08-.63,1.71c0,.43.1.79.3,1.06s.46.41.77.41c.25,0,.52-.12.81-.37.29-.24.44-.4.45-.46Z"/><path class="cls-2" d="M298.43,237.22l-.16,1.03.02.02c.32-.46.57-.76.76-.91.19-.15.41-.22.67-.22.16,0,.31.03.45.08v1.15c-.21-.12-.42-.18-.63-.18s-.38.05-.53.15-.35.31-.57.64c-.22.33-.34.52-.35.59l-.42,3.04h-1.02l.76-5.39h1.02Z"/><path class="cls-2" d="M307.48,237.22l-.76,5.39h-1.02l.1-.62-.03-.03c-.47.5-.96.76-1.45.76s-.91-.21-1.26-.62c-.35-.42-.52-.92-.52-1.51,0-1.02.32-1.87.96-2.53.64-.66,1.54-1,2.69-1,.47,0,.89.05,1.27.16ZM305.93,241.05l.44-3.11c-.11,0-.21-.01-.32-.01-.8,0-1.41.25-1.83.76s-.63,1.08-.63,1.71c0,.43.1.79.3,1.06s.46.41.77.41c.25,0,.52-.12.81-.37.29-.24.44-.4.45-.46Z"/><path class="cls-2" d="M310.31,235.49c0-.15.05-.28.16-.39s.24-.16.39-.16.28.05.39.16.16.24.16.39-.05.28-.16.39-.24.16-.39.16-.28-.05-.39-.16-.16-.24-.16-.39ZM312.21,237.22l-.76,5.39h-1.02l.76-5.39h1.02ZM312.46,235.49c0-.15.05-.28.16-.39s.24-.16.39-.16.28.05.39.16.16.24.16.39-.05.28-.16.39-.24.16-.39.16-.28-.05-.39-.16-.16-.24-.16-.39Z"/><path class="cls-2" d="M317.34,234.42l-.44,3.23c.39-.4.83-.6,1.31-.6.56,0,1.01.23,1.36.68s.53,1.05.53,1.78c0,.95-.3,1.74-.9,2.35s-1.47.92-2.6.92c-.56,0-1.04-.03-1.43-.09l1.12-8.27h1.04ZM316.28,241.93h.56c.69,0,1.23-.22,1.63-.66s.59-1.04.59-1.78c0-.49-.1-.87-.31-1.14s-.49-.41-.86-.41c-.23,0-.47.07-.73.2-.25.13-.4.3-.42.48l-.46,3.31Z"/><path class="cls-2" d="M327.51,241.2l-.15.97c-.55.4-1.15.6-1.8.6s-1.23-.24-1.64-.71-.62-1.11-.62-1.9c0-.88.25-1.62.74-2.22s1.1-.9,1.81-.9c.55,0,1,.21,1.37.63s.54.96.54,1.63c0,.16-.01.33-.04.5h-3.36c-.03.18-.05.35-.05.52,0,.5.14.89.41,1.17s.61.43,1.02.43c.5,0,1.08-.24,1.75-.73ZM324.53,239.1h2.26c0-.38-.08-.67-.25-.89-.17-.22-.41-.33-.72-.33-.59,0-1.01.4-1.28,1.21Z"/><path class="cls-2" d="M334.38,237.62v1.07c-.62-.47-1.16-.71-1.62-.71-.21,0-.38.06-.52.17s-.21.25-.21.4c0,.1.04.21.13.33s.37.33.83.64.78.6.94.86.24.53.24.8c0,.47-.16.86-.47,1.16s-.71.45-1.2.45c-.6,0-1.22-.24-1.87-.71l.18-.98c.67.54,1.22.8,1.66.8.2,0,.37-.06.5-.17s.2-.26.2-.43c0-.13-.05-.26-.14-.4-.1-.13-.37-.36-.83-.68-.46-.32-.77-.6-.91-.85-.15-.25-.22-.5-.22-.76,0-.46.15-.84.46-1.12s.72-.42,1.23-.42c.54,0,1.08.19,1.63.56Z"/><path class="cls-2" d="M597.17,50.17c.86,0,1.56.32,2.09.95s.8,1.46.8,2.49c0,1.42-.39,2.6-1.17,3.55s-1.71,1.42-2.78,1.42c-.85,0-1.55-.32-2.1-.97s-.82-1.47-.82-2.48c0-1.26.37-2.4,1.12-3.42s1.7-1.53,2.86-1.53ZM596.14,57.58c.76,0,1.42-.41,1.98-1.22s.84-1.8.84-2.95c0-.7-.16-1.25-.49-1.66s-.76-.6-1.31-.6c-.84,0-1.53.42-2.06,1.26s-.79,1.79-.79,2.85c0,.71.17,1.28.5,1.69s.78.62,1.34.62Z"/><path class="cls-2" d="M610.74,57.26l-.12.98c-.47.26-.97.39-1.5.39-.72,0-1.3-.23-1.73-.68s-.65-1.05-.65-1.81c0-.91.33-1.68.98-2.3s1.49-.94,2.51-.94c.26,0,.57.03.93.09l-.13.9c-.25-.06-.51-.09-.78-.09-.71,0-1.29.23-1.76.68s-.7.98-.7,1.59c0,.51.13.91.4,1.2s.62.44,1.08.44c.48,0,.98-.15,1.48-.46Z"/><path class="cls-2" d="M621.73,57.05l-.15.97c-.55.4-1.15.6-1.8.6s-1.23-.24-1.64-.71-.62-1.11-.62-1.9c0-.88.25-1.62.74-2.22s1.1-.9,1.81-.9c.55,0,1,.21,1.37.63s.54.96.54,1.63c0,.16-.01.33-.04.5h-3.36c-.03.18-.05.35-.05.52,0,.5.14.89.41,1.17s.61.43,1.02.43c.5,0,1.08-.24,1.75-.73ZM618.75,54.96h2.26c0-.38-.08-.67-.25-.89-.17-.22-.41-.33-.72-.33-.59,0-1.01.4-1.28,1.21ZM620.41,50.42h1.21l-1.36,1.75h-.67l.81-1.75Z"/><path class="cls-2" d="M633.68,53.07l-.76,5.39h-1.02l.1-.62-.03-.03c-.47.5-.96.76-1.45.76s-.91-.21-1.26-.62c-.34-.42-.52-.92-.52-1.51,0-1.02.32-1.87.96-2.53s1.54-1,2.69-1c.47,0,.89.05,1.27.16ZM632.12,56.9l.44-3.11c-.11,0-.21-.01-.32-.01-.8,0-1.41.25-1.83.76s-.63,1.08-.63,1.71c0,.43.1.79.3,1.06.2.28.46.41.77.41.25,0,.52-.12.81-.37.29-.24.44-.4.45-.46Z"/><path class="cls-2" d="M642.1,53.07l-.14.95.03.02c.57-.7,1.17-1.05,1.79-1.05.42,0,.74.15.97.46.23.31.35.7.35,1.19,0,.14-.01.28-.04.43l-.52,3.4h-1.01l.49-3.43c.02-.12.03-.23.03-.33,0-.28-.06-.5-.18-.64-.12-.15-.26-.22-.44-.22-.1,0-.22.03-.34.08s-.26.13-.41.23c-.14.1-.32.27-.54.48-.21.21-.32.35-.33.41l-.49,3.43h-1.01l.76-5.39h1.02Z"/><path class="cls-2" d="M664.2,50.23l1.59,8.23h-1.01l-.48-2.57h-2.57l-1.08,2.57h-1.09l3.62-8.23h1.03ZM662.08,55.03h2.05l-.63-3.36-1.41,3.36Z"/><path class="cls-2" d="M675.64,53.07l-.11.8h-1.07l-.52,2.95c-.03.15-.04.27-.04.38,0,.35.19.53.57.53.28,0,.61-.11.99-.32l-.06,1c-.38.16-.75.24-1.12.24-.44,0-.79-.11-1.05-.34s-.38-.52-.38-.89c0-.09,0-.18.03-.28l.57-3.26h-.95l.12-.8h.99l.2-1.1h1.01l-.2,1.1h1.04Z"/><path class="cls-2" d="M684.03,50.27l-1.15,8.19h-1.02l1.15-8.19h1.02Z"/><path class="cls-2" d="M695.19,53.07l-.76,5.39h-1.02l.1-.62-.03-.03c-.47.5-.96.76-1.45.76s-.91-.21-1.26-.62c-.34-.42-.52-.92-.52-1.51,0-1.02.32-1.87.96-2.53s1.54-1,2.69-1c.47,0,.89.05,1.27.16ZM693.64,56.9l.44-3.11c-.11,0-.21-.01-.32-.01-.8,0-1.41.25-1.83.76s-.63,1.08-.63,1.71c0,.43.1.79.3,1.06.2.28.46.41.77.41.25,0,.52-.12.81-.37.29-.24.44-.4.45-.46Z"/><path class="cls-2" d="M703.61,53.07l-.14.95.03.02c.57-.7,1.17-1.05,1.79-1.05.42,0,.74.15.97.46.23.31.35.7.35,1.19,0,.14-.01.28-.04.43l-.52,3.4h-1.01l.49-3.43c.02-.12.03-.23.03-.33,0-.28-.06-.5-.18-.64-.12-.15-.26-.22-.44-.22-.1,0-.22.03-.34.08s-.26.13-.41.23c-.14.1-.32.27-.54.48-.21.21-.32.35-.33.41l-.49,3.43h-1.01l.76-5.39h1.02Z"/><path class="cls-2" d="M716.52,53.07l-.11.8h-1.07l-.52,2.95c-.03.15-.04.27-.04.38,0,.35.19.53.57.53.28,0,.61-.11.99-.32l-.06,1c-.38.16-.75.24-1.12.24-.44,0-.79-.11-1.05-.34s-.38-.52-.38-.89c0-.09,0-.18.03-.28l.57-3.26h-.95l.12-.8h.99l.2-1.1h1.01l-.2,1.1h1.04Z"/><path class="cls-2" d="M724.52,53.07l-.76,5.39h-1.02l.76-5.39h1.02ZM723.61,51.38c0-.16.06-.3.17-.42s.25-.17.41-.17.3.06.41.17.17.25.17.42-.06.3-.17.41-.25.17-.41.17-.3-.06-.41-.17-.17-.25-.17-.41Z"/><path class="cls-2" d="M736.05,52.91l-1.16,8.31h-1.02l.41-2.92c-.44.22-.81.33-1.11.33-.61,0-1.11-.22-1.5-.67s-.57-1.03-.57-1.75c0-.94.33-1.73,1-2.36.67-.63,1.61-.94,2.82-.94h1.14ZM734.39,57.55l.53-3.8c-.87-.04-1.55.17-2.04.63s-.73,1.09-.73,1.89c0,.46.13.83.38,1.11.26.28.59.42,1.02.42.22,0,.5-.08.84-.24Z"/><path class="cls-2" d="M747.62,53.07l-.77,5.39h-1.01l.09-.91c-.62.66-1.21,1-1.78,1-.36,0-.67-.13-.92-.39s-.38-.63-.38-1.11c0-.14,0-.28.03-.42l.5-3.56h1.02l-.5,3.56c-.02.12-.02.23-.02.33,0,.54.2.81.6.81.42,0,.96-.4,1.62-1.19l.49-3.5h1.02Z"/><path class="cls-2" d="M758.65,57.05l-.15.97c-.55.4-1.15.6-1.8.6s-1.23-.24-1.64-.71-.62-1.11-.62-1.9c0-.88.25-1.62.74-2.22s1.1-.9,1.81-.9c.55,0,1,.21,1.37.63s.54.96.54,1.63c0,.16-.01.33-.04.5h-3.36c-.03.18-.05.35-.05.52,0,.5.14.89.41,1.17s.61.43,1.02.43c.5,0,1.08-.24,1.75-.73ZM755.67,54.96h2.26c0-.38-.08-.67-.25-.89-.17-.22-.41-.33-.72-.33-.59,0-1.01.4-1.28,1.21Z"/><path class="cls-2" d="M93.63,426.15c.86,0,1.56.32,2.09.95s.8,1.46.8,2.49c0,1.42-.39,2.6-1.17,3.55s-1.71,1.42-2.78,1.42c-.85,0-1.55-.32-2.1-.97s-.82-1.47-.82-2.48c0-1.26.37-2.4,1.12-3.42s1.7-1.53,2.86-1.53ZM92.59,433.57c.76,0,1.42-.41,1.98-1.22s.84-1.8.84-2.95c0-.7-.16-1.25-.49-1.66s-.76-.6-1.31-.6c-.84,0-1.53.42-2.06,1.26s-.79,1.79-.79,2.85c0,.71.17,1.28.5,1.69s.78.62,1.34.62Z"/><path class="cls-2" d="M107.2,433.24l-.12.98c-.47.26-.97.39-1.5.39-.72,0-1.3-.23-1.73-.68s-.65-1.05-.65-1.81c0-.91.33-1.68.98-2.3s1.49-.94,2.51-.94c.26,0,.57.03.93.09l-.13.9c-.25-.06-.51-.09-.78-.09-.71,0-1.29.23-1.76.68s-.7.98-.7,1.59c0,.51.13.91.4,1.2s.62.44,1.08.44c.48,0,.98-.15,1.48-.46Z"/><path class="cls-2" d="M118.19,433.04l-.15.97c-.55.4-1.15.6-1.8.6s-1.23-.24-1.64-.71-.62-1.11-.62-1.9c0-.88.25-1.62.74-2.22s1.1-.9,1.81-.9c.55,0,1,.21,1.37.63s.54.96.54,1.63c0,.16-.01.33-.04.5h-3.36c-.03.18-.05.35-.05.52,0,.5.14.89.41,1.17s.61.43,1.02.43c.5,0,1.08-.24,1.75-.73ZM115.21,430.94h2.26c0-.38-.08-.67-.25-.89-.17-.22-.41-.33-.72-.33-.59,0-1.01.4-1.28,1.21ZM116.87,426.41h1.21l-1.36,1.75h-.67l.81-1.75Z"/><path class="cls-2" d="M130.14,429.05l-.76,5.39h-1.02l.1-.62-.03-.03c-.47.5-.96.76-1.45.76s-.91-.21-1.26-.62c-.35-.42-.52-.92-.52-1.51,0-1.02.32-1.87.96-2.53.64-.66,1.54-1,2.69-1,.47,0,.89.05,1.27.16ZM128.58,432.89l.44-3.11c-.11,0-.21-.01-.32-.01-.8,0-1.41.25-1.83.76s-.63,1.08-.63,1.71c0,.43.1.79.3,1.06s.46.41.77.41c.25,0,.52-.12.81-.37s.44-.4.45-.46Z"/><path class="cls-2" d="M138.55,429.05l-.14.95.03.02c.57-.7,1.17-1.05,1.79-1.05.42,0,.74.15.97.46.23.31.35.7.35,1.19,0,.14-.01.28-.04.43l-.52,3.4h-1.01l.49-3.43c.02-.12.03-.23.03-.33,0-.28-.06-.5-.18-.64s-.26-.22-.44-.22c-.1,0-.22.03-.34.08-.13.05-.26.13-.41.23-.14.1-.32.26-.54.48-.21.21-.32.35-.33.41l-.49,3.43h-1.01l.76-5.39h1.02Z"/><path class="cls-2" d="M158.86,426.26h1.41c.84,0,1.5.2,1.96.59s.69.97.69,1.73c0,.63-.23,1.19-.69,1.68s-1.1.73-1.93.73h-.98l-.48,3.46h-1.13l1.15-8.19ZM159.84,427.23l-.39,2.78h.79c.49,0,.88-.14,1.15-.42s.41-.63.41-1.05c0-.39-.13-.71-.39-.95-.26-.24-.63-.36-1.1-.36h-.48Z"/><path class="cls-2" d="M173.69,429.05l-.76,5.39h-1.02l.1-.62-.03-.03c-.47.5-.96.76-1.45.76s-.91-.21-1.26-.62c-.35-.42-.52-.92-.52-1.51,0-1.02.32-1.87.96-2.53.64-.66,1.54-1,2.69-1,.47,0,.89.05,1.27.16ZM172.13,432.89l.44-3.11c-.11,0-.21-.01-.32-.01-.8,0-1.41.25-1.83.76s-.63,1.08-.63,1.71c0,.43.1.79.3,1.06s.46.41.77.41c.25,0,.52-.12.81-.37s.44-.4.45-.46Z"/><path class="cls-2" d="M184.25,433.24l-.12.98c-.47.26-.97.39-1.5.39-.72,0-1.3-.23-1.73-.68s-.65-1.05-.65-1.81c0-.91.33-1.68.98-2.3s1.49-.94,2.51-.94c.26,0,.57.03.93.09l-.13.9c-.25-.06-.51-.09-.78-.09-.71,0-1.29.23-1.76.68s-.7.98-.7,1.59c0,.51.13.91.4,1.2s.62.44,1.08.44c.48,0,.98-.15,1.48-.46Z"/><path class="cls-2" d="M192.64,429.05l-.76,5.39h-1.02l.76-5.39h1.02ZM191.73,427.37c0-.16.06-.3.17-.42s.25-.17.41-.17.3.06.41.17.17.25.17.42-.06.3-.17.41-.25.17-.41.17-.3-.06-.41-.17-.17-.25-.17-.41Z"/><path class="cls-2" d="M202.29,429.05l-.13.9h-1.09l-.87,6.76h-1l.87-6.76h-.87l.13-.9h.85c.07-.93.33-1.64.78-2.14s1.06-.76,1.82-.76c.4,0,.83.08,1.31.25l-.15,1.01c-.37-.2-.72-.3-1.05-.3-1.01,0-1.57.65-1.7,1.94h1.1Z"/><path class="cls-2" d="M209.9,429.05l-.76,5.39h-1.02l.76-5.39h1.02ZM209,427.37c0-.16.06-.3.17-.42s.25-.17.41-.17.3.06.41.17.17.25.17.42-.06.3-.17.41-.25.17-.41.17-.3-.06-.41-.17-.17-.25-.17-.41Z"/><path class="cls-2" d="M221.43,428.89l-1.16,8.31h-1.02l.41-2.92c-.44.22-.81.33-1.11.33-.61,0-1.11-.22-1.5-.67-.38-.45-.57-1.03-.57-1.75,0-.94.33-1.73,1-2.36.67-.63,1.61-.94,2.82-.94h1.14ZM219.77,433.53l.53-3.8c-.87-.04-1.55.17-2.04.63s-.73,1.09-.73,1.89c0,.46.13.83.38,1.11s.59.42,1.02.42c.22,0,.5-.08.84-.24Z"/><path class="cls-2" d="M233,429.05l-.77,5.39h-1.01l.09-.91c-.62.66-1.21,1-1.78,1-.36,0-.67-.13-.92-.39s-.38-.63-.38-1.11c0-.14,0-.28.03-.42l.5-3.56h1.02l-.5,3.56c-.02.12-.02.23-.02.33,0,.54.2.81.6.81.42,0,.96-.4,1.62-1.19l.49-3.5h1.02Z"/><path class="cls-2" d="M244.03,433.04l-.15.97c-.55.4-1.15.6-1.8.6s-1.23-.24-1.64-.71-.62-1.11-.62-1.9c0-.88.25-1.62.74-2.22s1.1-.9,1.81-.9c.55,0,1,.21,1.37.63s.54.96.54,1.63c0,.16-.01.33-.04.5h-3.36c-.03.18-.05.35-.05.52,0,.5.14.89.41,1.17s.61.43,1.02.43c.5,0,1.08-.24,1.75-.73ZM241.05,430.94h2.26c0-.38-.08-.67-.25-.89-.17-.22-.41-.33-.72-.33-.59,0-1.01.4-1.28,1.21Z"/><rect class="cls-1" width="905.67" height="603.78"/></g></svg>