<?xml version="1.0" encoding="UTF-8"?><svg id="Calque_2" xmlns="http://www.w3.org/2000/svg" viewBox="0 0 96.62 80.87"><defs><style>.cls-1{fill-rule:evenodd;stroke:#681412;stroke-width:.24px;}.cls-1,.cls-2{stroke-linecap:square;stroke-linejoin:bevel;}.cls-1,.cls-2,.cls-3{fill:none;}.cls-2,.cls-3{stroke:#fff;stroke-width:.2px;}.cls-4{fill:#fff;}.cls-3{stroke-miterlimit:10;}</style></defs><g id="Frappes_aériennes"><path id="_11" class="cls-1" d="M70.85,44.81c0,19.85-15.83,35.94-35.36,35.94S.12,64.66.12,44.81,15.95,8.87,35.48,8.87s35.36,16.09,35.36,35.94" vector-effect="non-scaling-stroke"/><path id="_24" class="cls-1" d="M41.37,74.76c0,3.3-2.64,5.98-5.89,5.98s-5.89-2.68-5.89-5.98,2.64-5.98,5.89-5.98,5.89,2.68,5.89,5.98" vector-effect="non-scaling-stroke"/><path id="_20" class="cls-1" d="M60.34,55.48c0,13.95-11.13,25.26-24.86,25.26s-24.86-11.31-24.86-25.26,11.13-25.26,24.86-25.26,24.86,11.31,24.86,25.26" vector-effect="non-scaling-stroke"/><path class="cls-4" d="M87.06,0h1.27v8.87h-1.27V0Z"/><path class="cls-4" d="M92.24,0h3.94v1.13h-2.78v2.24c.09,0,.18-.01.27-.01.86,0,1.57.26,2.12.78s.83,1.19.83,2-.27,1.51-.82,2.03c-.55.52-1.26.78-2.13.78-.72,0-1.42-.17-2.09-.52v-1.31c.64.42,1.26.62,1.87.62.53,0,.98-.16,1.34-.47.36-.31.54-.69.54-1.15s-.2-.86-.59-1.18-.88-.47-1.47-.47c-.5,0-.85.04-1.03.13V0Z"/><path class="cls-4" d="M84.44,23.73c0-.69.26-1.28.78-1.77s1.16-.73,1.91-.73,1.37.24,1.88.72c.51.48.76,1.07.76,1.77,0,.79-.37,1.44-1.1,1.96.82.47,1.23,1.17,1.23,2.1,0,.73-.27,1.34-.8,1.82s-1.21.72-2.02.72-1.48-.24-2.02-.73-.82-1.09-.82-1.81c0-.9.42-1.6,1.26-2.08-.38-.3-.65-.61-.81-.91-.16-.3-.24-.65-.24-1.05ZM88.62,27.84v-.13c0-.41-.15-.74-.43-.99-.29-.26-.67-.38-1.13-.38s-.82.13-1.11.39c-.29.26-.43.59-.43,1s.15.74.44,1c.29.26.67.39,1.14.39s.81-.12,1.09-.36c.29-.24.43-.54.43-.92ZM88.51,23.77c0-.38-.13-.7-.4-.95-.26-.25-.6-.37-1.01-.37s-.75.12-1.01.37c-.26.25-.39.56-.39.95s.14.68.42.95c.28.26.61.39,1,.39s.71-.13.98-.39c.27-.26.41-.57.41-.94Z"/><path class="cls-4" d="M86.5,67.56h3.38v1.22h-5.61v-.09l.53-.63c.83-1.03,1.5-1.91,1.99-2.63.49-.72.81-1.26.96-1.63.15-.37.23-.73.23-1.09,0-.5-.14-.9-.43-1.2s-.66-.45-1.13-.45c-.36,0-.71.1-1.05.31-.34.21-.65.5-.93.89v-1.61c.69-.56,1.4-.84,2.13-.84.77,0,1.41.26,1.91.78.5.52.75,1.17.75,1.97,0,.36-.06.74-.19,1.14-.12.4-.35.87-.66,1.4-.32.53-.86,1.25-1.62,2.16l-.27.32Z"/><line class="cls-2" x1="84.66" y1="8.87" x2="35.48" y2="8.87"/><line class="cls-3" x1="82.89" y1="30.22" x2="35.48" y2="30.22"/><line class="cls-3" x1="35.48" y1="68.78" x2="80.39" y2="68.78"/></g></svg>