<?xml version="1.0" encoding="UTF-8"?><svg id="Calque_2" xmlns="http://www.w3.org/2000/svg" viewBox="0 0 144.49 108.21"><defs><style>.cls-1{fill:#d1acab;fill-rule:evenodd;opacity:.7;stroke:#681412;stroke-width:.24px;}.cls-1,.cls-2{stroke-linecap:square;stroke-linejoin:bevel;}.cls-2,.cls-3{fill:none;stroke:#fff;stroke-width:.2px;}.cls-4{fill:#fff;}.cls-3{stroke-miterlimit:10;}</style></defs><g id="Frappes_aériennes"><path id="_11" class="cls-1" d="M70.85,72.15c0,19.85-15.83,35.94-35.36,35.94S.12,92,.12,72.15s15.83-35.94,35.36-35.94,35.36,16.09,35.36,35.94" vector-effect="non-scaling-stroke"/><path id="_20" class="cls-1" d="M60.34,82.82c0,13.95-11.13,25.26-24.86,25.26s-24.86-11.31-24.86-25.26,11.13-25.26,24.86-25.26,24.86,11.31,24.86,25.26" vector-effect="non-scaling-stroke"/><path id="_24" class="cls-1" d="M41.37,102.1c0,3.3-2.64,5.98-5.89,5.98s-5.89-2.68-5.89-5.98,2.64-5.98,5.89-5.98,5.89,2.68,5.89,5.98" vector-effect="non-scaling-stroke"/><path class="cls-4" d="M87.06,27.34h1.27v8.87h-1.27v-8.87Z"/><path class="cls-4" d="M92.24,27.34h3.94v1.13h-2.78v2.24c.09,0,.18-.01.27-.01.86,0,1.57.26,2.12.78s.83,1.19.83,2-.27,1.51-.82,2.03c-.55.52-1.26.78-2.13.78-.72,0-1.42-.17-2.09-.52v-1.31c.64.42,1.26.62,1.87.62.53,0,.98-.16,1.34-.47.36-.31.54-.69.54-1.15s-.2-.86-.59-1.18-.88-.47-1.47-.47c-.5,0-.85.04-1.03.13v-4.61Z"/><path class="cls-4" d="M84.44,51.07c0-.69.26-1.28.78-1.77s1.16-.73,1.91-.73,1.37.24,1.88.72c.51.48.76,1.07.76,1.77,0,.79-.37,1.44-1.1,1.96.82.47,1.23,1.17,1.23,2.1,0,.73-.27,1.34-.8,1.82s-1.21.72-2.02.72-1.48-.24-2.02-.73-.82-1.09-.82-1.81c0-.9.42-1.6,1.26-2.08-.38-.3-.65-.61-.81-.91-.16-.3-.24-.65-.24-1.05ZM88.62,55.18v-.13c0-.41-.15-.74-.43-.99-.29-.26-.67-.38-1.13-.38s-.82.13-1.11.39c-.29.26-.43.59-.43,1s.15.74.44,1c.29.26.67.39,1.14.39s.81-.12,1.09-.36c.29-.24.43-.54.43-.92ZM88.51,51.11c0-.38-.13-.7-.4-.95-.26-.25-.6-.37-1.01-.37s-.75.12-1.01.37c-.26.25-.39.56-.39.95s.14.68.42.95c.28.26.61.39,1,.39s.71-.13.98-.39c.27-.26.41-.57.41-.94Z"/><path class="cls-4" d="M86.5,94.9h3.38v1.22h-5.61v-.09l.53-.63c.83-1.03,1.5-1.91,1.99-2.63.49-.72.81-1.26.96-1.63.15-.37.23-.73.23-1.09,0-.5-.14-.9-.43-1.2s-.66-.45-1.13-.45c-.36,0-.71.1-1.05.31-.34.21-.65.5-.93.89v-1.61c.69-.56,1.4-.84,2.13-.84.77,0,1.41.26,1.91.78.5.52.75,1.17.75,1.97,0,.36-.06.74-.19,1.14-.12.4-.35.87-.66,1.4-.32.53-.86,1.25-1.62,2.16l-.27.32Z"/><line class="cls-2" x1="84.66" y1="36.21" x2="35.48" y2="36.21"/><line class="cls-3" x1="82.89" y1="57.56" x2="35.48" y2="57.56"/><line class="cls-3" x1="35.48" y1="96.12" x2="80.39" y2="96.12"/><path class="cls-4" d="M6.75.11h1.14v8.37h-1.03L1.27,2.03v6.44H.14V.11h.97l5.64,6.5V.11Z"/><path class="cls-4" d="M12.17,2.95c.84,0,1.54.27,2.09.81.55.54.83,1.22.83,2.04s-.28,1.45-.84,1.98c-.56.52-1.27.79-2.13.79s-1.52-.27-2.07-.8c-.56-.53-.83-1.2-.83-2s.28-1.48.84-2.02c.56-.54,1.26-.8,2.11-.8ZM12.11,3.93c-.52,0-.95.17-1.29.52-.33.34-.5.78-.5,1.31s.17.96.52,1.29c.34.33.78.5,1.32.5s.97-.17,1.31-.51c.34-.34.51-.77.51-1.3s-.18-.96-.53-1.3c-.36-.34-.8-.52-1.34-.52Z"/><path class="cls-4" d="M20.81,4.47v4h-1.1v-3.07c0-.61-.08-1.04-.25-1.28-.16-.24-.45-.36-.86-.36-.23,0-.44.05-.63.16-.19.1-.41.29-.65.55v4h-1.09V2.96h1.09v.72c.56-.55,1.1-.83,1.63-.83.7,0,1.24.33,1.62.99.58-.67,1.19-1.01,1.83-1.01.53,0,.98.2,1.32.59.35.39.52.99.52,1.79v3.25h-1.09v-3.26c0-.46-.09-.81-.28-1.05-.19-.24-.46-.37-.81-.37-.45,0-.87.23-1.26.68Z"/><path class="cls-4" d="M25.71.11h1.09v3.25c.47-.34.97-.52,1.51-.52.7,0,1.27.26,1.71.79.44.53.67,1.2.67,2.03,0,.89-.26,1.59-.79,2.12-.53.52-1.24.79-2.12.79-.36,0-.73-.04-1.12-.11-.39-.08-.71-.17-.94-.29V.11ZM26.8,4.4v2.98c.37.11.75.17,1.14.17.48,0,.88-.17,1.18-.52.31-.34.46-.78.46-1.32s-.14-.99-.43-1.34c-.29-.34-.66-.51-1.12-.51-.41,0-.82.18-1.24.54Z"/><path class="cls-4" d="M33.06,2.96v1.26l.06-.1c.53-.85,1.05-1.28,1.58-1.28.41,0,.84.21,1.29.62l-.58.96c-.38-.36-.73-.54-1.05-.54-.35,0-.66.17-.91.5-.26.33-.39.73-.39,1.19v2.88h-1.1V2.96h1.1Z"/><path class="cls-4" d="M41.2,5.82h-3.88c.03.53.2.95.53,1.26.33.31.75.47,1.26.47.72,0,1.38-.22,1.99-.67v1.07c-.34.22-.67.38-1,.48s-.72.14-1.16.14c-.61,0-1.1-.13-1.47-.38-.38-.25-.68-.59-.9-1.01s-.34-.92-.34-1.48c0-.84.24-1.52.71-2.04s1.09-.79,1.85-.79,1.31.26,1.75.77c.44.51.65,1.2.65,2.05v.14ZM37.34,5.16h2.77c-.03-.44-.16-.77-.39-1.01-.23-.24-.54-.35-.93-.35s-.71.12-.96.35c-.25.24-.41.57-.49,1.01Z"/><path class="cls-4" d="M49.46.11h1.1v8.37h-2.33c-.81,0-1.46-.26-1.95-.77-.48-.52-.73-1.21-.73-2.07,0-.81.25-1.48.76-2,.51-.52,1.16-.79,1.95-.79.37,0,.77.08,1.2.23V.11ZM49.46,7.54v-3.49c-.34-.17-.68-.26-1.03-.26-.54,0-.98.18-1.3.53s-.48.83-.48,1.44c0,.57.14,1,.42,1.31.17.18.35.31.53.37.19.06.52.1,1.01.1h.84Z"/><path class="cls-4" d="M56.73,5.82h-3.88c.03.53.2.95.53,1.26.33.31.75.47,1.26.47.72,0,1.38-.22,1.99-.67v1.07c-.34.22-.67.38-1,.48s-.72.14-1.16.14c-.61,0-1.1-.13-1.47-.38-.38-.25-.68-.59-.9-1.01s-.34-.92-.34-1.48c0-.84.24-1.52.71-2.04s1.09-.79,1.85-.79,1.31.26,1.75.77c.44.51.65,1.2.65,2.05v.14ZM52.88,5.16h2.77c-.03-.44-.16-.77-.39-1.01-.23-.24-.54-.35-.93-.35s-.71.12-.96.35c-.25.24-.41.57-.49,1.01Z"/><path class="cls-4" d="M65.83,4.47v4h-1.1v-3.07c0-.61-.08-1.04-.25-1.28-.16-.24-.45-.36-.86-.36-.23,0-.44.05-.63.16-.19.1-.41.29-.65.55v4h-1.09V2.96h1.09v.72c.56-.55,1.1-.83,1.63-.83.7,0,1.24.33,1.62.99.58-.67,1.19-1.01,1.83-1.01.53,0,.98.2,1.32.59.35.39.52.99.52,1.79v3.25h-1.09v-3.26c0-.46-.09-.81-.28-1.05-.19-.24-.46-.37-.81-.37-.45,0-.87.23-1.26.68Z"/><path class="cls-4" d="M73.41,2.95c.84,0,1.54.27,2.09.81.55.54.83,1.22.83,2.04s-.28,1.45-.84,1.98c-.56.52-1.27.79-2.13.79s-1.52-.27-2.07-.8c-.56-.53-.83-1.2-.83-2s.28-1.48.84-2.02c.56-.54,1.26-.8,2.11-.8ZM73.35,3.93c-.52,0-.95.17-1.29.52-.33.34-.5.78-.5,1.31s.17.96.52,1.29c.34.33.78.5,1.32.5s.97-.17,1.31-.51c.34-.34.51-.77.51-1.3s-.18-.96-.53-1.3c-.36-.34-.8-.52-1.34-.52Z"/><path class="cls-4" d="M78.71,2.96v1.26l.06-.1c.53-.85,1.05-1.28,1.58-1.28.41,0,.84.21,1.29.62l-.58.96c-.38-.36-.73-.54-1.05-.54-.35,0-.66.17-.91.5-.26.33-.39.73-.39,1.19v2.88h-1.1V2.96h1.1Z"/><path class="cls-4" d="M81.87,3.84l2.05-2.01v1.14h1.74v.98h-1.74v2.7c0,.63.26.94.78.94.39,0,.8-.13,1.24-.39v1.02c-.42.24-.88.35-1.37.35s-.91-.15-1.25-.44c-.1-.09-.19-.19-.26-.3-.07-.11-.12-.25-.17-.43-.05-.18-.07-.52-.07-1.01v-2.44h-.96v-.11Z"/><path class="cls-4" d="M86.46,8.08v-1.17c.31.22.62.39.94.52s.59.2.81.2.42-.06.59-.17c.16-.11.25-.25.25-.4s-.05-.29-.16-.4-.33-.26-.69-.46c-.7-.39-1.16-.73-1.38-1-.22-.28-.33-.58-.33-.91,0-.42.16-.77.49-1.04.33-.27.75-.4,1.27-.4s1.09.15,1.66.46v1.08c-.65-.39-1.18-.59-1.59-.59-.21,0-.38.04-.51.14-.13.09-.19.21-.19.36,0,.13.06.25.18.37.12.12.32.26.62.42l.39.22c.92.52,1.38,1.09,1.38,1.72,0,.45-.18.82-.53,1.11-.35.29-.81.43-1.36.43-.33,0-.62-.04-.87-.1-.26-.07-.58-.2-.96-.39Z"/><path class="cls-4" d="M94.79,11.28V2.96h1.91c.98,0,1.74.24,2.28.73s.82,1.17.82,2.04c0,.83-.26,1.51-.77,2.04-.51.53-1.17.8-1.96.8-.35,0-.74-.08-1.17-.23v2.95h-1.11ZM96.67,3.98h-.77v3.39c.33.17.69.26,1.05.26.51,0,.93-.18,1.25-.53.32-.35.49-.81.49-1.37,0-.36-.08-.68-.23-.95s-.36-.48-.63-.6c-.27-.13-.65-.19-1.16-.19Z"/><path class="cls-4" d="M104.45,5.16v2.34c0,.19.06.28.19.28s.34-.1.62-.29v.67c-.25.16-.45.27-.6.33-.15.06-.31.09-.47.09-.47,0-.74-.18-.83-.55-.46.36-.96.54-1.48.54-.38,0-.7-.13-.96-.38-.26-.25-.38-.57-.38-.96,0-.35.12-.66.37-.93s.6-.49,1.06-.65l1.4-.48v-.29c0-.66-.33-.99-.99-.99-.59,0-1.17.31-1.74.92v-1.19c.42-.5,1.03-.75,1.83-.75.59,0,1.07.16,1.43.47.12.1.23.23.32.4.1.17.16.33.18.5.03.17.04.48.04.94ZM103.38,7.38v-1.63l-.73.28c-.37.15-.63.3-.79.45-.15.15-.23.34-.23.56s.07.41.22.56c.15.14.33.22.57.22.35,0,.67-.14.96-.42Z"/><path class="cls-4" d="M107.39,2.96v1.26l.06-.1c.53-.85,1.05-1.28,1.58-1.28.41,0,.84.21,1.29.62l-.58.96c-.38-.36-.73-.54-1.05-.54-.35,0-.66.17-.91.5-.26.33-.39.73-.39,1.19v2.88h-1.1V2.96h1.1Z"/><path class="cls-4" d="M114.62,2.96v-.33c0-.89.19-1.55.57-1.98.38-.44.83-.65,1.36-.65.23,0,.5.04.81.11v1.07c-.18-.06-.34-.1-.5-.1-.43,0-.72.11-.89.34-.17.23-.25.63-.25,1.22v.33h.98v.98h-.98v4.53h-1.09V3.95h-.79v-.98h.79Z"/><path class="cls-4" d="M118.72,2.96v1.26l.06-.1c.53-.85,1.05-1.28,1.58-1.28.41,0,.84.21,1.29.62l-.58.96c-.38-.36-.73-.54-1.05-.54-.35,0-.66.17-.91.5-.26.33-.39.73-.39,1.19v2.88h-1.1V2.96h1.1Z"/><path class="cls-4" d="M125.88,5.16v2.34c0,.19.06.28.19.28s.34-.1.62-.29v.67c-.25.16-.45.27-.6.33-.15.06-.31.09-.47.09-.47,0-.74-.18-.83-.55-.46.36-.96.54-1.48.54-.38,0-.7-.13-.96-.38-.26-.25-.38-.57-.38-.96,0-.35.12-.66.37-.93s.6-.49,1.06-.65l1.4-.48v-.29c0-.66-.33-.99-.99-.99-.59,0-1.17.31-1.74.92v-1.19c.42-.5,1.03-.75,1.83-.75.59,0,1.07.16,1.43.47.12.1.23.23.32.4.1.17.16.33.18.5.03.17.04.48.04.94ZM124.8,7.38v-1.63l-.73.28c-.37.15-.63.3-.79.45-.15.15-.23.34-.23.56s.07.41.22.56c.15.14.33.22.57.22.35,0,.67-.14.96-.42Z"/><path class="cls-4" d="M127.46,11.28V2.96h1.91c.98,0,1.74.24,2.28.73s.82,1.17.82,2.04c0,.83-.26,1.51-.77,2.04-.51.53-1.17.8-1.96.8-.35,0-.74-.08-1.17-.23v2.95h-1.11ZM129.34,3.98h-.77v3.39c.33.17.69.26,1.05.26.51,0,.93-.18,1.25-.53.32-.35.49-.81.49-1.37,0-.36-.08-.68-.23-.95s-.36-.48-.63-.6c-.27-.13-.65-.19-1.16-.19Z"/><path class="cls-4" d="M133.59,11.28V2.96h1.91c.98,0,1.74.24,2.28.73s.82,1.17.82,2.04c0,.83-.26,1.51-.77,2.04-.51.53-1.17.8-1.96.8-.35,0-.74-.08-1.17-.23v2.95h-1.11ZM135.47,3.98h-.77v3.39c.33.17.69.26,1.05.26.51,0,.93-.18,1.25-.53.32-.35.49-.81.49-1.37,0-.36-.08-.68-.23-.95s-.36-.48-.63-.6c-.27-.13-.65-.19-1.16-.19Z"/><path class="cls-4" d="M144.49,5.82h-3.88c.03.53.2.95.53,1.26.33.31.75.47,1.26.47.72,0,1.38-.22,1.99-.67v1.07c-.34.22-.67.38-1,.48s-.72.14-1.16.14c-.61,0-1.1-.13-1.47-.38-.38-.25-.68-.59-.9-1.01s-.34-.92-.34-1.48c0-.84.24-1.52.71-2.04s1.09-.79,1.85-.79,1.31.26,1.75.77c.44.51.65,1.2.65,2.05v.14ZM140.64,5.16h2.77c-.03-.44-.16-.77-.39-1.01-.23-.24-.54-.35-.93-.35s-.71.12-.96.35c-.25.24-.41.57-.49,1.01Z"/></g></svg>