<?xml version="1.0" encoding="UTF-8"?><svg id="Calque_2" xmlns="http://www.w3.org/2000/svg" viewBox="0 0 85.14 33.9"><defs><style>.cls-1{fill:#010101;}.cls-2{fill:#fff;}.cls-3{stroke:#fff;stroke-width:.25px;}.cls-3,.cls-4{fill:none;stroke-miterlimit:10;}.cls-4{stroke:#000;}</style></defs><g id="Légende"><path class="cls-1" d="M6.92.35l4.27,4.27-4.27,4.27L2.64,4.63,6.92.35M6.92,0l-.18.18L2.47,4.45l-.18.18.18.18,4.27,4.27.18.18.18-.18,4.27-4.27.18-.18-.18-.18L7.09.18l-.18-.18h0Z"/><rect class="cls-1" x="4.14" y="1.86" width="5.55" height="5.55" transform="translate(-1.25 6.25) rotate(-45)"/><path class="cls-2" d="M6.92,1.06l3.57,3.57-3.57,3.57-3.57-3.57,3.57-3.57M6.92.35L2.64,4.63l4.27,4.27,4.27-4.27L6.92.35h0Z"/><path class="cls-2" d="M8.05,3.26h0c0,.19-.39.35-1.13.35-.77,0-1.13-.15-1.13-.34h0c0-.12.12-.2.36-.27.21-.05.48-.08.77-.08s.56.03.77.08c.24.06.36.15.36.26h0ZM6.76,3.26s-.1-.05-.21-.05-.21.02-.21.05.1.05.21.05.21-.02.21-.05ZM7.98,3.97v-.44c-.06.05-.16.09-.29.12-.21.05-.48.08-.77.08s-.56-.03-.77-.08c-.13-.03-.22-.07-.29-.12v.44s-.07.08-.07.13h0c0,.2.35.35,1.13.35s1.13-.15,1.13-.34h0c0-.06-.02-.1-.07-.14ZM7.98,4.91v-.53c-.06.05-.16.09-.29.12-.21.05-.48.08-.77.08s-.56-.03-.77-.08c-.13-.03-.22-.07-.29-.12v.53s-.07.08-.07.13h0c0,.19.35.35,1.13.35s1.13-.15,1.13-.34h0c0-.05-.02-.1-.07-.14ZM8.04,5.97s-.03-.07-.06-.1v-.56c-.06.05-.16.09-.29.12-.21.05-.48.08-.77.08s-.56-.03-.77-.08c-.13-.03-.22-.07-.29-.12v.56s-.06.06-.06.1c0,0,0,.02,0,.03h0s.02.08.05.12c.12.13.47.22,1.08.22.44,0,.75-.05.94-.14.13-.05.19-.12.19-.2h0s0-.02,0-.03h0Z"/><path class="cls-1" d="M6.92,12.27l4.27,4.27-4.27,4.27-4.27-4.27,4.27-4.27M6.92,11.92l-.18.18-4.27,4.27-.18.18.18.18,4.27,4.27.18.18.18-.18,4.27-4.27.18-.18-.18-.18-4.27-4.27-.18-.18h0Z"/><rect class="cls-2" x="4.14" y="13.77" width="5.55" height="5.55" transform="translate(-9.67 9.74) rotate(-45)"/><path class="cls-1" d="M6.92,12.98l3.57,3.57-3.57,3.57-3.57-3.57,3.57-3.57M6.92,12.27l-4.27,4.27,4.27,4.27,4.27-4.27-4.27-4.27h0Z"/><path d="M8.05,15.18h0c0,.19-.39.35-1.13.35-.77,0-1.13-.15-1.13-.34h0c0-.12.12-.2.36-.27.21-.05.48-.08.77-.08s.56.03.77.08c.24.06.36.15.36.26h0ZM6.76,15.17s-.1-.05-.21-.05-.21.02-.21.05.1.05.21.05.21-.02.21-.05ZM7.98,15.89v-.44c-.06.05-.16.09-.29.12-.21.05-.48.08-.77.08s-.56-.03-.77-.08c-.13-.03-.22-.07-.29-.12v.44s-.07.08-.07.13h0c0,.2.35.35,1.13.35s1.13-.15,1.13-.34h0c0-.06-.02-.1-.07-.14ZM7.98,16.82v-.53c-.06.05-.16.09-.29.12-.21.05-.48.08-.77.08s-.56-.03-.77-.08c-.13-.03-.22-.07-.29-.12v.53s-.07.08-.07.13h0c0,.19.35.35,1.13.35s1.13-.15,1.13-.34h0c0-.05-.02-.1-.07-.14ZM8.04,17.88s-.03-.07-.06-.1v-.56c-.06.05-.16.09-.29.12-.21.05-.48.08-.77.08s-.56-.03-.77-.08c-.13-.03-.22-.07-.29-.12v.56s-.06.06-.06.1c0,0,0,.02,0,.03h0s.02.08.05.12c.12.13.47.22,1.08.22.44,0,.75-.05.94-.14.13-.05.19-.12.19-.2h0s0-.02,0-.03h0Z"/><line class="cls-4" y1="29" x2="13.84" y2="29"/><line class="cls-3" y1="29" x2="13.84" y2="29"/><path class="cls-2" d="M20,7.69V.87h1.71c.69,0,1.24.17,1.64.51.41.34.61.8.61,1.39,0,.4-.1.74-.3,1.03s-.48.51-.85.65c.22.14.43.34.64.59s.5.68.88,1.29c.24.39.43.68.57.87l.36.49h-1.16l-.3-.45s-.03-.04-.06-.08l-.19-.27-.3-.5-.33-.53c-.2-.28-.39-.5-.55-.67-.17-.17-.32-.29-.45-.36-.14-.07-.36-.11-.68-.11h-.25v2.97h-.98ZM21.27,1.7h-.29v2.15h.37c.5,0,.83-.04,1.02-.13.18-.08.33-.21.43-.38.1-.17.15-.37.15-.58s-.06-.41-.17-.58-.27-.3-.48-.37c-.21-.07-.55-.11-1.03-.11Z"/><path class="cls-2" d="M28.71,4.99v1.91c0,.15.05.23.16.23s.28-.08.5-.24v.54c-.2.13-.36.22-.49.27-.12.05-.25.07-.38.07-.38,0-.61-.15-.67-.45-.38.29-.78.44-1.21.44-.31,0-.57-.1-.78-.31s-.31-.47-.31-.78c0-.28.1-.54.31-.76.2-.22.49-.4.87-.53l1.14-.39v-.24c0-.54-.27-.81-.81-.81-.49,0-.96.25-1.42.75v-.97c.34-.41.84-.61,1.49-.61.49,0,.87.13,1.17.38.1.08.19.19.26.32s.13.27.15.41c.02.14.03.39.03.77ZM27.84,6.8v-1.33l-.6.23c-.3.12-.52.24-.64.36-.12.12-.19.27-.19.46s.06.34.18.45c.12.12.27.18.46.18.28,0,.54-.12.79-.35Z"/><path class="cls-2" d="M30.26,3.2v-.27c0-.72.15-1.26.46-1.62.31-.35.68-.53,1.11-.53.19,0,.41.03.66.09v.87c-.14-.05-.28-.08-.41-.08-.35,0-.59.09-.72.28-.14.19-.2.52-.2.99v.27h.8v.8h-.8v3.69h-.89v-3.69h-.64v-.8h.64Z"/><path class="cls-2" d="M32.76,3.2v-.27c0-.72.15-1.26.46-1.62.31-.35.68-.53,1.11-.53.19,0,.41.03.66.09v.87c-.14-.05-.28-.08-.41-.08-.35,0-.59.09-.72.28-.14.19-.2.52-.2.99v.27h.8v.8h-.8v3.69h-.89v-3.69h-.64v-.8h.64Z"/><path class="cls-2" d="M35.62,1.31c.15,0,.27.05.38.15s.16.22.16.37-.05.27-.16.37-.23.16-.38.16c-.14,0-.26-.05-.36-.16s-.16-.23-.16-.37.05-.26.16-.36.22-.16.36-.16ZM35.18,3.2h.89v4.49h-.89V3.2Z"/><path class="cls-2" d="M38.24,3.2v.57c.4-.44.85-.66,1.35-.66.28,0,.54.07.78.22s.42.34.55.6c.13.25.19.65.19,1.2v2.57h-.89v-2.56c0-.46-.07-.79-.21-.98s-.37-.3-.7-.3c-.42,0-.78.21-1.07.63v3.21h-.91V3.2h.91Z"/><path class="cls-2" d="M46.18,5.52h-3.16c.02.43.17.77.43,1.03.27.25.61.38,1.03.38.59,0,1.13-.18,1.62-.55v.87c-.27.18-.54.31-.81.39-.27.08-.58.12-.94.12-.5,0-.9-.1-1.2-.31s-.55-.48-.74-.83c-.18-.35-.28-.75-.28-1.2,0-.68.19-1.24.58-1.67s.89-.64,1.51-.64,1.07.21,1.43.62.53.98.53,1.67v.11ZM43.04,4.99h2.26c-.02-.35-.13-.63-.32-.82s-.44-.29-.76-.29-.58.1-.78.29c-.2.19-.34.47-.4.82Z"/><path class="cls-2" d="M48.09,3.2v1.03l.05-.08c.43-.69.86-1.04,1.29-1.04.33,0,.69.17,1.05.51l-.47.78c-.31-.29-.6-.44-.86-.44-.29,0-.53.14-.75.41-.21.27-.31.6-.31.97v2.35h-.89V3.2h.89Z"/><path class="cls-2" d="M51.56,1.31c.15,0,.27.05.38.15s.16.22.16.37-.05.27-.16.37-.23.16-.38.16c-.14,0-.26-.05-.36-.16s-.16-.23-.16-.37.05-.26.16-.36.22-.16.36-.16ZM51.12,3.2h.89v4.49h-.89V3.2Z"/><path class="cls-2" d="M57.12,5.52h-3.16c.02.43.17.77.43,1.03.27.25.61.38,1.03.38.59,0,1.13-.18,1.62-.55v.87c-.27.18-.54.31-.81.39-.27.08-.58.12-.94.12-.5,0-.9-.1-1.2-.31s-.55-.48-.74-.83c-.18-.35-.28-.75-.28-1.2,0-.68.19-1.24.58-1.67s.89-.64,1.51-.64,1.07.21,1.43.62.53.98.53,1.67v.11ZM53.98,4.99h2.26c-.02-.35-.13-.63-.32-.82s-.44-.29-.76-.29-.58.1-.78.29c-.2.19-.34.47-.4.82Z"/><path class="cls-2" d="M24.72,12.79h.98v3.87c0,.52-.04.92-.11,1.19-.08.27-.17.49-.28.67-.11.18-.25.34-.41.48-.54.47-1.25.7-2.12.7s-1.6-.23-2.14-.69c-.16-.14-.3-.3-.41-.48-.11-.18-.21-.39-.28-.65-.07-.26-.11-.66-.11-1.21v-3.86h.98v3.87c0,.64.07,1.09.22,1.34s.37.45.67.6.65.23,1.06.23c.58,0,1.05-.15,1.42-.45.19-.16.33-.35.42-.58s.13-.6.13-1.14v-3.87Z"/><path class="cls-2" d="M26.87,21.9v-6.78h1.56c.8,0,1.42.2,1.86.6.44.4.67.95.67,1.67,0,.67-.21,1.23-.63,1.66-.42.43-.95.65-1.6.65-.29,0-.6-.06-.95-.19v2.4h-.91ZM28.41,15.94h-.63v2.76c.27.14.56.21.86.21.42,0,.76-.15,1.02-.43s.4-.66.4-1.12c0-.29-.06-.55-.19-.78s-.3-.39-.51-.49-.53-.15-.95-.15Z"/><path class="cls-2" d="M31.7,16.67c0-.48.17-.86.53-1.14.35-.28.83-.42,1.43-.42h1.85v.69h-.91c.18.18.3.34.37.49s.1.31.1.5c0,.23-.07.46-.2.69s-.31.4-.51.52c-.21.12-.55.22-1.03.29-.33.05-.5.16-.5.35,0,.1.06.19.19.26.12.07.35.14.68.21.55.12.9.21,1.06.28.16.07.3.17.43.29.21.21.32.48.32.81,0,.43-.19.77-.57,1.02-.38.25-.89.38-1.52.38s-1.15-.13-1.54-.38c-.38-.26-.57-.6-.57-1.03,0-.61.38-1,1.13-1.18-.3-.19-.45-.38-.45-.57,0-.14.06-.27.19-.39.13-.12.3-.2.52-.26-.66-.29-.99-.77-.99-1.42ZM33.16,19.82c-.3,0-.54.06-.74.19-.19.13-.29.29-.29.49,0,.46.42.69,1.25.69.39,0,.7-.06.92-.17.22-.12.32-.28.32-.49s-.14-.38-.41-.51-.63-.2-1.06-.2ZM33.37,15.89c-.24,0-.45.08-.62.24s-.25.36-.25.59.08.42.25.57.38.23.63.23.46-.08.63-.23c.17-.15.25-.35.25-.58s-.08-.43-.25-.59-.38-.23-.63-.23Z"/><path class="cls-2" d="M37.15,15.11v1.03l.05-.08c.43-.69.86-1.04,1.29-1.04.33,0,.69.17,1.05.51l-.47.78c-.31-.29-.6-.44-.86-.44-.29,0-.53.14-.75.41-.21.27-.31.6-.31.97v2.35h-.89v-4.49h.89Z"/><path class="cls-2" d="M42.98,16.91v1.91c0,.15.05.23.16.23s.28-.08.5-.24v.54c-.2.13-.36.22-.49.27-.12.05-.25.07-.38.07-.38,0-.61-.15-.67-.45-.38.29-.78.44-1.21.44-.31,0-.57-.1-.78-.31s-.31-.47-.31-.78c0-.28.1-.54.31-.76.2-.22.49-.4.87-.53l1.14-.39v-.24c0-.54-.27-.81-.81-.81-.49,0-.96.25-1.42.75v-.97c.34-.41.84-.61,1.49-.61.49,0,.87.13,1.17.38.1.08.19.19.26.32s.13.27.15.41c.02.14.03.39.03.77ZM42.11,18.72v-1.33l-.6.23c-.3.12-.52.24-.64.36-.12.12-.19.27-.19.46s.06.34.18.45c.12.12.27.18.46.18.28,0,.54-.12.79-.35Z"/><path class="cls-2" d="M47.42,12.79h.89v6.82h-1.9c-.66,0-1.19-.21-1.59-.63-.4-.42-.59-.98-.59-1.69,0-.66.21-1.2.62-1.63.41-.43.94-.64,1.59-.64.3,0,.62.06.98.19v-2.42ZM47.42,18.84v-2.85c-.28-.14-.56-.21-.84-.21-.44,0-.79.15-1.06.43-.26.29-.39.68-.39,1.17,0,.46.11.82.34,1.07.14.15.28.25.43.3s.43.08.83.08h.69Z"/><path class="cls-2" d="M53.35,17.44h-3.16c.02.43.17.77.43,1.03.27.25.61.38,1.03.38.59,0,1.13-.18,1.62-.55v.87c-.27.18-.54.31-.81.39-.27.08-.58.12-.94.12-.5,0-.9-.1-1.2-.31s-.55-.48-.74-.83c-.18-.35-.28-.75-.28-1.2,0-.68.19-1.24.58-1.67s.89-.64,1.51-.64,1.07.21,1.43.62.53.98.53,1.67v.11ZM50.21,16.91h2.26c-.02-.35-.13-.63-.32-.82s-.44-.29-.76-.29-.58.1-.78.29c-.2.19-.34.47-.4.82Z"/><path class="cls-2" d="M55.27,15.11v1.03l.05-.08c.43-.69.86-1.04,1.29-1.04.33,0,.69.17,1.05.51l-.47.78c-.31-.29-.6-.44-.86-.44-.29,0-.53.14-.75.41-.21.27-.31.6-.31.97v2.35h-.89v-4.49h.89Z"/><path class="cls-2" d="M23.32,24.69c1.05,0,1.93.33,2.63,1s1.05,1.5,1.05,2.51-.35,1.84-1.06,2.5c-.71.66-1.6.99-2.68.99s-1.88-.33-2.57-.99-1.03-1.49-1.03-2.48.34-1.86,1.03-2.53,1.56-1,2.62-1ZM23.36,25.62c-.78,0-1.42.24-1.92.73-.5.49-.75,1.11-.75,1.87s.25,1.35.76,1.84,1.14.73,1.89.73,1.4-.25,1.9-.75.76-1.12.76-1.86-.25-1.33-.76-1.82-1.13-.74-1.88-.74Z"/><path class="cls-2" d="M28.1,24.79h.89v6.82h-.89v-6.82Z"/><path class="cls-2" d="M34.1,29.44h-3.16c.02.43.17.77.43,1.03.27.25.61.38,1.03.38.59,0,1.13-.18,1.62-.55v.87c-.27.18-.54.31-.81.39-.27.08-.58.12-.94.12-.5,0-.9-.1-1.2-.31s-.55-.48-.74-.83c-.18-.35-.28-.75-.28-1.2,0-.68.19-1.24.58-1.67s.89-.64,1.51-.64,1.07.21,1.43.62.53.98.53,1.67v.11ZM30.96,28.91h2.26c-.02-.35-.13-.63-.32-.82s-.44-.29-.76-.29-.58.1-.78.29c-.2.19-.34.47-.4.82ZM33.14,24.68l-1.1,1.46h-.55l.66-1.46h.99Z"/><path class="cls-2" d="M37.21,27.11c.68,0,1.25.22,1.7.66s.68,1,.68,1.66-.23,1.19-.69,1.61-1.04.64-1.73.64-1.24-.22-1.69-.65-.68-.98-.68-1.63.23-1.21.69-1.64c.46-.44,1.03-.66,1.72-.66ZM37.16,27.91c-.43,0-.78.14-1.05.42s-.41.64-.41,1.07.14.78.42,1.05.64.41,1.08.41.79-.14,1.07-.41c.28-.27.42-.63.42-1.06s-.14-.78-.43-1.06-.65-.42-1.09-.42Z"/><path class="cls-2" d="M43.58,24.79h.89v6.82h-1.9c-.66,0-1.19-.21-1.59-.63-.4-.42-.59-.98-.59-1.69,0-.66.21-1.2.62-1.63.41-.43.94-.64,1.59-.64.3,0,.62.06.98.19v-2.42ZM43.58,30.85v-2.85c-.28-.14-.56-.21-.84-.21-.44,0-.79.15-1.06.43-.26.29-.39.68-.39,1.17,0,.46.11.82.34,1.07.14.15.28.25.43.3s.43.08.83.08h.69Z"/><path class="cls-2" d="M48.54,31.61v-.58c-.19.21-.4.37-.65.48-.24.11-.48.17-.72.17-.28,0-.54-.07-.78-.21-.24-.14-.42-.33-.54-.58-.12-.24-.18-.65-.18-1.21v-2.57h.89v2.56c0,.47.07.8.2.99.14.19.37.28.71.28.42,0,.78-.21,1.08-.62v-3.21h.89v4.49h-.89Z"/><path class="cls-2" d="M54.05,30.56v.88c-.45.17-.88.25-1.31.25-.7,0-1.26-.21-1.68-.62-.42-.42-.63-.98-.63-1.67s.2-1.28.61-1.71.94-.65,1.61-.65c.23,0,.44.02.62.07.18.04.41.13.68.25v.95c-.45-.29-.87-.43-1.25-.43s-.73.14-.99.42-.39.64-.39,1.08c0,.46.14.82.42,1.09.28.27.65.41,1.12.41.34,0,.73-.1,1.18-.3Z"/><path class="cls-2" d="M61.52,28.35v3.26h-.89v-2.5c0-.5-.07-.85-.2-1.04s-.37-.3-.7-.3c-.19,0-.36.04-.51.13-.16.08-.33.23-.53.45v3.26h-.89v-4.49h.89v.59c.45-.45.9-.68,1.33-.68.57,0,1.01.27,1.32.81.48-.55.97-.82,1.49-.82.44,0,.79.16,1.08.48.28.32.42.81.42,1.46v2.65h-.89v-2.66c0-.37-.08-.66-.23-.86s-.37-.3-.66-.3c-.37,0-.71.19-1.03.56Z"/><path class="cls-2" d="M68.37,28.91v1.91c0,.15.05.23.16.23s.28-.08.5-.24v.54c-.2.13-.36.22-.49.27-.12.05-.25.07-.38.07-.38,0-.61-.15-.67-.45-.38.29-.78.44-1.21.44-.31,0-.57-.1-.78-.31s-.31-.47-.31-.78c0-.28.1-.54.31-.76.2-.22.49-.4.87-.53l1.14-.39v-.24c0-.54-.27-.81-.81-.81-.49,0-.96.25-1.42.75v-.97c.34-.41.84-.61,1.49-.61.49,0,.87.13,1.17.38.1.08.19.19.26.32s.13.27.15.41c.02.14.03.39.03.77ZM67.5,30.72v-1.33l-.6.23c-.3.12-.52.24-.64.36-.12.12-.19.27-.19.46s.06.34.18.45c.12.12.27.18.46.18.28,0,.54-.12.79-.35Z"/><path class="cls-2" d="M69.81,27.12h.89v5.13c0,.78-.3,1.33-.9,1.65l-.66-.65c.21-.07.37-.2.49-.38s.18-.39.18-.62v-5.13ZM70.23,25.23c.15,0,.27.05.38.15s.16.23.16.37-.05.27-.15.38c-.1.1-.22.15-.37.15-.14,0-.26-.05-.37-.16s-.16-.23-.16-.37.05-.26.16-.36c.11-.11.23-.16.36-.16Z"/><path class="cls-2" d="M75.84,29.44h-3.16c.02.43.17.77.43,1.03.27.25.61.38,1.03.38.59,0,1.13-.18,1.62-.55v.87c-.27.18-.54.31-.81.39-.27.08-.58.12-.94.12-.5,0-.9-.1-1.2-.31s-.55-.48-.74-.83c-.18-.35-.28-.75-.28-1.2,0-.68.19-1.24.58-1.67s.89-.64,1.51-.64,1.07.21,1.43.62.53.98.53,1.67v.11ZM72.7,28.91h2.26c-.02-.35-.13-.63-.32-.82s-.44-.29-.76-.29-.58.1-.78.29c-.2.19-.34.47-.4.82Z"/><path class="cls-2" d="M79.66,31.61v-.58c-.19.21-.4.37-.65.48-.24.11-.48.17-.72.17-.28,0-.54-.07-.78-.21-.24-.14-.42-.33-.54-.58-.12-.24-.18-.65-.18-1.21v-2.57h.89v2.56c0,.47.07.8.2.99.14.19.37.28.71.28.42,0,.78-.21,1.08-.62v-3.21h.89v4.49h-.89Z"/><path class="cls-2" d="M82.75,27.12v1.03l.05-.08c.43-.69.86-1.04,1.29-1.04.33,0,.69.17,1.05.51l-.47.78c-.31-.29-.6-.44-.86-.44-.29,0-.53.14-.75.41-.21.27-.31.6-.31.97v2.35h-.89v-4.49h.89Z"/></g></svg>