<?xml version="1.0" encoding="UTF-8"?><svg id="Calque_2" xmlns="http://www.w3.org/2000/svg" viewBox="0 0 172.53 47.61"><defs><style>.cls-1{fill:#bfcc83;}.cls-2{fill:#010101;}.cls-3{fill:#fff;}</style></defs><g id="Groupes_armés"><path class="cls-3" d="M37.53,0h5.88l-4.36,5.96h4.36v.87h-6.16l4.36-5.96h-4.09v-.87Z"/><path class="cls-3" d="M46.37,2.33c.68,0,1.25.22,1.7.66s.68,1,.68,1.66-.23,1.19-.69,1.61-1.04.64-1.73.64-1.24-.22-1.69-.65-.68-.98-.68-1.63.23-1.21.69-1.64c.46-.44,1.03-.66,1.72-.66ZM46.32,3.13c-.43,0-.78.14-1.05.42s-.41.64-.41,1.07.14.78.42,1.05.64.41,1.08.41.79-.14,1.07-.41c.28-.27.42-.63.42-1.06s-.14-.78-.43-1.06-.65-.42-1.09-.42Z"/><path class="cls-3" d="M50.62,2.34v.57c.4-.44.85-.66,1.35-.66.28,0,.54.07.78.22s.42.34.55.6c.13.25.19.65.19,1.2v2.57h-.89v-2.56c0-.46-.07-.79-.21-.98s-.37-.3-.7-.3c-.42,0-.78.21-1.07.63v3.21h-.91V2.34h.91Z"/><path class="cls-3" d="M58.56,4.66h-3.16c.02.43.17.77.43,1.03.27.25.61.38,1.03.38.59,0,1.13-.18,1.62-.55v.87c-.27.18-.54.31-.81.39-.27.08-.58.12-.94.12-.5,0-.9-.1-1.2-.31s-.55-.48-.74-.83c-.18-.35-.28-.75-.28-1.2,0-.68.19-1.24.58-1.67s.89-.64,1.51-.64,1.07.21,1.43.62.53.98.53,1.67v.11ZM55.42,4.13h2.26c-.02-.35-.13-.63-.32-.82s-.44-.29-.76-.29-.58.1-.78.29c-.2.19-.34.47-.4.82Z"/><path class="cls-3" d="M65.67,5.78v.88c-.45.17-.88.25-1.31.25-.7,0-1.26-.21-1.68-.62-.42-.42-.63-.98-.63-1.67s.2-1.28.61-1.71.94-.65,1.61-.65c.23,0,.44.02.62.07.18.04.41.13.68.25v.95c-.45-.29-.87-.43-1.25-.43s-.73.14-.99.42-.39.64-.39,1.08c0,.46.14.82.42,1.09.28.27.65.41,1.12.41.34,0,.73-.1,1.18-.3Z"/><path class="cls-3" d="M68.83,2.33c.68,0,1.25.22,1.7.66s.68,1,.68,1.66-.23,1.19-.69,1.61-1.04.64-1.73.64-1.24-.22-1.69-.65-.68-.98-.68-1.63.23-1.21.69-1.64c.46-.44,1.03-.66,1.72-.66ZM68.78,3.13c-.43,0-.78.14-1.05.42s-.41.64-.41,1.07.14.78.42,1.05.64.41,1.08.41.79-.14,1.07-.41c.28-.27.42-.63.42-1.06s-.14-.78-.43-1.06-.65-.42-1.09-.42Z"/><path class="cls-3" d="M75.06,6.83v-.58c-.19.21-.4.37-.65.48-.24.11-.48.17-.72.17-.28,0-.54-.07-.78-.21-.24-.14-.42-.33-.54-.58-.12-.24-.18-.65-.18-1.21v-2.57h.89v2.56c0,.47.07.8.2.99.14.19.37.28.71.28.42,0,.78-.21,1.08-.62v-3.21h.89v4.49h-.89Z"/><path class="cls-3" d="M79.95,2.34h.96l-1.98,4.57h-.3l-2.03-4.57h.97l1.21,2.76,1.17-2.76Z"/><path class="cls-3" d="M85.21,4.66h-3.16c.02.43.17.77.43,1.03.27.25.61.38,1.03.38.59,0,1.13-.18,1.62-.55v.87c-.27.18-.54.31-.81.39-.27.08-.58.12-.94.12-.5,0-.9-.1-1.2-.31s-.55-.48-.74-.83c-.18-.35-.28-.75-.28-1.2,0-.68.19-1.24.58-1.67s.89-.64,1.51-.64,1.07.21,1.43.62.53.98.53,1.67v.11ZM82.07,4.13h2.26c-.02-.35-.13-.63-.32-.82s-.44-.29-.76-.29-.58.1-.78.29c-.2.19-.34.47-.4.82Z"/><path class="cls-3" d="M87.12,2.34v1.03l.05-.08c.43-.69.86-1.04,1.29-1.04.33,0,.69.17,1.05.51l-.47.78c-.31-.29-.6-.44-.86-.44-.29,0-.53.14-.75.41-.21.27-.31.6-.31.97v2.35h-.89V2.34h.89Z"/><path class="cls-3" d="M89.7,3.05l1.67-1.64v.93h1.42v.8h-1.42v2.2c0,.51.21.77.64.77.32,0,.66-.11,1.01-.32v.83c-.34.19-.71.29-1.12.29s-.75-.12-1.02-.36c-.08-.07-.15-.15-.21-.24s-.1-.21-.14-.35c-.04-.15-.06-.42-.06-.83v-1.99h-.78v-.09Z"/><path class="cls-3" d="M97.49,4.66h-3.16c.02.43.17.77.43,1.03.27.25.61.38,1.03.38.59,0,1.13-.18,1.62-.55v.87c-.27.18-.54.31-.81.39-.27.08-.58.12-.94.12-.5,0-.9-.1-1.2-.31s-.55-.48-.74-.83c-.18-.35-.28-.75-.28-1.2,0-.68.19-1.24.58-1.67s.89-.64,1.51-.64,1.07.21,1.43.62.53.98.53,1.67v.11ZM94.35,4.13h2.26c-.02-.35-.13-.63-.32-.82s-.44-.29-.76-.29-.58.1-.78.29c-.2.19-.34.47-.4.82Z"/><path class="cls-3" d="M104.23,0h.89v6.82h-1.9c-.66,0-1.19-.21-1.59-.63-.4-.42-.59-.98-.59-1.69,0-.66.21-1.2.62-1.63.41-.43.94-.64,1.59-.64.3,0,.62.06.98.19V0ZM104.23,6.07v-2.85c-.28-.14-.56-.21-.84-.21-.44,0-.79.15-1.06.43-.26.29-.39.68-.39,1.17,0,.46.11.82.34,1.07.14.15.28.25.43.3s.43.08.83.08h.69Z"/><path class="cls-3" d="M110.16,4.66h-3.16c.02.43.17.77.43,1.03.27.25.61.38,1.03.38.59,0,1.13-.18,1.62-.55v.87c-.27.18-.54.31-.81.39-.27.08-.58.12-.94.12-.5,0-.9-.1-1.2-.31s-.55-.48-.74-.83c-.18-.35-.28-.75-.28-1.2,0-.68.19-1.24.58-1.67s.89-.64,1.51-.64,1.07.21,1.43.62.53.98.53,1.67v.11ZM107.02,4.13h2.26c-.02-.35-.13-.63-.32-.82s-.44-.29-.76-.29-.58.1-.78.29c-.2.19-.34.47-.4.82Z"/><path class="cls-3" d="M113.89,2.34h.89v5.13c0,.78-.3,1.33-.9,1.65l-.66-.65c.21-.07.37-.2.49-.38s.18-.39.18-.62V2.34ZM114.31.45c.15,0,.27.05.38.15s.16.23.16.37-.05.27-.15.38c-.1.1-.22.15-.37.15-.14,0-.26-.05-.37-.16s-.16-.23-.16-.37.05-.26.16-.36c.11-.11.23-.16.36-.16Z"/><path class="cls-3" d="M118.95,6.83v-.58c-.19.21-.4.37-.65.48-.24.11-.48.17-.72.17-.28,0-.54-.07-.78-.21-.24-.14-.42-.33-.54-.58-.12-.24-.18-.65-.18-1.21v-2.57h.89v2.56c0,.47.07.8.2.99.14.19.37.28.71.28.42,0,.78-.21,1.08-.62v-3.21h.89v4.49h-.89Z"/><path class="cls-3" d="M121.98,2.34v.57c.4-.44.85-.66,1.35-.66.28,0,.54.07.78.22s.42.34.55.6c.13.25.19.65.19,1.2v2.57h-.89v-2.56c0-.46-.07-.79-.21-.98s-.37-.3-.7-.3c-.42,0-.78.21-1.07.63v3.21h-.91V2.34h.91Z"/><path class="cls-3" d="M125.86,3.89c0-.48.17-.86.53-1.14.35-.28.83-.42,1.43-.42h1.85v.69h-.91c.18.18.3.34.37.49s.1.31.1.5c0,.23-.07.46-.2.69s-.31.4-.51.52c-.21.12-.55.22-1.03.29-.33.05-.5.16-.5.35,0,.1.06.19.19.26.12.07.35.14.68.21.55.12.9.21,1.06.28.16.07.3.17.43.29.21.21.32.48.32.81,0,.43-.19.77-.57,1.02-.38.25-.89.38-1.52.38s-1.15-.13-1.54-.38c-.38-.26-.57-.6-.57-1.03,0-.61.38-1,1.13-1.18-.3-.19-.45-.38-.45-.57,0-.14.06-.27.19-.39.13-.12.3-.2.52-.26-.66-.29-.99-.77-.99-1.42ZM127.32,7.04c-.3,0-.54.06-.74.19-.19.13-.29.29-.29.49,0,.46.42.69,1.25.69.39,0,.7-.06.92-.17.22-.12.32-.28.32-.49s-.14-.38-.41-.51-.63-.2-1.06-.2ZM127.53,3.11c-.24,0-.45.08-.62.24s-.25.36-.25.59.08.42.25.57.38.23.63.23.46-.08.63-.23c.17-.15.25-.35.25-.58s-.08-.43-.25-.59-.38-.23-.63-.23Z"/><path class="cls-3" d="M130.38,0h.89v6.82h-.89V0Z"/><path class="cls-3" d="M136.38,4.66h-3.16c.02.43.17.77.43,1.03.27.25.61.38,1.03.38.59,0,1.13-.18,1.62-.55v.87c-.27.18-.54.31-.81.39-.27.08-.58.12-.94.12-.5,0-.9-.1-1.2-.31s-.55-.48-.74-.83c-.18-.35-.28-.75-.28-1.2,0-.68.19-1.24.58-1.67s.89-.64,1.51-.64,1.07.21,1.43.62.53.98.53,1.67v.11ZM133.24,4.13h2.26c-.02-.35-.13-.63-.32-.82s-.44-.29-.76-.29-.58.1-.78.29c-.2.19-.34.47-.4.82Z"/><path class="cls-3" d="M137.4,8.01v-.18c.15-.14.25-.28.31-.42s.09-.33.1-.58c-.34-.1-.52-.31-.52-.64,0-.18.06-.33.18-.46.12-.13.26-.19.42-.19.2,0,.36.09.49.26s.19.4.19.67c0,.36-.1.68-.31.95s-.5.47-.86.58Z"/><path class="cls-3" d="M141.29,6.51v-.96c.25.18.51.32.77.43.26.11.48.16.66.16s.34-.05.48-.14.2-.2.2-.33-.04-.24-.13-.32c-.09-.09-.27-.21-.56-.37-.57-.32-.95-.59-1.13-.82-.18-.23-.27-.47-.27-.74,0-.35.13-.63.4-.84.27-.22.62-.33,1.04-.33s.89.12,1.35.37v.88c-.53-.32-.96-.48-1.29-.48-.17,0-.31.04-.42.11-.11.07-.16.17-.16.29,0,.1.05.2.14.3.1.09.26.21.51.34l.32.18c.75.42,1.12.89,1.12,1.41,0,.37-.14.67-.43.91-.29.24-.66.35-1.11.35-.27,0-.5-.03-.71-.09s-.47-.16-.79-.31Z"/><path class="cls-3" d="M147.5,2.33c.68,0,1.25.22,1.7.66s.68,1,.68,1.66-.23,1.19-.69,1.61-1.04.64-1.73.64-1.24-.22-1.69-.65-.68-.98-.68-1.63.23-1.21.69-1.64c.46-.44,1.03-.66,1.72-.66ZM147.46,3.13c-.43,0-.78.14-1.05.42s-.41.64-.41,1.07.14.78.42,1.05.64.41,1.08.41.79-.14,1.07-.41c.28-.27.42-.63.42-1.06s-.14-.78-.43-1.06-.65-.42-1.09-.42Z"/><path class="cls-3" d="M153.74,6.83v-.58c-.19.21-.4.37-.65.48-.24.11-.48.17-.72.17-.28,0-.54-.07-.78-.21-.24-.14-.42-.33-.54-.58-.12-.24-.18-.65-.18-1.21v-2.57h.89v2.56c0,.47.07.8.2.99.14.19.37.28.71.28.42,0,.78-.21,1.08-.62v-3.21h.89v4.49h-.89Z"/><path class="cls-3" d="M158.63,2.34h.96l-1.98,4.57h-.3l-2.03-4.57h.97l1.21,2.76,1.17-2.76Z"/><path class="cls-3" d="M163.88,4.66h-3.16c.02.43.17.77.43,1.03.27.25.61.38,1.03.38.59,0,1.13-.18,1.62-.55v.87c-.27.18-.54.31-.81.39-.27.08-.58.12-.94.12-.5,0-.9-.1-1.2-.31s-.55-.48-.74-.83c-.18-.35-.28-.75-.28-1.2,0-.68.19-1.24.58-1.67s.89-.64,1.51-.64,1.07.21,1.43.62.53.98.53,1.67v.11ZM160.74,4.13h2.26c-.02-.35-.13-.63-.32-.82s-.44-.29-.76-.29-.58.1-.78.29c-.2.19-.34.47-.4.82Z"/><path class="cls-3" d="M165.73,2.34v.57c.4-.44.85-.66,1.35-.66.28,0,.54.07.78.22s.42.34.55.6c.13.25.19.65.19,1.2v2.57h-.89v-2.56c0-.46-.07-.79-.21-.98s-.37-.3-.7-.3c-.42,0-.78.21-1.07.63v3.21h-.91V2.34h.91Z"/><path class="cls-3" d="M169.21,3.05l1.67-1.64v.93h1.42v.8h-1.42v2.2c0,.51.21.77.64.77.32,0,.66-.11,1.01-.32v.83c-.34.19-.71.29-1.12.29s-.75-.12-1.02-.36c-.08-.07-.15-.15-.21-.24s-.1-.21-.14-.35c-.04-.15-.06-.42-.06-.83v-1.99h-.78v-.09Z"/><path class="cls-3" d="M40.62,16.83v-.58c-.19.21-.4.37-.65.48-.24.11-.48.17-.72.17-.28,0-.54-.07-.78-.21-.24-.14-.42-.33-.54-.58-.12-.24-.18-.65-.18-1.21v-2.57h.89v2.56c0,.47.07.8.2.99.14.19.37.28.71.28.42,0,.78-.21,1.08-.62v-3.21h.89v4.49h-.89Z"/><path class="cls-3" d="M43.65,12.34v.57c.4-.44.85-.66,1.35-.66.28,0,.54.07.78.22s.42.34.55.6c.13.25.19.65.19,1.2v2.57h-.89v-2.56c0-.46-.07-.79-.21-.98s-.37-.3-.7-.3c-.42,0-.78.21-1.07.63v3.21h-.91v-4.49h.91Z"/><path class="cls-3" d="M52.69,12.33c.68,0,1.25.22,1.7.66s.68,1,.68,1.66-.23,1.19-.69,1.61-1.04.64-1.73.64-1.24-.22-1.69-.65-.68-.98-.68-1.63.23-1.21.69-1.64c.46-.44,1.03-.66,1.72-.66ZM52.64,13.13c-.43,0-.78.14-1.05.42s-.41.64-.41,1.07.14.78.42,1.05.64.41,1.08.41.79-.14,1.07-.41c.28-.27.42-.63.42-1.06s-.14-.78-.43-1.06-.65-.42-1.09-.42Z"/><path class="cls-3" d="M56.02,10.01h.89v2.65c.38-.28.79-.42,1.23-.42.57,0,1.04.21,1.4.64s.54.98.54,1.66c0,.72-.22,1.3-.65,1.73-.43.43-1.01.64-1.73.64-.29,0-.59-.03-.92-.09-.32-.06-.58-.14-.76-.23v-6.57ZM56.9,13.51v2.43c.3.09.61.14.93.14.39,0,.71-.14.96-.42.25-.28.37-.64.37-1.08s-.12-.81-.35-1.09c-.23-.28-.54-.42-.91-.42-.33,0-.67.15-1.01.44Z"/><path class="cls-3" d="M60.83,16.51v-.96c.25.18.51.32.77.43.26.11.48.16.66.16s.34-.05.48-.14.2-.2.2-.33-.04-.24-.13-.32c-.09-.09-.27-.21-.56-.37-.57-.32-.95-.59-1.13-.82-.18-.23-.27-.47-.27-.74,0-.35.13-.63.4-.84.27-.22.62-.33,1.04-.33s.89.12,1.35.37v.88c-.53-.32-.96-.48-1.29-.48-.17,0-.31.04-.42.11-.11.07-.16.17-.16.29,0,.1.05.2.14.3.1.09.26.21.51.34l.32.18c.75.42,1.12.89,1.12,1.41,0,.37-.14.67-.43.91-.29.24-.66.35-1.11.35-.27,0-.5-.03-.71-.09s-.47-.16-.79-.31Z"/><path class="cls-3" d="M64.27,13.05l1.67-1.64v.93h1.42v.8h-1.42v2.2c0,.51.21.77.64.77.32,0,.66-.11,1.01-.32v.83c-.34.19-.71.29-1.12.29s-.75-.12-1.02-.36c-.08-.07-.15-.15-.21-.24s-.1-.21-.14-.35c-.04-.15-.06-.42-.06-.83v-1.99h-.78v-.09Z"/><path class="cls-3" d="M71.05,14.13v1.91c0,.15.05.23.16.23s.28-.08.5-.24v.54c-.2.13-.36.22-.49.27-.12.05-.25.07-.38.07-.38,0-.61-.15-.67-.45-.38.29-.78.44-1.21.44-.31,0-.57-.1-.78-.31s-.31-.47-.31-.78c0-.28.1-.54.31-.76.2-.22.49-.4.87-.53l1.14-.39v-.24c0-.54-.27-.81-.81-.81-.49,0-.96.25-1.42.75v-.97c.34-.41.84-.61,1.49-.61.49,0,.87.13,1.17.38.1.08.19.19.26.32s.13.27.15.41c.02.14.03.39.03.77ZM70.18,15.94v-1.33l-.6.23c-.3.12-.52.24-.64.36-.12.12-.19.27-.19.46s.06.34.18.45c.12.12.27.18.46.18.28,0,.54-.12.79-.35Z"/><path class="cls-3" d="M75.87,15.78v.88c-.45.17-.88.25-1.31.25-.7,0-1.26-.21-1.68-.62-.42-.42-.63-.98-.63-1.67s.2-1.28.61-1.71.94-.65,1.61-.65c.23,0,.44.02.62.07.18.04.41.13.68.25v.95c-.45-.29-.87-.43-1.25-.43s-.73.14-.99.42-.39.64-.39,1.08c0,.46.14.82.42,1.09.28.27.65.41,1.12.41.34,0,.73-.1,1.18-.3Z"/><path class="cls-3" d="M76.9,10.01h.89v6.82h-.89v-6.82Z"/><path class="cls-3" d="M82.9,14.66h-3.16c.02.43.17.77.43,1.03.27.25.61.38,1.03.38.59,0,1.13-.18,1.62-.55v.87c-.27.18-.54.31-.81.39-.27.08-.58.12-.94.12-.5,0-.9-.1-1.2-.31s-.55-.48-.74-.83c-.18-.35-.28-.75-.28-1.2,0-.68.19-1.24.58-1.67s.89-.64,1.51-.64,1.07.21,1.43.62.53.98.53,1.67v.11ZM79.76,14.13h2.26c-.02-.35-.13-.63-.32-.82s-.44-.29-.76-.29-.58.1-.78.29c-.2.19-.34.47-.4.82Z"/><path class="cls-3" d="M89.46,14.13v1.91c0,.15.05.23.16.23s.28-.08.5-.24v.54c-.2.13-.36.22-.49.27-.12.05-.25.07-.38.07-.38,0-.61-.15-.67-.45-.38.29-.78.44-1.21.44-.31,0-.57-.1-.78-.31s-.31-.47-.31-.78c0-.28.1-.54.31-.76.2-.22.49-.4.87-.53l1.14-.39v-.24c0-.54-.27-.81-.81-.81-.49,0-.96.25-1.42.75v-.97c.34-.41.84-.61,1.49-.61.49,0,.87.13,1.17.38.1.08.19.19.26.32s.13.27.15.41c.02.14.03.39.03.77ZM88.59,15.94v-1.33l-.6.23c-.3.12-.52.24-.64.36-.12.12-.19.27-.19.46s.06.34.18.45c.12.12.27.18.46.18.28,0,.54-.12.79-.35Z"/><path class="cls-3" d="M93.77,16.83v-.58c-.19.21-.4.37-.65.48-.24.11-.48.17-.72.17-.28,0-.54-.07-.78-.21-.24-.14-.42-.33-.54-.58-.12-.24-.18-.65-.18-1.21v-2.57h.89v2.56c0,.47.07.8.2.99.14.19.37.28.71.28.42,0,.78-.21,1.08-.62v-3.21h.89v4.49h-.89Z"/><path class="cls-3" d="M102.06,15.78v.88c-.45.17-.88.25-1.31.25-.7,0-1.26-.21-1.68-.62-.42-.42-.63-.98-.63-1.67s.2-1.28.61-1.71.94-.65,1.61-.65c.23,0,.44.02.62.07.18.04.41.13.68.25v.95c-.45-.29-.87-.43-1.25-.43s-.73.14-.99.42-.39.64-.39,1.08c0,.46.14.82.42,1.09.28.27.65.41,1.12.41.34,0,.73-.1,1.18-.3Z"/><path class="cls-3" d="M105.21,12.33c.68,0,1.25.22,1.7.66s.68,1,.68,1.66-.23,1.19-.69,1.61-1.04.64-1.73.64-1.24-.22-1.69-.65-.68-.98-.68-1.63.23-1.21.69-1.64c.46-.44,1.03-.66,1.72-.66ZM105.17,13.13c-.43,0-.78.14-1.05.42s-.41.64-.41,1.07.14.78.42,1.05.64.41,1.08.41.79-.14,1.07-.41c.28-.27.42-.63.42-1.06s-.14-.78-.43-1.06-.65-.42-1.09-.42Z"/><path class="cls-3" d="M109.47,12.34v.57c.4-.44.85-.66,1.35-.66.28,0,.54.07.78.22s.42.34.55.6c.13.25.19.65.19,1.2v2.57h-.89v-2.56c0-.46-.07-.79-.21-.98s-.37-.3-.7-.3c-.42,0-.78.21-1.07.63v3.21h-.91v-4.49h.91Z"/><path class="cls-3" d="M112.95,13.05l1.67-1.64v.93h1.42v.8h-1.42v2.2c0,.51.21.77.64.77.32,0,.66-.11,1.01-.32v.83c-.34.19-.71.29-1.12.29s-.75-.12-1.02-.36c-.08-.07-.15-.15-.21-.24s-.1-.21-.14-.35c-.04-.15-.06-.42-.06-.83v-1.99h-.78v-.09Z"/><path class="cls-3" d="M117.87,12.34v1.03l.05-.08c.43-.69.86-1.04,1.29-1.04.33,0,.69.17,1.05.51l-.47.78c-.31-.29-.6-.44-.86-.44-.29,0-.53.14-.75.41-.21.27-.31.6-.31.97v2.35h-.89v-4.49h.89Z"/><path class="cls-3" d="M123.02,12.33c.68,0,1.25.22,1.7.66s.68,1,.68,1.66-.23,1.19-.69,1.61-1.04.64-1.73.64-1.24-.22-1.69-.65-.68-.98-.68-1.63.23-1.21.69-1.64c.46-.44,1.03-.66,1.72-.66ZM122.97,13.13c-.43,0-.78.14-1.05.42s-.41.64-.41,1.07.14.78.42,1.05.64.41,1.08.41.79-.14,1.07-.41c.28-.27.42-.63.42-1.06s-.14-.78-.43-1.06-.65-.42-1.09-.42ZM123.38,9.86l.95,1.51h-.55l-.88-.86-.83.86h-.53l.91-1.51h.93Z"/><path class="cls-3" d="M126.41,10.01h.89v6.82h-.89v-6.82Z"/><path class="cls-3" d="M132.41,14.66h-3.16c.02.43.17.77.43,1.03.27.25.61.38,1.03.38.59,0,1.13-.18,1.62-.55v.87c-.27.18-.54.31-.81.39-.27.08-.58.12-.94.12-.5,0-.9-.1-1.2-.31s-.55-.48-.74-.83c-.18-.35-.28-.75-.28-1.2,0-.68.19-1.24.58-1.67s.89-.64,1.51-.64,1.07.21,1.43.62.53.98.53,1.67v.11ZM129.27,14.13h2.26c-.02-.35-.13-.63-.32-.82s-.44-.29-.76-.29-.58.1-.78.29c-.2.19-.34.47-.4.82Z"/><path class="cls-3" d="M139.15,10.01h.89v6.82h-1.9c-.66,0-1.19-.21-1.59-.63-.4-.42-.59-.98-.59-1.69,0-.66.21-1.2.62-1.63.41-.43.94-.64,1.59-.64.3,0,.62.06.98.19v-2.42ZM139.15,16.07v-2.85c-.28-.14-.56-.21-.84-.21-.44,0-.79.15-1.06.43-.26.29-.39.68-.39,1.17,0,.46.11.82.34,1.07.14.15.28.25.43.3s.43.08.83.08h.69Z"/><path class="cls-3" d="M145.08,14.66h-3.16c.02.43.17.77.43,1.03.27.25.61.38,1.03.38.59,0,1.13-.18,1.62-.55v.87c-.27.18-.54.31-.81.39-.27.08-.58.12-.94.12-.5,0-.9-.1-1.2-.31s-.55-.48-.74-.83c-.18-.35-.28-.75-.28-1.2,0-.68.19-1.24.58-1.67s.89-.64,1.51-.64,1.07.21,1.43.62.53.98.53,1.67v.11ZM141.94,14.13h2.26c-.02-.35-.13-.63-.32-.82s-.44-.29-.76-.29-.58.1-.78.29c-.2.19-.34.47-.4.82Z"/><path class="cls-3" d="M148.84,10.01h.89v6.82h-.89v-6.82Z"/><path class="cls-3" d="M150.87,12.4v-.19c.15-.14.25-.28.31-.42s.09-.33.1-.58c-.34-.11-.52-.32-.52-.64,0-.18.06-.33.18-.46.12-.13.26-.19.42-.19.2,0,.36.09.49.26s.19.4.19.67c0,.36-.1.68-.31.96s-.5.47-.86.58Z"/><path class="cls-3" d="M153.32,10.01h3.87v.87h-2.89v2.08h2.79v.87h-2.79v2.12h2.98v.87h-3.96v-6.81ZM156.16,8.04l-1.1,1.46h-.55l.66-1.46h.99Z"/><path class="cls-3" d="M157.57,13.05l1.67-1.64v.93h1.42v.8h-1.42v2.2c0,.51.21.77.64.77.32,0,.66-.11,1.01-.32v.83c-.34.19-.71.29-1.12.29s-.75-.12-1.02-.36c-.08-.07-.15-.15-.21-.24s-.1-.21-.14-.35c-.04-.15-.06-.42-.06-.83v-1.99h-.78v-.09Z"/><path class="cls-3" d="M164.36,14.13v1.91c0,.15.05.23.16.23s.28-.08.5-.24v.54c-.2.13-.36.22-.49.27-.12.05-.25.07-.38.07-.38,0-.61-.15-.67-.45-.38.29-.78.44-1.21.44-.31,0-.57-.1-.78-.31s-.31-.47-.31-.78c0-.28.1-.54.31-.76.2-.22.49-.4.87-.53l1.14-.39v-.24c0-.54-.27-.81-.81-.81-.49,0-.96.25-1.42.75v-.97c.34-.41.84-.61,1.49-.61.49,0,.87.13,1.17.38.1.08.19.19.26.32s.13.27.15.41c.02.14.03.39.03.77ZM163.48,15.94v-1.33l-.6.23c-.3.12-.52.24-.64.36-.12.12-.19.27-.19.46s.06.34.18.45c.12.12.27.18.46.18.28,0,.54-.12.79-.35Z"/><path class="cls-3" d="M165.17,13.05l1.67-1.64v.93h1.42v.8h-1.42v2.2c0,.51.21.77.64.77.32,0,.66-.11,1.01-.32v.83c-.34.19-.71.29-1.12.29s-.75-.12-1.02-.36c-.08-.07-.15-.15-.21-.24s-.1-.21-.14-.35c-.04-.15-.06-.42-.06-.83v-1.99h-.78v-.09Z"/><path class="cls-3" d="M37.83,35.32v-6.83h2.16c.65,0,1.17.18,1.56.53s.58.82.58,1.42c0,.4-.1.75-.3,1.05s-.47.53-.82.67-.84.21-1.48.21h-.72v2.96h-.98ZM39.82,29.36h-1.01v2.13h1.07c.4,0,.7-.09.92-.28s.32-.46.32-.8c0-.7-.43-1.05-1.3-1.05Z"/><path class="cls-3" d="M43.81,30.83v1.03l.05-.08c.43-.69.86-1.04,1.29-1.04.33,0,.69.17,1.05.51l-.47.78c-.31-.29-.6-.44-.86-.44-.29,0-.53.14-.75.41-.21.27-.31.6-.31.97v2.35h-.89v-4.49h.89Z"/><path class="cls-3" d="M50.64,33.16h-3.16c.02.43.17.77.43,1.03.27.25.61.38,1.03.38.59,0,1.13-.18,1.62-.55v.87c-.27.18-.54.31-.81.39-.27.08-.58.12-.94.12-.5,0-.9-.1-1.2-.31s-.55-.48-.74-.83c-.18-.35-.28-.75-.28-1.2,0-.68.19-1.24.58-1.67s.89-.64,1.51-.64,1.07.21,1.43.62.53.98.53,1.67v.11ZM47.5,32.62h2.26c-.02-.35-.13-.63-.32-.82s-.44-.29-.76-.29-.58.1-.78.29c-.2.19-.34.47-.4.82ZM49.68,28.4l-1.1,1.46h-.55l.66-1.46h.99Z"/><path class="cls-3" d="M51.39,35v-.96c.25.18.51.32.77.43.26.11.48.16.66.16s.34-.05.48-.14.2-.2.2-.33-.04-.24-.13-.32c-.09-.09-.27-.21-.56-.37-.57-.32-.95-.59-1.13-.82-.18-.23-.27-.47-.27-.74,0-.35.13-.63.4-.84.27-.22.62-.33,1.04-.33s.89.12,1.35.37v.88c-.53-.32-.96-.48-1.29-.48-.17,0-.31.04-.42.11-.11.07-.16.17-.16.29,0,.1.05.2.14.3.1.09.26.21.51.34l.32.18c.75.42,1.12.89,1.12,1.41,0,.37-.14.67-.43.91-.29.24-.66.35-1.11.35-.27,0-.5-.03-.71-.09s-.47-.16-.79-.31Z"/><path class="cls-3" d="M59.28,33.16h-3.16c.02.43.17.77.43,1.03.27.25.61.38,1.03.38.59,0,1.13-.18,1.62-.55v.87c-.27.18-.54.31-.81.39-.27.08-.58.12-.94.12-.5,0-.9-.1-1.2-.31s-.55-.48-.74-.83c-.18-.35-.28-.75-.28-1.2,0-.68.19-1.24.58-1.67s.89-.64,1.51-.64,1.07.21,1.43.62.53.98.53,1.67v.11ZM56.14,32.62h2.26c-.02-.35-.13-.63-.32-.82s-.44-.29-.76-.29-.58.1-.78.29c-.2.19-.34.47-.4.82Z"/><path class="cls-3" d="M61.13,30.83v.57c.4-.44.85-.66,1.35-.66.28,0,.54.07.78.22s.42.34.55.6c.13.25.19.65.19,1.2v2.57h-.89v-2.56c0-.46-.07-.79-.21-.98s-.37-.3-.7-.3c-.42,0-.78.21-1.07.63v3.21h-.91v-4.49h.91Z"/><path class="cls-3" d="M68.61,34.27v.88c-.45.17-.88.25-1.31.25-.7,0-1.26-.21-1.68-.62-.42-.42-.63-.98-.63-1.67s.2-1.28.61-1.71.94-.65,1.61-.65c.23,0,.44.02.62.07.18.04.41.13.68.25v.95c-.45-.29-.87-.43-1.25-.43s-.73.14-.99.42-.39.64-.39,1.08c0,.46.14.82.42,1.09.28.27.65.41,1.12.41.34,0,.73-.1,1.18-.3Z"/><path class="cls-3" d="M73.45,33.16h-3.16c.02.43.17.77.43,1.03.27.25.61.38,1.03.38.59,0,1.13-.18,1.62-.55v.87c-.27.18-.54.31-.81.39-.27.08-.58.12-.94.12-.5,0-.9-.1-1.2-.31s-.55-.48-.74-.83c-.18-.35-.28-.75-.28-1.2,0-.68.19-1.24.58-1.67s.89-.64,1.51-.64,1.07.21,1.43.62.53.98.53,1.67v.11ZM70.31,32.62h2.26c-.02-.35-.13-.63-.32-.82s-.44-.29-.76-.29-.58.1-.78.29c-.2.19-.34.47-.4.82Z"/><path class="cls-3" d="M80.19,28.5h.89v6.82h-1.9c-.66,0-1.19-.21-1.59-.63-.4-.42-.59-.98-.59-1.69,0-.66.21-1.2.62-1.63.41-.43.94-.64,1.59-.64.3,0,.62.06.98.19v-2.42ZM80.19,34.56v-2.85c-.28-.14-.56-.21-.84-.21-.44,0-.79.15-1.06.43-.26.29-.39.68-.39,1.17,0,.46.11.82.34,1.07.14.15.28.25.43.3s.43.08.83.08h.69Z"/><path class="cls-3" d="M86.12,33.16h-3.16c.02.43.17.77.43,1.03.27.25.61.38,1.03.38.59,0,1.13-.18,1.62-.55v.87c-.27.18-.54.31-.81.39-.27.08-.58.12-.94.12-.5,0-.9-.1-1.2-.31s-.55-.48-.74-.83c-.18-.35-.28-.75-.28-1.2,0-.68.19-1.24.58-1.67s.89-.64,1.51-.64,1.07.21,1.43.62.53.98.53,1.67v.11ZM82.98,32.62h2.26c-.02-.35-.13-.63-.32-.82s-.44-.29-.76-.29-.58.1-.78.29c-.2.19-.34.47-.4.82Z"/><path class="cls-3" d="M89.63,32.39c0-.48.17-.86.53-1.14.35-.28.83-.42,1.43-.42h1.85v.69h-.91c.18.18.3.34.37.49s.1.31.1.5c0,.23-.07.46-.2.69s-.31.4-.51.52c-.21.12-.55.22-1.03.29-.33.05-.5.16-.5.35,0,.1.06.19.19.26.12.07.35.14.68.21.55.12.9.21,1.06.28.16.07.3.17.43.29.21.21.32.48.32.81,0,.43-.19.77-.57,1.02-.38.25-.89.38-1.52.38s-1.15-.13-1.54-.38c-.38-.26-.57-.6-.57-1.03,0-.61.38-1,1.13-1.18-.3-.19-.45-.38-.45-.57,0-.14.06-.27.19-.39.13-.12.3-.2.52-.26-.66-.29-.99-.77-.99-1.42ZM91.09,35.53c-.3,0-.54.06-.74.19-.19.13-.29.29-.29.49,0,.46.42.69,1.25.69.39,0,.7-.06.92-.17.22-.12.32-.28.32-.49s-.14-.38-.41-.51-.63-.2-1.06-.2ZM91.3,31.6c-.24,0-.45.08-.62.24s-.25.36-.25.59.08.42.25.57.38.23.63.23.46-.08.63-.23c.17-.15.25-.35.25-.58s-.08-.43-.25-.59-.38-.23-.63-.23Z"/><path class="cls-3" d="M95.08,30.83v1.03l.05-.08c.43-.69.86-1.04,1.29-1.04.33,0,.69.17,1.05.51l-.47.78c-.31-.29-.6-.44-.86-.44-.29,0-.53.14-.75.41-.21.27-.31.6-.31.97v2.35h-.89v-4.49h.89Z"/><path class="cls-3" d="M99.99,30.82c.68,0,1.25.22,1.7.66s.68,1,.68,1.66-.23,1.19-.69,1.61-1.04.64-1.73.64-1.24-.22-1.69-.65-.68-.98-.68-1.63.23-1.21.69-1.64c.46-.44,1.03-.66,1.72-.66ZM99.94,31.62c-.43,0-.78.14-1.05.42s-.41.64-.41,1.07.14.78.42,1.05.64.41,1.08.41.79-.14,1.07-.41c.28-.27.42-.63.42-1.06s-.14-.78-.43-1.06-.65-.42-1.09-.42Z"/><path class="cls-3" d="M106.22,35.32v-.58c-.19.21-.4.37-.65.48-.24.11-.48.17-.72.17-.28,0-.54-.07-.78-.21-.24-.14-.42-.33-.54-.58-.12-.24-.18-.65-.18-1.21v-2.57h.89v2.56c0,.47.07.8.2.99.14.19.37.28.71.28.42,0,.78-.21,1.08-.62v-3.21h.89v4.49h-.89Z"/><path class="cls-3" d="M108.3,37.61v-6.78h1.56c.8,0,1.42.2,1.86.6.44.4.67.95.67,1.67,0,.67-.21,1.23-.63,1.66-.42.43-.95.65-1.6.65-.29,0-.6-.06-.95-.19v2.4h-.91ZM109.83,31.66h-.63v2.76c.27.14.56.21.86.21.42,0,.76-.15,1.02-.43s.4-.66.4-1.12c0-.29-.06-.55-.19-.78s-.3-.39-.51-.49-.53-.15-.95-.15Z"/><path class="cls-3" d="M117.18,33.16h-3.16c.02.43.17.77.43,1.03.27.25.61.38,1.03.38.59,0,1.13-.18,1.62-.55v.87c-.27.18-.54.31-.81.39-.27.08-.58.12-.94.12-.5,0-.9-.1-1.2-.31s-.55-.48-.74-.83c-.18-.35-.28-.75-.28-1.2,0-.68.19-1.24.58-1.67s.89-.64,1.51-.64,1.07.21,1.43.62.53.98.53,1.67v.11ZM114.04,32.62h2.26c-.02-.35-.13-.63-.32-.82s-.44-.29-.76-.29-.58.1-.78.29c-.2.19-.34.47-.4.82Z"/><path class="cls-3" d="M117.92,35v-.96c.25.18.51.32.77.43.26.11.48.16.66.16s.34-.05.48-.14.2-.2.2-.33-.04-.24-.13-.32c-.09-.09-.27-.21-.56-.37-.57-.32-.95-.59-1.13-.82-.18-.23-.27-.47-.27-.74,0-.35.13-.63.4-.84.27-.22.62-.33,1.04-.33s.89.12,1.35.37v.88c-.53-.32-.96-.48-1.29-.48-.17,0-.31.04-.42.11-.11.07-.16.17-.16.29,0,.1.05.2.14.3.1.09.26.21.51.34l.32.18c.75.42,1.12.89,1.12,1.41,0,.37-.14.67-.43.91-.29.24-.66.35-1.11.35-.27,0-.5-.03-.71-.09s-.47-.16-.79-.31Z"/><path class="cls-3" d="M127.59,32.62v1.91c0,.15.05.23.16.23s.28-.08.5-.24v.54c-.2.13-.36.22-.49.27-.12.05-.25.07-.38.07-.38,0-.61-.15-.67-.45-.38.29-.78.44-1.21.44-.31,0-.57-.1-.78-.31s-.31-.47-.31-.78c0-.28.1-.54.31-.76.2-.22.49-.4.87-.53l1.14-.39v-.24c0-.54-.27-.81-.81-.81-.49,0-.96.25-1.42.75v-.97c.34-.41.84-.61,1.49-.61.49,0,.87.13,1.17.38.1.08.19.19.26.32s.13.27.15.41c.02.14.03.39.03.77ZM126.72,34.44v-1.33l-.6.23c-.3.12-.52.24-.64.36-.12.12-.19.27-.19.46s.06.34.18.45c.12.12.27.18.46.18.28,0,.54-.12.79-.35Z"/><path class="cls-3" d="M129.99,30.83v1.03l.05-.08c.43-.69.86-1.04,1.29-1.04.33,0,.69.17,1.05.51l-.47.78c-.31-.29-.6-.44-.86-.44-.29,0-.53.14-.75.41-.21.27-.31.6-.31.97v2.35h-.89v-4.49h.89Z"/><path class="cls-3" d="M136.68,32.06v3.26h-.89v-2.5c0-.5-.07-.85-.2-1.04s-.37-.3-.7-.3c-.19,0-.36.04-.51.13-.16.08-.33.23-.53.45v3.26h-.89v-4.49h.89v.59c.45-.45.9-.68,1.33-.68.57,0,1.01.27,1.32.81.48-.55.97-.82,1.49-.82.44,0,.79.16,1.08.48.28.32.42.81.42,1.46v2.65h-.89v-2.66c0-.37-.08-.66-.23-.86s-.37-.3-.66-.3c-.37,0-.71.19-1.03.56Z"/><path class="cls-3" d="M144.54,33.16h-3.16c.02.43.17.77.43,1.03.27.25.61.38,1.03.38.59,0,1.13-.18,1.62-.55v.87c-.27.18-.54.31-.81.39-.27.08-.58.12-.94.12-.5,0-.9-.1-1.2-.31s-.55-.48-.74-.83c-.18-.35-.28-.75-.28-1.2,0-.68.19-1.24.58-1.67s.89-.64,1.51-.64,1.07.21,1.43.62.53.98.53,1.67v.11ZM141.4,32.62h2.26c-.02-.35-.13-.63-.32-.82s-.44-.29-.76-.29-.58.1-.78.29c-.2.19-.34.47-.4.82ZM143.57,28.4l-1.1,1.46h-.55l.66-1.46h.99Z"/><path class="cls-3" d="M145.28,35v-.96c.25.18.51.32.77.43.26.11.48.16.66.16s.34-.05.48-.14.2-.2.2-.33-.04-.24-.13-.32c-.09-.09-.27-.21-.56-.37-.57-.32-.95-.59-1.13-.82-.18-.23-.27-.47-.27-.74,0-.35.13-.63.4-.84.27-.22.62-.33,1.04-.33s.89.12,1.35.37v.88c-.53-.32-.96-.48-1.29-.48-.17,0-.31.04-.42.11-.11.07-.16.17-.16.29,0,.1.05.2.14.3.1.09.26.21.51.34l.32.18c.75.42,1.12.89,1.12,1.41,0,.37-.14.67-.43.91-.29.24-.66.35-1.11.35-.27,0-.5-.03-.71-.09s-.47-.16-.79-.31Z"/><path class="cls-3" d="M38.22,38.94c.15,0,.27.05.38.15s.16.22.16.37-.05.27-.16.37-.23.16-.38.16c-.14,0-.26-.05-.36-.16s-.16-.23-.16-.37.05-.26.16-.36.22-.16.36-.16ZM37.78,40.83h.89v4.49h-.89v-4.49Z"/><path class="cls-3" d="M43.63,42.06v3.26h-.89v-2.5c0-.5-.07-.85-.2-1.04s-.37-.3-.7-.3c-.19,0-.36.04-.51.13-.16.08-.33.23-.53.45v3.26h-.89v-4.49h.89v.59c.45-.45.9-.68,1.33-.68.57,0,1.01.27,1.32.81.48-.55.97-.82,1.49-.82.44,0,.79.16,1.08.48.28.32.42.81.42,1.46v2.65h-.89v-2.66c0-.37-.08-.66-.23-.86s-.37-.3-.66-.3c-.37,0-.71.19-1.03.56Z"/><path class="cls-3" d="M47.6,47.61v-6.78h1.56c.8,0,1.42.2,1.86.6.44.4.67.95.67,1.67,0,.67-.21,1.23-.63,1.66-.42.43-.95.65-1.6.65-.29,0-.6-.06-.95-.19v2.4h-.91ZM49.14,41.66h-.63v2.76c.27.14.56.21.86.21.42,0,.76-.15,1.02-.43s.4-.66.4-1.12c0-.29-.06-.55-.19-.78s-.3-.39-.51-.49-.53-.15-.95-.15Z"/><path class="cls-3" d="M52.68,38.5h.89v6.82h-.89v-6.82Z"/><path class="cls-3" d="M55.31,38.94c.15,0,.27.05.38.15s.16.22.16.37-.05.27-.16.37-.23.16-.38.16c-.14,0-.26-.05-.36-.16s-.16-.23-.16-.37.05-.26.16-.36.22-.16.36-.16ZM54.87,40.83h.89v4.49h-.89v-4.49Z"/><path class="cls-3" d="M59.17,40.83h1.68v6.78h-.89v-2.37c-.39.1-.72.16-.98.16-.64,0-1.17-.21-1.58-.64s-.63-.98-.63-1.64c0-.7.22-1.26.65-1.67s1.02-.62,1.75-.62ZM59.96,44.48v-2.81h-.56c-.38,0-.64.02-.77.05-.13.03-.24.08-.34.14-.09.06-.18.13-.26.22-.25.28-.37.62-.37,1.02,0,.46.14.83.41,1.12.28.29.63.44,1.07.44.1,0,.18,0,.25-.02s.21-.06.43-.13l.07-.02.06-.02Z"/><path class="cls-3" d="M64.91,45.32v-.58c-.19.21-.4.37-.65.48-.24.11-.48.17-.72.17-.28,0-.54-.07-.78-.21-.24-.14-.42-.33-.54-.58-.12-.24-.18-.65-.18-1.21v-2.57h.89v2.56c0,.47.07.8.2.99.14.19.37.28.71.28.42,0,.78-.21,1.08-.62v-3.21h.89v4.49h-.89Z"/><path class="cls-3" d="M70.87,43.16h-3.16c.02.43.17.77.43,1.03.27.25.61.38,1.03.38.59,0,1.13-.18,1.62-.55v.87c-.27.18-.54.31-.81.39-.27.08-.58.12-.94.12-.5,0-.9-.1-1.2-.31s-.55-.48-.74-.83c-.18-.35-.28-.75-.28-1.2,0-.68.19-1.24.58-1.67s.89-.64,1.51-.64,1.07.21,1.43.62.53.98.53,1.67v.11ZM67.73,42.62h2.26c-.02-.35-.13-.63-.32-.82s-.44-.29-.76-.29-.58.1-.78.29c-.2.19-.34.47-.4.82ZM69.91,38.4l-1.1,1.46h-.55l.66-1.46h.99Z"/><path class="cls-3" d="M71.62,45v-.96c.25.18.51.32.77.43.26.11.48.16.66.16s.34-.05.48-.14.2-.2.2-.33-.04-.24-.13-.32c-.09-.09-.27-.21-.56-.37-.57-.32-.95-.59-1.13-.82-.18-.23-.27-.47-.27-.74,0-.35.13-.63.4-.84.27-.22.62-.33,1.04-.33s.89.12,1.35.37v.88c-.53-.32-.96-.48-1.29-.48-.17,0-.31.04-.42.11-.11.07-.16.17-.16.29,0,.1.05.2.14.3.1.09.26.21.51.34l.32.18c.75.42,1.12.89,1.12,1.41,0,.37-.14.67-.43.91-.29.24-.66.35-1.11.35-.27,0-.5-.03-.71-.09s-.47-.16-.79-.31Z"/><path class="cls-3" d="M81.46,38.5h.89v6.82h-1.9c-.66,0-1.19-.21-1.59-.63-.4-.42-.59-.98-.59-1.69,0-.66.21-1.2.62-1.63.41-.43.94-.64,1.59-.64.3,0,.62.06.98.19v-2.42ZM81.46,44.56v-2.85c-.28-.14-.56-.21-.84-.21-.44,0-.79.15-1.06.43-.26.29-.39.68-.39,1.17,0,.46.11.82.34,1.07.14.15.28.25.43.3s.43.08.83.08h.69Z"/><path class="cls-3" d="M86.38,42.62v1.91c0,.15.05.23.16.23s.28-.08.5-.24v.54c-.2.13-.36.22-.49.27-.12.05-.25.07-.38.07-.38,0-.61-.15-.67-.45-.38.29-.78.44-1.21.44-.31,0-.57-.1-.78-.31s-.31-.47-.31-.78c0-.28.1-.54.31-.76.2-.22.49-.4.87-.53l1.14-.39v-.24c0-.54-.27-.81-.81-.81-.49,0-.96.25-1.42.75v-.97c.34-.41.84-.61,1.49-.61.49,0,.87.13,1.17.38.1.08.19.19.26.32s.13.27.15.41c.02.14.03.39.03.77ZM85.51,44.44v-1.33l-.6.23c-.3.12-.52.24-.64.36-.12.12-.19.27-.19.46s.06.34.18.45c.12.12.27.18.46.18.28,0,.54-.12.79-.35Z"/><path class="cls-3" d="M88.72,40.83v.57c.4-.44.85-.66,1.35-.66.28,0,.54.07.78.22s.42.34.55.6c.13.25.19.65.19,1.2v2.57h-.89v-2.56c0-.46-.07-.79-.21-.98s-.37-.3-.7-.3c-.42,0-.78.21-1.07.63v3.21h-.91v-4.49h.91Z"/><path class="cls-3" d="M92.61,45v-.96c.25.18.51.32.77.43.26.11.48.16.66.16s.34-.05.48-.14.2-.2.2-.33-.04-.24-.13-.32c-.09-.09-.27-.21-.56-.37-.57-.32-.95-.59-1.13-.82-.18-.23-.27-.47-.27-.74,0-.35.13-.63.4-.84.27-.22.62-.33,1.04-.33s.89.12,1.35.37v.88c-.53-.32-.96-.48-1.29-.48-.17,0-.31.04-.42.11-.11.07-.16.17-.16.29,0,.1.05.2.14.3.1.09.26.21.51.34l.32.18c.75.42,1.12.89,1.12,1.41,0,.37-.14.67-.43.91-.29.24-.66.35-1.11.35-.27,0-.5-.03-.71-.09s-.47-.16-.79-.31Z"/><path class="cls-3" d="M99.47,38.5h.89v6.82h-.89v-6.82Z"/><path class="cls-3" d="M105.47,43.16h-3.16c.02.43.17.77.43,1.03.27.25.61.38,1.03.38.59,0,1.13-.18,1.62-.55v.87c-.27.18-.54.31-.81.39-.27.08-.58.12-.94.12-.5,0-.9-.1-1.2-.31s-.55-.48-.74-.83c-.18-.35-.28-.75-.28-1.2,0-.68.19-1.24.58-1.67s.89-.64,1.51-.64,1.07.21,1.43.62.53.98.53,1.67v.11ZM102.33,42.62h2.26c-.02-.35-.13-.63-.32-.82s-.44-.29-.76-.29-.58.1-.78.29c-.2.19-.34.47-.4.82Z"/><path class="cls-3" d="M110.1,40.83v.57c.4-.44.85-.66,1.35-.66.28,0,.54.07.78.22s.42.34.55.6c.13.25.19.65.19,1.2v2.57h-.89v-2.56c0-.46-.07-.79-.21-.98s-.37-.3-.7-.3c-.42,0-.78.21-1.07.63v3.21h-.91v-4.49h.91Z"/><path class="cls-3" d="M117.04,42.62v1.91c0,.15.05.23.16.23s.28-.08.5-.24v.54c-.2.13-.36.22-.49.27-.12.05-.25.07-.38.07-.38,0-.61-.15-.67-.45-.38.29-.78.44-1.21.44-.31,0-.57-.1-.78-.31s-.31-.47-.31-.78c0-.28.1-.54.31-.76.2-.22.49-.4.87-.53l1.14-.39v-.24c0-.54-.27-.81-.81-.81-.49,0-.96.25-1.42.75v-.97c.34-.41.84-.61,1.49-.61.49,0,.87.13,1.17.38.1.08.19.19.26.32s.13.27.15.41c.02.14.03.39.03.77ZM116.16,44.44v-1.33l-.6.23c-.3.12-.52.24-.64.36-.12.12-.19.27-.19.46s.06.34.18.45c.12.12.27.18.46.18.28,0,.54-.12.79-.35Z"/><path class="cls-3" d="M119.43,40.83v1.03l.05-.08c.43-.69.86-1.04,1.29-1.04.33,0,.69.17,1.05.51l-.47.78c-.31-.29-.6-.44-.86-.44-.29,0-.53.14-.75.41-.21.27-.31.6-.31.97v2.35h-.89v-4.49h.89Z"/><path class="cls-3" d="M125.56,44.27v.88c-.45.17-.88.25-1.31.25-.7,0-1.26-.21-1.68-.62-.42-.42-.63-.98-.63-1.67s.2-1.28.61-1.71.94-.65,1.61-.65c.23,0,.44.02.62.07.18.04.41.13.68.25v.95c-.45-.29-.87-.43-1.25-.43s-.73.14-.99.42-.39.64-.39,1.08c0,.46.14.82.42,1.09.28.27.65.41,1.12.41.34,0,.73-.1,1.18-.3Z"/><path class="cls-3" d="M128.72,40.82c.68,0,1.25.22,1.7.66s.68,1,.68,1.66-.23,1.19-.69,1.61-1.04.64-1.73.64-1.24-.22-1.69-.65-.68-.98-.68-1.63.23-1.21.69-1.64c.46-.44,1.03-.66,1.72-.66ZM128.67,41.62c-.43,0-.78.14-1.05.42s-.41.64-.41,1.07.14.78.42,1.05.64.41,1.08.41.79-.14,1.07-.41c.28-.27.42-.63.42-1.06s-.14-.78-.43-1.06-.65-.42-1.09-.42Z"/><path class="cls-3" d="M131.46,41.55l1.67-1.64v.93h1.42v.8h-1.42v2.2c0,.51.21.77.64.77.32,0,.66-.11,1.01-.32v.83c-.34.19-.71.29-1.12.29s-.75-.12-1.02-.36c-.08-.07-.15-.15-.21-.24s-.1-.21-.14-.35c-.04-.15-.06-.42-.06-.83v-1.99h-.78v-.09Z"/><path class="cls-3" d="M136.37,40.83v1.03l.05-.08c.43-.69.86-1.04,1.29-1.04.33,0,.69.17,1.05.51l-.47.78c-.31-.29-.6-.44-.86-.44-.29,0-.53.14-.75.41-.21.27-.31.6-.31.97v2.35h-.89v-4.49h.89Z"/><path class="cls-3" d="M142.2,42.62v1.91c0,.15.05.23.16.23s.28-.08.5-.24v.54c-.2.13-.36.22-.49.27-.12.05-.25.07-.38.07-.38,0-.61-.15-.67-.45-.38.29-.78.44-1.21.44-.31,0-.57-.1-.78-.31s-.31-.47-.31-.78c0-.28.1-.54.31-.76.2-.22.49-.4.87-.53l1.14-.39v-.24c0-.54-.27-.81-.81-.81-.49,0-.96.25-1.42.75v-.97c.34-.41.84-.61,1.49-.61.49,0,.87.13,1.17.38.1.08.19.19.26.32s.13.27.15.41c.02.14.03.39.03.77ZM141.33,44.44v-1.33l-.6.23c-.3.12-.52.24-.64.36-.12.12-.19.27-.19.46s.06.34.18.45c.12.12.27.18.46.18.28,0,.54-.12.79-.35Z"/><path class="cls-3" d="M143.75,40.83v-.27c0-.72.15-1.26.46-1.62.31-.35.68-.53,1.11-.53.19,0,.41.03.66.09v.87c-.14-.05-.28-.08-.41-.08-.35,0-.59.09-.72.28-.14.19-.2.52-.2.99v.27h.8v.8h-.8v3.69h-.89v-3.69h-.64v-.8h.64Z"/><path class="cls-3" d="M146.61,38.94c.15,0,.27.05.38.15s.16.22.16.37-.05.27-.16.37-.23.16-.38.16c-.14,0-.26-.05-.36-.16s-.16-.23-.16-.37.05-.26.16-.36.22-.16.36-.16ZM146.17,40.83h.89v4.49h-.89v-4.49Z"/><path class="cls-3" d="M151.71,44.27v.88c-.45.17-.88.25-1.31.25-.7,0-1.26-.21-1.68-.62-.42-.42-.63-.98-.63-1.67s.2-1.28.61-1.71.94-.65,1.61-.65c.23,0,.44.02.62.07.18.04.41.13.68.25v.95c-.45-.29-.87-.43-1.25-.43s-.73.14-.99.42-.39.64-.39,1.08c0,.46.14.82.42,1.09.28.27.65.41,1.12.41.34,0,.73-.1,1.18-.3Z"/></g><g id="Légende"><rect class="cls-1" y=".22" width="26.26" height="16.09"/><g id="Groupe_8"><path d="M13.13,27.91l7.85,7.85-7.85,7.85-7.85-7.85,7.85-7.85M13.13,25.08l-1.41,1.41-7.85,7.85-1.41,1.41,1.41,1.41,7.85,7.85,1.41,1.41,1.41-1.41,7.85-7.85,1.41-1.41-1.41-1.41-7.85-7.85-1.41-1.41h0Z"/><rect class="cls-2" x="7.08" y="29.71" width="12.1" height="12.1" transform="translate(-21.44 19.76) rotate(-45)"/><path class="cls-3" d="M13.13,27.91l7.85,7.85-7.85,7.85-7.85-7.85,7.85-7.85M13.13,26.5l-.71.71-7.85,7.85-.71.71.71.71,7.85,7.85.71.71.71-.71,7.85-7.85.71-.71-.71-.71-7.85-7.85-.71-.71h0Z"/><path class="cls-3" d="M13.83,35.96l-.44.44c.54.34,1.19.47,1.82.34l-.12-.6c-.43.09-.87.02-1.25-.19ZM11.78,37.08s0,.03.02.04l.28.28s.05.03.07.02c.07-.03.13.05.16.17l.09.45c.02.08.09.13.17.11,0,0,0,0,0,0h.06c.12-.04.2-.16.18-.28h0s-.1-.48-.1-.48c-.01-.05,0-.1.04-.14l.4-.4c.07-.07.07-.19,0-.26l-.16-.16.75-.75-.48-.48-.49.49.06.06-1.04,1.04s0,.22,0,.29h0ZM12.63,37.05c-.06-.06-.06-.15,0-.2h0s.16-.16.16-.16c.06-.06.15-.06.2,0h0s.02.02.02.02c.06.06.06.15,0,.2h0s-.16.16-.16.16c-.06.06-.15.06-.2,0l-.02-.02ZM11.14,39.43s-.02.03-.03.04l-.08.08s-.08.03-.1,0l-.63-.63s-.05-.12,0-.16l.94-1.03h0s.04-.04.07-.05l.05-.02s.07-.03.09-.06l.17-.26.34.34-.82,1.74ZM15.17,33.78s-.07-.03-.1,0l-.23.23-.06-.06.31-.31.13.04c.08.02.16,0,.22-.06l.39-.39-.13-.3s0-.08.02-.11h.01c.04-.05.11-.06.15-.02l.23.23.1-.1.09.09-.1.1.04.04-1.12,1.12-.18-.18.23-.23s.03-.07,0-.1ZM14.58,34.14l.27.27s.04.1,0,.14l-.77.91s-.1.05-.15.01c0,0,0,0,0,0l-.35-.35s-.04-.11,0-.15l.84-.84s.11-.04.15,0h0s0,0,0,0Z"/></g></g></svg>