<?xml version="1.0" encoding="UTF-8"?><svg id="Calque_2" xmlns="http://www.w3.org/2000/svg" xmlns:xlink="http://www.w3.org/1999/xlink" viewBox="0 0 285.96 43.21"><defs><style>.cls-1,.cls-2{fill:none;}.cls-2{stroke:#82a3d6;stroke-width:2px;}.cls-3{fill:url(#_40_6_lpp);}.cls-3,.cls-4,.cls-5{stroke:#232323;stroke-linecap:square;stroke-linejoin:bevel;stroke-width:.26px;}.cls-6{fill:#82a3d6;}.cls-4{fill:#e2c7c7;}.cls-5{fill:#783333;}.cls-7{fill:#fff;}</style><pattern id="_40_6_lpp" x="0" y="0" width="72" height="72" patternTransform="translate(-2305.2506 -7702.4353) rotate(-45) scale(.5133)" patternUnits="userSpaceOnUse" viewBox="0 0 72 72"><rect class="cls-1" width="72" height="72"/><line class="cls-2" x1="71.75" y1="72" x2="144.25" y2="72"/><line class="cls-2" x1="-.25" y1="72" x2="72.25" y2="72"/><line class="cls-2" x1="-72.25" y1="72" x2=".25" y2="72"/><line class="cls-2" x1="71.75" y1="66" x2="144.25" y2="66"/><line class="cls-2" x1="71.75" y1="42" x2="144.25" y2="42"/><line class="cls-2" x1="71.75" y1="18" x2="144.25" y2="18"/><line class="cls-2" x1="71.75" y1="54" x2="144.25" y2="54"/><line class="cls-2" x1="71.75" y1="30" x2="144.25" y2="30"/><line class="cls-2" x1="71.75" y1="6" x2="144.25" y2="6"/><line class="cls-2" x1="71.75" y1="60" x2="144.25" y2="60"/><line class="cls-2" x1="71.75" y1="36" x2="144.25" y2="36"/><line class="cls-2" x1="71.75" y1="12" x2="144.25" y2="12"/><line class="cls-2" x1="71.75" y1="48" x2="144.25" y2="48"/><line class="cls-2" x1="71.75" y1="24" x2="144.25" y2="24"/><line class="cls-2" x1="71.75" y1="0" x2="144.25" y2="0"/><line class="cls-2" x1="-.25" y1="66" x2="72.25" y2="66"/><line class="cls-2" x1="-.25" y1="42" x2="72.25" y2="42"/><line class="cls-2" x1="-.25" y1="18" x2="72.25" y2="18"/><line class="cls-2" x1="-.25" y1="54" x2="72.25" y2="54"/><line class="cls-2" x1="-.25" y1="30" x2="72.25" y2="30"/><line class="cls-2" x1="-.25" y1="6" x2="72.25" y2="6"/><line class="cls-2" x1="-.25" y1="60" x2="72.25" y2="60"/><line class="cls-2" x1="-.25" y1="36" x2="72.25" y2="36"/><line class="cls-2" x1="-.25" y1="12" x2="72.25" y2="12"/><line class="cls-2" x1="-.25" y1="48" x2="72.25" y2="48"/><line class="cls-2" x1="-.25" y1="24" x2="72.25" y2="24"/><line class="cls-2" x1="-.25" y1="0" x2="72.25" y2="0"/><line class="cls-2" x1="-72.25" y1="66" x2=".25" y2="66"/><line class="cls-2" x1="-72.25" y1="42" x2=".25" y2="42"/><line class="cls-2" x1="-72.25" y1="18" x2=".25" y2="18"/><line class="cls-2" x1="-72.25" y1="54" x2=".25" y2="54"/><line class="cls-2" x1="-72.25" y1="30" x2=".25" y2="30"/><line class="cls-2" x1="-72.25" y1="6" x2=".25" y2="6"/><line class="cls-2" x1="-72.25" y1="60" x2=".25" y2="60"/><line class="cls-2" x1="-72.25" y1="36" x2=".25" y2="36"/><line class="cls-2" x1="-72.25" y1="12" x2=".25" y2="12"/><line class="cls-2" x1="-72.25" y1="48" x2=".25" y2="48"/><line class="cls-2" x1="-72.25" y1="24" x2=".25" y2="24"/><line class="cls-2" x1="-72.25" y1="0" x2=".25" y2="0"/></pattern></defs><g id="Légende"><rect class="cls-6" x=".13" y=".82" width="26.26" height="16.09"/><rect class="cls-4" x=".13" y="26.99" width="26.26" height="16.09"/><rect class="cls-3" x="138.19" y=".82" width="26.26" height="16.09"/><path class="cls-7" d="M36.22,11.93v-6.83h2.16c.65,0,1.17.18,1.56.53s.58.82.58,1.42c0,.4-.1.75-.3,1.05s-.47.53-.82.67-.84.21-1.48.21h-.72v2.96h-.98ZM38.21,5.97h-1.01v2.13h1.07c.4,0,.7-.09.92-.28s.32-.46.32-.8c0-.7-.43-1.05-1.3-1.05Z"/><path class="cls-7" d="M44.07,9.23v1.91c0,.15.05.23.16.23s.27-.08.5-.24v.54c-.2.13-.36.22-.49.27s-.25.07-.38.07c-.38,0-.61-.15-.67-.45-.38.29-.78.44-1.21.44-.31,0-.57-.1-.78-.31s-.31-.47-.31-.78c0-.28.1-.54.31-.76s.49-.4.87-.53l1.14-.39v-.24c0-.54-.27-.81-.81-.81-.48,0-.96.25-1.42.75v-.97c.35-.41.84-.61,1.49-.61.48,0,.87.13,1.17.38.1.08.19.19.26.32s.13.27.15.41.03.39.03.77ZM43.2,11.04v-1.33l-.6.23c-.3.12-.52.24-.64.36s-.19.27-.19.46.06.34.18.45.27.18.46.18c.28,0,.55-.12.79-.35Z"/><path class="cls-7" d="M47.87,7.44h1l-3.18,6.78h-.99l1.52-3.25-1.73-3.53h1.01l1.21,2.54,1.16-2.54Z"/><path class="cls-7" d="M49.28,11.61v-.96c.25.18.51.32.77.43s.48.16.66.16.35-.05.48-.14.2-.2.2-.33-.04-.24-.13-.32-.27-.21-.56-.37c-.57-.32-.95-.59-1.13-.82s-.27-.47-.27-.74c0-.35.13-.63.4-.84s.61-.33,1.04-.33.89.12,1.35.37v.88c-.53-.32-.96-.48-1.29-.48-.17,0-.31.04-.42.11s-.16.17-.16.29c0,.1.05.2.14.3.1.09.26.21.51.34l.32.18c.75.42,1.12.89,1.12,1.41,0,.37-.14.67-.43.91s-.66.35-1.11.35c-.27,0-.5-.03-.71-.09s-.47-.16-.79-.31Z"/><path class="cls-7" d="M59.8,8.67v3.26h-.89v-2.5c0-.5-.07-.85-.2-1.04s-.37-.3-.7-.3c-.19,0-.36.04-.51.13s-.33.23-.53.45v3.26h-.89v-4.49h.89v.59c.45-.45.9-.68,1.33-.68.57,0,1.01.27,1.32.81.48-.55.97-.82,1.49-.82.44,0,.79.16,1.08.48s.42.81.42,1.46v2.65h-.89v-2.66c0-.37-.08-.66-.23-.86s-.37-.3-.66-.3c-.37,0-.71.19-1.03.56Z"/><path class="cls-7" d="M67.66,9.76h-3.16c.02.43.17.77.43,1.03s.61.38,1.03.38c.59,0,1.13-.18,1.62-.55v.87c-.27.18-.54.31-.81.39s-.58.12-.94.12c-.49,0-.9-.1-1.2-.31s-.55-.48-.73-.83-.28-.75-.28-1.2c0-.68.19-1.24.58-1.67s.89-.64,1.51-.64,1.07.21,1.43.62.53.98.53,1.67v.11ZM64.52,9.23h2.26c-.02-.35-.13-.63-.32-.82s-.44-.29-.76-.29-.58.1-.78.29-.34.47-.4.82Z"/><path class="cls-7" d="M72.3,8.67v3.26h-.89v-2.5c0-.5-.07-.85-.2-1.04s-.37-.3-.7-.3c-.19,0-.36.04-.51.13s-.33.23-.53.45v3.26h-.89v-4.49h.89v.59c.45-.45.9-.68,1.33-.68.57,0,1.01.27,1.32.81.48-.55.97-.82,1.49-.82.44,0,.79.16,1.08.48s.42.81.42,1.46v2.65h-.89v-2.66c0-.37-.08-.66-.23-.86s-.37-.3-.66-.3c-.37,0-.71.19-1.03.56Z"/><path class="cls-7" d="M76.29,5.11h.89v2.65c.38-.28.79-.42,1.23-.42.57,0,1.04.21,1.4.64s.54.98.54,1.66c0,.72-.22,1.3-.65,1.73s-1.01.64-1.73.64c-.29,0-.59-.03-.92-.09s-.58-.14-.76-.23v-6.57ZM77.18,8.61v2.43c.3.09.61.14.93.14.39,0,.72-.14.96-.42s.37-.64.37-1.08-.12-.81-.35-1.09-.54-.42-.91-.42c-.33,0-.67.15-1.01.44Z"/><path class="cls-7" d="M82.28,7.44v1.03l.05-.08c.43-.69.86-1.04,1.29-1.04.34,0,.69.17,1.05.51l-.47.78c-.31-.29-.6-.44-.86-.44-.29,0-.53.14-.74.41s-.31.6-.31.97v2.35h-.89v-4.49h.89Z"/><path class="cls-7" d="M88.92,9.76h-3.16c.02.43.17.77.43,1.03s.61.38,1.03.38c.59,0,1.13-.18,1.62-.55v.87c-.27.18-.54.31-.81.39s-.58.12-.94.12c-.49,0-.9-.1-1.2-.31s-.55-.48-.73-.83-.28-.75-.28-1.2c0-.68.19-1.24.58-1.67s.89-.64,1.51-.64,1.07.21,1.43.62.53.98.53,1.67v.11ZM85.78,9.23h2.26c-.02-.35-.13-.63-.32-.82s-.44-.29-.76-.29-.58.1-.78.29-.34.47-.4.82Z"/><path class="cls-7" d="M95.66,5.11h.89v6.82h-1.9c-.66,0-1.19-.21-1.59-.63s-.59-.98-.59-1.69c0-.66.21-1.2.62-1.63s.94-.64,1.59-.64c.3,0,.62.06.98.19v-2.42ZM95.66,11.17v-2.85c-.28-.14-.56-.21-.84-.21-.44,0-.79.15-1.06.43s-.39.68-.39,1.17c0,.46.11.82.34,1.07.14.15.28.25.43.3s.43.08.83.08h.69Z"/><path class="cls-7" d="M100.62,11.93v-.58c-.19.21-.4.37-.65.48s-.48.17-.73.17c-.28,0-.54-.07-.78-.21s-.42-.33-.54-.58-.18-.65-.18-1.21v-2.57h.89v2.56c0,.47.07.8.2.99s.37.28.71.28c.42,0,.78-.21,1.08-.62v-3.21h.89v4.49h-.89Z"/><path class="cls-7" d="M103.83,5.1h5.7v.87h-2.38v5.96h-.98v-5.96h-2.34v-.87Z"/><path class="cls-7" d="M110.46,5.11h.98v6.82h-.98v-6.82Z"/><path class="cls-7" d="M115.12,5.07h.69l3.06,6.86h-1l-.91-2.02h-2.91l-.85,2.02h-1l2.93-6.86ZM116.56,9.04l-1.1-2.47-1.02,2.47h2.12Z"/><path class="cls-7" d="M119.65,11.93v-6.82h1.71c.69,0,1.24.17,1.64.51s.61.8.61,1.39c0,.4-.1.74-.3,1.03s-.48.51-.85.65c.22.14.43.34.64.59s.5.68.88,1.29c.24.39.43.68.57.87l.36.49h-1.16l-.3-.45s-.03-.04-.06-.08l-.19-.27-.3-.5-.33-.53c-.2-.28-.39-.5-.55-.67-.17-.17-.32-.29-.45-.36-.14-.07-.36-.11-.68-.11h-.25v2.97h-.98ZM120.92,5.94h-.29v2.15h.37c.49,0,.83-.04,1.02-.13s.33-.21.43-.38.15-.37.15-.58-.06-.41-.17-.58-.27-.3-.48-.37-.55-.11-1.03-.11Z"/><path class="cls-7" d="M38.45,31.24h.69l3.06,6.86h-1l-.91-2.02h-2.91l-.85,2.02h-1l2.93-6.86ZM39.89,35.21l-1.1-2.47-1.02,2.47h2.12Z"/><path class="cls-7" d="M43.71,33.6v.57c.4-.44.85-.66,1.35-.66.28,0,.54.07.78.22s.42.34.55.6.19.65.19,1.2v2.57h-.89v-2.56c0-.46-.07-.79-.21-.98s-.37-.3-.7-.3c-.42,0-.78.21-1.07.63v3.21h-.91v-4.49h.91Z"/><path class="cls-7" d="M51.19,37.05v.88c-.45.17-.88.25-1.31.25-.7,0-1.26-.21-1.68-.62s-.63-.98-.63-1.67.2-1.28.61-1.71.94-.65,1.61-.65c.23,0,.44.02.62.07s.41.13.68.25v.95c-.45-.29-.87-.43-1.25-.43s-.73.14-.99.42-.39.64-.39,1.08c0,.46.14.82.42,1.09s.65.41,1.13.41c.34,0,.73-.1,1.18-.3Z"/><path class="cls-7" d="M52.66,31.71c.15,0,.27.05.38.15s.16.22.16.37-.05.27-.16.37-.23.16-.38.16c-.14,0-.26-.05-.36-.16s-.16-.23-.16-.37.05-.26.16-.36.22-.16.36-.16ZM52.22,33.6h.89v4.49h-.89v-4.49Z"/><path class="cls-7" d="M58.22,35.93h-3.16c.02.43.17.77.43,1.03s.61.38,1.03.38c.59,0,1.13-.18,1.62-.55v.87c-.27.18-.54.31-.81.39s-.58.12-.94.12c-.49,0-.9-.1-1.2-.31s-.55-.48-.73-.83-.28-.75-.28-1.2c0-.68.19-1.24.58-1.67s.89-.64,1.51-.64,1.07.21,1.43.62.53.98.53,1.67v.11ZM55.08,35.4h2.26c-.02-.35-.13-.63-.32-.82s-.44-.29-.76-.29-.58.1-.78.29-.34.47-.4.82Z"/><path class="cls-7" d="M60.07,33.6v.57c.4-.44.85-.66,1.35-.66.28,0,.54.07.78.22s.42.34.55.6.19.65.19,1.2v2.57h-.89v-2.56c0-.46-.07-.79-.21-.98s-.37-.3-.7-.3c-.42,0-.78.21-1.07.63v3.21h-.91v-4.49h.91Z"/><path class="cls-7" d="M70.64,34.83v3.26h-.89v-2.5c0-.5-.07-.85-.2-1.04s-.37-.3-.7-.3c-.19,0-.36.04-.51.13s-.33.23-.53.45v3.26h-.89v-4.49h.89v.59c.45-.45.9-.68,1.33-.68.57,0,1.01.27,1.32.81.48-.55.97-.82,1.49-.82.44,0,.79.16,1.08.48s.42.81.42,1.46v2.65h-.89v-2.66c0-.37-.08-.66-.23-.86s-.37-.3-.66-.3c-.37,0-.71.19-1.03.56Z"/><path class="cls-7" d="M78.5,35.93h-3.16c.02.43.17.77.43,1.03s.61.38,1.03.38c.59,0,1.13-.18,1.62-.55v.87c-.27.18-.54.31-.81.39s-.58.12-.94.12c-.49,0-.9-.1-1.2-.31s-.55-.48-.73-.83-.28-.75-.28-1.2c0-.68.19-1.24.58-1.67s.89-.64,1.51-.64,1.07.21,1.43.62.53.98.53,1.67v.11ZM75.36,35.4h2.26c-.02-.35-.13-.63-.32-.82s-.44-.29-.76-.29-.58.1-.78.29-.34.47-.4.82Z"/><path class="cls-7" d="M83.14,34.83v3.26h-.89v-2.5c0-.5-.07-.85-.2-1.04s-.37-.3-.7-.3c-.19,0-.36.04-.51.13s-.33.23-.53.45v3.26h-.89v-4.49h.89v.59c.45-.45.9-.68,1.33-.68.57,0,1.01.27,1.32.81.48-.55.97-.82,1.49-.82.44,0,.79.16,1.08.48s.42.81.42,1.46v2.65h-.89v-2.66c0-.37-.08-.66-.23-.86s-.37-.3-.66-.3c-.37,0-.71.19-1.03.56Z"/><path class="cls-7" d="M87.13,31.27h.89v2.65c.38-.28.79-.42,1.23-.42.57,0,1.04.21,1.4.64s.54.98.54,1.66c0,.72-.22,1.3-.65,1.73s-1.01.64-1.73.64c-.29,0-.59-.03-.92-.09s-.58-.14-.76-.23v-6.57ZM88.02,34.78v2.43c.3.09.61.14.93.14.39,0,.72-.14.96-.42s.37-.64.37-1.08-.12-.81-.35-1.09-.54-.42-.91-.42c-.33,0-.67.15-1.01.44Z"/><path class="cls-7" d="M93.12,33.6v1.03l.05-.08c.43-.69.86-1.04,1.29-1.04.34,0,.69.17,1.05.51l-.47.78c-.31-.29-.6-.44-.86-.44-.29,0-.53.14-.74.41s-.31.6-.31.97v2.35h-.89v-4.49h.89Z"/><path class="cls-7" d="M99.76,35.93h-3.16c.02.43.17.77.43,1.03s.61.38,1.03.38c.59,0,1.13-.18,1.62-.55v.87c-.27.18-.54.31-.81.39s-.58.12-.94.12c-.49,0-.9-.1-1.2-.31s-.55-.48-.73-.83-.28-.75-.28-1.2c0-.68.19-1.24.58-1.67s.89-.64,1.51-.64,1.07.21,1.43.62.53.98.53,1.67v.11ZM96.62,35.4h2.26c-.02-.35-.13-.63-.32-.82s-.44-.29-.76-.29-.58.1-.78.29-.34.47-.4.82Z"/><path class="cls-7" d="M173.44,6.93V.1h2.16c.65,0,1.17.18,1.56.53s.58.82.58,1.42c0,.4-.1.75-.3,1.05s-.47.53-.82.67-.84.21-1.48.21h-.72v2.96h-.98ZM175.43.97h-1.01v2.13h1.07c.4,0,.7-.09.92-.28s.32-.46.32-.8c0-.7-.43-1.05-1.3-1.05Z"/><path class="cls-7" d="M181.29,4.23v1.91c0,.15.05.23.16.23s.28-.08.5-.24v.54c-.2.13-.36.22-.49.27-.12.05-.25.07-.38.07-.38,0-.61-.15-.67-.45-.38.29-.78.44-1.21.44-.31,0-.57-.1-.78-.31s-.31-.47-.31-.78c0-.28.1-.54.31-.76.2-.22.49-.4.87-.53l1.14-.39v-.24c0-.54-.27-.81-.81-.81-.49,0-.96.25-1.42.75v-.97c.34-.41.84-.61,1.49-.61.49,0,.87.13,1.17.38.1.08.19.19.26.32s.13.27.15.41c.02.14.03.39.03.77ZM180.42,6.04v-1.33l-.6.23c-.3.12-.52.24-.64.36-.12.12-.19.27-.19.46s.06.34.18.45c.12.12.27.18.46.18.28,0,.54-.12.79-.35Z"/><path class="cls-7" d="M185.1,2.44h1l-3.18,6.78h-.99l1.52-3.25-1.73-3.53h1.01l1.21,2.54,1.16-2.54Z"/><path class="cls-7" d="M186.5,6.61v-.96c.25.18.51.32.77.43.26.11.48.16.66.16s.34-.05.48-.14.2-.2.2-.33-.04-.24-.13-.32c-.09-.09-.27-.21-.56-.37-.57-.32-.95-.59-1.13-.82-.18-.23-.27-.47-.27-.74,0-.35.13-.63.4-.84.27-.22.62-.33,1.04-.33s.89.12,1.35.37v.88c-.53-.32-.96-.48-1.29-.48-.17,0-.31.04-.42.11-.11.07-.16.17-.16.29,0,.1.05.2.14.3.1.09.26.21.51.34l.32.18c.75.42,1.12.89,1.12,1.41,0,.37-.14.67-.43.91-.29.24-.66.35-1.11.35-.27,0-.5-.03-.71-.09s-.47-.16-.79-.31Z"/><path class="cls-7" d="M196.17,4.23v1.91c0,.15.05.23.16.23s.28-.08.5-.24v.54c-.2.13-.36.22-.49.27-.12.05-.25.07-.38.07-.38,0-.61-.15-.67-.45-.38.29-.78.44-1.21.44-.31,0-.57-.1-.78-.31s-.31-.47-.31-.78c0-.28.1-.54.31-.76.2-.22.49-.4.87-.53l1.14-.39v-.24c0-.54-.27-.81-.81-.81-.49,0-.96.25-1.42.75v-.97c.34-.41.84-.61,1.49-.61.49,0,.87.13,1.17.38.1.08.19.19.26.32s.13.27.15.41c.02.14.03.39.03.77ZM195.29,6.04v-1.33l-.6.23c-.3.12-.52.24-.64.36-.12.12-.19.27-.19.46s.06.34.18.45c.12.12.27.18.46.18.28,0,.54-.12.79-.35Z"/><path class="cls-7" d="M199.97,2.44h1l-3.18,6.78h-.99l1.52-3.25-1.73-3.53h1.01l1.21,2.54,1.16-2.54Z"/><path class="cls-7" d="M204.41,4.23v1.91c0,.15.05.23.16.23s.28-.08.5-.24v.54c-.2.13-.36.22-.49.27-.12.05-.25.07-.38.07-.38,0-.61-.15-.67-.45-.38.29-.78.44-1.21.44-.31,0-.57-.1-.78-.31s-.31-.47-.31-.78c0-.28.1-.54.31-.76.2-.22.49-.4.87-.53l1.14-.39v-.24c0-.54-.27-.81-.81-.81-.49,0-.96.25-1.42.75v-.97c.34-.41.84-.61,1.49-.61.49,0,.87.13,1.17.38.1.08.19.19.26.32s.13.27.15.41c.02.14.03.39.03.77ZM203.54,6.04v-1.33l-.6.23c-.3.12-.52.24-.64.36-.12.12-.19.27-.19.46s.06.34.18.45c.12.12.27.18.46.18.28,0,.54-.12.79-.35Z"/><path class="cls-7" d="M206.75,2.44v.57c.4-.44.85-.66,1.35-.66.28,0,.54.07.78.22s.42.34.55.6c.13.25.19.65.19,1.2v2.57h-.89v-2.56c0-.46-.07-.79-.21-.98s-.37-.3-.7-.3c-.42,0-.78.21-1.07.63v3.21h-.91V2.44h.91Z"/><path class="cls-7" d="M210.23,3.15l1.67-1.64v.93h1.42v.8h-1.42v2.2c0,.51.21.77.64.77.32,0,.66-.11,1.01-.32v.83c-.34.19-.71.29-1.12.29s-.75-.12-1.02-.36c-.08-.07-.15-.15-.21-.24s-.1-.21-.14-.35c-.04-.15-.06-.42-.06-.83v-1.99h-.78v-.09Z"/><path class="cls-7" d="M217.92,2.44v1.03l.05-.08c.43-.69.86-1.04,1.29-1.04.33,0,.69.17,1.05.51l-.47.78c-.31-.29-.6-.44-.86-.44-.29,0-.53.14-.75.41-.21.27-.31.6-.31.97v2.35h-.89V2.44h.89Z"/><path class="cls-7" d="M224.76,4.76h-3.16c.02.43.17.77.43,1.03.27.25.61.38,1.03.38.59,0,1.13-.18,1.62-.55v.87c-.27.18-.54.31-.81.39-.27.08-.58.12-.94.12-.5,0-.9-.1-1.2-.31s-.55-.48-.74-.83c-.18-.35-.28-.75-.28-1.2,0-.68.19-1.24.58-1.67s.89-.64,1.51-.64,1.07.21,1.43.62.53.98.53,1.67v.11ZM221.62,4.23h2.26c-.02-.35-.13-.63-.32-.82s-.44-.29-.76-.29-.58.1-.78.29c-.2.19-.34.47-.4.82ZM223.79,0l-1.1,1.46h-.55l.66-1.46h.99Z"/><path class="cls-7" d="M226.18.55c.15,0,.27.05.38.15s.16.22.16.37-.05.27-.16.37-.23.16-.38.16c-.14,0-.26-.05-.36-.16s-.16-.23-.16-.37.05-.26.16-.36.22-.16.36-.16ZM225.74,2.44h.89v4.49h-.89V2.44Z"/><path class="cls-7" d="M228.8,2.44v.57c.4-.44.85-.66,1.35-.66.28,0,.54.07.78.22s.42.34.55.6c.13.25.19.65.19,1.2v2.57h-.89v-2.56c0-.46-.07-.79-.21-.98s-.37-.3-.7-.3c-.42,0-.78.21-1.07.63v3.21h-.91V2.44h.91Z"/><path class="cls-7" d="M232.28,3.15l1.67-1.64v.93h1.42v.8h-1.42v2.2c0,.51.21.77.64.77.32,0,.66-.11,1.01-.32v.83c-.34.19-.71.29-1.12.29s-.75-.12-1.02-.36c-.08-.07-.15-.15-.21-.24s-.1-.21-.14-.35c-.04-.15-.06-.42-.06-.83v-1.99h-.78v-.09Z"/><path class="cls-7" d="M240.07,4.76h-3.16c.02.43.17.77.43,1.03.27.25.61.38,1.03.38.59,0,1.13-.18,1.62-.55v.87c-.27.18-.54.31-.81.39-.27.08-.58.12-.94.12-.5,0-.9-.1-1.2-.31s-.55-.48-.74-.83c-.18-.35-.28-.75-.28-1.2,0-.68.19-1.24.58-1.67s.89-.64,1.51-.64,1.07.21,1.43.62.53.98.53,1.67v.11ZM236.93,4.23h2.26c-.02-.35-.13-.63-.32-.82s-.44-.29-.76-.29-.58.1-.78.29c-.2.19-.34.47-.4.82ZM239.1,0l-1.1,1.46h-.55l.66-1.46h.99Z"/><path class="cls-7" d="M240.8,3.99c0-.48.17-.86.53-1.14.35-.28.83-.42,1.43-.42h1.85v.69h-.91c.18.18.3.34.37.49s.1.31.1.5c0,.23-.07.46-.2.69s-.31.4-.51.52c-.21.12-.55.22-1.03.29-.33.05-.5.16-.5.35,0,.1.06.19.19.26.12.07.35.14.68.21.55.12.9.21,1.06.28.16.07.3.17.43.29.21.21.32.48.32.81,0,.43-.19.77-.57,1.02-.38.25-.89.38-1.52.38s-1.15-.13-1.54-.38c-.38-.26-.57-.6-.57-1.03,0-.61.38-1,1.13-1.18-.3-.19-.45-.38-.45-.57,0-.14.06-.27.19-.39.13-.12.3-.2.52-.26-.66-.29-.99-.77-.99-1.42ZM242.26,7.14c-.3,0-.54.06-.74.19-.19.13-.29.29-.29.49,0,.46.42.69,1.25.69.39,0,.7-.06.92-.17.22-.12.32-.28.32-.49s-.14-.38-.41-.51-.63-.2-1.06-.2ZM242.47,3.21c-.24,0-.45.08-.62.24s-.25.36-.25.59.08.42.25.57.38.23.63.23.46-.08.63-.23c.17-.15.25-.35.25-.58s-.08-.43-.25-.59-.38-.23-.63-.23Z"/><path class="cls-7" d="M246.25,2.44v1.03l.05-.08c.43-.69.86-1.04,1.29-1.04.33,0,.69.17,1.05.51l-.47.78c-.31-.29-.6-.44-.86-.44-.29,0-.53.14-.75.41-.21.27-.31.6-.31.97v2.35h-.89V2.44h.89Z"/><path class="cls-7" d="M253.09,4.76h-3.16c.02.43.17.77.43,1.03.27.25.61.38,1.03.38.59,0,1.13-.18,1.62-.55v.87c-.27.18-.54.31-.81.39-.27.08-.58.12-.94.12-.5,0-.9-.1-1.2-.31s-.55-.48-.74-.83c-.18-.35-.28-.75-.28-1.2,0-.68.19-1.24.58-1.67s.89-.64,1.51-.64,1.07.21,1.43.62.53.98.53,1.67v.11ZM249.95,4.23h2.26c-.02-.35-.13-.63-.32-.82s-.44-.29-.76-.29-.58.1-.78.29c-.2.19-.34.47-.4.82ZM252.12,0l-1.1,1.46h-.55l.66-1.46h.99Z"/><path class="cls-7" d="M256.85.11h.89v6.82h-.89V.11Z"/><path class="cls-7" d="M262.85,4.76h-3.16c.02.43.17.77.43,1.03.27.25.61.38,1.03.38.59,0,1.13-.18,1.62-.55v.87c-.27.18-.54.31-.81.39-.27.08-.58.12-.94.12-.5,0-.9-.1-1.2-.31s-.55-.48-.74-.83c-.18-.35-.28-.75-.28-1.2,0-.68.19-1.24.58-1.67s.89-.64,1.51-.64,1.07.21,1.43.62.53.98.53,1.67v.11ZM259.71,4.23h2.26c-.02-.35-.13-.63-.32-.82s-.44-.29-.76-.29-.58.1-.78.29c-.2.19-.34.47-.4.82Z"/><path class="cls-7" d="M264.88.1h5.7v.87h-2.38v5.96h-.98V.97h-2.34V.1Z"/><path class="cls-7" d="M271.51.11h.98v6.82h-.98V.11Z"/><path class="cls-7" d="M276.18.07h.69l3.06,6.86h-1l-.91-2.02h-2.91l-.85,2.02h-1l2.93-6.86ZM277.61,4.04l-1.1-2.47-1.02,2.47h2.12Z"/><path class="cls-7" d="M280.7,6.93V.11h1.71c.69,0,1.24.17,1.64.51.41.34.61.8.61,1.39,0,.4-.1.74-.3,1.03s-.48.51-.85.65c.22.14.43.34.64.59s.5.68.88,1.29c.24.39.43.68.57.87l.36.49h-1.16l-.3-.45s-.03-.04-.06-.08l-.19-.27-.3-.5-.33-.53c-.2-.28-.39-.5-.55-.67-.17-.17-.32-.29-.45-.36-.14-.07-.36-.11-.68-.11h-.25v2.97h-.98ZM281.97.94h-.29v2.15h.37c.5,0,.83-.04,1.02-.13.18-.08.33-.21.43-.38.1-.17.15-.37.15-.58s-.06-.41-.17-.58-.27-.3-.48-.37c-.21-.07-.55-.11-1.03-.11Z"/><path class="cls-7" d="M176.2,14.23v1.91c0,.15.05.23.16.23s.28-.08.5-.24v.54c-.2.13-.36.22-.49.27-.12.05-.25.07-.38.07-.38,0-.61-.15-.67-.45-.38.29-.78.44-1.21.44-.31,0-.57-.1-.78-.31s-.31-.47-.31-.78c0-.28.1-.54.31-.76.2-.22.49-.4.87-.53l1.14-.39v-.24c0-.54-.27-.81-.81-.81-.49,0-.96.25-1.42.75v-.97c.34-.41.84-.61,1.49-.61.49,0,.87.13,1.17.38.1.08.19.19.26.32s.13.27.15.41c.02.14.03.39.03.77ZM175.32,16.04v-1.33l-.6.23c-.3.12-.52.24-.64.36-.12.12-.19.27-.19.46s.06.34.18.45c.12.12.27.18.46.18.28,0,.54-.12.79-.35Z"/><path class="cls-7" d="M177.49,19.22v-6.78h1.56c.8,0,1.42.2,1.86.6.44.4.67.95.67,1.67,0,.67-.21,1.23-.63,1.66-.42.43-.95.65-1.6.65-.29,0-.6-.06-.95-.19v2.4h-.91ZM179.02,13.27h-.63v2.76c.27.14.56.21.86.21.42,0,.76-.15,1.02-.43s.4-.66.4-1.12c0-.29-.06-.55-.19-.78s-.3-.39-.51-.49-.53-.15-.95-.15Z"/><path class="cls-7" d="M183.5,12.44v1.03l.05-.08c.43-.69.86-1.04,1.29-1.04.33,0,.69.17,1.05.51l-.47.78c-.31-.29-.6-.44-.86-.44-.29,0-.53.14-.75.41-.21.27-.31.6-.31.97v2.35h-.89v-4.49h.89Z"/><path class="cls-7" d="M190.33,14.76h-3.16c.02.43.17.77.43,1.03.27.25.61.38,1.03.38.59,0,1.13-.18,1.62-.55v.87c-.27.18-.54.31-.81.39-.27.08-.58.12-.94.12-.5,0-.9-.1-1.2-.31s-.55-.48-.74-.83c-.18-.35-.28-.75-.28-1.2,0-.68.19-1.24.58-1.67s.89-.64,1.51-.64,1.07.21,1.43.62.53.98.53,1.67v.11ZM187.19,14.23h2.26c-.02-.35-.13-.63-.32-.82s-.44-.29-.76-.29-.58.1-.78.29c-.2.19-.34.47-.4.82ZM188.2,10l.67,1.46h-.55l-1.12-1.46h1Z"/><path class="cls-7" d="M191.07,16.61v-.96c.25.18.51.32.77.43.26.11.48.16.66.16s.34-.05.48-.14.2-.2.2-.33-.04-.24-.13-.32c-.09-.09-.27-.21-.56-.37-.57-.32-.95-.59-1.13-.82-.18-.23-.27-.47-.27-.74,0-.35.13-.63.4-.84.27-.22.62-.33,1.04-.33s.89.12,1.35.37v.88c-.53-.32-.96-.48-1.29-.48-.17,0-.31.04-.42.11-.11.07-.16.17-.16.29,0,.1.05.2.14.3.1.09.26.21.51.34l.32.18c.75.42,1.12.89,1.12,1.41,0,.37-.14.67-.43.91-.29.24-.66.35-1.11.35-.27,0-.5-.03-.71-.09s-.47-.16-.79-.31Z"/><path class="cls-7" d="M197.94,10.11h.89v6.82h-.89v-6.82Z"/><path class="cls-7" d="M199.97,12.5v-.19c.15-.14.25-.28.31-.42s.09-.33.1-.58c-.34-.11-.52-.32-.52-.64,0-.18.06-.33.18-.46.12-.13.26-.19.42-.19.2,0,.36.09.49.26s.19.4.19.67c0,.36-.1.68-.31.96s-.5.47-.86.58Z"/><path class="cls-7" d="M205.13,14.23v1.91c0,.15.05.23.16.23s.28-.08.5-.24v.54c-.2.13-.36.22-.49.27-.12.05-.25.07-.38.07-.38,0-.61-.15-.67-.45-.38.29-.78.44-1.21.44-.31,0-.57-.1-.78-.31s-.31-.47-.31-.78c0-.28.1-.54.31-.76.2-.22.49-.4.87-.53l1.14-.39v-.24c0-.54-.27-.81-.81-.81-.49,0-.96.25-1.42.75v-.97c.34-.41.84-.61,1.49-.61.49,0,.87.13,1.17.38.1.08.19.19.26.32s.13.27.15.41c.02.14.03.39.03.77ZM204.25,16.04v-1.33l-.6.23c-.3.12-.52.24-.64.36-.12.12-.19.27-.19.46s.06.34.18.45c.12.12.27.18.46.18.28,0,.54-.12.79-.35Z"/><path class="cls-7" d="M208.97,12.44h.96l-1.98,4.57h-.3l-2.03-4.57h.97l1.21,2.76,1.17-2.76Z"/><path class="cls-7" d="M212.55,12.43c.68,0,1.25.22,1.7.66s.68,1,.68,1.66-.23,1.19-.69,1.61-1.04.64-1.73.64-1.24-.22-1.69-.65-.68-.98-.68-1.63.23-1.21.69-1.64c.46-.44,1.03-.66,1.72-.66ZM212.5,13.23c-.43,0-.78.14-1.05.42s-.41.64-.41,1.07.14.78.42,1.05.64.41,1.08.41.79-.14,1.07-.41c.28-.27.42-.63.42-1.06s-.14-.78-.43-1.06-.65-.42-1.09-.42Z"/><path class="cls-7" d="M216.38,10.55c.15,0,.27.05.38.15s.16.22.16.37-.05.27-.16.37-.23.16-.38.16c-.14,0-.26-.05-.36-.16s-.16-.23-.16-.37.05-.26.16-.36.22-.16.36-.16ZM215.94,12.44h.89v4.49h-.89v-4.49Z"/><path class="cls-7" d="M219.06,12.44v1.03l.05-.08c.43-.69.86-1.04,1.29-1.04.33,0,.69.17,1.05.51l-.47.78c-.31-.29-.6-.44-.86-.44-.29,0-.53.14-.75.41-.21.27-.31.6-.31.97v2.35h-.89v-4.49h.89Z"/><path class="cls-7" d="M226.97,12.44h1.68v6.78h-.89v-2.37c-.39.1-.72.16-.98.16-.64,0-1.17-.21-1.58-.64s-.63-.98-.63-1.64c0-.7.22-1.26.65-1.67s1.02-.62,1.75-.62ZM227.76,16.08v-2.81h-.56c-.38,0-.64.02-.77.05-.13.03-.24.08-.34.14-.09.06-.18.13-.26.22-.25.28-.37.62-.37,1.02,0,.46.14.83.41,1.12.28.29.63.44,1.07.44.1,0,.18,0,.25-.02s.21-.06.43-.13l.07-.02.06-.02Z"/><path class="cls-7" d="M232.71,16.93v-.58c-.19.21-.4.37-.65.48-.24.11-.48.17-.72.17-.28,0-.54-.07-.78-.21-.24-.14-.42-.33-.54-.58-.12-.24-.18-.65-.18-1.21v-2.57h.89v2.56c0,.47.07.8.2.99.14.19.37.28.71.28.42,0,.78-.21,1.08-.62v-3.21h.89v4.49h-.89Z"/><path class="cls-7" d="M235.31,10.55c.15,0,.27.05.38.15s.16.22.16.37-.05.27-.16.37-.23.16-.38.16c-.14,0-.26-.05-.36-.16s-.16-.23-.16-.37.05-.26.16-.36.22-.16.36-.16ZM234.87,12.44h.89v4.49h-.89v-4.49Z"/><path class="cls-7" d="M236.41,13.15l1.67-1.64v.93h1.42v.8h-1.42v2.2c0,.51.21.77.64.77.32,0,.66-.11,1.01-.32v.83c-.34.19-.71.29-1.12.29s-.75-.12-1.02-.36c-.08-.07-.15-.15-.21-.24s-.1-.21-.14-.35c-.04-.15-.06-.42-.06-.83v-1.99h-.78v-.09Z"/><path class="cls-7" d="M239.74,13.15l1.67-1.64v.93h1.42v.8h-1.42v2.2c0,.51.21.77.64.77.32,0,.66-.11,1.01-.32v.83c-.34.19-.71.29-1.12.29s-.75-.12-1.02-.36c-.08-.07-.15-.15-.21-.24s-.1-.21-.14-.35c-.04-.15-.06-.42-.06-.83v-1.99h-.78v-.09Z"/><path class="cls-7" d="M247.53,14.76h-3.16c.02.43.17.77.43,1.03.27.25.61.38,1.03.38.59,0,1.13-.18,1.62-.55v.87c-.27.18-.54.31-.81.39-.27.08-.58.12-.94.12-.5,0-.9-.1-1.2-.31s-.55-.48-.74-.83c-.18-.35-.28-.75-.28-1.2,0-.68.19-1.24.58-1.67s.89-.64,1.51-.64,1.07.21,1.43.62.53.98.53,1.67v.11ZM244.39,14.23h2.26c-.02-.35-.13-.63-.32-.82s-.44-.29-.76-.29-.58.1-.78.29c-.2.19-.34.47-.4.82ZM246.56,10l-1.1,1.46h-.55l.66-1.46h.99Z"/><rect class="cls-5" x="138.19" y="26.99" width="26.26" height="16.09"/><path class="cls-7" d="M173.44,38.1v-6.83h2.16c.65,0,1.17.18,1.56.53.39.35.58.82.58,1.42,0,.4-.1.75-.3,1.05-.2.31-.47.53-.82.67-.34.14-.84.21-1.48.21h-.72v2.96h-.98ZM175.43,32.13h-1.01v2.13h1.07c.4,0,.7-.09.92-.28s.32-.46.32-.8c0-.7-.43-1.05-1.3-1.05Z"/><path class="cls-7" d="M181.29,35.4v1.91c0,.15.05.23.16.23s.28-.08.5-.24v.54c-.2.13-.36.22-.49.27s-.25.07-.38.07c-.38,0-.61-.15-.67-.45-.38.29-.78.44-1.21.44-.31,0-.57-.1-.78-.31-.21-.21-.31-.47-.31-.78,0-.28.1-.54.31-.76.2-.22.49-.4.87-.53l1.14-.39v-.24c0-.54-.27-.81-.81-.81-.48,0-.96.25-1.42.75v-.97c.35-.41.84-.61,1.49-.61.49,0,.87.13,1.17.38.1.08.19.19.26.32s.13.27.15.41c.02.14.03.39.03.77ZM180.42,37.21v-1.33l-.6.23c-.3.12-.52.24-.64.36-.13.12-.19.27-.19.46s.06.34.18.45c.12.12.27.18.46.18.28,0,.55-.12.79-.35Z"/><path class="cls-7" d="M185.1,33.6h1l-3.18,6.78h-.99l1.53-3.25-1.74-3.53h1.01l1.21,2.54,1.16-2.54Z"/><path class="cls-7" d="M186.5,37.77v-.96c.25.18.51.32.77.43.26.11.48.16.66.16s.35-.05.48-.14c.13-.09.2-.2.2-.33s-.04-.24-.13-.32c-.09-.09-.27-.21-.56-.37-.57-.32-.95-.59-1.12-.82-.18-.23-.27-.47-.27-.74,0-.35.13-.63.4-.84s.61-.33,1.04-.33.89.12,1.35.37v.88c-.53-.32-.96-.48-1.29-.48-.17,0-.31.04-.42.11-.11.07-.16.17-.16.29,0,.1.05.2.14.3.1.09.26.21.51.34l.32.18c.75.42,1.12.89,1.12,1.41,0,.37-.14.67-.43.91s-.66.35-1.11.35c-.27,0-.5-.03-.71-.09-.21-.06-.47-.16-.79-.31Z"/><path class="cls-7" d="M193.12,37.77v-.96c.25.18.51.32.77.43.26.11.48.16.66.16s.35-.05.48-.14c.13-.09.2-.2.2-.33s-.04-.24-.13-.32c-.09-.09-.27-.21-.56-.37-.57-.32-.95-.59-1.12-.82-.18-.23-.27-.47-.27-.74,0-.35.13-.63.4-.84s.61-.33,1.04-.33.89.12,1.35.37v.88c-.53-.32-.96-.48-1.29-.48-.17,0-.31.04-.42.11-.11.07-.16.17-.16.29,0,.1.05.2.14.3.1.09.26.21.51.34l.32.18c.75.42,1.12.89,1.12,1.41,0,.37-.14.67-.43.91s-.66.35-1.11.35c-.27,0-.5-.03-.71-.09-.21-.06-.47-.16-.79-.31Z"/><path class="cls-7" d="M200.05,38.1v-.58c-.19.21-.4.37-.65.48-.24.11-.48.17-.73.17-.28,0-.54-.07-.78-.21s-.42-.33-.54-.58-.18-.65-.18-1.21v-2.57h.89v2.56c0,.47.07.8.2.99.13.19.37.28.71.28.42,0,.78-.21,1.08-.62v-3.21h.89v4.49h-.89Z"/><path class="cls-7" d="M201.97,37.77v-.96c.25.18.51.32.77.43.26.11.48.16.66.16s.35-.05.48-.14c.13-.09.2-.2.2-.33s-.04-.24-.13-.32c-.09-.09-.27-.21-.56-.37-.57-.32-.95-.59-1.12-.82-.18-.23-.27-.47-.27-.74,0-.35.13-.63.4-.84s.61-.33,1.04-.33.89.12,1.35.37v.88c-.53-.32-.96-.48-1.29-.48-.17,0-.31.04-.42.11-.11.07-.16.17-.16.29,0,.1.05.2.14.3.1.09.26.21.51.34l.32.18c.75.42,1.12.89,1.12,1.41,0,.37-.14.67-.43.91s-.66.35-1.11.35c-.27,0-.5-.03-.71-.09-.21-.06-.47-.16-.79-.31Z"/><path class="cls-7" d="M205.98,40.39v-6.78h1.56c.8,0,1.42.2,1.86.6.44.4.67.95.67,1.67,0,.67-.21,1.23-.63,1.66-.42.43-.95.65-1.6.65-.29,0-.6-.06-.95-.19v2.4h-.91ZM207.52,34.43h-.63v2.76c.27.14.56.21.86.21.42,0,.76-.15,1.02-.43s.4-.66.4-1.12c0-.29-.06-.55-.19-.78s-.3-.39-.51-.49-.53-.15-.95-.15Z"/><path class="cls-7" d="M214.87,35.93h-3.16c.02.43.17.77.43,1.03.26.25.61.38,1.03.38.59,0,1.13-.18,1.62-.55v.87c-.27.18-.54.31-.81.39s-.58.12-.95.12c-.49,0-.89-.1-1.2-.31-.31-.21-.55-.48-.73-.83-.18-.35-.28-.75-.28-1.2,0-.68.19-1.24.58-1.67.39-.43.89-.64,1.51-.64s1.07.21,1.43.62c.36.42.53.98.53,1.67v.11ZM211.73,35.4h2.26c-.02-.35-.13-.63-.32-.82-.19-.19-.44-.29-.76-.29s-.58.1-.78.29c-.2.19-.34.47-.4.82Z"/><path class="cls-7" d="M216.72,33.6v.57c.4-.44.85-.66,1.35-.66.28,0,.54.07.78.22.24.15.42.34.55.6.12.25.19.65.19,1.2v2.57h-.89v-2.56c0-.46-.07-.79-.21-.98-.14-.2-.37-.3-.7-.3-.42,0-.78.21-1.07.63v3.21h-.91v-4.49h.91Z"/><path class="cls-7" d="M223.83,31.27h.89v6.82h-1.9c-.66,0-1.19-.21-1.59-.63s-.59-.98-.59-1.69c0-.66.21-1.2.62-1.63s.94-.64,1.59-.64c.3,0,.62.06.98.19v-2.42ZM223.83,37.33v-2.85c-.28-.14-.56-.21-.84-.21-.44,0-.79.15-1.06.43-.26.29-.39.68-.39,1.17,0,.46.11.82.34,1.07.14.15.28.25.43.3.15.05.43.08.83.08h.69Z"/><path class="cls-7" d="M228.79,38.1v-.58c-.19.21-.4.37-.65.48-.24.11-.48.17-.73.17-.28,0-.54-.07-.78-.21s-.42-.33-.54-.58-.18-.65-.18-1.21v-2.57h.89v2.56c0,.47.07.8.2.99.13.19.37.28.71.28.42,0,.78-.21,1.08-.62v-3.21h.89v4.49h-.89Z"/></g></svg>