<?xml version="1.0" encoding="UTF-8"?><svg id="Calque_2" xmlns="http://www.w3.org/2000/svg" viewBox="0 0 143.19 46.08"><defs><style>.cls-1{fill:#202b51;}.cls-2{fill:none;stroke:#010101;stroke-miterlimit:10;stroke-width:.75px;}.cls-3{fill:#fff;}</style></defs><g id="Légende"><rect class="cls-3" x="2.73" y="20.36" width="9.78" height="9.78" transform="translate(-15.62 12.78) rotate(-45)"/><path class="cls-1" d="M7.62,19.04l6.21,6.21-6.21,6.21-6.21-6.21,6.21-6.21M7.62,17.63L0,25.25l7.62,7.62,7.62-7.62-7.62-7.62h0Z"/><path class="cls-1" d="M10.88,24.65c-.36.12-1.07.74-1.23,1.37.13.04.27.03.4,0-.47.87-1.23,1.21-1.62,1.33-.15.05-.02,0-.02,0-.05.01-.11,0-.15-.03s-.07-.08-.07-.14v-.03s-.03-3.34-.03-3.34h.63c.06.13.19.22.34.22.21,0,.38-.17.38-.38s-.17-.38-.38-.38c-.15,0-.28.09-.34.22h-.63v-.71s0-.04,0-.04c0-.06.03-.12.08-.15,0,0,.03-.01.08-.05.17-.15.28-.36.28-.61,0-.44-.36-.8-.8-.8s-.8.36-.8.8c0,.24.11.46.28.61.05.04.08.05.08.05.05.03.08.09.08.15v.04s0,.71,0,.71h-.63c-.06-.13-.19-.22-.34-.22-.21,0-.38.17-.38.38s.17.38.38.38c.15,0,.28-.09.34-.22h.63l-.03,3.34v.03c0,.05-.03.11-.07.14s-.1.05-.15.03c0,0,.12.04-.02,0-.39-.12-1.15-.46-1.62-1.33.13.02.27.03.4,0-.15-.63-.86-1.25-1.23-1.37-.36.41-.44,1.24-.18,1.84.15-.06.27-.17.37-.29.16.39.81,1.72,2.6,2.26.09.03.2.08.29.11.09-.03.2-.09.29-.11,1.8-.54,2.45-1.87,2.61-2.26.1.12.22.23.37.29.26-.6.18-1.43-.18-1.84ZM5.08,25.94s.03-.05.03-.05c0,0,0,0,.03.01l-.05.04ZM7.8,22.34c-.22,0-.39-.18-.39-.39s.18-.39.39-.39.39.18.39.39-.18.39-.39.39ZM10.46,25.9s.03-.01.03-.01c0,0,0,.02.03.05l-.05-.04Z"/><rect class="cls-3" x="2.73" y="2.73" width="9.78" height="9.78" transform="translate(-3.16 7.62) rotate(-45)"/><path class="cls-1" d="M7.62,1.41l6.21,6.21-6.21,6.21L1.41,7.62,7.62,1.41M7.62,0L0,7.62l7.62,7.62,7.62-7.62L7.62,0h0Z"/><path class="cls-1" d="M7.24,4.52l-.18,1.48-.18.55v.28s-1.7,1.35-1.7,1.35v-.46c0-.13-.03-.25-.07-.25s-.07.11-.07.25v1.32s.14,0,.14,0v-.18s1.89,0,1.89,0v.55s-.92.77-.92.77v.4s.13.12.13.12h.8s0-.1,0-.1h.18s0-.55,0-.55h.03s.1.74.1.74h.49s.09-.74.09-.74h.03s0,.55,0,.55h.18s0,.09,0,.09h.8s.12-.13.12-.13v-.4s-.93-.77-.93-.77v-.55s1.89,0,1.89,0v.18s.14,0,.14,0v-1.32c0-.13-.04-.25-.08-.25s-.07.11-.07.25v.46s-1.71-1.34-1.71-1.34v-.28s-.19-.55-.19-.55l-.19-1.48c-.25-1.11-.31-1.11-.37-1.11s-.12,0-.36,1.11Z"/><circle class="cls-2" cx="7.62" cy="40.73" r="3.7"/><path class="cls-1" d="M7.62,43.43c-1.49,0-2.7-1.21-2.7-2.7s1.21-2.7,2.7-2.7,2.7,1.21,2.7,2.7-1.21,2.7-2.7,2.7Z"/><path class="cls-3" d="M7.62,39.02c.94,0,1.7.76,1.7,1.7s-.76,1.7-1.7,1.7-1.7-.76-1.7-1.7.76-1.7,1.7-1.7M7.62,37.02c-2.05,0-3.7,1.66-3.7,3.7s1.66,3.7,3.7,3.7,3.7-1.66,3.7-3.7-1.66-3.7-3.7-3.7h0Z"/><path class="cls-3" d="M22.96,10.68h-2.31V3.86h1.79c.56,0,1,.08,1.32.23s.56.36.72.62.25.57.25.92c0,.67-.35,1.15-1.04,1.44.5.09.89.3,1.19.62s.44.69.44,1.13c0,.35-.09.66-.27.93s-.44.5-.79.67-.78.26-1.3.26ZM22.47,4.73h-.84v2.05h.65c.52,0,.89-.1,1.11-.3s.33-.46.33-.77c0-.65-.42-.98-1.25-.98ZM22.54,7.65h-.91v2.16h.96c.53,0,.9-.04,1.09-.12s.34-.21.46-.39.17-.36.17-.57-.06-.4-.18-.57-.3-.3-.52-.39-.58-.13-1.06-.13Z"/><path class="cls-3" d="M28.98,7.98v1.91c0,.15.05.23.16.23s.27-.08.5-.24v.54c-.2.13-.36.22-.49.27s-.25.07-.38.07c-.38,0-.61-.15-.67-.45-.38.29-.78.44-1.21.44-.31,0-.57-.1-.78-.31s-.31-.47-.31-.78c0-.28.1-.54.31-.76s.49-.4.87-.53l1.14-.39v-.24c0-.54-.27-.81-.81-.81-.48,0-.96.25-1.42.75v-.97c.35-.41.84-.61,1.49-.61.48,0,.87.13,1.17.38.1.08.19.19.26.32s.13.27.15.41.03.39.03.77ZM28.11,9.8v-1.33l-.6.23c-.3.12-.52.24-.64.36s-.19.27-.19.46.06.34.18.45.27.18.46.18c.28,0,.55-.12.79-.35Z"/><path class="cls-3" d="M30.21,10.36v-.96c.25.18.51.32.77.43s.48.16.66.16.35-.05.48-.14.2-.2.2-.33-.04-.24-.13-.32-.27-.21-.56-.37c-.57-.32-.95-.59-1.13-.82s-.27-.47-.27-.74c0-.35.13-.63.4-.84s.61-.33,1.04-.33.89.12,1.35.37v.88c-.53-.32-.96-.48-1.29-.48-.17,0-.31.04-.42.11s-.16.17-.16.29c0,.1.05.2.14.3.1.09.26.21.51.34l.32.18c.75.42,1.12.89,1.12,1.41,0,.37-.14.67-.43.91s-.66.35-1.11.35c-.27,0-.5-.03-.71-.09s-.47-.16-.79-.31Z"/><path class="cls-3" d="M38.1,8.52h-3.16c.02.43.17.77.43,1.03s.61.38,1.03.38c.59,0,1.13-.18,1.62-.55v.87c-.27.18-.54.31-.81.39s-.58.12-.94.12c-.49,0-.9-.1-1.2-.31s-.55-.48-.73-.83-.28-.75-.28-1.2c0-.68.19-1.24.58-1.67s.89-.64,1.51-.64,1.07.21,1.43.62.53.98.53,1.67v.11ZM34.96,7.98h2.26c-.02-.35-.13-.63-.32-.82s-.44-.29-.76-.29-.58.1-.78.29-.34.47-.4.82Z"/><path class="cls-3" d="M44.66,7.98v1.91c0,.15.05.23.16.23s.27-.08.5-.24v.54c-.2.13-.36.22-.49.27s-.25.07-.38.07c-.38,0-.61-.15-.67-.45-.38.29-.78.44-1.21.44-.31,0-.57-.1-.78-.31s-.31-.47-.31-.78c0-.28.1-.54.31-.76s.49-.4.87-.53l1.14-.39v-.24c0-.54-.27-.81-.81-.81-.48,0-.96.25-1.42.75v-.97c.35-.41.84-.61,1.49-.61.48,0,.87.13,1.17.38.1.08.19.19.26.32s.13.27.15.41.03.39.03.77ZM43.79,9.8v-1.33l-.6.23c-.3.12-.52.24-.64.36s-.19.27-.19.46.06.34.18.45.27.18.46.18c.28,0,.55-.12.79-.35Z"/><path class="cls-3" d="M49.94,8.52h-3.16c.02.43.17.77.43,1.03s.61.38,1.03.38c.59,0,1.13-.18,1.62-.55v.87c-.27.18-.54.31-.81.39s-.58.12-.94.12c-.49,0-.9-.1-1.2-.31s-.55-.48-.73-.83-.28-.75-.28-1.2c0-.68.19-1.24.58-1.67s.89-.64,1.51-.64,1.07.21,1.43.62.53.98.53,1.67v.11ZM46.8,7.98h2.26c-.02-.35-.13-.63-.32-.82s-.44-.29-.76-.29-.58.1-.78.29-.34.47-.4.82ZM48.97,3.76l-1.1,1.46h-.55l.66-1.46h.99Z"/><path class="cls-3" d="M51.85,6.19v1.03l.05-.08c.43-.69.86-1.04,1.29-1.04.34,0,.69.17,1.05.51l-.47.78c-.31-.29-.6-.44-.86-.44-.29,0-.53.14-.74.41s-.31.6-.31.97v2.35h-.89v-4.49h.89Z"/><path class="cls-3" d="M55.32,4.3c.15,0,.27.05.38.15s.16.22.16.37-.05.27-.16.37-.23.16-.38.16c-.14,0-.26-.05-.36-.16s-.16-.23-.16-.37.05-.26.16-.36.22-.16.36-.16ZM54.88,6.19h.89v4.49h-.89v-4.49Z"/><path class="cls-3" d="M60.88,8.52h-3.16c.02.43.17.77.43,1.03s.61.38,1.03.38c.59,0,1.13-.18,1.62-.55v.87c-.27.18-.54.31-.81.39s-.58.12-.94.12c-.49,0-.9-.1-1.2-.31s-.55-.48-.73-.83-.28-.75-.28-1.2c0-.68.19-1.24.58-1.67s.89-.64,1.51-.64,1.07.21,1.43.62.53.98.53,1.67v.11ZM57.74,7.98h2.26c-.02-.35-.13-.63-.32-.82s-.44-.29-.76-.29-.58.1-.78.29-.34.47-.4.82Z"/><path class="cls-3" d="M62.73,6.19v.57c.4-.44.85-.66,1.35-.66.28,0,.54.07.78.22s.42.34.55.6.19.65.19,1.2v2.57h-.89v-2.56c0-.46-.07-.79-.21-.98s-.37-.3-.7-.3c-.42,0-.78.21-1.07.63v3.21h-.91v-4.49h.91Z"/><path class="cls-3" d="M67.73,6.19v.57c.4-.44.85-.66,1.35-.66.28,0,.54.07.78.22s.42.34.55.6.19.65.19,1.2v2.57h-.89v-2.56c0-.46-.07-.79-.21-.98s-.37-.3-.7-.3c-.42,0-.78.21-1.07.63v3.21h-.91v-4.49h.91Z"/><path class="cls-3" d="M75.67,8.52h-3.16c.02.43.17.77.43,1.03s.61.38,1.03.38c.59,0,1.13-.18,1.62-.55v.87c-.27.18-.54.31-.81.39s-.58.12-.94.12c-.49,0-.9-.1-1.2-.31s-.55-.48-.73-.83-.28-.75-.28-1.2c0-.68.19-1.24.58-1.67s.89-.64,1.51-.64,1.07.21,1.43.62.53.98.53,1.67v.11ZM72.53,7.98h2.26c-.02-.35-.13-.63-.32-.82s-.44-.29-.76-.29-.58.1-.78.29-.34.47-.4.82Z"/><path class="cls-3" d="M22.96,28.31h-2.31v-6.82h1.79c.56,0,1,.08,1.32.23s.56.36.72.62.25.57.25.92c0,.67-.35,1.15-1.04,1.44.5.09.89.3,1.19.62.29.32.44.69.44,1.13,0,.35-.09.66-.27.93s-.44.5-.79.67c-.35.17-.78.26-1.3.26ZM22.47,22.36h-.84v2.05h.65c.52,0,.89-.1,1.11-.3.22-.2.33-.46.33-.77,0-.65-.42-.98-1.25-.98ZM22.54,25.28h-.91v2.16h.96c.53,0,.9-.04,1.09-.12.19-.08.34-.21.46-.39.12-.18.17-.36.17-.57s-.06-.4-.18-.57c-.12-.17-.3-.3-.52-.39s-.58-.13-1.06-.13Z"/><path class="cls-3" d="M28.98,25.61v1.91c0,.15.05.23.16.23s.28-.08.5-.24v.54c-.2.13-.36.22-.49.27-.12.05-.25.07-.38.07-.38,0-.61-.15-.67-.45-.38.29-.78.44-1.21.44-.31,0-.57-.1-.78-.31s-.31-.47-.31-.78c0-.28.1-.54.31-.76.2-.22.49-.4.87-.53l1.14-.39v-.24c0-.54-.27-.81-.81-.81-.49,0-.96.25-1.42.75v-.97c.34-.41.84-.61,1.49-.61.49,0,.87.13,1.17.38.1.08.19.19.26.32s.13.27.15.41c.02.14.03.39.03.77ZM28.11,27.42v-1.33l-.6.23c-.3.12-.52.24-.64.36-.12.12-.19.27-.19.46s.06.34.18.45c.12.12.27.18.46.18.28,0,.54-.12.79-.35Z"/><path class="cls-3" d="M30.21,27.99v-.96c.25.18.51.32.77.43.26.11.48.16.66.16s.34-.05.48-.14.2-.2.2-.33-.04-.24-.13-.32c-.09-.09-.27-.21-.56-.37-.57-.32-.95-.59-1.13-.82-.18-.23-.27-.47-.27-.74,0-.35.13-.63.4-.84.27-.22.62-.33,1.04-.33s.89.12,1.35.37v.88c-.53-.32-.96-.48-1.29-.48-.17,0-.31.04-.42.11-.11.07-.16.17-.16.29,0,.1.05.2.14.3.1.09.26.21.51.34l.32.18c.75.42,1.12.89,1.12,1.41,0,.37-.14.67-.43.91-.29.24-.66.35-1.11.35-.27,0-.5-.03-.71-.09s-.47-.16-.79-.31Z"/><path class="cls-3" d="M38.1,26.14h-3.16c.02.43.17.77.43,1.03.27.25.61.38,1.03.38.59,0,1.13-.18,1.62-.55v.87c-.27.18-.54.31-.81.39-.27.08-.58.12-.94.12-.5,0-.9-.1-1.2-.31s-.55-.48-.74-.83c-.18-.35-.28-.75-.28-1.2,0-.68.19-1.24.58-1.67s.89-.64,1.51-.64,1.07.21,1.43.62.53.98.53,1.67v.11ZM34.96,25.61h2.26c-.02-.35-.13-.63-.32-.82s-.44-.29-.76-.29-.58.1-.78.29c-.2.19-.34.47-.4.82Z"/><path class="cls-3" d="M42.73,23.82v.57c.4-.44.85-.66,1.35-.66.28,0,.54.07.78.22s.42.34.55.6c.13.25.19.65.19,1.2v2.57h-.89v-2.56c0-.46-.07-.79-.21-.98s-.37-.3-.7-.3c-.42,0-.78.21-1.07.63v3.21h-.91v-4.49h.91Z"/><path class="cls-3" d="M49.66,25.61v1.91c0,.15.05.23.16.23s.28-.08.5-.24v.54c-.2.13-.36.22-.49.27-.12.05-.25.07-.38.07-.38,0-.61-.15-.67-.45-.38.29-.78.44-1.21.44-.31,0-.57-.1-.78-.31s-.31-.47-.31-.78c0-.28.1-.54.31-.76.2-.22.49-.4.87-.53l1.14-.39v-.24c0-.54-.27-.81-.81-.81-.49,0-.96.25-1.42.75v-.97c.34-.41.84-.61,1.49-.61.49,0,.87.13,1.17.38.1.08.19.19.26.32s.13.27.15.41c.02.14.03.39.03.77ZM48.79,27.42v-1.33l-.6.23c-.3.12-.52.24-.64.36-.12.12-.19.27-.19.46s.06.34.18.45c.12.12.27.18.46.18.28,0,.54-.12.79-.35Z"/><path class="cls-3" d="M53.51,23.82h.96l-1.98,4.57h-.3l-2.03-4.57h.97l1.21,2.76,1.17-2.76Z"/><path class="cls-3" d="M57.96,25.61v1.91c0,.15.05.23.16.23s.28-.08.5-.24v.54c-.2.13-.36.22-.49.27-.12.05-.25.07-.38.07-.38,0-.61-.15-.67-.45-.38.29-.78.44-1.21.44-.31,0-.57-.1-.78-.31s-.31-.47-.31-.78c0-.28.1-.54.31-.76.2-.22.49-.4.87-.53l1.14-.39v-.24c0-.54-.27-.81-.81-.81-.49,0-.96.25-1.42.75v-.97c.34-.41.84-.61,1.49-.61.49,0,.87.13,1.17.38.1.08.19.19.26.32s.13.27.15.41c.02.14.03.39.03.77ZM57.09,27.42v-1.33l-.6.23c-.3.12-.52.24-.64.36-.12.12-.19.27-.19.46s.06.34.18.45c.12.12.27.18.46.18.28,0,.54-.12.79-.35Z"/><path class="cls-3" d="M59.43,21.49h.89v6.82h-.89v-6.82Z"/><path class="cls-3" d="M65.43,26.14h-3.16c.02.43.17.77.43,1.03.27.25.61.38,1.03.38.59,0,1.13-.18,1.62-.55v.87c-.27.18-.54.31-.81.39-.27.08-.58.12-.94.12-.5,0-.9-.1-1.2-.31s-.55-.48-.74-.83c-.18-.35-.28-.75-.28-1.2,0-.68.19-1.24.58-1.67s.89-.64,1.51-.64,1.07.21,1.43.62.53.98.53,1.67v.11ZM62.29,25.61h2.26c-.02-.35-.13-.63-.32-.82s-.44-.29-.76-.29-.58.1-.78.29c-.2.19-.34.47-.4.82Z"/><path class="cls-3" d="M26.53,42.21v1.07c-.72.39-1.54.59-2.48.59-.76,0-1.41-.15-1.94-.46s-.95-.73-1.26-1.26-.46-1.12-.46-1.74c0-.99.35-1.83,1.06-2.5s1.58-1.02,2.62-1.02c.72,0,1.51.19,2.39.56v1.05c-.8-.46-1.58-.68-2.34-.68s-1.43.25-1.95.74-.77,1.11-.77,1.85.25,1.36.76,1.85,1.16.72,1.95.72,1.63-.25,2.42-.76Z"/><path class="cls-3" d="M29.76,39.29c.68,0,1.25.22,1.7.66s.68,1,.68,1.66-.23,1.19-.69,1.61-1.04.64-1.73.64-1.24-.22-1.69-.65-.68-.98-.68-1.63.23-1.21.69-1.64,1.03-.66,1.72-.66ZM29.71,40.09c-.43,0-.78.14-1.05.42s-.41.64-.41,1.07.14.78.42,1.05.64.41,1.08.41.79-.14,1.07-.41.42-.63.42-1.06-.15-.78-.43-1.06-.65-.42-1.09-.42Z"/><path class="cls-3" d="M35.27,39.29c.68,0,1.25.22,1.7.66s.68,1,.68,1.66-.23,1.19-.69,1.61-1.04.64-1.73.64-1.24-.22-1.69-.65-.68-.98-.68-1.63.23-1.21.69-1.64,1.03-.66,1.72-.66ZM35.23,40.09c-.43,0-.78.14-1.05.42s-.41.64-.41,1.07.14.78.42,1.05.64.41,1.08.41.79-.14,1.07-.41.42-.63.42-1.06-.15-.78-.43-1.06-.65-.42-1.09-.42Z"/><path class="cls-3" d="M38.59,46.08v-6.78h1.56c.8,0,1.42.2,1.86.6.44.4.67.95.67,1.67,0,.67-.21,1.23-.63,1.66s-.95.65-1.6.65c-.29,0-.6-.06-.95-.19v2.4h-.91ZM40.12,40.13h-.63v2.76c.27.14.56.21.86.21.42,0,.76-.15,1.02-.43s.4-.66.4-1.12c0-.29-.06-.55-.19-.78s-.3-.39-.51-.49-.53-.15-.95-.15Z"/><path class="cls-3" d="M47.47,41.62h-3.16c.02.43.17.77.43,1.03s.61.38,1.03.38c.59,0,1.13-.18,1.62-.55v.87c-.27.18-.54.31-.81.39s-.58.12-.94.12c-.49,0-.9-.1-1.2-.31s-.55-.48-.73-.83-.28-.75-.28-1.2c0-.68.19-1.24.58-1.67s.89-.64,1.51-.64,1.07.21,1.43.62.53.98.53,1.67v.11ZM44.33,41.09h2.26c-.02-.35-.13-.63-.32-.82s-.44-.29-.76-.29-.58.1-.78.29-.34.47-.4.82Z"/><path class="cls-3" d="M49.39,39.3v1.03l.05-.08c.43-.69.86-1.04,1.29-1.04.34,0,.69.17,1.05.51l-.47.78c-.31-.29-.6-.44-.86-.44-.29,0-.53.14-.74.41s-.31.6-.31.97v2.35h-.89v-4.49h.89Z"/><path class="cls-3" d="M55.22,41.09v1.91c0,.15.05.23.16.23s.27-.08.5-.24v.54c-.2.13-.36.22-.49.27s-.25.07-.38.07c-.38,0-.61-.15-.67-.45-.38.29-.78.44-1.21.44-.31,0-.57-.1-.78-.31s-.31-.47-.31-.78c0-.28.1-.54.31-.76s.49-.4.87-.53l1.14-.39v-.24c0-.54-.27-.81-.81-.81-.48,0-.96.25-1.42.75v-.97c.35-.41.84-.61,1.49-.61.48,0,.87.13,1.17.38.1.08.19.19.26.32s.13.27.15.41.03.39.03.77ZM54.34,42.9v-1.33l-.6.23c-.3.12-.52.24-.64.36s-.19.27-.19.46.06.34.18.45.27.18.46.18c.28,0,.55-.12.79-.35Z"/><path class="cls-3" d="M56.03,40.01l1.67-1.64v.93h1.42v.8h-1.42v2.2c0,.51.21.77.64.77.32,0,.66-.11,1.01-.32v.83c-.34.19-.71.29-1.12.29s-.75-.12-1.02-.36c-.08-.07-.15-.15-.21-.24s-.1-.21-.14-.35-.06-.42-.06-.83v-1.99h-.78v-.09Z"/><path class="cls-3" d="M60.45,37.41c.15,0,.27.05.38.15s.16.22.16.37-.05.27-.16.37-.23.16-.38.16c-.14,0-.26-.05-.36-.16s-.16-.23-.16-.37.05-.26.16-.36.22-.16.36-.16ZM60.01,39.3h.89v4.49h-.89v-4.49Z"/><path class="cls-3" d="M64.94,39.3h.96l-1.98,4.57h-.3l-2.03-4.57h.97l1.21,2.76,1.17-2.76Z"/><path class="cls-3" d="M70.19,41.62h-3.16c.02.43.17.77.43,1.03s.61.38,1.03.38c.59,0,1.13-.18,1.62-.55v.87c-.27.18-.54.31-.81.39s-.58.12-.94.12c-.49,0-.9-.1-1.2-.31s-.55-.48-.73-.83-.28-.75-.28-1.2c0-.68.19-1.24.58-1.67s.89-.64,1.51-.64,1.07.21,1.43.62.53.98.53,1.67v.11ZM67.05,41.09h2.26c-.02-.35-.13-.63-.32-.82s-.44-.29-.76-.29-.58.1-.78.29-.34.47-.4.82Z"/><path class="cls-3" d="M75.74,40.93l-.74-.45c-.47-.28-.8-.56-.99-.84s-.3-.59-.3-.95c0-.54.19-.97.56-1.31s.86-.5,1.45-.5,1.09.16,1.57.48v1.11c-.49-.47-1.02-.71-1.59-.71-.32,0-.58.07-.79.22s-.31.34-.31.57c0,.2.08.4.23.57s.39.37.73.56l.75.44c.83.5,1.25,1.13,1.25,1.9,0,.55-.18.99-.55,1.33s-.84.51-1.43.51c-.67,0-1.29-.21-1.84-.62v-1.24c.53.67,1.14,1,1.83,1,.31,0,.56-.08.76-.26s.31-.38.31-.64c0-.42-.3-.81-.9-1.18Z"/><path class="cls-3" d="M82.34,41.62h-3.16c.02.43.17.77.43,1.03s.61.38,1.03.38c.59,0,1.13-.18,1.62-.55v.87c-.27.18-.54.31-.81.39s-.58.12-.94.12c-.49,0-.9-.1-1.2-.31s-.55-.48-.73-.83-.28-.75-.28-1.2c0-.68.19-1.24.58-1.67s.89-.64,1.51-.64,1.07.21,1.43.62.53.98.53,1.67v.11ZM79.2,41.09h2.26c-.02-.35-.13-.63-.32-.82s-.44-.29-.76-.29-.58.1-.78.29-.34.47-.4.82Z"/><path class="cls-3" d="M86.67,42.74v.88c-.45.17-.88.25-1.31.25-.7,0-1.26-.21-1.68-.62s-.63-.98-.63-1.67.2-1.28.61-1.71.94-.65,1.61-.65c.23,0,.44.02.62.07s.41.13.68.25v.95c-.45-.29-.87-.43-1.25-.43s-.73.14-.99.42-.39.64-.39,1.08c0,.46.14.82.42,1.09s.65.41,1.13.41c.34,0,.73-.1,1.18-.3Z"/><path class="cls-3" d="M90.54,43.79v-.58c-.19.21-.4.37-.65.48s-.48.17-.73.17c-.28,0-.54-.07-.78-.21s-.42-.33-.54-.58-.18-.65-.18-1.21v-2.57h.89v2.56c0,.47.07.8.2.99s.37.28.71.28c.42,0,.78-.21,1.08-.62v-3.21h.89v4.49h-.89Z"/><path class="cls-3" d="M93.63,39.3v1.03l.05-.08c.43-.69.86-1.04,1.29-1.04.34,0,.69.17,1.05.51l-.47.78c-.31-.29-.6-.44-.86-.44-.29,0-.53.14-.74.41s-.31.6-.31.97v2.35h-.89v-4.49h.89Z"/><path class="cls-3" d="M97.1,37.41c.15,0,.27.05.38.15s.16.22.16.37-.05.27-.16.37-.23.16-.38.16c-.14,0-.26-.05-.36-.16s-.16-.23-.16-.37.05-.26.16-.36.22-.16.36-.16ZM96.66,39.3h.89v4.49h-.89v-4.49Z"/><path class="cls-3" d="M98.2,40.01l1.67-1.64v.93h1.42v.8h-1.42v2.2c0,.51.21.77.64.77.32,0,.66-.11,1.01-.32v.83c-.34.19-.71.29-1.12.29s-.75-.12-1.02-.36c-.08-.07-.15-.15-.21-.24s-.1-.21-.14-.35-.06-.42-.06-.83v-1.99h-.78v-.09Z"/><path class="cls-3" d="M104.92,39.3h1l-3.18,6.78h-.99l1.52-3.25-1.73-3.53h1.01l1.21,2.54,1.16-2.54Z"/><path class="cls-3" d="M109.44,36.97h.98v5.93h3.07v.89h-4.05v-6.82Z"/><path class="cls-3" d="M116.37,39.29c.68,0,1.25.22,1.7.66s.68,1,.68,1.66-.23,1.19-.69,1.61-1.04.64-1.73.64-1.24-.22-1.69-.65-.68-.98-.68-1.63.23-1.21.69-1.64,1.03-.66,1.72-.66ZM116.32,40.09c-.43,0-.78.14-1.05.42s-.41.64-.41,1.07.14.78.42,1.05.64.41,1.08.41.79-.14,1.07-.41.42-.63.42-1.06-.15-.78-.43-1.06-.65-.42-1.09-.42Z"/><path class="cls-3" d="M123.11,42.74v.88c-.45.17-.88.25-1.31.25-.7,0-1.26-.21-1.68-.62s-.63-.98-.63-1.67.2-1.28.61-1.71.94-.65,1.61-.65c.23,0,.44.02.62.07s.41.13.68.25v.95c-.45-.29-.87-.43-1.25-.43s-.73.14-.99.42-.39.64-.39,1.08c0,.46.14.82.42,1.09s.65.41,1.13.41c.34,0,.73-.1,1.18-.3Z"/><path class="cls-3" d="M126.94,41.09v1.91c0,.15.05.23.16.23s.27-.08.5-.24v.54c-.2.13-.36.22-.49.27s-.25.07-.38.07c-.38,0-.61-.15-.67-.45-.38.29-.78.44-1.21.44-.31,0-.57-.1-.78-.31s-.31-.47-.31-.78c0-.28.1-.54.31-.76s.49-.4.87-.53l1.14-.39v-.24c0-.54-.27-.81-.81-.81-.48,0-.96.25-1.42.75v-.97c.35-.41.84-.61,1.49-.61.48,0,.87.13,1.17.38.1.08.19.19.26.32s.13.27.15.41.03.39.03.77ZM126.07,42.9v-1.33l-.6.23c-.3.12-.52.24-.64.36s-.19.27-.19.46.06.34.18.45.27.18.46.18c.28,0,.55-.12.79-.35Z"/><path class="cls-3" d="M127.76,40.01l1.67-1.64v.93h1.42v.8h-1.42v2.2c0,.51.21.77.64.77.32,0,.66-.11,1.01-.32v.83c-.34.19-.71.29-1.12.29s-.75-.12-1.02-.36c-.08-.07-.15-.15-.21-.24s-.1-.21-.14-.35-.06-.42-.06-.83v-1.99h-.78v-.09Z"/><path class="cls-3" d="M132.18,37.41c.15,0,.27.05.38.15s.16.22.16.37-.05.27-.16.37-.23.16-.38.16c-.14,0-.26-.05-.36-.16s-.16-.23-.16-.37.05-.26.16-.36.22-.16.36-.16ZM131.74,39.3h.89v4.49h-.89v-4.49Z"/><path class="cls-3" d="M136.06,39.29c.68,0,1.25.22,1.7.66s.68,1,.68,1.66-.23,1.19-.69,1.61-1.04.64-1.73.64-1.24-.22-1.69-.65-.68-.98-.68-1.63.23-1.21.69-1.64,1.03-.66,1.72-.66ZM136.01,40.09c-.43,0-.78.14-1.05.42s-.41.64-.41,1.07.14.78.42,1.05.64.41,1.08.41.79-.14,1.07-.41.42-.63.42-1.06-.15-.78-.43-1.06-.65-.42-1.09-.42Z"/><path class="cls-3" d="M140.32,39.3v.57c.4-.44.85-.66,1.35-.66.28,0,.54.07.78.22s.42.34.55.6.19.65.19,1.2v2.57h-.89v-2.56c0-.46-.07-.79-.21-.98s-.37-.3-.7-.3c-.42,0-.78.21-1.07.63v3.21h-.91v-4.49h.91Z"/></g></svg>