<?xml version="1.0" encoding="UTF-8"?><svg id="Calque_2" xmlns="http://www.w3.org/2000/svg" viewBox="0 0 281.07 19.22"><defs><style>.cls-1{fill:#fff;}.cls-2{fill:#e5bebe;stroke:#fff;stroke-width:.7px;}.cls-2,.cls-3{stroke-linecap:square;stroke-linejoin:bevel;}.cls-3{fill:#832222;stroke:#232323;stroke-width:.26px;}</style></defs><g id="Légende"><rect class="cls-3" x=".13" y=".82" width="26.26" height="16.09"/><rect class="cls-2" x="136.3" y=".82" width="26.26" height="16.09"/><path class="cls-1" d="M35.48,6.93V.1h2.16c.65,0,1.17.18,1.56.53s.58.82.58,1.42c0,.4-.1.75-.3,1.05s-.47.53-.82.67-.84.21-1.48.21h-.72v2.96h-.98ZM37.47.97h-1.01v2.13h1.07c.4,0,.7-.09.92-.28s.32-.46.32-.8c0-.7-.43-1.05-1.3-1.05Z"/><path class="cls-1" d="M43.33,4.23v1.91c0,.15.05.23.16.23s.27-.08.5-.24v.54c-.2.13-.36.22-.49.27s-.25.07-.38.07c-.38,0-.61-.15-.67-.45-.38.29-.78.44-1.21.44-.31,0-.57-.1-.78-.31s-.31-.47-.31-.78c0-.28.1-.54.31-.76s.49-.4.87-.53l1.14-.39v-.24c0-.54-.27-.81-.81-.81-.48,0-.96.25-1.42.75v-.97c.35-.41.84-.61,1.49-.61.48,0,.87.13,1.17.38.1.08.19.19.26.32s.13.27.15.41.03.39.03.77ZM42.45,6.04v-1.33l-.6.23c-.3.12-.52.24-.64.36s-.19.27-.19.46.06.34.18.45.27.18.46.18c.28,0,.55-.12.79-.35Z"/><path class="cls-1" d="M47.13,2.44h1l-3.18,6.78h-.99l1.52-3.25-1.73-3.53h1.01l1.21,2.54,1.16-2.54Z"/><path class="cls-1" d="M48.53,6.61v-.96c.25.18.51.32.77.43s.48.16.66.16.35-.05.48-.14.2-.2.2-.33-.04-.24-.13-.32-.27-.21-.56-.37c-.57-.32-.95-.59-1.13-.82s-.27-.47-.27-.74c0-.35.13-.63.4-.84s.61-.33,1.04-.33.89.12,1.35.37v.88c-.53-.32-.96-.48-1.29-.48-.17,0-.31.04-.42.11s-.16.17-.16.29c0,.1.05.2.14.3.1.09.26.21.51.34l.32.18c.75.42,1.12.89,1.12,1.41,0,.37-.14.67-.43.91s-.66.35-1.11.35c-.27,0-.5-.03-.71-.09s-.47-.16-.79-.31Z"/><path class="cls-1" d="M58.2,4.23v1.91c0,.15.05.23.16.23s.27-.08.5-.24v.54c-.2.13-.36.22-.49.27s-.25.07-.38.07c-.38,0-.61-.15-.67-.45-.38.29-.78.44-1.21.44-.31,0-.57-.1-.78-.31s-.31-.47-.31-.78c0-.28.1-.54.31-.76s.49-.4.87-.53l1.14-.39v-.24c0-.54-.27-.81-.81-.81-.48,0-.96.25-1.42.75v-.97c.35-.41.84-.61,1.49-.61.48,0,.87.13,1.17.38.1.08.19.19.26.32s.13.27.15.41.03.39.03.77ZM57.33,6.04v-1.33l-.6.23c-.3.12-.52.24-.64.36s-.19.27-.19.46.06.34.18.45.27.18.46.18c.28,0,.55-.12.79-.35Z"/><path class="cls-1" d="M62,2.44h1l-3.18,6.78h-.99l1.52-3.25-1.73-3.53h1.01l1.21,2.54,1.16-2.54Z"/><path class="cls-1" d="M66.45,4.23v1.91c0,.15.05.23.16.23s.27-.08.5-.24v.54c-.2.13-.36.22-.49.27s-.25.07-.38.07c-.38,0-.61-.15-.67-.45-.38.29-.78.44-1.21.44-.31,0-.57-.1-.78-.31s-.31-.47-.31-.78c0-.28.1-.54.31-.76s.49-.4.87-.53l1.14-.39v-.24c0-.54-.27-.81-.81-.81-.48,0-.96.25-1.42.75v-.97c.35-.41.84-.61,1.49-.61.48,0,.87.13,1.17.38.1.08.19.19.26.32s.13.27.15.41.03.39.03.77ZM65.58,6.04v-1.33l-.6.23c-.3.12-.52.24-.64.36s-.19.27-.19.46.06.34.18.45.27.18.46.18c.28,0,.55-.12.79-.35Z"/><path class="cls-1" d="M68.78,2.44v.57c.4-.44.85-.66,1.35-.66.28,0,.54.07.78.22s.42.34.55.6.19.65.19,1.2v2.57h-.89v-2.56c0-.46-.07-.79-.21-.98s-.37-.3-.7-.3c-.42,0-.78.21-1.07.63v3.21h-.91V2.44h.91Z"/><path class="cls-1" d="M72.26,3.15l1.67-1.64v.93h1.42v.8h-1.42v2.2c0,.51.21.77.64.77.32,0,.66-.11,1.01-.32v.83c-.34.19-.71.29-1.12.29s-.75-.12-1.02-.36c-.08-.07-.15-.15-.21-.24s-.1-.21-.14-.35-.06-.42-.06-.83v-1.99h-.78v-.09Z"/><path class="cls-1" d="M82,.11h.89v6.82h-1.9c-.66,0-1.19-.21-1.59-.63s-.59-.98-.59-1.69c0-.66.21-1.2.62-1.63s.94-.64,1.59-.64c.3,0,.62.06.98.19V.11ZM82,6.17v-2.85c-.28-.14-.56-.21-.84-.21-.44,0-.79.15-1.06.43s-.39.68-.39,1.17c0,.46.11.82.34,1.07.14.15.28.25.43.3s.43.08.83.08h.69Z"/><path class="cls-1" d="M87.93,4.76h-3.16c.02.43.17.77.43,1.03s.61.38,1.03.38c.59,0,1.13-.18,1.62-.55v.87c-.27.18-.54.31-.81.39s-.58.12-.94.12c-.49,0-.9-.1-1.2-.31s-.55-.48-.73-.83-.28-.75-.28-1.2c0-.68.19-1.24.58-1.67s.89-.64,1.51-.64,1.07.21,1.43.62.53.98.53,1.67v.11ZM84.79,4.23h2.26c-.02-.35-.13-.63-.32-.82s-.44-.29-.76-.29-.58.1-.78.29-.34.47-.4.82Z"/><path class="cls-1" d="M88.67,6.61v-.96c.25.18.51.32.77.43s.48.16.66.16.35-.05.48-.14.2-.2.2-.33-.04-.24-.13-.32-.27-.21-.56-.37c-.57-.32-.95-.59-1.13-.82s-.27-.47-.27-.74c0-.35.13-.63.4-.84s.61-.33,1.04-.33.89.12,1.35.37v.88c-.53-.32-.96-.48-1.29-.48-.17,0-.31.04-.42.11s-.16.17-.16.29c0,.1.05.2.14.3.1.09.26.21.51.34l.32.18c.75.42,1.12.89,1.12,1.41,0,.37-.14.67-.43.91s-.66.35-1.11.35c-.27,0-.5-.03-.71-.09s-.47-.16-.79-.31Z"/><path class="cls-1" d="M98.34,4.23v1.91c0,.15.05.23.16.23s.27-.08.5-.24v.54c-.2.13-.36.22-.49.27s-.25.07-.38.07c-.38,0-.61-.15-.67-.45-.38.29-.78.44-1.21.44-.31,0-.57-.1-.78-.31s-.31-.47-.31-.78c0-.28.1-.54.31-.76s.49-.4.87-.53l1.14-.39v-.24c0-.54-.27-.81-.81-.81-.48,0-.96.25-1.42.75v-.97c.35-.41.84-.61,1.49-.61.48,0,.87.13,1.17.38.1.08.19.19.26.32s.13.27.15.41.03.39.03.77ZM97.46,6.04v-1.33l-.6.23c-.3.12-.52.24-.64.36s-.19.27-.19.46.06.34.18.45.27.18.46.18c.28,0,.55-.12.79-.35Z"/><path class="cls-1" d="M103.15,5.88v.88c-.45.17-.88.25-1.31.25-.7,0-1.26-.21-1.68-.62s-.63-.98-.63-1.67.2-1.28.61-1.71.94-.65,1.61-.65c.23,0,.44.02.62.07s.41.13.68.25v.95c-.45-.29-.87-.43-1.25-.43s-.73.14-.99.42-.39.64-.39,1.08c0,.46.14.82.42,1.09s.65.41,1.13.41c.34,0,.73-.1,1.18-.3Z"/><path class="cls-1" d="M107.53,5.88v.88c-.45.17-.88.25-1.31.25-.7,0-1.26-.21-1.68-.62s-.63-.98-.63-1.67.2-1.28.61-1.71.94-.65,1.61-.65c.23,0,.44.02.62.07s.41.13.68.25v.95c-.45-.29-.87-.43-1.25-.43s-.73.14-.99.42-.39.64-.39,1.08c0,.46.14.82.42,1.09s.65.41,1.13.41c.34,0,.73-.1,1.18-.3Z"/><path class="cls-1" d="M110.69,2.43c.68,0,1.25.22,1.7.66s.68,1,.68,1.66-.23,1.19-.69,1.61-1.04.64-1.73.64-1.24-.22-1.69-.65-.68-.98-.68-1.63.23-1.21.69-1.64,1.03-.66,1.72-.66ZM110.64,3.23c-.43,0-.78.14-1.05.42s-.41.64-.41,1.07.14.78.42,1.05.64.41,1.08.41.79-.14,1.07-.41.42-.63.42-1.06-.15-.78-.43-1.06-.65-.42-1.09-.42Z"/><path class="cls-1" d="M115.01,2.44v1.03l.05-.08c.43-.69.86-1.04,1.29-1.04.34,0,.69.17,1.05.51l-.47.78c-.31-.29-.6-.44-.86-.44-.29,0-.53.14-.74.41s-.31.6-.31.97v2.35h-.89V2.44h.89Z"/><path class="cls-1" d="M120.87.11h.89v6.82h-1.9c-.66,0-1.19-.21-1.59-.63s-.59-.98-.59-1.69c0-.66.21-1.2.62-1.63s.94-.64,1.59-.64c.3,0,.62.06.98.19V.11ZM120.87,6.17v-2.85c-.28-.14-.56-.21-.84-.21-.44,0-.79.15-1.06.43s-.39.68-.39,1.17c0,.46.11.82.34,1.07.14.15.28.25.43.3s.43.08.83.08h.69Z"/><path class="cls-1" d="M122.75,6.61v-.96c.25.18.51.32.77.43s.48.16.66.16.35-.05.48-.14.2-.2.2-.33-.04-.24-.13-.32-.27-.21-.56-.37c-.57-.32-.95-.59-1.13-.82s-.27-.47-.27-.74c0-.35.13-.63.4-.84s.61-.33,1.04-.33.89.12,1.35.37v.88c-.53-.32-.96-.48-1.29-.48-.17,0-.31.04-.42.11s-.16.17-.16.29c0,.1.05.2.14.3.1.09.26.21.51.34l.32.18c.75.42,1.12.89,1.12,1.41,0,.37-.14.67-.43.91s-.66.35-1.11.35c-.27,0-.5-.03-.71-.09s-.47-.16-.79-.31Z"/><path class="cls-1" d="M39.09,13.67v3.26h-.89v-2.5c0-.5-.07-.85-.2-1.04s-.37-.3-.7-.3c-.19,0-.36.04-.51.13s-.33.23-.53.45v3.26h-.89v-4.49h.89v.59c.45-.45.9-.68,1.33-.68.57,0,1.01.27,1.32.81.48-.55.97-.82,1.49-.82.44,0,.79.16,1.08.48s.42.81.42,1.46v2.65h-.89v-2.66c0-.37-.08-.66-.23-.86s-.37-.3-.66-.3c-.37,0-.71.19-1.03.56Z"/><path class="cls-1" d="M43.58,10.55c.15,0,.27.05.38.15s.16.22.16.37-.05.27-.16.37-.23.16-.38.16c-.14,0-.26-.05-.36-.16s-.16-.23-.16-.37.05-.26.16-.36.22-.16.36-.16ZM43.14,12.44h.89v4.49h-.89v-4.49Z"/><path class="cls-1" d="M45.33,10.11h.89v6.82h-.89v-6.82Z"/><path class="cls-1" d="M47.96,10.55c.15,0,.27.05.38.15s.16.22.16.37-.05.27-.16.37-.23.16-.38.16c-.14,0-.26-.05-.36-.16s-.16-.23-.16-.37.05-.26.16-.36.22-.16.36-.16ZM47.52,12.44h.89v4.49h-.89v-4.49Z"/><path class="cls-1" d="M49.07,13.15l1.67-1.64v.93h1.42v.8h-1.42v2.2c0,.51.21.77.64.77.32,0,.66-.11,1.01-.32v.83c-.34.19-.71.29-1.12.29s-.75-.12-1.02-.36c-.08-.07-.15-.15-.21-.24s-.1-.21-.14-.35-.06-.42-.06-.83v-1.99h-.78v-.09Z"/><path class="cls-1" d="M55.85,14.23v1.91c0,.15.05.23.16.23s.27-.08.5-.24v.54c-.2.13-.36.22-.49.27s-.25.07-.38.07c-.38,0-.61-.15-.67-.45-.38.29-.78.44-1.21.44-.31,0-.57-.1-.78-.31s-.31-.47-.31-.78c0-.28.1-.54.31-.76s.49-.4.87-.53l1.14-.39v-.24c0-.54-.27-.81-.81-.81-.48,0-.96.25-1.42.75v-.97c.35-.41.84-.61,1.49-.61.48,0,.87.13,1.17.38.1.08.19.19.26.32s.13.27.15.41.03.39.03.77ZM54.97,16.04v-1.33l-.6.23c-.3.12-.52.24-.64.36s-.19.27-.19.46.06.34.18.45.27.18.46.18c.28,0,.55-.12.79-.35Z"/><path class="cls-1" d="M57.75,10.55c.15,0,.27.05.38.15s.16.22.16.37-.05.27-.16.37-.23.16-.38.16c-.14,0-.26-.05-.36-.16s-.16-.23-.16-.37.05-.26.16-.36.22-.16.36-.16ZM57.31,12.44h.89v4.49h-.89v-4.49Z"/><path class="cls-1" d="M60.44,12.44v1.03l.05-.08c.43-.69.86-1.04,1.29-1.04.34,0,.69.17,1.05.51l-.47.78c-.31-.29-.6-.44-.86-.44-.29,0-.53.14-.74.41s-.31.6-.31.97v2.35h-.89v-4.49h.89Z"/><path class="cls-1" d="M67.07,14.76h-3.16c.02.43.17.77.43,1.03s.61.38,1.03.38c.59,0,1.13-.18,1.62-.55v.87c-.27.18-.54.31-.81.39s-.58.12-.94.12c-.49,0-.9-.1-1.2-.31s-.55-.48-.73-.83-.28-.75-.28-1.2c0-.68.19-1.24.58-1.67s.89-.64,1.51-.64,1.07.21,1.43.62.53.98.53,1.67v.11ZM63.93,14.23h2.26c-.02-.35-.13-.63-.32-.82s-.44-.29-.76-.29-.58.1-.78.29-.34.47-.4.82Z"/><path class="cls-1" d="M67.82,16.61v-.96c.25.18.51.32.77.43s.48.16.66.16.35-.05.48-.14.2-.2.2-.33-.04-.24-.13-.32-.27-.21-.56-.37c-.57-.32-.95-.59-1.13-.82s-.27-.47-.27-.74c0-.35.13-.63.4-.84s.61-.33,1.04-.33.89.12,1.35.37v.88c-.53-.32-.96-.48-1.29-.48-.17,0-.31.04-.42.11s-.16.17-.16.29c0,.1.05.2.14.3.1.09.26.21.51.34l.32.18c.75.42,1.12.89,1.12,1.41,0,.37-.14.67-.43.91s-.66.35-1.11.35c-.27,0-.5-.03-.71-.09s-.47-.16-.79-.31Z"/><path class="cls-1" d="M77.48,14.23v1.91c0,.15.05.23.16.23s.27-.08.5-.24v.54c-.2.13-.36.22-.49.27s-.25.07-.38.07c-.38,0-.61-.15-.67-.45-.38.29-.78.44-1.21.44-.31,0-.57-.1-.78-.31s-.31-.47-.31-.78c0-.28.1-.54.31-.76s.49-.4.87-.53l1.14-.39v-.24c0-.54-.27-.81-.81-.81-.48,0-.96.25-1.42.75v-.97c.35-.41.84-.61,1.49-.61.48,0,.87.13,1.17.38.1.08.19.19.26.32s.13.27.15.41.03.39.03.77ZM76.61,16.04v-1.33l-.6.23c-.3.12-.52.24-.64.36s-.19.27-.19.46.06.34.18.45.27.18.46.18c.28,0,.55-.12.79-.35Z"/><path class="cls-1" d="M81.33,12.44h.96l-1.98,4.57h-.3l-2.03-4.57h.97l1.21,2.76,1.17-2.76Z"/><path class="cls-1" d="M86.59,14.76h-3.16c.02.43.17.77.43,1.03s.61.38,1.03.38c.59,0,1.13-.18,1.62-.55v.87c-.27.18-.54.31-.81.39s-.58.12-.94.12c-.49,0-.9-.1-1.2-.31s-.55-.48-.73-.83-.28-.75-.28-1.2c0-.68.19-1.24.58-1.67s.89-.64,1.51-.64,1.07.21,1.43.62.53.98.53,1.67v.11ZM83.45,14.23h2.26c-.02-.35-.13-.63-.32-.82s-.44-.29-.76-.29-.58.1-.78.29-.34.47-.4.82Z"/><path class="cls-1" d="M90.92,15.88v.88c-.45.17-.88.25-1.31.25-.7,0-1.26-.21-1.68-.62s-.63-.98-.63-1.67.2-1.28.61-1.71.94-.65,1.61-.65c.23,0,.44.02.62.07s.41.13.68.25v.95c-.45-.29-.87-.43-1.25-.43s-.73.14-.99.42-.39.64-.39,1.08c0,.46.14.82.42,1.09s.65.41,1.13.41c.34,0,.73-.1,1.18-.3Z"/><path class="cls-1" d="M94.73,10.11h.89v6.82h-.89v-6.82Z"/><path class="cls-1" d="M99.72,14.23v1.91c0,.15.05.23.16.23s.27-.08.5-.24v.54c-.2.13-.36.22-.49.27s-.25.07-.38.07c-.38,0-.61-.15-.67-.45-.38.29-.78.44-1.21.44-.31,0-.57-.1-.78-.31s-.31-.47-.31-.78c0-.28.1-.54.31-.76s.49-.4.87-.53l1.14-.39v-.24c0-.54-.27-.81-.81-.81-.48,0-.96.25-1.42.75v-.97c.35-.41.84-.61,1.49-.61.48,0,.87.13,1.17.38.1.08.19.19.26.32s.13.27.15.41.03.39.03.77ZM98.85,16.04v-1.33l-.6.23c-.3.12-.52.24-.64.36s-.19.27-.19.46.06.34.18.45.27.18.46.18c.28,0,.55-.12.79-.35Z"/><path class="cls-1" d="M104.1,16.93v-6.82h1.71c.69,0,1.24.17,1.64.51s.61.8.61,1.39c0,.4-.1.74-.3,1.03s-.48.51-.85.65c.22.14.43.34.64.59s.5.68.88,1.29c.24.39.43.68.57.87l.36.49h-1.16l-.3-.45s-.03-.04-.06-.08l-.19-.27-.3-.5-.33-.53c-.2-.28-.39-.5-.55-.67-.17-.17-.32-.29-.45-.36-.14-.07-.36-.11-.68-.11h-.25v2.97h-.98ZM105.37,10.94h-.29v2.15h.37c.49,0,.83-.04,1.02-.13s.33-.21.43-.38.15-.37.15-.58-.06-.41-.17-.58-.27-.3-.48-.37-.55-.11-1.03-.11Z"/><path class="cls-1" d="M112.85,16.93v-.58c-.19.21-.4.37-.65.48s-.48.17-.73.17c-.28,0-.54-.07-.78-.21s-.42-.33-.54-.58-.18-.65-.18-1.21v-2.57h.89v2.56c0,.47.07.8.2.99s.37.28.71.28c.42,0,.78-.21,1.08-.62v-3.21h.89v4.49h-.89Z"/><path class="cls-1" d="M114.76,16.61v-.96c.25.18.51.32.77.43s.48.16.66.16.35-.05.48-.14.2-.2.2-.33-.04-.24-.13-.32-.27-.21-.56-.37c-.57-.32-.95-.59-1.13-.82s-.27-.47-.27-.74c0-.35.13-.63.4-.84s.61-.33,1.04-.33.89.12,1.35.37v.88c-.53-.32-.96-.48-1.29-.48-.17,0-.31.04-.42.11s-.16.17-.16.29c0,.1.05.2.14.3.1.09.26.21.51.34l.32.18c.75.42,1.12.89,1.12,1.41,0,.37-.14.67-.43.91s-.66.35-1.11.35c-.27,0-.5-.03-.71-.09s-.47-.16-.79-.31Z"/><path class="cls-1" d="M118.61,16.61v-.96c.25.18.51.32.77.43s.48.16.66.16.35-.05.48-.14.2-.2.2-.33-.04-.24-.13-.32-.27-.21-.56-.37c-.57-.32-.95-.59-1.13-.82s-.27-.47-.27-.74c0-.35.13-.63.4-.84s.61-.33,1.04-.33.89.12,1.35.37v.88c-.53-.32-.96-.48-1.29-.48-.17,0-.31.04-.42.11s-.16.17-.16.29c0,.1.05.2.14.3.1.09.26.21.51.34l.32.18c.75.42,1.12.89,1.12,1.41,0,.37-.14.67-.43.91s-.66.35-1.11.35c-.27,0-.5-.03-.71-.09s-.47-.16-.79-.31Z"/><path class="cls-1" d="M123.14,10.55c.15,0,.27.05.38.15s.16.22.16.37-.05.27-.16.37-.23.16-.38.16c-.14,0-.26-.05-.36-.16s-.16-.23-.16-.37.05-.26.16-.36.22-.16.36-.16ZM122.7,12.44h.89v4.49h-.89v-4.49Z"/><path class="cls-1" d="M128.7,14.76h-3.16c.02.43.17.77.43,1.03s.61.38,1.03.38c.59,0,1.13-.18,1.62-.55v.87c-.27.18-.54.31-.81.39s-.58.12-.94.12c-.49,0-.9-.1-1.2-.31s-.55-.48-.73-.83-.28-.75-.28-1.2c0-.68.19-1.24.58-1.67s.89-.64,1.51-.64,1.07.21,1.43.62.53.98.53,1.67v.11ZM125.56,14.23h2.26c-.02-.35-.13-.63-.32-.82s-.44-.29-.76-.29-.58.1-.78.29-.34.47-.4.82Z"/><path class="cls-1" d="M171.75,6.93V.1h2.16c.65,0,1.17.18,1.56.53s.58.82.58,1.42c0,.4-.1.75-.3,1.05s-.47.53-.82.67-.84.21-1.48.21h-.72v2.96h-.98ZM173.74.97h-1.01v2.13h1.07c.4,0,.7-.09.92-.28s.32-.46.32-.8c0-.7-.43-1.05-1.3-1.05Z"/><path class="cls-1" d="M179.6,4.23v1.91c0,.15.05.23.16.23s.28-.08.5-.24v.54c-.2.13-.36.22-.49.27-.12.05-.25.07-.38.07-.38,0-.61-.15-.67-.45-.38.29-.78.44-1.21.44-.31,0-.57-.1-.78-.31s-.31-.47-.31-.78c0-.28.1-.54.31-.76.2-.22.49-.4.87-.53l1.14-.39v-.24c0-.54-.27-.81-.81-.81-.49,0-.96.25-1.42.75v-.97c.34-.41.84-.61,1.49-.61.49,0,.87.13,1.17.38.1.08.19.19.26.32s.13.27.15.41c.02.14.03.39.03.77ZM178.73,6.04v-1.33l-.6.23c-.3.12-.52.24-.64.36-.12.12-.19.27-.19.46s.06.34.18.45c.12.12.27.18.46.18.28,0,.54-.12.79-.35Z"/><path class="cls-1" d="M183.4,2.44h1l-3.18,6.78h-.99l1.52-3.25-1.73-3.53h1.01l1.21,2.54,1.16-2.54Z"/><path class="cls-1" d="M184.8,6.61v-.96c.25.18.51.32.77.43.26.11.48.16.66.16s.34-.05.48-.14.2-.2.2-.33-.04-.24-.13-.32c-.09-.09-.27-.21-.56-.37-.57-.32-.95-.59-1.13-.82-.18-.23-.27-.47-.27-.74,0-.35.13-.63.4-.84.27-.22.62-.33,1.04-.33s.89.12,1.35.37v.88c-.53-.32-.96-.48-1.29-.48-.17,0-.31.04-.42.11-.11.07-.16.17-.16.29,0,.1.05.2.14.3.1.09.26.21.51.34l.32.18c.75.42,1.12.89,1.12,1.41,0,.37-.14.67-.43.91-.29.24-.66.35-1.11.35-.27,0-.5-.03-.71-.09s-.47-.16-.79-.31Z"/><path class="cls-1" d="M194.47,4.23v1.91c0,.15.05.23.16.23s.28-.08.5-.24v.54c-.2.13-.36.22-.49.27-.12.05-.25.07-.38.07-.38,0-.61-.15-.67-.45-.38.29-.78.44-1.21.44-.31,0-.57-.1-.78-.31s-.31-.47-.31-.78c0-.28.1-.54.31-.76.2-.22.49-.4.87-.53l1.14-.39v-.24c0-.54-.27-.81-.81-.81-.49,0-.96.25-1.42.75v-.97c.34-.41.84-.61,1.49-.61.49,0,.87.13,1.17.38.1.08.19.19.26.32s.13.27.15.41c.02.14.03.39.03.77ZM193.6,6.04v-1.33l-.6.23c-.3.12-.52.24-.64.36-.12.12-.19.27-.19.46s.06.34.18.45c.12.12.27.18.46.18.28,0,.54-.12.79-.35Z"/><path class="cls-1" d="M198.28,2.44h1l-3.18,6.78h-.99l1.52-3.25-1.73-3.53h1.01l1.21,2.54,1.16-2.54Z"/><path class="cls-1" d="M202.72,4.23v1.91c0,.15.05.23.16.23s.28-.08.5-.24v.54c-.2.13-.36.22-.49.27-.12.05-.25.07-.38.07-.38,0-.61-.15-.67-.45-.38.29-.78.44-1.21.44-.31,0-.57-.1-.78-.31s-.31-.47-.31-.78c0-.28.1-.54.31-.76.2-.22.49-.4.87-.53l1.14-.39v-.24c0-.54-.27-.81-.81-.81-.49,0-.96.25-1.42.75v-.97c.34-.41.84-.61,1.49-.61.49,0,.87.13,1.17.38.1.08.19.19.26.32s.13.27.15.41c.02.14.03.39.03.77ZM201.85,6.04v-1.33l-.6.23c-.3.12-.52.24-.64.36-.12.12-.19.27-.19.46s.06.34.18.45c.12.12.27.18.46.18.28,0,.54-.12.79-.35Z"/><path class="cls-1" d="M205.05,2.44v.57c.4-.44.85-.66,1.35-.66.28,0,.54.07.78.22s.42.34.55.6c.13.25.19.65.19,1.2v2.57h-.89v-2.56c0-.46-.07-.79-.21-.98s-.37-.3-.7-.3c-.42,0-.78.21-1.07.63v3.21h-.91V2.44h.91Z"/><path class="cls-1" d="M208.53,3.15l1.67-1.64v.93h1.42v.8h-1.42v2.2c0,.51.21.77.64.77.32,0,.66-.11,1.01-.32v.83c-.34.19-.71.29-1.12.29s-.75-.12-1.02-.36c-.08-.07-.15-.15-.21-.24s-.1-.21-.14-.35c-.04-.15-.06-.42-.06-.83v-1.99h-.78v-.09Z"/><path class="cls-1" d="M218.13,6.93v-.58c-.19.21-.4.37-.65.48-.24.11-.48.17-.72.17-.28,0-.54-.07-.78-.21-.24-.14-.42-.33-.54-.58-.12-.24-.18-.65-.18-1.21v-2.57h.89v2.56c0,.47.07.8.2.99.14.19.37.28.71.28.42,0,.78-.21,1.08-.62v-3.21h.89v4.49h-.89Z"/><path class="cls-1" d="M221.16,2.44v.57c.4-.44.85-.66,1.35-.66.28,0,.54.07.78.22s.42.34.55.6c.13.25.19.65.19,1.2v2.57h-.89v-2.56c0-.46-.07-.79-.21-.98s-.37-.3-.7-.3c-.42,0-.78.21-1.07.63v3.21h-.91V2.44h.91Z"/><path class="cls-1" d="M229.1,4.76h-3.16c.02.43.17.77.43,1.03.27.25.61.38,1.03.38.59,0,1.13-.18,1.62-.55v.87c-.27.18-.54.31-.81.39-.27.08-.58.12-.94.12-.5,0-.9-.1-1.2-.31s-.55-.48-.74-.83c-.18-.35-.28-.75-.28-1.2,0-.68.19-1.24.58-1.67s.89-.64,1.51-.64,1.07.21,1.43.62.53.98.53,1.67v.11ZM225.96,4.23h2.26c-.02-.35-.13-.63-.32-.82s-.44-.29-.76-.29-.58.1-.78.29c-.2.19-.34.47-.4.82Z"/><path class="cls-1" d="M236.21,5.88v.88c-.45.17-.88.25-1.31.25-.7,0-1.26-.21-1.68-.62-.42-.42-.63-.98-.63-1.67s.2-1.28.61-1.71.94-.65,1.61-.65c.23,0,.44.02.62.07.18.04.41.13.68.25v.95c-.45-.29-.87-.43-1.25-.43s-.73.14-.99.42-.39.64-.39,1.08c0,.46.14.82.42,1.09.28.27.65.41,1.12.41.34,0,.73-.1,1.18-.3Z"/><path class="cls-1" d="M239.37,2.43c.68,0,1.25.22,1.7.66s.68,1,.68,1.66-.23,1.19-.69,1.61-1.04.64-1.73.64-1.24-.22-1.69-.65-.68-.98-.68-1.63.23-1.21.69-1.64c.46-.44,1.03-.66,1.72-.66ZM239.32,3.23c-.43,0-.78.14-1.05.42s-.41.64-.41,1.07.14.78.42,1.05.64.41,1.08.41.79-.14,1.07-.41c.28-.27.42-.63.42-1.06s-.14-.78-.43-1.06-.65-.42-1.09-.42Z"/><path class="cls-1" d="M244.89,2.43c.68,0,1.25.22,1.7.66s.68,1,.68,1.66-.23,1.19-.69,1.61-1.04.64-1.73.64-1.24-.22-1.69-.65-.68-.98-.68-1.63.23-1.21.69-1.64c.46-.44,1.03-.66,1.72-.66ZM244.84,3.23c-.43,0-.78.14-1.05.42s-.41.64-.41,1.07.14.78.42,1.05.64.41,1.08.41.79-.14,1.07-.41c.28-.27.42-.63.42-1.06s-.14-.78-.43-1.06-.65-.42-1.09-.42Z"/><path class="cls-1" d="M248.2,9.22V2.44h1.56c.8,0,1.42.2,1.86.6.44.4.67.95.67,1.67,0,.67-.21,1.23-.63,1.66-.42.43-.95.65-1.6.65-.29,0-.6-.06-.95-.19v2.4h-.91ZM249.74,3.27h-.63v2.76c.27.14.56.21.86.21.42,0,.76-.15,1.02-.43s.4-.66.4-1.12c0-.29-.06-.55-.19-.78s-.3-.39-.51-.49-.53-.15-.95-.15Z"/><path class="cls-1" d="M257.08,4.76h-3.16c.02.43.17.77.43,1.03.27.25.61.38,1.03.38.59,0,1.13-.18,1.62-.55v.87c-.27.18-.54.31-.81.39-.27.08-.58.12-.94.12-.5,0-.9-.1-1.2-.31s-.55-.48-.74-.83c-.18-.35-.28-.75-.28-1.2,0-.68.19-1.24.58-1.67s.89-.64,1.51-.64,1.07.21,1.43.62.53.98.53,1.67v.11ZM253.95,4.23h2.26c-.02-.35-.13-.63-.32-.82s-.44-.29-.76-.29-.58.1-.78.29c-.2.19-.34.47-.4.82ZM256.12,0l-1.1,1.46h-.55l.66-1.46h.99Z"/><path class="cls-1" d="M259,2.44v1.03l.05-.08c.43-.69.86-1.04,1.29-1.04.33,0,.69.17,1.05.51l-.47.78c-.31-.29-.6-.44-.86-.44-.29,0-.53.14-.75.41-.21.27-.31.6-.31.97v2.35h-.89V2.44h.89Z"/><path class="cls-1" d="M264.83,4.23v1.91c0,.15.05.23.16.23s.28-.08.5-.24v.54c-.2.13-.36.22-.49.27-.12.05-.25.07-.38.07-.38,0-.61-.15-.67-.45-.38.29-.78.44-1.21.44-.31,0-.57-.1-.78-.31s-.31-.47-.31-.78c0-.28.1-.54.31-.76.2-.22.49-.4.87-.53l1.14-.39v-.24c0-.54-.27-.81-.81-.81-.49,0-.96.25-1.42.75v-.97c.34-.41.84-.61,1.49-.61.49,0,.87.13,1.17.38.1.08.19.19.26.32s.13.27.15.41c.02.14.03.39.03.77ZM263.95,6.04v-1.33l-.6.23c-.3.12-.52.24-.64.36-.12.12-.19.27-.19.46s.06.34.18.45c.12.12.27.18.46.18.28,0,.54-.12.79-.35Z"/><path class="cls-1" d="M265.64,3.15l1.67-1.64v.93h1.42v.8h-1.42v2.2c0,.51.21.77.64.77.32,0,.66-.11,1.01-.32v.83c-.34.19-.71.29-1.12.29s-.75-.12-1.02-.36c-.08-.07-.15-.15-.21-.24s-.1-.21-.14-.35c-.04-.15-.06-.42-.06-.83v-1.99h-.78v-.09Z"/><path class="cls-1" d="M270.06.55c.15,0,.27.05.38.15s.16.22.16.37-.05.27-.16.37-.23.16-.38.16c-.14,0-.26-.05-.36-.16s-.16-.23-.16-.37.05-.26.16-.36.22-.16.36-.16ZM269.62,2.44h.89v4.49h-.89V2.44Z"/><path class="cls-1" d="M273.95,2.43c.68,0,1.25.22,1.7.66s.68,1,.68,1.66-.23,1.19-.69,1.61-1.04.64-1.73.64-1.24-.22-1.69-.65-.68-.98-.68-1.63.23-1.21.69-1.64c.46-.44,1.03-.66,1.72-.66ZM273.9,3.23c-.43,0-.78.14-1.05.42s-.41.64-.41,1.07.14.78.42,1.05.64.41,1.08.41.79-.14,1.07-.41c.28-.27.42-.63.42-1.06s-.14-.78-.43-1.06-.65-.42-1.09-.42Z"/><path class="cls-1" d="M278.2,2.44v.57c.4-.44.85-.66,1.35-.66.28,0,.54.07.78.22s.42.34.55.6c.13.25.19.65.19,1.2v2.57h-.89v-2.56c0-.46-.07-.79-.21-.98s-.37-.3-.7-.3c-.42,0-.78.21-1.07.63v3.21h-.91V2.44h.91Z"/><path class="cls-1" d="M171.62,19.22v-6.78h1.56c.8,0,1.42.2,1.86.6.44.4.67.95.67,1.67,0,.67-.21,1.23-.63,1.66-.42.43-.95.65-1.6.65-.29,0-.6-.06-.95-.19v2.4h-.91ZM173.16,13.27h-.63v2.76c.27.14.56.21.86.21.42,0,.76-.15,1.02-.43s.4-.66.4-1.12c0-.29-.06-.55-.19-.78s-.3-.39-.51-.49-.53-.15-.95-.15Z"/><path class="cls-1" d="M178.83,12.43c.68,0,1.25.22,1.7.66s.68,1,.68,1.66-.23,1.19-.69,1.61-1.04.64-1.73.64-1.24-.22-1.69-.65-.68-.98-.68-1.63.23-1.21.69-1.64c.46-.44,1.03-.66,1.72-.66ZM178.78,13.23c-.43,0-.78.14-1.05.42s-.41.64-.41,1.07.14.78.42,1.05.64.41,1.08.41.79-.14,1.07-.41c.28-.27.42-.63.42-1.06s-.14-.78-.43-1.06-.65-.42-1.09-.42Z"/><path class="cls-1" d="M183.09,12.44v.57c.4-.44.85-.66,1.35-.66.28,0,.54.07.78.22s.42.34.55.6c.13.25.19.65.19,1.2v2.57h-.89v-2.56c0-.46-.07-.79-.21-.98s-.37-.3-.7-.3c-.42,0-.78.21-1.07.63v3.21h-.91v-4.49h.91Z"/><path class="cls-1" d="M190.57,15.88v.88c-.45.17-.88.25-1.31.25-.7,0-1.26-.21-1.68-.62-.42-.42-.63-.98-.63-1.67s.2-1.28.61-1.71.94-.65,1.61-.65c.23,0,.44.02.62.07.18.04.41.13.68.25v.95c-.45-.29-.87-.43-1.25-.43s-.73.14-.99.42-.39.64-.39,1.08c0,.46.14.82.42,1.09.28.27.65.41,1.12.41.34,0,.73-.1,1.18-.3Z"/><path class="cls-1" d="M190.95,13.15l1.67-1.64v.93h1.42v.8h-1.42v2.2c0,.51.21.77.64.77.32,0,.66-.11,1.01-.32v.83c-.34.19-.71.29-1.12.29s-.75-.12-1.02-.36c-.08-.07-.15-.15-.21-.24s-.1-.21-.14-.35c-.04-.15-.06-.42-.06-.83v-1.99h-.78v-.09Z"/><path class="cls-1" d="M197.77,16.93v-.58c-.19.21-.4.37-.65.48-.24.11-.48.17-.72.17-.28,0-.54-.07-.78-.21-.24-.14-.42-.33-.54-.58-.12-.24-.18-.65-.18-1.21v-2.57h.89v2.56c0,.47.07.8.2.99.14.19.37.28.71.28.42,0,.78-.21,1.08-.62v-3.21h.89v4.49h-.89Z"/><path class="cls-1" d="M203.74,14.76h-3.16c.02.43.17.77.43,1.03.27.25.61.38,1.03.38.59,0,1.13-.18,1.62-.55v.87c-.27.18-.54.31-.81.39-.27.08-.58.12-.94.12-.5,0-.9-.1-1.2-.31s-.55-.48-.74-.83c-.18-.35-.28-.75-.28-1.2,0-.68.19-1.24.58-1.67s.89-.64,1.51-.64,1.07.21,1.43.62.53.98.53,1.67v.11ZM200.6,14.23h2.26c-.02-.35-.13-.63-.32-.82s-.44-.29-.76-.29-.58.1-.78.29c-.2.19-.34.47-.4.82Z"/><path class="cls-1" d="M204.72,10.11h.89v6.82h-.89v-6.82Z"/><path class="cls-1" d="M206.91,10.11h.89v6.82h-.89v-6.82Z"/><path class="cls-1" d="M212.91,14.76h-3.16c.02.43.17.77.43,1.03.27.25.61.38,1.03.38.59,0,1.13-.18,1.62-.55v.87c-.27.18-.54.31-.81.39-.27.08-.58.12-.94.12-.5,0-.9-.1-1.2-.31s-.55-.48-.74-.83c-.18-.35-.28-.75-.28-1.2,0-.68.19-1.24.58-1.67s.89-.64,1.51-.64,1.07.21,1.43.62.53.98.53,1.67v.11ZM209.77,14.23h2.26c-.02-.35-.13-.63-.32-.82s-.44-.29-.76-.29-.58.1-.78.29c-.2.19-.34.47-.4.82Z"/><path class="cls-1" d="M219.47,14.23v1.91c0,.15.05.23.16.23s.28-.08.5-.24v.54c-.2.13-.36.22-.49.27-.12.05-.25.07-.38.07-.38,0-.61-.15-.67-.45-.38.29-.78.44-1.21.44-.31,0-.57-.1-.78-.31s-.31-.47-.31-.78c0-.28.1-.54.31-.76.2-.22.49-.4.87-.53l1.14-.39v-.24c0-.54-.27-.81-.81-.81-.49,0-.96.25-1.42.75v-.97c.34-.41.84-.61,1.49-.61.49,0,.87.13,1.17.38.1.08.19.19.26.32s.13.27.15.41c.02.14.03.39.03.77ZM218.6,16.04v-1.33l-.6.23c-.3.12-.52.24-.64.36-.12.12-.19.27-.19.46s.06.34.18.45c.12.12.27.18.46.18.28,0,.54-.12.79-.35Z"/><path class="cls-1" d="M223.32,12.44h.96l-1.98,4.57h-.3l-2.03-4.57h.97l1.21,2.76,1.17-2.76Z"/><path class="cls-1" d="M228.57,14.76h-3.16c.02.43.17.77.43,1.03.27.25.61.38,1.03.38.59,0,1.13-.18,1.62-.55v.87c-.27.18-.54.31-.81.39-.27.08-.58.12-.94.12-.5,0-.9-.1-1.2-.31s-.55-.48-.74-.83c-.18-.35-.28-.75-.28-1.2,0-.68.19-1.24.58-1.67s.89-.64,1.51-.64,1.07.21,1.43.62.53.98.53,1.67v.11ZM225.43,14.23h2.26c-.02-.35-.13-.63-.32-.82s-.44-.29-.76-.29-.58.1-.78.29c-.2.19-.34.47-.4.82Z"/><path class="cls-1" d="M232.91,15.88v.88c-.45.17-.88.25-1.31.25-.7,0-1.26-.21-1.68-.62-.42-.42-.63-.98-.63-1.67s.2-1.28.61-1.71.94-.65,1.61-.65c.23,0,.44.02.62.07.18.04.41.13.68.25v.95c-.45-.29-.87-.43-1.25-.43s-.73.14-.99.42-.39.64-.39,1.08c0,.46.14.82.42,1.09.28.27.65.41,1.12.41.34,0,.73-.1,1.18-.3Z"/><path class="cls-1" d="M236.71,10.11h.89v6.82h-.89v-6.82Z"/><path class="cls-1" d="M241.71,14.23v1.91c0,.15.05.23.16.23s.28-.08.5-.24v.54c-.2.13-.36.22-.49.27-.12.05-.25.07-.38.07-.38,0-.61-.15-.67-.45-.38.29-.78.44-1.21.44-.31,0-.57-.1-.78-.31s-.31-.47-.31-.78c0-.28.1-.54.31-.76.2-.22.49-.4.87-.53l1.14-.39v-.24c0-.54-.27-.81-.81-.81-.49,0-.96.25-1.42.75v-.97c.34-.41.84-.61,1.49-.61.49,0,.87.13,1.17.38.1.08.19.19.26.32s.13.27.15.41c.02.14.03.39.03.77ZM240.83,16.04v-1.33l-.6.23c-.3.12-.52.24-.64.36-.12.12-.19.27-.19.46s.06.34.18.45c.12.12.27.18.46.18.28,0,.54-.12.79-.35Z"/><path class="cls-1" d="M246.08,16.93v-6.82h1.71c.69,0,1.24.17,1.64.51.41.34.61.8.61,1.39,0,.4-.1.74-.3,1.03s-.48.51-.85.65c.22.14.43.34.64.59s.5.68.88,1.29c.24.39.43.68.57.87l.36.49h-1.16l-.3-.45s-.03-.04-.06-.08l-.19-.27-.3-.5-.33-.53c-.2-.28-.39-.5-.55-.67-.17-.17-.32-.29-.45-.36-.14-.07-.36-.11-.68-.11h-.25v2.97h-.98ZM247.35,10.94h-.29v2.15h.37c.5,0,.83-.04,1.02-.13.18-.08.33-.21.43-.38.1-.17.15-.37.15-.58s-.06-.41-.17-.58-.27-.3-.48-.37c-.21-.07-.55-.11-1.03-.11Z"/><path class="cls-1" d="M254.83,16.93v-.58c-.19.21-.4.37-.65.48-.24.11-.48.17-.72.17-.28,0-.54-.07-.78-.21-.24-.14-.42-.33-.54-.58-.12-.24-.18-.65-.18-1.21v-2.57h.89v2.56c0,.47.07.8.2.99.14.19.37.28.71.28.42,0,.78-.21,1.08-.62v-3.21h.89v4.49h-.89Z"/><path class="cls-1" d="M256.75,16.61v-.96c.25.18.51.32.77.43.26.11.48.16.66.16s.34-.05.48-.14.2-.2.2-.33-.04-.24-.13-.32c-.09-.09-.27-.21-.56-.37-.57-.32-.95-.59-1.13-.82-.18-.23-.27-.47-.27-.74,0-.35.13-.63.4-.84.27-.22.62-.33,1.04-.33s.89.12,1.35.37v.88c-.53-.32-.96-.48-1.29-.48-.17,0-.31.04-.42.11-.11.07-.16.17-.16.29,0,.1.05.2.14.3.1.09.26.21.51.34l.32.18c.75.42,1.12.89,1.12,1.41,0,.37-.14.67-.43.91-.29.24-.66.35-1.11.35-.27,0-.5-.03-.71-.09s-.47-.16-.79-.31Z"/><path class="cls-1" d="M260.6,16.61v-.96c.25.18.51.32.77.43.26.11.48.16.66.16s.34-.05.48-.14.2-.2.2-.33-.04-.24-.13-.32c-.09-.09-.27-.21-.56-.37-.57-.32-.95-.59-1.13-.82-.18-.23-.27-.47-.27-.74,0-.35.13-.63.4-.84.27-.22.62-.33,1.04-.33s.89.12,1.35.37v.88c-.53-.32-.96-.48-1.29-.48-.17,0-.31.04-.42.11-.11.07-.16.17-.16.29,0,.1.05.2.14.3.1.09.26.21.51.34l.32.18c.75.42,1.12.89,1.12,1.41,0,.37-.14.67-.43.91-.29.24-.66.35-1.11.35-.27,0-.5-.03-.71-.09s-.47-.16-.79-.31Z"/><path class="cls-1" d="M265.13,10.55c.15,0,.27.05.38.15s.16.22.16.37-.05.27-.16.37-.23.16-.38.16c-.14,0-.26-.05-.36-.16s-.16-.23-.16-.37.05-.26.16-.36.22-.16.36-.16ZM264.69,12.44h.89v4.49h-.89v-4.49Z"/><path class="cls-1" d="M270.69,14.76h-3.16c.02.43.17.77.43,1.03.27.25.61.38,1.03.38.59,0,1.13-.18,1.62-.55v.87c-.27.18-.54.31-.81.39-.27.08-.58.12-.94.12-.5,0-.9-.1-1.2-.31s-.55-.48-.74-.83c-.18-.35-.28-.75-.28-1.2,0-.68.19-1.24.58-1.67s.89-.64,1.51-.64,1.07.21,1.43.62.53.98.53,1.67v.11ZM267.55,14.23h2.26c-.02-.35-.13-.63-.32-.82s-.44-.29-.76-.29-.58.1-.78.29c-.2.19-.34.47-.4.82Z"/></g></svg>