<?xml version="1.0" encoding="UTF-8"?><svg id="Calque_2" xmlns="http://www.w3.org/2000/svg" viewBox="0 0 85.08 9.87"><defs><style>.cls-1{fill:#87a3ad;}.cls-2{fill:#fff;}</style></defs><g id="Légende"><path class="cls-1" d="M6.36,0C2.07,2.19-1.21,4.59.43,6.78s4.16,2.41,4.76,2.19,1.69.22,4.1-1.97,4.92-1.97,2.68-4.37S6.36,0,6.36,0Z"/><path class="cls-2" d="M25.09,7.58h-2.31V.76h1.79c.56,0,1,.08,1.32.23s.56.36.72.62.25.57.25.92c0,.67-.35,1.15-1.04,1.44.5.09.89.3,1.19.62s.44.69.44,1.13c0,.35-.09.66-.27.93s-.44.5-.79.67-.78.26-1.3.26ZM24.59,1.63h-.84v2.05h.65c.52,0,.89-.1,1.11-.3s.33-.46.33-.77c0-.65-.42-.98-1.25-.98ZM24.67,4.55h-.91v2.16h.96c.53,0,.9-.04,1.09-.12s.34-.21.46-.39.17-.36.17-.57-.06-.4-.18-.57-.3-.3-.52-.39-.58-.13-1.06-.13Z"/><path class="cls-2" d="M31.11,4.88v1.91c0,.15.05.23.16.23s.27-.08.5-.24v.54c-.2.13-.36.22-.49.27s-.25.07-.38.07c-.38,0-.61-.15-.67-.45-.38.29-.78.44-1.21.44-.31,0-.57-.1-.78-.31s-.31-.47-.31-.78c0-.28.1-.54.31-.76s.49-.4.87-.53l1.14-.39v-.24c0-.54-.27-.81-.81-.81-.48,0-.96.25-1.42.75v-.97c.35-.41.84-.61,1.49-.61.48,0,.87.13,1.17.38.1.08.19.19.26.32s.13.27.15.41.03.39.03.77ZM30.23,6.69v-1.33l-.6.23c-.3.12-.52.24-.64.36s-.19.27-.19.46.06.34.18.45.27.18.46.18c.28,0,.55-.12.79-.35Z"/><path class="cls-2" d="M32.33,7.26v-.96c.25.18.51.32.77.43s.48.16.66.16.35-.05.48-.14.2-.2.2-.33-.04-.24-.13-.32-.27-.21-.56-.37c-.57-.32-.95-.59-1.13-.82s-.27-.47-.27-.74c0-.35.13-.63.4-.84s.61-.33,1.04-.33.89.12,1.35.37v.88c-.53-.32-.96-.48-1.29-.48-.17,0-.31.04-.42.11s-.16.17-.16.29c0,.1.05.2.14.3.1.09.26.21.51.34l.32.18c.75.42,1.12.89,1.12,1.41,0,.37-.14.67-.43.91s-.66.35-1.11.35c-.27,0-.5-.03-.71-.09s-.47-.16-.79-.31Z"/><path class="cls-2" d="M36.18,7.26v-.96c.25.18.51.32.77.43s.48.16.66.16.35-.05.48-.14.2-.2.2-.33-.04-.24-.13-.32-.27-.21-.56-.37c-.57-.32-.95-.59-1.13-.82s-.27-.47-.27-.74c0-.35.13-.63.4-.84s.61-.33,1.04-.33.89.12,1.35.37v.88c-.53-.32-.96-.48-1.29-.48-.17,0-.31.04-.42.11s-.16.17-.16.29c0,.1.05.2.14.3.1.09.26.21.51.34l.32.18c.75.42,1.12.89,1.12,1.41,0,.37-.14.67-.43.91s-.66.35-1.11.35c-.27,0-.5-.03-.71-.09s-.47-.16-.79-.31Z"/><path class="cls-2" d="M40.71,1.2c.15,0,.27.05.38.15s.16.22.16.37-.05.27-.16.37-.23.16-.38.16c-.14,0-.26-.05-.36-.16s-.16-.23-.16-.37.05-.26.16-.36.22-.16.36-.16ZM40.27,3.09h.89v4.49h-.89V3.09Z"/><path class="cls-2" d="M43.33,3.09v.57c.4-.44.85-.66,1.35-.66.28,0,.54.07.78.22s.42.34.55.6.19.65.19,1.2v2.57h-.89v-2.56c0-.46-.07-.79-.21-.98s-.37-.3-.7-.3c-.42,0-.78.21-1.07.63v3.21h-.91V3.09h.91Z"/><path class="cls-2" d="M50.16,9.87V3.09h1.56c.8,0,1.42.2,1.86.6.44.4.67.95.67,1.67,0,.67-.21,1.23-.63,1.66s-.95.65-1.6.65c-.29,0-.6-.06-.95-.19v2.4h-.91ZM51.7,3.92h-.63v2.76c.27.14.56.21.86.21.42,0,.76-.15,1.02-.43s.4-.66.4-1.12c0-.29-.06-.55-.19-.78s-.3-.39-.51-.49-.53-.15-.95-.15Z"/><path class="cls-2" d="M59.05,5.41h-3.16c.02.43.17.77.43,1.03s.61.38,1.03.38c.59,0,1.13-.18,1.62-.55v.87c-.27.18-.54.31-.81.39s-.58.12-.94.12c-.49,0-.9-.1-1.2-.31s-.55-.48-.73-.83-.28-.75-.28-1.2c0-.68.19-1.24.58-1.67s.89-.64,1.51-.64,1.07.21,1.43.62.53.98.53,1.67v.11ZM55.91,4.88h2.26c-.02-.35-.13-.63-.32-.82s-.44-.29-.76-.29-.58.1-.78.29-.34.47-.4.82ZM58.08.65l-1.1,1.46h-.55l.66-1.46h.99Z"/><path class="cls-2" d="M59.38,3.8l1.67-1.64v.93h1.42v.8h-1.42v2.2c0,.51.21.77.64.77.32,0,.66-.11,1.01-.32v.83c-.34.19-.71.29-1.12.29s-.75-.12-1.02-.36c-.08-.07-.15-.15-.21-.24s-.1-.21-.14-.35-.06-.42-.06-.83v-1.99h-.78v-.09Z"/><path class="cls-2" d="M64.29,3.09v1.03l.05-.08c.43-.69.86-1.04,1.29-1.04.34,0,.69.17,1.05.51l-.47.78c-.31-.29-.6-.44-.86-.44-.29,0-.53.14-.74.41s-.31.6-.31.97v2.35h-.89V3.09h.89Z"/><path class="cls-2" d="M69.2,3.08c.68,0,1.25.22,1.7.66s.68,1,.68,1.66-.23,1.19-.69,1.61-1.04.64-1.73.64-1.24-.22-1.69-.65-.68-.98-.68-1.63.23-1.21.69-1.64,1.03-.66,1.72-.66ZM69.15,3.88c-.43,0-.78.14-1.05.42s-.41.64-.41,1.07.14.78.42,1.05.64.41,1.08.41.79-.14,1.07-.41.42-.63.42-1.06-.15-.78-.43-1.06-.65-.42-1.09-.42Z"/><path class="cls-2" d="M72.59.76h.89v6.82h-.89V.76Z"/><path class="cls-2" d="M75.22,1.2c.15,0,.27.05.38.15s.16.22.16.37-.05.27-.16.37-.23.16-.38.16c-.14,0-.26-.05-.36-.16s-.16-.23-.16-.37.05-.26.16-.36.22-.16.36-.16ZM74.78,3.09h.89v4.49h-.89V3.09Z"/><path class="cls-2" d="M80.78,5.41h-3.16c.02.43.17.77.43,1.03s.61.38,1.03.38c.59,0,1.13-.18,1.62-.55v.87c-.27.18-.54.31-.81.39s-.58.12-.94.12c-.49,0-.9-.1-1.2-.31s-.55-.48-.73-.83-.28-.75-.28-1.2c0-.68.19-1.24.58-1.67s.89-.64,1.51-.64,1.07.21,1.43.62.53.98.53,1.67v.11ZM77.64,4.88h2.26c-.02-.35-.13-.63-.32-.82s-.44-.29-.76-.29-.58.1-.78.29-.34.47-.4.82Z"/><path class="cls-2" d="M82.69,3.09v1.03l.05-.08c.43-.69.86-1.04,1.29-1.04.34,0,.69.17,1.05.51l-.47.78c-.31-.29-.6-.44-.86-.44-.29,0-.53.14-.74.41s-.31.6-.31.97v2.35h-.89V3.09h.89Z"/></g></svg>