<?xml version="1.0" encoding="UTF-8"?><svg id="Calque_2" xmlns="http://www.w3.org/2000/svg" viewBox="0 0 169.07 38.12"><defs><style>.cls-1{fill:#97a9cc;}.cls-2{fill:#010101;}.cls-3{fill:#5c6eb3;}.cls-4{fill:#fff;}.cls-5{fill:none;stroke:#97a9cc;stroke-miterlimit:10;stroke-width:2px;}</style></defs><g id="Raffineries_US_pétrole_sable"><g id="Raffinerie_10"><path class="cls-2" d="M9.62,20.34l5.12,5.12-5.12,5.12-5.12-5.12,5.12-5.12M9.62,19.98l-.18.18-5.12,5.12-.18.18.18.18,5.12,5.12.18.18.18-.18,5.12-5.12.18-.18-.18-.18-5.12-5.12-.18-.18h0Z"/><rect class="cls-3" x="6.25" y="22.09" width="6.74" height="6.74" transform="translate(-15.18 14.26) rotate(-45)"/><path class="cls-4" d="M9.62,21.04l4.41,4.41-4.41,4.41-4.41-4.41,4.41-4.41M9.62,20.34l-5.12,5.12,5.12,5.12,5.12-5.12-5.12-5.12h0Z"/><path class="cls-4" d="M10.97,23.82h0c0,.23-.47.42-1.35.42-.93,0-1.35-.18-1.35-.41h0c0-.14.15-.24.43-.32.25-.06.57-.1.92-.1s.67.03.92.1c.29.07.43.18.43.31h0ZM9.43,23.82s-.11-.07-.26-.07-.26.03-.26.07.11.07.26.07.26-.03.26-.07ZM10.89,24.67v-.52c-.08.06-.19.11-.34.15-.25.06-.58.1-.92.1s-.68-.03-.92-.1c-.15-.04-.27-.09-.34-.15v.52c-.05.05-.08.1-.08.15h0c0,.24.42.42,1.35.42s1.35-.18,1.35-.41h0c0-.07-.03-.12-.08-.16ZM10.89,25.79v-.64c-.08.06-.19.11-.34.15-.25.06-.58.1-.92.1s-.68-.03-.92-.1c-.15-.04-.27-.09-.34-.15v.64c-.05.05-.08.1-.08.15h0c0,.23.42.42,1.35.42s1.35-.18,1.35-.41h0c0-.07-.03-.12-.08-.16ZM10.96,27.06s-.03-.08-.08-.12v-.67c-.08.06-.19.11-.34.15-.25.06-.58.1-.92.1s-.68-.03-.92-.1c-.15-.04-.27-.09-.34-.15v.67s-.07.07-.08.12c0,.01,0,.02,0,.03h0c0,.05.02.1.06.14.15.16.56.27,1.29.27.52,0,.9-.06,1.12-.16.15-.07.23-.14.23-.24h0s0-.03,0-.04h0Z"/></g></g><g id="Légende"><line class="cls-5" y1="4.5" x2="19.24" y2="4.5"/><polygon class="cls-1" points="17.55 6.72 18.5 4.5 17.55 2.28 22.82 4.5 17.55 6.72"/><path class="cls-4" d="M26.41,6.93V.11h1.71c.69,0,1.24.17,1.64.51.41.34.61.8.61,1.39,0,.4-.1.74-.3,1.03s-.48.51-.85.65c.22.14.43.34.64.59s.5.68.88,1.29c.24.39.43.68.57.87l.36.49h-1.16l-.3-.45s-.03-.04-.06-.08l-.19-.27-.3-.5-.33-.53c-.2-.28-.39-.5-.55-.67-.17-.17-.32-.29-.45-.36-.14-.07-.36-.11-.68-.11h-.25v2.97h-.98ZM27.68.94h-.29v2.15h.37c.5,0,.83-.04,1.02-.13.18-.08.33-.21.43-.38.1-.17.15-.37.15-.58s-.06-.41-.17-.58-.27-.3-.48-.37c-.21-.07-.55-.11-1.03-.11Z"/><path class="cls-4" d="M34.44,2.43c.68,0,1.25.22,1.7.66s.68,1,.68,1.66-.23,1.19-.69,1.61-1.04.64-1.73.64-1.24-.22-1.69-.65-.68-.98-.68-1.63.23-1.21.69-1.64c.46-.44,1.03-.66,1.72-.66ZM34.39,3.23c-.43,0-.78.14-1.05.42s-.41.64-.41,1.07.14.78.42,1.05.64.41,1.08.41.79-.14,1.07-.41c.28-.27.42-.63.42-1.06s-.14-.78-.43-1.06-.65-.42-1.09-.42Z"/><path class="cls-4" d="M40.67,6.93v-.58c-.19.21-.4.37-.65.48-.24.11-.48.17-.72.17-.28,0-.54-.07-.78-.21-.24-.14-.42-.33-.54-.58-.12-.24-.18-.65-.18-1.21v-2.57h.89v2.56c0,.47.07.8.2.99.14.19.37.28.71.28.42,0,.78-.21,1.08-.62v-3.21h.89v4.49h-.89Z"/><path class="cls-4" d="M42.18,3.15l1.67-1.64v.93h1.42v.8h-1.42v2.2c0,.51.21.77.64.77.32,0,.66-.11,1.01-.32v.83c-.34.19-.71.29-1.12.29s-.75-.12-1.02-.36c-.08-.07-.15-.15-.21-.24s-.1-.21-.14-.35c-.04-.15-.06-.42-.06-.83v-1.99h-.78v-.09Z"/><path class="cls-4" d="M49.97,4.76h-3.16c.02.43.17.77.43,1.03.27.25.61.38,1.03.38.59,0,1.13-.18,1.62-.55v.87c-.27.18-.54.31-.81.39-.27.08-.58.12-.94.12-.5,0-.9-.1-1.2-.31s-.55-.48-.74-.83c-.18-.35-.28-.75-.28-1.2,0-.68.19-1.24.58-1.67s.89-.64,1.51-.64,1.07.21,1.43.62.53.98.53,1.67v.11ZM46.83,4.23h2.26c-.02-.35-.13-.63-.32-.82s-.44-.29-.76-.29-.58.1-.78.29c-.2.19-.34.47-.4.82Z"/><path class="cls-4" d="M50.71,6.61v-.96c.25.18.51.32.77.43.26.11.48.16.66.16s.34-.05.48-.14.2-.2.2-.33-.04-.24-.13-.32c-.09-.09-.27-.21-.56-.37-.57-.32-.95-.59-1.13-.82-.18-.23-.27-.47-.27-.74,0-.35.13-.63.4-.84.27-.22.62-.33,1.04-.33s.89.12,1.35.37v.88c-.53-.32-.96-.48-1.29-.48-.17,0-.31.04-.42.11-.11.07-.16.17-.16.29,0,.1.05.2.14.3.1.09.26.21.51.34l.32.18c.75.42,1.12.89,1.12,1.41,0,.37-.14.67-.43.91-.29.24-.66.35-1.11.35-.27,0-.5-.03-.71-.09s-.47-.16-.79-.31Z"/><path class="cls-4" d="M60.56.11h.89v6.82h-1.9c-.66,0-1.19-.21-1.59-.63-.4-.42-.59-.98-.59-1.69,0-.66.21-1.2.62-1.63.41-.43.94-.64,1.59-.64.3,0,.62.06.98.19V.11ZM60.56,6.17v-2.85c-.28-.14-.56-.21-.84-.21-.44,0-.79.15-1.06.43-.26.29-.39.68-.39,1.17,0,.46.11.82.34,1.07.14.15.28.25.43.3s.43.08.83.08h.69Z"/><path class="cls-4" d="M62.51,2.5v-.19c.15-.14.25-.28.31-.42s.09-.33.1-.58c-.34-.11-.52-.32-.52-.64,0-.18.06-.33.18-.46.12-.13.26-.19.42-.19.2,0,.36.09.49.26s.19.4.19.67c0,.36-.1.68-.31.96s-.5.47-.86.58Z"/><path class="cls-4" d="M68.68,4.76h-3.16c.02.43.17.77.43,1.03.27.25.61.38,1.03.38.59,0,1.13-.18,1.62-.55v.87c-.27.18-.54.31-.81.39-.27.08-.58.12-.94.12-.5,0-.9-.1-1.2-.31s-.55-.48-.74-.83c-.18-.35-.28-.75-.28-1.2,0-.68.19-1.24.58-1.67s.89-.64,1.51-.64,1.07.21,1.43.62.53.98.53,1.67v.11ZM65.54,4.23h2.26c-.02-.35-.13-.63-.32-.82s-.44-.29-.76-.29-.58.1-.78.29c-.2.19-.34.47-.4.82Z"/><path class="cls-4" d="M72.74,2.44h1.14l-1.85,2.21,1.98,2.28h-1.14l-1.41-1.61-1.33,1.61h-1.12l1.89-2.28-1.89-2.22h1.12l1.33,1.54,1.28-1.54Z"/><path class="cls-4" d="M74.58,9.22V2.44h1.56c.8,0,1.42.2,1.86.6.44.4.67.95.67,1.67,0,.67-.21,1.23-.63,1.66-.42.43-.95.65-1.6.65-.29,0-.6-.06-.95-.19v2.4h-.91ZM76.12,3.27h-.63v2.76c.27.14.56.21.86.21.42,0,.76-.15,1.02-.43s.4-.66.4-1.12c0-.29-.06-.55-.19-.78s-.3-.39-.51-.49-.53-.15-.95-.15Z"/><path class="cls-4" d="M81.79,2.43c.68,0,1.25.22,1.7.66s.68,1,.68,1.66-.23,1.19-.69,1.61-1.04.64-1.73.64-1.24-.22-1.69-.65-.68-.98-.68-1.63.23-1.21.69-1.64c.46-.44,1.03-.66,1.72-.66ZM81.74,3.23c-.43,0-.78.14-1.05.42s-.41.64-.41,1.07.14.78.42,1.05.64.41,1.08.41.79-.14,1.07-.41c.28-.27.42-.63.42-1.06s-.14-.78-.43-1.06-.65-.42-1.09-.42Z"/><path class="cls-4" d="M86.11,2.44v1.03l.05-.08c.43-.69.86-1.04,1.29-1.04.33,0,.69.17,1.05.51l-.47.78c-.31-.29-.6-.44-.86-.44-.29,0-.53.14-.75.41-.21.27-.31.6-.31.97v2.35h-.89V2.44h.89Z"/><path class="cls-4" d="M88.69,3.15l1.67-1.64v.93h1.42v.8h-1.42v2.2c0,.51.21.77.64.77.32,0,.66-.11,1.01-.32v.83c-.34.19-.71.29-1.12.29s-.75-.12-1.02-.36c-.08-.07-.15-.15-.21-.24s-.1-.21-.14-.35c-.04-.15-.06-.42-.06-.83v-1.99h-.78v-.09Z"/><path class="cls-4" d="M95.47,4.23v1.91c0,.15.05.23.16.23s.28-.08.5-.24v.54c-.2.13-.36.22-.49.27-.12.05-.25.07-.38.07-.38,0-.61-.15-.67-.45-.38.29-.78.44-1.21.44-.31,0-.57-.1-.78-.31s-.31-.47-.31-.78c0-.28.1-.54.31-.76.2-.22.49-.4.87-.53l1.14-.39v-.24c0-.54-.27-.81-.81-.81-.49,0-.96.25-1.42.75v-.97c.34-.41.84-.61,1.49-.61.49,0,.87.13,1.17.38.1.08.19.19.26.32s.13.27.15.41c.02.14.03.39.03.77ZM94.59,6.04v-1.33l-.6.23c-.3.12-.52.24-.64.36-.12.12-.19.27-.19.46s.06.34.18.45c.12.12.27.18.46.18.28,0,.54-.12.79-.35Z"/><path class="cls-4" d="M96.28,3.15l1.67-1.64v.93h1.42v.8h-1.42v2.2c0,.51.21.77.64.77.32,0,.66-.11,1.01-.32v.83c-.34.19-.71.29-1.12.29s-.75-.12-1.02-.36c-.08-.07-.15-.15-.21-.24s-.1-.21-.14-.35c-.04-.15-.06-.42-.06-.83v-1.99h-.78v-.09Z"/><path class="cls-4" d="M100.7.55c.15,0,.27.05.38.15s.16.22.16.37-.05.27-.16.37-.23.16-.38.16c-.14,0-.26-.05-.36-.16s-.16-.23-.16-.37.05-.26.16-.36.22-.16.36-.16ZM100.26,2.44h.89v4.49h-.89V2.44Z"/><path class="cls-4" d="M104.58,2.43c.68,0,1.25.22,1.7.66s.68,1,.68,1.66-.23,1.19-.69,1.61-1.04.64-1.73.64-1.24-.22-1.69-.65-.68-.98-.68-1.63.23-1.21.69-1.64c.46-.44,1.03-.66,1.72-.66ZM104.54,3.23c-.43,0-.78.14-1.05.42s-.41.64-.41,1.07.14.78.42,1.05.64.41,1.08.41.79-.14,1.07-.41c.28-.27.42-.63.42-1.06s-.14-.78-.43-1.06-.65-.42-1.09-.42Z"/><path class="cls-4" d="M108.84,2.44v.57c.4-.44.85-.66,1.35-.66.28,0,.54.07.78.22s.42.34.55.6c.13.25.19.65.19,1.2v2.57h-.89v-2.56c0-.46-.07-.79-.21-.98s-.37-.3-.7-.3c-.42,0-.78.21-1.07.63v3.21h-.91V2.44h.91Z"/><path class="cls-4" d="M115.67,9.22V2.44h1.56c.8,0,1.42.2,1.86.6.44.4.67.95.67,1.67,0,.67-.21,1.23-.63,1.66-.42.43-.95.65-1.6.65-.29,0-.6-.06-.95-.19v2.4h-.91ZM117.21,3.27h-.63v2.76c.27.14.56.21.86.21.42,0,.76-.15,1.02-.43s.4-.66.4-1.12c0-.29-.06-.55-.19-.78s-.3-.39-.51-.49-.53-.15-.95-.15Z"/><path class="cls-4" d="M121.68,2.44v1.03l.05-.08c.43-.69.86-1.04,1.29-1.04.33,0,.69.17,1.05.51l-.47.78c-.31-.29-.6-.44-.86-.44-.29,0-.53.14-.75.41-.21.27-.31.6-.31.97v2.35h-.89V2.44h.89Z"/><path class="cls-4" d="M128.52,4.76h-3.16c.02.43.17.77.43,1.03.27.25.61.38,1.03.38.59,0,1.13-.18,1.62-.55v.87c-.27.18-.54.31-.81.39-.27.08-.58.12-.94.12-.5,0-.9-.1-1.2-.31s-.55-.48-.74-.83c-.18-.35-.28-.75-.28-1.2,0-.68.19-1.24.58-1.67s.89-.64,1.51-.64,1.07.21,1.43.62.53.98.53,1.67v.11ZM125.38,4.23h2.26c-.02-.35-.13-.63-.32-.82s-.44-.29-.76-.29-.58.1-.78.29c-.2.19-.34.47-.4.82ZM127.55,0l-1.1,1.46h-.55l.66-1.46h.99Z"/><path class="cls-4" d="M129.25,4.24h2.43v.95h-2.43v-.95Z"/><path class="cls-4" d="M132.5,6.61v-.96c.25.18.51.32.77.43.26.11.48.16.66.16s.34-.05.48-.14.2-.2.2-.33-.04-.24-.13-.32c-.09-.09-.27-.21-.56-.37-.57-.32-.95-.59-1.13-.82-.18-.23-.27-.47-.27-.74,0-.35.13-.63.4-.84.27-.22.62-.33,1.04-.33s.89.12,1.35.37v.88c-.53-.32-.96-.48-1.29-.48-.17,0-.31.04-.42.11-.11.07-.16.17-.16.29,0,.1.05.2.14.3.1.09.26.21.51.34l.32.18c.75.42,1.12.89,1.12,1.41,0,.37-.14.67-.43.91-.29.24-.66.35-1.11.35-.27,0-.5-.03-.71-.09s-.47-.16-.79-.31Z"/><path class="cls-4" d="M139.38,4.23v1.91c0,.15.05.23.16.23s.28-.08.5-.24v.54c-.2.13-.36.22-.49.27-.12.05-.25.07-.38.07-.38,0-.61-.15-.67-.45-.38.29-.78.44-1.21.44-.31,0-.57-.1-.78-.31s-.31-.47-.31-.78c0-.28.1-.54.31-.76.2-.22.49-.4.87-.53l1.14-.39v-.24c0-.54-.27-.81-.81-.81-.49,0-.96.25-1.42.75v-.97c.34-.41.84-.61,1.49-.61.49,0,.87.13,1.17.38.1.08.19.19.26.32s.13.27.15.41c.02.14.03.39.03.77ZM138.51,6.04v-1.33l-.6.23c-.3.12-.52.24-.64.36-.12.12-.19.27-.19.46s.06.34.18.45c.12.12.27.18.46.18.28,0,.54-.12.79-.35Z"/><path class="cls-4" d="M141.72,2.44v.57c.4-.44.85-.66,1.35-.66.28,0,.54.07.78.22s.42.34.55.6c.13.25.19.65.19,1.2v2.57h-.89v-2.56c0-.46-.07-.79-.21-.98s-.37-.3-.7-.3c-.42,0-.78.21-1.07.63v3.21h-.91V2.44h.91Z"/><path class="cls-4" d="M149.2,5.88v.88c-.45.17-.88.25-1.31.25-.7,0-1.26-.21-1.68-.62-.42-.42-.63-.98-.63-1.67s.2-1.28.61-1.71.94-.65,1.61-.65c.23,0,.44.02.62.07.18.04.41.13.68.25v.95c-.45-.29-.87-.43-1.25-.43s-.73.14-.99.42-.39.64-.39,1.08c0,.46.14.82.42,1.09.28.27.65.41,1.12.41.34,0,.73-.1,1.18-.3Z"/><path class="cls-4" d="M149.58,3.15l1.67-1.64v.93h1.42v.8h-1.42v2.2c0,.51.21.77.64.77.32,0,.66-.11,1.01-.32v.83c-.34.19-.71.29-1.12.29s-.75-.12-1.02-.36c-.08-.07-.15-.15-.21-.24s-.1-.21-.14-.35c-.04-.15-.06-.42-.06-.83v-1.99h-.78v-.09Z"/><path class="cls-4" d="M154,.55c.15,0,.27.05.38.15s.16.22.16.37-.05.27-.16.37-.23.16-.38.16c-.14,0-.26-.05-.36-.16s-.16-.23-.16-.37.05-.26.16-.36.22-.16.36-.16ZM153.56,2.44h.89v4.49h-.89V2.44Z"/><path class="cls-4" d="M157.88,2.43c.68,0,1.25.22,1.7.66s.68,1,.68,1.66-.23,1.19-.69,1.61-1.04.64-1.73.64-1.24-.22-1.69-.65-.68-.98-.68-1.63.23-1.21.69-1.64c.46-.44,1.03-.66,1.72-.66ZM157.83,3.23c-.43,0-.78.14-1.05.42s-.41.64-.41,1.07.14.78.42,1.05.64.41,1.08.41.79-.14,1.07-.41c.28-.27.42-.63.42-1.06s-.14-.78-.43-1.06-.65-.42-1.09-.42Z"/><path class="cls-4" d="M162.14,2.44v.57c.4-.44.85-.66,1.35-.66.28,0,.54.07.78.22s.42.34.55.6c.13.25.19.65.19,1.2v2.57h-.89v-2.56c0-.46-.07-.79-.21-.98s-.37-.3-.7-.3c-.42,0-.78.21-1.07.63v3.21h-.91V2.44h.91Z"/><path class="cls-4" d="M166.03,6.61v-.96c.25.18.51.32.77.43.26.11.48.16.66.16s.34-.05.48-.14.2-.2.2-.33-.04-.24-.13-.32c-.09-.09-.27-.21-.56-.37-.57-.32-.95-.59-1.13-.82-.18-.23-.27-.47-.27-.74,0-.35.13-.63.4-.84.27-.22.62-.33,1.04-.33s.89.12,1.35.37v.88c-.53-.32-.96-.48-1.29-.48-.17,0-.31.04-.42.11-.11.07-.16.17-.16.29,0,.1.05.2.14.3.1.09.26.21.51.34l.32.18c.75.42,1.12.89,1.12,1.41,0,.37-.14.67-.43.91-.29.24-.66.35-1.11.35-.27,0-.5-.03-.71-.09s-.47-.16-.79-.31Z"/><path class="cls-4" d="M26.41,25.83v-6.82h1.71c.69,0,1.24.17,1.64.51.41.34.61.8.61,1.39,0,.4-.1.74-.3,1.03s-.48.51-.85.65c.22.14.43.34.64.59s.5.68.88,1.29c.24.39.43.68.57.87l.36.49h-1.16l-.3-.45s-.03-.04-.06-.08l-.19-.27-.3-.5-.33-.53c-.2-.28-.39-.5-.55-.67-.17-.17-.32-.29-.45-.36-.14-.07-.36-.11-.68-.11h-.25v2.97h-.98ZM27.68,19.84h-.29v2.15h.37c.5,0,.83-.04,1.02-.13.18-.08.33-.21.43-.38.1-.17.15-.37.15-.58s-.06-.41-.17-.58-.27-.3-.48-.37c-.21-.07-.55-.11-1.03-.11Z"/><path class="cls-4" d="M35.12,23.13v1.91c0,.15.05.23.16.23s.28-.08.5-.24v.54c-.2.13-.36.22-.49.27-.12.05-.25.07-.38.07-.38,0-.61-.15-.67-.45-.38.29-.78.44-1.21.44-.31,0-.57-.1-.78-.31s-.31-.47-.31-.78c0-.28.1-.54.31-.76.2-.22.49-.4.87-.53l1.14-.39v-.24c0-.54-.27-.81-.81-.81-.49,0-.96.25-1.42.75v-.97c.34-.41.84-.61,1.49-.61.49,0,.87.13,1.17.38.1.08.19.19.26.32s.13.27.15.41c.02.14.03.39.03.77ZM34.24,24.94v-1.33l-.6.23c-.3.12-.52.24-.64.36-.12.12-.19.27-.19.46s.06.34.18.45c.12.12.27.18.46.18.28,0,.54-.12.79-.35Z"/><path class="cls-4" d="M36.66,21.34v-.27c0-.72.15-1.26.46-1.62.31-.35.68-.53,1.11-.53.19,0,.41.03.66.09v.87c-.14-.05-.28-.08-.41-.08-.35,0-.59.09-.72.28-.14.19-.2.52-.2.99v.27h.8v.8h-.8v3.69h-.89v-3.69h-.64v-.8h.64Z"/><path class="cls-4" d="M39.16,21.34v-.27c0-.72.15-1.26.46-1.62.31-.35.68-.53,1.11-.53.19,0,.41.03.66.09v.87c-.14-.05-.28-.08-.41-.08-.35,0-.59.09-.72.28-.14.19-.2.52-.2.99v.27h.8v.8h-.8v3.69h-.89v-3.69h-.64v-.8h.64Z"/><path class="cls-4" d="M42.02,19.45c.15,0,.27.05.38.15s.16.22.16.37-.05.27-.16.37-.23.16-.38.16c-.14,0-.26-.05-.36-.16s-.16-.23-.16-.37.05-.26.16-.36.22-.16.36-.16ZM41.58,21.34h.89v4.49h-.89v-4.49Z"/><path class="cls-4" d="M44.64,21.34v.57c.4-.44.85-.66,1.35-.66.28,0,.54.07.78.22s.42.34.55.6c.13.25.19.65.19,1.2v2.57h-.89v-2.56c0-.46-.07-.79-.21-.98s-.37-.3-.7-.3c-.42,0-.78.21-1.07.63v3.21h-.91v-4.49h.91Z"/><path class="cls-4" d="M52.58,23.66h-3.16c.02.43.17.77.43,1.03.27.25.61.38,1.03.38.59,0,1.13-.18,1.62-.55v.87c-.27.18-.54.31-.81.39-.27.08-.58.12-.94.12-.5,0-.9-.1-1.2-.31s-.55-.48-.74-.83c-.18-.35-.28-.75-.28-1.2,0-.68.19-1.24.58-1.67s.89-.64,1.51-.64,1.07.21,1.43.62.53.98.53,1.67v.11ZM49.44,23.13h2.26c-.02-.35-.13-.63-.32-.82s-.44-.29-.76-.29-.58.1-.78.29c-.2.19-.34.47-.4.82Z"/><path class="cls-4" d="M54.5,21.34v1.03l.05-.08c.43-.69.86-1.04,1.29-1.04.33,0,.69.17,1.05.51l-.47.78c-.31-.29-.6-.44-.86-.44-.29,0-.53.14-.75.41-.21.27-.31.6-.31.97v2.35h-.89v-4.49h.89Z"/><path class="cls-4" d="M57.96,19.45c.15,0,.27.05.38.15s.16.22.16.37-.05.27-.16.37-.23.16-.38.16c-.14,0-.26-.05-.36-.16s-.16-.23-.16-.37.05-.26.16-.36.22-.16.36-.16ZM57.52,21.34h.89v4.49h-.89v-4.49Z"/><path class="cls-4" d="M63.53,23.66h-3.16c.02.43.17.77.43,1.03.27.25.61.38,1.03.38.59,0,1.13-.18,1.62-.55v.87c-.27.18-.54.31-.81.39-.27.08-.58.12-.94.12-.5,0-.9-.1-1.2-.31s-.55-.48-.74-.83c-.18-.35-.28-.75-.28-1.2,0-.68.19-1.24.58-1.67s.89-.64,1.51-.64,1.07.21,1.43.62.53.98.53,1.67v.11ZM60.39,23.13h2.26c-.02-.35-.13-.63-.32-.82s-.44-.29-.76-.29-.58.1-.78.29c-.2.19-.34.47-.4.82Z"/><path class="cls-4" d="M70.09,23.13v1.91c0,.15.05.23.16.23s.28-.08.5-.24v.54c-.2.13-.36.22-.49.27-.12.05-.25.07-.38.07-.38,0-.61-.15-.67-.45-.38.29-.78.44-1.21.44-.31,0-.57-.1-.78-.31s-.31-.47-.31-.78c0-.28.1-.54.31-.76.2-.22.49-.4.87-.53l1.14-.39v-.24c0-.54-.27-.81-.81-.81-.49,0-.96.25-1.42.75v-.97c.34-.41.84-.61,1.49-.61.49,0,.87.13,1.17.38.1.08.19.19.26.32s.13.27.15.41c.02.14.03.39.03.77ZM69.21,24.94v-1.33l-.6.23c-.3.12-.52.24-.64.36-.12.12-.19.27-.19.46s.06.34.18.45c.12.12.27.18.46.18.28,0,.54-.12.79-.35Z"/><path class="cls-4" d="M75.21,22.57v3.26h-.89v-2.5c0-.5-.07-.85-.2-1.04s-.37-.3-.7-.3c-.19,0-.36.04-.51.13-.16.08-.33.23-.53.45v3.26h-.89v-4.49h.89v.59c.45-.45.9-.68,1.33-.68.57,0,1.01.27,1.32.81.48-.55.97-.82,1.49-.82.44,0,.79.16,1.08.48.28.32.42.81.42,1.46v2.65h-.89v-2.66c0-.37-.08-.66-.23-.86s-.37-.3-.66-.3c-.37,0-.71.19-1.03.56Z"/><path class="cls-4" d="M83.07,23.66h-3.16c.02.43.17.77.43,1.03.27.25.61.38,1.03.38.59,0,1.13-.18,1.62-.55v.87c-.27.18-.54.31-.81.39-.27.08-.58.12-.94.12-.5,0-.9-.1-1.2-.31s-.55-.48-.74-.83c-.18-.35-.28-.75-.28-1.2,0-.68.19-1.24.58-1.67s.89-.64,1.51-.64,1.07.21,1.43.62.53.98.53,1.67v.11ZM79.93,23.13h2.26c-.02-.35-.13-.63-.32-.82s-.44-.29-.76-.29-.58.1-.78.29c-.2.19-.34.47-.4.82ZM82.1,18.9l-1.1,1.46h-.55l.66-1.46h.99Z"/><path class="cls-4" d="M84.99,21.34v1.03l.05-.08c.43-.69.86-1.04,1.29-1.04.33,0,.69.17,1.05.51l-.47.78c-.31-.29-.6-.44-.86-.44-.29,0-.53.14-.75.41-.21.27-.31.6-.31.97v2.35h-.89v-4.49h.89Z"/><path class="cls-4" d="M88.45,19.45c.15,0,.27.05.38.15s.16.22.16.37-.05.27-.16.37-.23.16-.38.16c-.14,0-.26-.05-.36-.16s-.16-.23-.16-.37.05-.26.16-.36.22-.16.36-.16ZM88.01,21.34h.89v4.49h-.89v-4.49Z"/><path class="cls-4" d="M93.55,24.78v.88c-.45.17-.88.25-1.31.25-.7,0-1.26-.21-1.68-.62-.42-.42-.63-.98-.63-1.67s.2-1.28.61-1.71.94-.65,1.61-.65c.23,0,.44.02.62.07.18.04.41.13.68.25v.95c-.45-.29-.87-.43-1.25-.43s-.73.14-.99.42-.39.64-.39,1.08c0,.46.14.82.42,1.09.28.27.65.41,1.12.41.34,0,.73-.1,1.18-.3Z"/><path class="cls-4" d="M97.39,23.13v1.91c0,.15.05.23.16.23s.28-.08.5-.24v.54c-.2.13-.36.22-.49.27-.12.05-.25.07-.38.07-.38,0-.61-.15-.67-.45-.38.29-.78.44-1.21.44-.31,0-.57-.1-.78-.31s-.31-.47-.31-.78c0-.28.1-.54.31-.76.2-.22.49-.4.87-.53l1.14-.39v-.24c0-.54-.27-.81-.81-.81-.49,0-.96.25-1.42.75v-.97c.34-.41.84-.61,1.49-.61.49,0,.87.13,1.17.38.1.08.19.19.26.32s.13.27.15.41c.02.14.03.39.03.77ZM96.51,24.94v-1.33l-.6.23c-.3.12-.52.24-.64.36-.12.12-.19.27-.19.46s.06.34.18.45c.12.12.27.18.46.18.28,0,.54-.12.79-.35Z"/><path class="cls-4" d="M99.29,19.45c.15,0,.27.05.38.15s.16.22.16.37-.05.27-.16.37-.23.16-.38.16c-.14,0-.26-.05-.36-.16s-.16-.23-.16-.37.05-.26.16-.36.22-.16.36-.16ZM98.85,21.34h.89v4.49h-.89v-4.49Z"/><path class="cls-4" d="M101.91,21.34v.57c.4-.44.85-.66,1.35-.66.28,0,.54.07.78.22s.42.34.55.6c.13.25.19.65.19,1.2v2.57h-.89v-2.56c0-.46-.07-.79-.21-.98s-.37-.3-.7-.3c-.42,0-.78.21-1.07.63v3.21h-.91v-4.49h.91Z"/><path class="cls-4" d="M109.85,23.66h-3.16c.02.43.17.77.43,1.03.27.25.61.38,1.03.38.59,0,1.13-.18,1.62-.55v.87c-.27.18-.54.31-.81.39-.27.08-.58.12-.94.12-.5,0-.9-.1-1.2-.31s-.55-.48-.74-.83c-.18-.35-.28-.75-.28-1.2,0-.68.19-1.24.58-1.67s.89-.64,1.51-.64,1.07.21,1.43.62.53.98.53,1.67v.11ZM106.71,23.13h2.26c-.02-.35-.13-.63-.32-.82s-.44-.29-.76-.29-.58.1-.78.29c-.2.19-.34.47-.4.82Z"/><path class="cls-4" d="M113.54,28.12v-6.78h1.56c.8,0,1.42.2,1.86.6.44.4.67.95.67,1.67,0,.67-.21,1.23-.63,1.66-.42.43-.95.65-1.6.65-.29,0-.6-.06-.95-.19v2.4h-.91ZM115.07,22.17h-.63v2.76c.27.14.56.21.86.21.42,0,.76-.15,1.02-.43s.4-.66.4-1.12c0-.29-.06-.55-.19-.78s-.3-.39-.51-.49-.53-.15-.95-.15Z"/><path class="cls-4" d="M120.74,21.33c.68,0,1.25.22,1.7.66s.68,1,.68,1.66-.23,1.19-.69,1.61-1.04.64-1.73.64-1.24-.22-1.69-.65-.68-.98-.68-1.63.23-1.21.69-1.64c.46-.44,1.03-.66,1.72-.66ZM120.69,22.13c-.43,0-.78.14-1.05.42s-.41.64-.41,1.07.14.78.42,1.05.64.41,1.08.41.79-.14,1.07-.41c.28-.27.42-.63.42-1.06s-.14-.78-.43-1.06-.65-.42-1.09-.42Z"/><path class="cls-4" d="M126.97,25.83v-.58c-.19.21-.4.37-.65.48-.24.11-.48.17-.72.17-.28,0-.54-.07-.78-.21-.24-.14-.42-.33-.54-.58-.12-.24-.18-.65-.18-1.21v-2.57h.89v2.56c0,.47.07.8.2.99.14.19.37.28.71.28.42,0,.78-.21,1.08-.62v-3.21h.89v4.49h-.89Z"/><path class="cls-4" d="M131.86,21.34h.96l-1.98,4.57h-.3l-2.03-4.57h.97l1.21,2.76,1.17-2.76Z"/><path class="cls-4" d="M136.31,23.13v1.91c0,.15.05.23.16.23s.28-.08.5-.24v.54c-.2.13-.36.22-.49.27-.12.05-.25.07-.38.07-.38,0-.61-.15-.67-.45-.38.29-.78.44-1.21.44-.31,0-.57-.1-.78-.31s-.31-.47-.31-.78c0-.28.1-.54.31-.76.2-.22.49-.4.87-.53l1.14-.39v-.24c0-.54-.27-.81-.81-.81-.49,0-.96.25-1.42.75v-.97c.34-.41.84-.61,1.49-.61.49,0,.87.13,1.17.38.1.08.19.19.26.32s.13.27.15.41c.02.14.03.39.03.77ZM135.44,24.94v-1.33l-.6.23c-.3.12-.52.24-.64.36-.12.12-.19.27-.19.46s.06.34.18.45c.12.12.27.18.46.18.28,0,.54-.12.79-.35Z"/><path class="cls-4" d="M138.65,21.34v.57c.4-.44.85-.66,1.35-.66.28,0,.54.07.78.22s.42.34.55.6c.13.25.19.65.19,1.2v2.57h-.89v-2.56c0-.46-.07-.79-.21-.98s-.37-.3-.7-.3c-.42,0-.78.21-1.07.63v3.21h-.91v-4.49h.91Z"/><path class="cls-4" d="M142.13,22.05l1.67-1.64v.93h1.42v.8h-1.42v2.2c0,.51.21.77.64.77.32,0,.66-.11,1.01-.32v.83c-.34.19-.71.29-1.12.29s-.75-.12-1.02-.36c-.08-.07-.15-.15-.21-.24s-.1-.21-.14-.35c-.04-.15-.06-.42-.06-.83v-1.99h-.78v-.09Z"/><path class="cls-4" d="M25.62,32.05l1.67-1.64v.93h1.42v.8h-1.42v2.2c0,.51.21.77.64.77.32,0,.66-.11,1.01-.32v.83c-.34.19-.71.29-1.12.29s-.75-.12-1.02-.36c-.08-.07-.15-.15-.21-.24s-.1-.21-.14-.35c-.04-.15-.06-.42-.06-.83v-1.99h-.78v-.09Z"/><path class="cls-4" d="M30.54,31.34v1.03l.05-.08c.43-.69.86-1.04,1.29-1.04.33,0,.69.17,1.05.51l-.47.78c-.31-.29-.6-.44-.86-.44-.29,0-.53.14-.75.41-.21.27-.31.6-.31.97v2.35h-.89v-4.49h.89Z"/><path class="cls-4" d="M36.37,33.13v1.91c0,.15.05.23.16.23s.28-.08.5-.24v.54c-.2.13-.36.22-.49.27-.12.05-.25.07-.38.07-.38,0-.61-.15-.67-.45-.38.29-.78.44-1.21.44-.31,0-.57-.1-.78-.31s-.31-.47-.31-.78c0-.28.1-.54.31-.76.2-.22.49-.4.87-.53l1.14-.39v-.24c0-.54-.27-.81-.81-.81-.49,0-.96.25-1.42.75v-.97c.34-.41.84-.61,1.49-.61.49,0,.87.13,1.17.38.1.08.19.19.26.32s.13.27.15.41c.02.14.03.39.03.77ZM35.49,34.94v-1.33l-.6.23c-.3.12-.52.24-.64.36-.12.12-.19.27-.19.46s.06.34.18.45c.12.12.27.18.46.18.28,0,.54-.12.79-.35Z"/><path class="cls-4" d="M38.27,29.45c.15,0,.27.05.38.15s.16.22.16.37-.05.27-.16.37-.23.16-.38.16c-.14,0-.26-.05-.36-.16s-.16-.23-.16-.37.05-.26.16-.36.22-.16.36-.16ZM37.83,31.34h.89v4.49h-.89v-4.49Z"/><path class="cls-4" d="M39.37,32.05l1.67-1.64v.93h1.42v.8h-1.42v2.2c0,.51.21.77.64.77.32,0,.66-.11,1.01-.32v.83c-.34.19-.71.29-1.12.29s-.75-.12-1.02-.36c-.08-.07-.15-.15-.21-.24s-.1-.21-.14-.35c-.04-.15-.06-.42-.06-.83v-1.99h-.78v-.09Z"/><path class="cls-4" d="M47.16,33.66h-3.16c.02.43.17.77.43,1.03.27.25.61.38,1.03.38.59,0,1.13-.18,1.62-.55v.87c-.27.18-.54.31-.81.39-.27.08-.58.12-.94.12-.5,0-.9-.1-1.2-.31s-.55-.48-.74-.83c-.18-.35-.28-.75-.28-1.2,0-.68.19-1.24.58-1.67s.89-.64,1.51-.64,1.07.21,1.43.62.53.98.53,1.67v.11ZM44.02,33.13h2.26c-.02-.35-.13-.63-.32-.82s-.44-.29-.76-.29-.58.1-.78.29c-.2.19-.34.47-.4.82Z"/><path class="cls-4" d="M49.08,31.34v1.03l.05-.08c.43-.69.86-1.04,1.29-1.04.33,0,.69.17,1.05.51l-.47.78c-.31-.29-.6-.44-.86-.44-.29,0-.53.14-.75.41-.21.27-.31.6-.31.97v2.35h-.89v-4.49h.89Z"/><path class="cls-4" d="M54.88,29.01h.89v6.82h-.89v-6.82Z"/><path class="cls-4" d="M60.88,33.66h-3.16c.02.43.17.77.43,1.03.27.25.61.38,1.03.38.59,0,1.13-.18,1.62-.55v.87c-.27.18-.54.31-.81.39-.27.08-.58.12-.94.12-.5,0-.9-.1-1.2-.31s-.55-.48-.74-.83c-.18-.35-.28-.75-.28-1.2,0-.68.19-1.24.58-1.67s.89-.64,1.51-.64,1.07.21,1.43.62.53.98.53,1.67v.11ZM57.74,33.13h2.26c-.02-.35-.13-.63-.32-.82s-.44-.29-.76-.29-.58.1-.78.29c-.2.19-.34.47-.4.82Z"/><path class="cls-4" d="M64.57,38.12v-6.78h1.56c.8,0,1.42.2,1.86.6.44.4.67.95.67,1.67,0,.67-.21,1.23-.63,1.66-.42.43-.95.65-1.6.65-.29,0-.6-.06-.95-.19v2.4h-.91ZM66.1,32.17h-.63v2.76c.27.14.56.21.86.21.42,0,.76-.15,1.02-.43s.4-.66.4-1.12c0-.29-.06-.55-.19-.78s-.3-.39-.51-.49-.53-.15-.95-.15Z"/><path class="cls-4" d="M73.45,33.66h-3.16c.02.43.17.77.43,1.03.27.25.61.38,1.03.38.59,0,1.13-.18,1.62-.55v.87c-.27.18-.54.31-.81.39-.27.08-.58.12-.94.12-.5,0-.9-.1-1.2-.31s-.55-.48-.74-.83c-.18-.35-.28-.75-.28-1.2,0-.68.19-1.24.58-1.67s.89-.64,1.51-.64,1.07.21,1.43.62.53.98.53,1.67v.11ZM70.31,33.13h2.26c-.02-.35-.13-.63-.32-.82s-.44-.29-.76-.29-.58.1-.78.29c-.2.19-.34.47-.4.82ZM72.49,28.9l-1.1,1.46h-.55l.66-1.46h.99Z"/><path class="cls-4" d="M73.78,32.05l1.67-1.64v.93h1.42v.8h-1.42v2.2c0,.51.21.77.64.77.32,0,.66-.11,1.01-.32v.83c-.34.19-.71.29-1.12.29s-.75-.12-1.02-.36c-.08-.07-.15-.15-.21-.24s-.1-.21-.14-.35c-.04-.15-.06-.42-.06-.83v-1.99h-.78v-.09Z"/><path class="cls-4" d="M78.7,31.34v1.03l.05-.08c.43-.69.86-1.04,1.29-1.04.33,0,.69.17,1.05.51l-.47.78c-.31-.29-.6-.44-.86-.44-.29,0-.53.14-.75.41-.21.27-.31.6-.31.97v2.35h-.89v-4.49h.89Z"/><path class="cls-4" d="M83.6,31.33c.68,0,1.25.22,1.7.66s.68,1,.68,1.66-.23,1.19-.69,1.61-1.04.64-1.73.64-1.24-.22-1.69-.65-.68-.98-.68-1.63.23-1.21.69-1.64c.46-.44,1.03-.66,1.72-.66ZM83.55,32.13c-.43,0-.78.14-1.05.42s-.41.64-.41,1.07.14.78.42,1.05.64.41,1.08.41.79-.14,1.07-.41c.28-.27.42-.63.42-1.06s-.14-.78-.43-1.06-.65-.42-1.09-.42Z"/><path class="cls-4" d="M86.99,29.01h.89v6.82h-.89v-6.82Z"/><path class="cls-4" d="M92.99,33.66h-3.16c.02.43.17.77.43,1.03.27.25.61.38,1.03.38.59,0,1.13-.18,1.62-.55v.87c-.27.18-.54.31-.81.39-.27.08-.58.12-.94.12-.5,0-.9-.1-1.2-.31s-.55-.48-.74-.83c-.18-.35-.28-.75-.28-1.2,0-.68.19-1.24.58-1.67s.89-.64,1.51-.64,1.07.21,1.43.62.53.98.53,1.67v.11ZM89.85,33.13h2.26c-.02-.35-.13-.63-.32-.82s-.44-.29-.76-.29-.58.1-.78.29c-.2.19-.34.47-.4.82Z"/><path class="cls-4" d="M99.49,31.34h.96l-1.98,4.57h-.3l-2.03-4.57h.97l1.21,2.76,1.17-2.76Z"/><path class="cls-4" d="M104.94,33.66h-3.16c.02.43.17.77.43,1.03.27.25.61.38,1.03.38.59,0,1.13-.18,1.62-.55v.87c-.27.18-.54.31-.81.39-.27.08-.58.12-.94.12-.5,0-.9-.1-1.2-.31s-.55-.48-.74-.83c-.18-.35-.28-.75-.28-1.2,0-.68.19-1.24.58-1.67s.89-.64,1.51-.64,1.07.21,1.43.62.53.98.53,1.67v.11ZM101.8,33.13h2.26c-.02-.35-.13-.63-.32-.82s-.44-.29-.76-.29-.58.1-.78.29c-.2.19-.34.47-.4.82ZM103.97,28.9l-1.1,1.46h-.55l.66-1.46h.99Z"/><path class="cls-4" d="M106.79,31.34v.57c.4-.44.85-.66,1.35-.66.28,0,.54.07.78.22s.42.34.55.6c.13.25.19.65.19,1.2v2.57h-.89v-2.56c0-.46-.07-.79-.21-.98s-.37-.3-.7-.3c-.42,0-.78.21-1.07.63v3.21h-.91v-4.49h.91Z"/><path class="cls-4" d="M114.73,33.66h-3.16c.02.43.17.77.43,1.03.27.25.61.38,1.03.38.59,0,1.13-.18,1.62-.55v.87c-.27.18-.54.31-.81.39-.27.08-.58.12-.94.12-.5,0-.9-.1-1.2-.31s-.55-.48-.74-.83c-.18-.35-.28-.75-.28-1.2,0-.68.19-1.24.58-1.67s.89-.64,1.51-.64,1.07.21,1.43.62.53.98.53,1.67v.11ZM111.59,33.13h2.26c-.02-.35-.13-.63-.32-.82s-.44-.29-.76-.29-.58.1-.78.29c-.2.19-.34.47-.4.82ZM113.76,28.9l-1.1,1.46h-.55l.66-1.46h.99Z"/><path class="cls-4" d="M115.27,31.34h3.84l-2.38,3.66h2.38v.83h-3.94l2.36-3.66h-2.26v-.83Z"/><path class="cls-4" d="M122.72,35.83v-.58c-.19.21-.4.37-.65.48-.24.11-.48.17-.72.17-.28,0-.54-.07-.78-.21-.24-.14-.42-.33-.54-.58-.12-.24-.18-.65-.18-1.21v-2.57h.89v2.56c0,.47.07.8.2.99.14.19.37.28.71.28.42,0,.78-.21,1.08-.62v-3.21h.89v4.49h-.89Z"/><path class="cls-4" d="M128.69,33.66h-3.16c.02.43.17.77.43,1.03.27.25.61.38,1.03.38.59,0,1.13-.18,1.62-.55v.87c-.27.18-.54.31-.81.39-.27.08-.58.12-.94.12-.5,0-.9-.1-1.2-.31s-.55-.48-.74-.83c-.18-.35-.28-.75-.28-1.2,0-.68.19-1.24.58-1.67s.89-.64,1.51-.64,1.07.21,1.43.62.53.98.53,1.67v.11ZM125.55,33.13h2.26c-.02-.35-.13-.63-.32-.82s-.44-.29-.76-.29-.58.1-.78.29c-.2.19-.34.47-.4.82ZM127.72,28.9l-1.1,1.46h-.55l.66-1.46h.99Z"/><path class="cls-4" d="M129.67,29.01h.89v6.82h-.89v-6.82Z"/><path class="cls-4" d="M132.3,29.45c.15,0,.27.05.38.15s.16.22.16.37-.05.27-.16.37-.23.16-.38.16c-.14,0-.26-.05-.36-.16s-.16-.23-.16-.37.05-.26.16-.36.22-.16.36-.16ZM131.87,31.34h.89v4.49h-.89v-4.49Z"/><path class="cls-4" d="M137.87,33.66h-3.16c.02.43.17.77.43,1.03.27.25.61.38,1.03.38.59,0,1.13-.18,1.62-.55v.87c-.27.18-.54.31-.81.39-.27.08-.58.12-.94.12-.5,0-.9-.1-1.2-.31s-.55-.48-.74-.83c-.18-.35-.28-.75-.28-1.2,0-.68.19-1.24.58-1.67s.89-.64,1.51-.64,1.07.21,1.43.62.53.98.53,1.67v.11ZM134.73,33.13h2.26c-.02-.35-.13-.63-.32-.82s-.44-.29-.76-.29-.58.1-.78.29c-.2.19-.34.47-.4.82Z"/><path class="cls-4" d="M139.72,31.34v.57c.4-.44.85-.66,1.35-.66.28,0,.54.07.78.22s.42.34.55.6c.13.25.19.65.19,1.2v2.57h-.89v-2.56c0-.46-.07-.79-.21-.98s-.37-.3-.7-.3c-.42,0-.78.21-1.07.63v3.21h-.91v-4.49h.91Z"/></g></svg>