<?xml version="1.0" encoding="UTF-8"?><svg id="Calque_2" xmlns="http://www.w3.org/2000/svg" viewBox="0 0 188.09 21.08"><defs><style>.cls-1{fill:#fff;}.cls-2{fill:#e5bebe;stroke:#fff;stroke-linecap:square;stroke-linejoin:bevel;stroke-width:.5px;}</style></defs><g id="Légende"><rect class="cls-2" x=".25" y="2.27" width="26.26" height="16.09"/><path class="cls-1" d="M35.64,8.79V1.96h2.16c.65,0,1.17.18,1.56.53s.58.82.58,1.42c0,.4-.1.75-.3,1.05s-.47.53-.82.67-.84.21-1.48.21h-.72v2.96h-.98ZM37.63,2.83h-1.01v2.13h1.07c.4,0,.7-.09.92-.28s.32-.46.32-.8c0-.7-.43-1.05-1.3-1.05Z"/><path class="cls-1" d="M43.49,6.09v1.91c0,.15.05.23.16.23s.27-.08.5-.24v.54c-.2.13-.36.22-.49.27s-.25.07-.38.07c-.38,0-.61-.15-.67-.45-.38.29-.78.44-1.21.44-.31,0-.57-.1-.78-.31s-.31-.47-.31-.78c0-.28.1-.54.31-.76s.49-.4.87-.53l1.14-.39v-.24c0-.54-.27-.81-.81-.81-.48,0-.96.25-1.42.75v-.97c.35-.41.84-.61,1.49-.61.48,0,.87.13,1.17.38.1.08.19.19.26.32s.13.27.15.41.03.39.03.77ZM42.62,7.9v-1.33l-.6.23c-.3.12-.52.24-.64.36s-.19.27-.19.46.06.34.18.45.27.18.46.18c.28,0,.55-.12.79-.35Z"/><path class="cls-1" d="M47.29,4.3h1l-3.18,6.78h-.99l1.52-3.25-1.73-3.53h1.01l1.21,2.54,1.16-2.54Z"/><path class="cls-1" d="M48.7,8.47v-.96c.25.18.51.32.77.43s.48.16.66.16.35-.05.48-.14.2-.2.2-.33-.04-.24-.13-.32-.27-.21-.56-.37c-.57-.32-.95-.59-1.13-.82s-.27-.47-.27-.74c0-.35.13-.63.4-.84s.61-.33,1.04-.33.89.12,1.35.37v.88c-.53-.32-.96-.48-1.29-.48-.17,0-.31.04-.42.11s-.16.17-.16.29c0,.1.05.2.14.3.1.09.26.21.51.34l.32.18c.75.42,1.12.89,1.12,1.41,0,.37-.14.67-.43.91s-.66.35-1.11.35c-.27,0-.5-.03-.71-.09s-.47-.16-.79-.31Z"/><path class="cls-1" d="M57.69,4.29c.68,0,1.25.22,1.7.66s.68,1,.68,1.66-.23,1.19-.69,1.61-1.04.64-1.73.64-1.24-.22-1.69-.65-.68-.98-.68-1.63.23-1.21.69-1.64,1.03-.66,1.72-.66ZM57.64,5.09c-.43,0-.78.14-1.05.42s-.41.64-.41,1.07.14.78.42,1.05.64.41,1.08.41.79-.14,1.07-.41.42-.63.42-1.06-.15-.78-.43-1.06-.65-.42-1.09-.42Z"/><path class="cls-1" d="M63.92,8.79v-.58c-.19.21-.4.37-.65.48s-.48.17-.73.17c-.28,0-.54-.07-.78-.21s-.42-.33-.54-.58-.18-.65-.18-1.21v-2.57h.89v2.56c0,.47.07.8.2.99s.37.28.71.28c.42,0,.78-.21,1.08-.62v-3.21h.89v4.49h-.89ZM62.86,1.86l.67,1.46h-.55l-1.12-1.46h1Z"/><path class="cls-1" d="M68.86,1.97h.89v6.82h-.89V1.97Z"/><path class="cls-1" d="M74.86,6.62h-3.16c.02.43.17.77.43,1.03s.61.38,1.03.38c.59,0,1.13-.18,1.62-.55v.87c-.27.18-.54.31-.81.39s-.58.12-.94.12c-.49,0-.9-.1-1.2-.31s-.55-.48-.73-.83-.28-.75-.28-1.2c0-.68.19-1.24.58-1.67s.89-.64,1.51-.64,1.07.21,1.43.62.53.98.53,1.67v.11ZM71.72,6.09h2.26c-.02-.35-.13-.63-.32-.82s-.44-.29-.76-.29-.58.1-.78.29-.34.47-.4.82Z"/><path class="cls-1" d="M75.6,8.47v-.96c.25.18.51.32.77.43s.48.16.66.16.35-.05.48-.14.2-.2.2-.33-.04-.24-.13-.32-.27-.21-.56-.37c-.57-.32-.95-.59-1.13-.82s-.27-.47-.27-.74c0-.35.13-.63.4-.84s.61-.33,1.04-.33.89.12,1.35.37v.88c-.53-.32-.96-.48-1.29-.48-.17,0-.31.04-.42.11s-.16.17-.16.29c0,.1.05.2.14.3.1.09.26.21.51.34l.32.18c.75.42,1.12.89,1.12,1.41,0,.37-.14.67-.43.91s-.66.35-1.11.35c-.27,0-.5-.03-.71-.09s-.47-.16-.79-.31Z"/><path class="cls-1" d="M82.57,1.97h3.87v.87h-2.89v2.08h2.79v.87h-2.79v2.12h2.98v.87h-3.96V1.97ZM85.4,0l-1.1,1.46h-.55l.66-1.46h.99Z"/><path class="cls-1" d="M86.82,5.01l1.67-1.64v.93h1.42v.8h-1.42v2.2c0,.51.21.77.64.77.32,0,.66-.11,1.01-.32v.83c-.34.19-.71.29-1.12.29s-.75-.12-1.02-.36c-.08-.07-.15-.15-.21-.24s-.1-.21-.14-.35-.06-.42-.06-.83v-1.99h-.78v-.09Z"/><path class="cls-1" d="M93.6,6.09v1.91c0,.15.05.23.16.23s.27-.08.5-.24v.54c-.2.13-.36.22-.49.27s-.25.07-.38.07c-.38,0-.61-.15-.67-.45-.38.29-.78.44-1.21.44-.31,0-.57-.1-.78-.31s-.31-.47-.31-.78c0-.28.1-.54.31-.76s.49-.4.87-.53l1.14-.39v-.24c0-.54-.27-.81-.81-.81-.48,0-.96.25-1.42.75v-.97c.35-.41.84-.61,1.49-.61.48,0,.87.13,1.17.38.1.08.19.19.26.32s.13.27.15.41.03.39.03.77ZM92.72,7.9v-1.33l-.6.23c-.3.12-.52.24-.64.36s-.19.27-.19.46.06.34.18.45.27.18.46.18c.28,0,.55-.12.79-.35Z"/><path class="cls-1" d="M94.41,5.01l1.67-1.64v.93h1.42v.8h-1.42v2.2c0,.51.21.77.64.77.32,0,.66-.11,1.01-.32v.83c-.34.19-.71.29-1.12.29s-.75-.12-1.02-.36c-.08-.07-.15-.15-.21-.24s-.1-.21-.14-.35-.06-.42-.06-.83v-1.99h-.78v-.09Z"/><path class="cls-1" d="M98.15,8.47v-.96c.25.18.51.32.77.43s.48.16.66.16.35-.05.48-.14.2-.2.2-.33-.04-.24-.13-.32-.27-.21-.56-.37c-.57-.32-.95-.59-1.13-.82s-.27-.47-.27-.74c0-.35.13-.63.4-.84s.61-.33,1.04-.33.89.12,1.35.37v.88c-.53-.32-.96-.48-1.29-.48-.17,0-.31.04-.42.11s-.16.17-.16.29c0,.1.05.2.14.3.1.09.26.21.51.34l.32.18c.75.42,1.12.89,1.12,1.41,0,.37-.14.67-.43.91s-.66.35-1.11.35c-.27,0-.5-.03-.71-.09s-.47-.16-.79-.31Z"/><path class="cls-1" d="M101.99,6.1h2.43v.95h-2.43v-.95Z"/><path class="cls-1" d="M110.32,1.97h.98v3.87c0,.52-.04.92-.11,1.19s-.17.49-.28.67-.25.34-.41.48c-.54.47-1.25.7-2.12.7s-1.6-.23-2.14-.69c-.16-.14-.3-.3-.41-.48s-.21-.39-.28-.65-.11-.66-.11-1.21V1.97h.98v3.87c0,.64.07,1.09.22,1.34s.37.45.67.6.65.23,1.06.23c.58,0,1.05-.15,1.42-.45.19-.16.33-.35.42-.58s.13-.6.13-1.14V1.97Z"/><path class="cls-1" d="M113.42,4.3v.57c.4-.44.85-.66,1.35-.66.28,0,.54.07.78.22s.42.34.55.6.19.65.19,1.2v2.57h-.89v-2.56c0-.46-.07-.79-.21-.98s-.37-.3-.7-.3c-.42,0-.78.21-1.07.63v3.21h-.91v-4.49h.91Z"/><path class="cls-1" d="M117.99,2.41c.15,0,.27.05.38.15s.16.22.16.37-.05.27-.16.37-.23.16-.38.16c-.14,0-.26-.05-.36-.16s-.16-.23-.16-.37.05-.26.16-.36.22-.16.36-.16ZM117.55,4.3h.89v4.49h-.89v-4.49Z"/><path class="cls-1" d="M119.51,8.47v-.96c.25.18.51.32.77.43s.48.16.66.16.35-.05.48-.14.2-.2.2-.33-.04-.24-.13-.32-.27-.21-.56-.37c-.57-.32-.95-.59-1.13-.82s-.27-.47-.27-.74c0-.35.13-.63.4-.84s.61-.33,1.04-.33.89.12,1.35.37v.88c-.53-.32-.96-.48-1.29-.48-.17,0-.31.04-.42.11s-.16.17-.16.29c0,.1.05.2.14.3.1.09.26.21.51.34l.32.18c.75.42,1.12.89,1.12,1.41,0,.37-.14.67-.43.91s-.66.35-1.11.35c-.27,0-.5-.03-.71-.09s-.47-.16-.79-.31Z"/><path class="cls-1" d="M126.13,8.47v-.96c.25.18.51.32.77.43s.48.16.66.16.35-.05.48-.14.2-.2.2-.33-.04-.24-.13-.32-.27-.21-.56-.37c-.57-.32-.95-.59-1.13-.82s-.27-.47-.27-.74c0-.35.13-.63.4-.84s.61-.33,1.04-.33.89.12,1.35.37v.88c-.53-.32-.96-.48-1.29-.48-.17,0-.31.04-.42.11s-.16.17-.16.29c0,.1.05.2.14.3.1.09.26.21.51.34l.32.18c.75.42,1.12.89,1.12,1.41,0,.37-.14.67-.43.91s-.66.35-1.11.35c-.27,0-.5-.03-.71-.09s-.47-.16-.79-.31Z"/><path class="cls-1" d="M132.35,4.29c.68,0,1.25.22,1.7.66s.68,1,.68,1.66-.23,1.19-.69,1.61-1.04.64-1.73.64-1.24-.22-1.69-.65-.68-.98-.68-1.63.23-1.21.69-1.64,1.03-.66,1.72-.66ZM132.3,5.09c-.43,0-.78.14-1.05.42s-.41.64-.41,1.07.14.78.42,1.05.64.41,1.08.41.79-.14,1.07-.41.42-.63.42-1.06-.15-.78-.43-1.06-.65-.42-1.09-.42Z"/><path class="cls-1" d="M136.61,4.3v.57c.4-.44.85-.66,1.35-.66.28,0,.54.07.78.22s.42.34.55.6.19.65.19,1.2v2.57h-.89v-2.56c0-.46-.07-.79-.21-.98s-.37-.3-.7-.3c-.42,0-.78.21-1.07.63v3.21h-.91v-4.49h.91Z"/><path class="cls-1" d="M140.09,5.01l1.67-1.64v.93h1.42v.8h-1.42v2.2c0,.51.21.77.64.77.32,0,.66-.11,1.01-.32v.83c-.34.19-.71.29-1.12.29s-.75-.12-1.02-.36c-.08-.07-.15-.15-.21-.24s-.1-.21-.14-.35-.06-.42-.06-.83v-1.99h-.78v-.09Z"/><path class="cls-1" d="M147.28,2.41c.15,0,.27.05.38.15s.16.22.16.37-.05.27-.16.37-.23.16-.38.16c-.14,0-.26-.05-.36-.16s-.16-.23-.16-.37.05-.26.16-.36.22-.16.36-.16ZM146.84,4.3h.89v4.49h-.89v-4.49Z"/><path class="cls-1" d="M149.91,4.3v.57c.4-.44.85-.66,1.35-.66.28,0,.54.07.78.22s.42.34.55.6.19.65.19,1.2v2.57h-.89v-2.56c0-.46-.07-.79-.21-.98s-.37-.3-.7-.3c-.42,0-.78.21-1.07.63v3.21h-.91v-4.49h.91Z"/><path class="cls-1" d="M153.39,5.01l1.67-1.64v.93h1.42v.8h-1.42v2.2c0,.51.21.77.64.77.32,0,.66-.11,1.01-.32v.83c-.34.19-.71.29-1.12.29s-.75-.12-1.02-.36c-.08-.07-.15-.15-.21-.24s-.1-.21-.14-.35-.06-.42-.06-.83v-1.99h-.78v-.09Z"/><path class="cls-1" d="M161.18,6.62h-3.16c.02.43.17.77.43,1.03s.61.38,1.03.38c.59,0,1.13-.18,1.62-.55v.87c-.27.18-.54.31-.81.39s-.58.12-.94.12c-.49,0-.9-.1-1.2-.31s-.55-.48-.73-.83-.28-.75-.28-1.2c0-.68.19-1.24.58-1.67s.89-.64,1.51-.64,1.07.21,1.43.62.53.98.53,1.67v.11ZM158.04,6.09h2.26c-.02-.35-.13-.63-.32-.82s-.44-.29-.76-.29-.58.1-.78.29-.34.47-.4.82Z"/><path class="cls-1" d="M163.09,4.3v1.03l.05-.08c.43-.69.86-1.04,1.29-1.04.34,0,.69.17,1.05.51l-.47.78c-.31-.29-.6-.44-.86-.44-.29,0-.53.14-.74.41s-.31.6-.31.97v2.35h-.89v-4.49h.89Z"/><path class="cls-1" d="M169.15,4.3h.96l-1.98,4.57h-.3l-2.03-4.57h.97l1.21,2.76,1.17-2.76Z"/><path class="cls-1" d="M174.4,6.62h-3.16c.02.43.17.77.43,1.03s.61.38,1.03.38c.59,0,1.13-.18,1.62-.55v.87c-.27.18-.54.31-.81.39s-.58.12-.94.12c-.49,0-.9-.1-1.2-.31s-.55-.48-.73-.83-.28-.75-.28-1.2c0-.68.19-1.24.58-1.67s.89-.64,1.51-.64,1.07.21,1.43.62.53.98.53,1.67v.11ZM171.26,6.09h2.26c-.02-.35-.13-.63-.32-.82s-.44-.29-.76-.29-.58.1-.78.29-.34.47-.4.82Z"/><path class="cls-1" d="M176.25,4.3v.57c.4-.44.85-.66,1.35-.66.28,0,.54.07.78.22.24.15.42.34.55.6s.19.65.19,1.2v2.57h-.89v-2.56c0-.46-.07-.79-.21-.98-.14-.2-.38-.3-.7-.3-.42,0-.78.21-1.07.63v3.21h-.91v-4.49h.91Z"/><path class="cls-1" d="M183.13,8.79v-.58c-.19.21-.4.37-.65.48-.24.11-.48.17-.72.17-.28,0-.54-.07-.78-.21-.24-.14-.42-.33-.54-.58-.12-.24-.18-.65-.18-1.21v-2.57h.89v2.56c0,.47.07.8.2.99.14.19.37.28.71.28.42,0,.78-.21,1.08-.62v-3.21h.89v4.49h-.89Z"/><path class="cls-1" d="M185.05,8.47v-.96c.25.18.51.32.77.43.26.11.48.16.66.16s.34-.05.48-.14.2-.2.2-.33-.04-.24-.13-.32c-.09-.09-.27-.21-.56-.37-.57-.32-.95-.59-1.13-.82-.18-.23-.27-.47-.27-.74,0-.35.13-.63.4-.84.27-.22.62-.33,1.04-.33s.89.12,1.35.37v.88c-.53-.32-.96-.48-1.29-.48-.17,0-.31.04-.42.11-.11.07-.16.17-.16.29,0,.1.05.2.14.3.1.09.26.21.51.34l.32.18c.75.42,1.12.89,1.12,1.41,0,.37-.14.67-.43.91-.29.24-.66.35-1.11.35-.27,0-.5-.03-.71-.09s-.47-.16-.79-.31Z"/><path class="cls-1" d="M39.25,15.53v3.26h-.89v-2.5c0-.5-.07-.85-.2-1.04s-.37-.3-.7-.3c-.19,0-.36.04-.51.13s-.33.23-.53.45v3.26h-.89v-4.49h.89v.59c.45-.45.9-.68,1.33-.68.57,0,1.01.27,1.32.81.48-.55.97-.82,1.49-.82.44,0,.79.16,1.08.48s.42.81.42,1.46v2.65h-.89v-2.66c0-.37-.08-.66-.23-.86s-.37-.3-.66-.3c-.37,0-.71.19-1.03.56Z"/><path class="cls-1" d="M43.74,12.41c.15,0,.27.05.38.15s.16.22.16.37-.05.27-.16.37-.23.16-.38.16c-.14,0-.26-.05-.36-.16s-.16-.23-.16-.37.05-.26.16-.36.22-.16.36-.16ZM43.3,14.3h.89v4.49h-.89v-4.49Z"/><path class="cls-1" d="M45.49,11.97h.89v6.82h-.89v-6.82Z"/><path class="cls-1" d="M48.12,12.41c.15,0,.27.05.38.15s.16.22.16.37-.05.27-.16.37-.23.16-.38.16c-.14,0-.26-.05-.36-.16s-.16-.23-.16-.37.05-.26.16-.36.22-.16.36-.16ZM47.68,14.3h.89v4.49h-.89v-4.49Z"/><path class="cls-1" d="M49.23,15.01l1.67-1.64v.93h1.42v.8h-1.42v2.2c0,.51.21.77.64.77.32,0,.66-.11,1.01-.32v.83c-.34.19-.71.29-1.12.29s-.75-.12-1.02-.36c-.08-.07-.15-.15-.21-.24s-.1-.21-.14-.35-.06-.42-.06-.83v-1.99h-.78v-.09Z"/><path class="cls-1" d="M56.01,16.09v1.91c0,.15.05.23.16.23s.27-.08.5-.24v.54c-.2.13-.36.22-.49.27s-.25.07-.38.07c-.38,0-.61-.15-.67-.45-.38.29-.78.44-1.21.44-.31,0-.57-.1-.78-.31s-.31-.47-.31-.78c0-.28.1-.54.31-.76s.49-.4.87-.53l1.14-.39v-.24c0-.54-.27-.81-.81-.81-.48,0-.96.25-1.42.75v-.97c.35-.41.84-.61,1.49-.61.48,0,.87.13,1.17.38.1.08.19.19.26.32s.13.27.15.41.03.39.03.77ZM55.14,17.9v-1.33l-.6.23c-.3.12-.52.24-.64.36s-.19.27-.19.46.06.34.18.45.27.18.46.18c.28,0,.55-.12.79-.35Z"/><path class="cls-1" d="M57.91,12.41c.15,0,.27.05.38.15s.16.22.16.37-.05.27-.16.37-.23.16-.38.16c-.14,0-.26-.05-.36-.16s-.16-.23-.16-.37.05-.26.16-.36.22-.16.36-.16ZM57.47,14.3h.89v4.49h-.89v-4.49Z"/><path class="cls-1" d="M60.6,14.3v1.03l.05-.08c.43-.69.86-1.04,1.29-1.04.34,0,.69.17,1.05.51l-.47.78c-.31-.29-.6-.44-.86-.44-.29,0-.53.14-.74.41s-.31.6-.31.97v2.35h-.89v-4.49h.89Z"/><path class="cls-1" d="M67.24,16.62h-3.16c.02.43.17.77.43,1.03s.61.38,1.03.38c.59,0,1.13-.18,1.62-.55v.87c-.27.18-.54.31-.81.39s-.58.12-.94.12c-.49,0-.9-.1-1.2-.31s-.55-.48-.73-.83-.28-.75-.28-1.2c0-.68.19-1.24.58-1.67s.89-.64,1.51-.64,1.07.21,1.43.62.53.98.53,1.67v.11ZM64.1,16.09h2.26c-.02-.35-.13-.63-.32-.82s-.44-.29-.76-.29-.58.1-.78.29-.34.47-.4.82Z"/><path class="cls-1" d="M71.88,15.53v3.26h-.89v-2.5c0-.5-.07-.85-.2-1.04s-.37-.3-.7-.3c-.19,0-.36.04-.51.13s-.33.23-.53.45v3.26h-.89v-4.49h.89v.59c.45-.45.9-.68,1.33-.68.57,0,1.01.27,1.32.81.48-.55.97-.82,1.49-.82.44,0,.79.16,1.08.48s.42.81.42,1.46v2.65h-.89v-2.66c0-.37-.08-.66-.23-.86s-.37-.3-.66-.3c-.37,0-.71.19-1.03.56Z"/><path class="cls-1" d="M79.74,16.62h-3.16c.02.43.17.77.43,1.03s.61.38,1.03.38c.59,0,1.13-.18,1.62-.55v.87c-.27.18-.54.31-.81.39s-.58.12-.94.12c-.49,0-.9-.1-1.2-.31s-.55-.48-.73-.83-.28-.75-.28-1.2c0-.68.19-1.24.58-1.67s.89-.64,1.51-.64,1.07.21,1.43.62.53.98.53,1.67v.11ZM76.6,16.09h2.26c-.02-.35-.13-.63-.32-.82s-.44-.29-.76-.29-.58.1-.78.29-.34.47-.4.82Z"/><path class="cls-1" d="M81.59,14.3v.57c.4-.44.85-.66,1.35-.66.28,0,.54.07.78.22s.42.34.55.6.19.65.19,1.2v2.57h-.89v-2.56c0-.46-.07-.79-.21-.98s-.37-.3-.7-.3c-.42,0-.78.21-1.07.63v3.21h-.91v-4.49h.91Z"/><path class="cls-1" d="M85.07,15.01l1.67-1.64v.93h1.42v.8h-1.42v2.2c0,.51.21.77.64.77.32,0,.66-.11,1.01-.32v.83c-.34.19-.71.29-1.12.29s-.75-.12-1.02-.36c-.08-.07-.15-.15-.21-.24s-.1-.21-.14-.35-.06-.42-.06-.83v-1.99h-.78v-.09Z"/><path class="cls-1" d="M93.73,11.88h.55c-.41.61-.7,1.12-.89,1.55s-.32.92-.42,1.48-.14,1.09-.14,1.61c0,1.78.48,3.3,1.44,4.56h-.55l-.15-.18c-.37-.44-.64-.81-.82-1.09s-.35-.65-.53-1.1c-.28-.72-.42-1.46-.42-2.22s.14-1.51.42-2.22.78-1.51,1.49-2.39Z"/><path class="cls-1" d="M98.04,11.97h.89v6.82h-1.9c-.66,0-1.19-.21-1.59-.63s-.59-.98-.59-1.69c0-.66.21-1.2.62-1.63s.94-.64,1.59-.64c.3,0,.62.06.98.19v-2.42ZM98.04,18.03v-2.85c-.28-.14-.56-.21-.84-.21-.44,0-.79.15-1.06.43s-.39.68-.39,1.17c0,.46.11.82.34,1.07.14.15.28.25.43.3s.43.08.83.08h.69Z"/><path class="cls-1" d="M103.96,16.62h-3.16c.02.43.17.77.43,1.03s.61.38,1.03.38c.59,0,1.13-.18,1.62-.55v.87c-.27.18-.54.31-.81.39s-.58.12-.94.12c-.49,0-.9-.1-1.2-.31s-.55-.48-.73-.83-.28-.75-.28-1.2c0-.68.19-1.24.58-1.67s.89-.64,1.51-.64,1.07.21,1.43.62.53.98.53,1.67v.11ZM100.82,16.09h2.26c-.02-.35-.13-.63-.32-.82s-.44-.29-.76-.29-.58.1-.78.29-.34.47-.4.82Z"/><path class="cls-1" d="M107.81,14.3v-.27c0-.72.15-1.26.46-1.62s.68-.53,1.11-.53c.19,0,.41.03.66.09v.87c-.14-.05-.28-.08-.41-.08-.35,0-.59.09-.73.28s-.2.52-.2.99v.27h.8v.8h-.8v3.69h-.89v-3.69h-.64v-.8h.64Z"/><path class="cls-1" d="M113.03,16.09v1.91c0,.15.05.23.16.23s.27-.08.5-.24v.54c-.2.13-.36.22-.49.27s-.25.07-.38.07c-.38,0-.61-.15-.67-.45-.38.29-.78.44-1.21.44-.31,0-.57-.1-.78-.31s-.31-.47-.31-.78c0-.28.1-.54.31-.76s.49-.4.87-.53l1.14-.39v-.24c0-.54-.27-.81-.81-.81-.48,0-.96.25-1.42.75v-.97c.35-.41.84-.61,1.49-.61.48,0,.87.13,1.17.38.1.08.19.19.26.32s.13.27.15.41.03.39.03.77ZM112.15,17.9v-1.33l-.6.23c-.3.12-.52.24-.64.36s-.19.27-.19.46.06.34.18.45.27.18.46.18c.28,0,.55-.12.79-.35Z"/><path class="cls-1" d="M116.47,18.87l-.02.08c.18.04.31.12.41.24s.15.26.15.41c0,.25-.1.46-.3.63s-.52.26-.95.26c-.12,0-.23,0-.32-.02v-.55c.17.01.27.02.31.02.19,0,.33-.04.43-.11.06-.04.09-.1.09-.17,0-.08-.03-.14-.1-.2s-.19-.08-.37-.08c-.04,0-.07,0-.11.01l.21-.6c-.42-.09-.81-.32-1.16-.67s-.53-.88-.53-1.57.2-1.28.61-1.71.94-.65,1.61-.65c.23,0,.44.02.62.07s.41.13.68.25v.95c-.45-.29-.87-.43-1.25-.43s-.73.14-.99.42-.39.64-.39,1.08c0,.46.14.82.42,1.09s.65.41,1.13.41c.34,0,.73-.1,1.18-.3v.88c-.45.17-.88.25-1.31.25h-.06Z"/><path class="cls-1" d="M121,14.29c.68,0,1.25.22,1.7.66s.68,1,.68,1.66-.23,1.19-.69,1.61-1.04.64-1.73.64-1.24-.22-1.69-.65-.68-.98-.68-1.63.23-1.21.69-1.64,1.03-.66,1.72-.66ZM120.95,15.09c-.43,0-.78.14-1.05.42s-.41.64-.41,1.07.14.78.42,1.05.64.41,1.08.41.79-.14,1.07-.41.42-.63.42-1.06-.15-.78-.43-1.06-.65-.42-1.09-.42Z"/><path class="cls-1" d="M125.26,14.3v.57c.4-.44.85-.66,1.35-.66.28,0,.54.07.78.22s.42.34.55.6.19.65.19,1.2v2.57h-.89v-2.56c0-.46-.07-.79-.21-.98s-.37-.3-.7-.3c-.42,0-.78.21-1.07.63v3.21h-.91v-4.49h.91Z"/><path class="cls-1" d="M135.15,11.97h.89v6.82h-1.9c-.66,0-1.19-.21-1.59-.63s-.59-.98-.59-1.69c0-.66.21-1.2.62-1.63s.94-.64,1.59-.64c.3,0,.62.06.98.19v-2.42ZM135.15,18.03v-2.85c-.28-.14-.56-.21-.84-.21-.44,0-.79.15-1.06.43s-.39.68-.39,1.17c0,.46.11.82.34,1.07.14.15.28.25.43.3s.43.08.83.08h.69Z"/><path class="cls-1" d="M137.7,12.41c.15,0,.27.05.38.15s.16.22.16.37-.05.27-.16.37-.23.16-.38.16c-.14,0-.26-.05-.36-.16s-.16-.23-.16-.37.05-.26.16-.36.22-.16.36-.16ZM137.26,14.3h.89v4.49h-.89v-4.49Z"/><path class="cls-1" d="M140.39,14.3v1.03l.05-.08c.43-.69.86-1.04,1.29-1.04.34,0,.69.17,1.05.51l-.47.78c-.31-.29-.6-.44-.86-.44-.29,0-.53.14-.74.41s-.31.6-.31.97v2.35h-.89v-4.49h.89Z"/><path class="cls-1" d="M147.03,16.62h-3.16c.02.43.17.77.43,1.03s.61.38,1.03.38c.59,0,1.13-.18,1.62-.55v.87c-.27.18-.54.31-.81.39s-.58.12-.94.12c-.49,0-.9-.1-1.2-.31s-.55-.48-.73-.83-.28-.75-.28-1.2c0-.68.19-1.24.58-1.67s.89-.64,1.51-.64,1.07.21,1.43.62.53.98.53,1.67v.11ZM143.89,16.09h2.26c-.02-.35-.13-.63-.32-.82s-.44-.29-.76-.29-.58.1-.78.29-.34.47-.4.82Z"/><path class="cls-1" d="M151.36,17.74v.88c-.45.17-.88.25-1.31.25-.7,0-1.26-.21-1.68-.62s-.63-.98-.63-1.67.2-1.28.61-1.71.94-.65,1.61-.65c.23,0,.44.02.62.07s.41.13.68.25v.95c-.45-.29-.87-.43-1.25-.43s-.73.14-.99.42-.39.64-.39,1.08c0,.46.14.82.42,1.09s.65.41,1.13.41c.34,0,.73-.1,1.18-.3Z"/><path class="cls-1" d="M151.74,15.01l1.67-1.64v.93h1.42v.8h-1.42v2.2c0,.51.21.77.64.77.32,0,.66-.11,1.01-.32v.83c-.34.19-.71.29-1.12.29s-.75-.12-1.02-.36c-.08-.07-.15-.15-.21-.24s-.1-.21-.14-.35-.06-.42-.06-.83v-1.99h-.78v-.09Z"/><path class="cls-1" d="M159.53,16.62h-3.16c.02.43.17.77.43,1.03s.61.38,1.03.38c.59,0,1.13-.18,1.62-.55v.87c-.27.18-.54.31-.81.39s-.58.12-.94.12c-.49,0-.9-.1-1.2-.31s-.55-.48-.73-.83-.28-.75-.28-1.2c0-.68.19-1.24.58-1.67s.89-.64,1.51-.64,1.07.21,1.43.62.53.98.53,1.67v.11ZM156.39,16.09h2.26c-.02-.35-.13-.63-.32-.82s-.44-.29-.76-.29-.58.1-.78.29-.34.47-.4.82Z"/><path class="cls-1" d="M160.53,21.08h-.55c.42-.64.72-1.18.9-1.62s.31-.93.4-1.46.13-1.04.13-1.53c0-.57-.05-1.11-.15-1.65s-.26-1.03-.46-1.51-.48-.95-.82-1.42h.55l.15.18c.36.43.64.79.81,1.07s.35.65.53,1.11c.28.72.42,1.47.42,2.24s-.13,1.44-.39,2.12c-.13.34-.29.68-.48,1.01s-.54.82-1.05,1.46Z"/></g></svg>