<?xml version="1.0" encoding="UTF-8"?><svg id="Calque_2" xmlns="http://www.w3.org/2000/svg" viewBox="0 0 172.83 46"><defs><style>.cls-1{fill:#fff;}.cls-2{fill:#24397b;stroke:#232323;stroke-linecap:square;stroke-linejoin:bevel;stroke-width:.26px;}.cls-3{fill:#9f2e2e;}</style></defs><g id="Légende"><rect class="cls-2" x=".19" y=".72" width="26.26" height="16.09"/><rect class="cls-3" y="27.6" width="26.26" height="16.09"/><path class="cls-1" d="M36.85,6.83V0h2.16c.65,0,1.17.18,1.56.53s.58.82.58,1.42c0,.4-.1.75-.3,1.05s-.47.53-.82.67-.84.21-1.48.21h-.72v2.96h-.98ZM38.84.87h-1.01v2.13h1.07c.4,0,.7-.09.92-.28s.32-.46.32-.8c0-.7-.43-1.05-1.3-1.05Z"/><path class="cls-1" d="M44.7,4.13v1.91c0,.15.05.23.16.23s.27-.08.5-.24v.54c-.2.13-.36.22-.49.27s-.25.07-.38.07c-.38,0-.61-.15-.67-.45-.38.29-.78.44-1.21.44-.31,0-.57-.1-.78-.31s-.31-.47-.31-.78c0-.28.1-.54.31-.76s.49-.4.87-.53l1.14-.39v-.24c0-.54-.27-.81-.81-.81-.48,0-.96.25-1.42.75v-.97c.35-.41.84-.61,1.49-.61.48,0,.87.13,1.17.38.1.08.19.19.26.32s.13.27.15.41.03.39.03.77ZM43.82,5.94v-1.33l-.6.23c-.3.12-.52.24-.64.36s-.19.27-.19.46.06.34.18.45.27.18.46.18c.28,0,.55-.12.79-.35Z"/><path class="cls-1" d="M48.5,2.34h1l-3.18,6.78h-.99l1.52-3.25-1.73-3.53h1.01l1.21,2.54,1.16-2.54Z"/><path class="cls-1" d="M49.9,6.51v-.96c.25.18.51.32.77.43s.48.16.66.16.35-.05.48-.14.2-.2.2-.33-.04-.24-.13-.32-.27-.21-.56-.37c-.57-.32-.95-.59-1.13-.82s-.27-.47-.27-.74c0-.35.13-.63.4-.84s.61-.33,1.04-.33.89.12,1.35.37v.88c-.53-.32-.96-.48-1.29-.48-.17,0-.31.04-.42.11s-.16.17-.16.29c0,.1.05.2.14.3.1.09.26.21.51.34l.32.18c.75.42,1.12.89,1.12,1.41,0,.37-.14.67-.43.91s-.66.35-1.11.35c-.27,0-.5-.03-.71-.09s-.47-.16-.79-.31Z"/><path class="cls-1" d="M59.75,0h.89v6.82h-1.9c-.66,0-1.19-.21-1.59-.63s-.59-.98-.59-1.69c0-.66.21-1.2.62-1.63s.94-.64,1.59-.64c.3,0,.62.06.98.19V0ZM59.75,6.07v-2.85c-.28-.14-.56-.21-.84-.21-.44,0-.79.15-1.06.43s-.39.68-.39,1.17c0,.46.11.82.34,1.07.14.15.28.25.43.3s.43.08.83.08h.69Z"/><path class="cls-1" d="M64,2.33c.68,0,1.25.22,1.7.66s.68,1,.68,1.66-.23,1.19-.69,1.61-1.04.64-1.73.64-1.24-.22-1.69-.65-.68-.98-.68-1.63.23-1.21.69-1.64,1.03-.66,1.72-.66ZM63.95,3.13c-.43,0-.78.14-1.05.42s-.41.64-.41,1.07.14.78.42,1.05.64.41,1.08.41.79-.14,1.07-.41.42-.63.42-1.06-.15-.78-.43-1.06-.65-.42-1.09-.42Z"/><path class="cls-1" d="M68.25,2.34v.57c.4-.44.85-.66,1.35-.66.28,0,.54.07.78.22s.42.34.55.6.19.65.19,1.2v2.57h-.89v-2.56c0-.46-.07-.79-.21-.98s-.37-.3-.7-.3c-.42,0-.78.21-1.07.63v3.21h-.91V2.34h.91Z"/><path class="cls-1" d="M71.73,3.05l1.67-1.64v.93h1.42v.8h-1.42v2.2c0,.51.21.77.64.77.32,0,.66-.11,1.01-.32v.83c-.34.19-.71.29-1.12.29s-.75-.12-1.02-.36c-.08-.07-.15-.15-.21-.24s-.1-.21-.14-.35-.06-.42-.06-.83v-1.99h-.78v-.09Z"/><path class="cls-1" d="M78.49,0h.89v6.82h-.89V0Z"/><path class="cls-1" d="M84.49,4.66h-3.16c.02.43.17.77.43,1.03s.61.38,1.03.38c.59,0,1.13-.18,1.62-.55v.87c-.27.18-.54.31-.81.39s-.58.12-.94.12c-.49,0-.9-.1-1.2-.31s-.55-.48-.73-.83-.28-.75-.28-1.2c0-.68.19-1.24.58-1.67s.89-.64,1.51-.64,1.07.21,1.43.62.53.98.53,1.67v.11ZM81.35,4.13h2.26c-.02-.35-.13-.63-.32-.82s-.44-.29-.76-.29-.58.1-.78.29-.34.47-.4.82Z"/><path class="cls-1" d="M88.17,9.12V2.34h1.56c.8,0,1.42.2,1.86.6.44.4.67.95.67,1.67,0,.67-.21,1.23-.63,1.66s-.95.65-1.6.65c-.29,0-.6-.06-.95-.19v2.4h-.91ZM89.71,3.17h-.63v2.76c.27.14.56.21.86.21.42,0,.76-.15,1.02-.43s.4-.66.4-1.12c0-.29-.06-.55-.19-.78s-.3-.39-.51-.49-.53-.15-.95-.15Z"/><path class="cls-1" d="M94.19,2.34v1.03l.05-.08c.43-.69.86-1.04,1.29-1.04.34,0,.69.17,1.05.51l-.47.78c-.31-.29-.6-.44-.86-.44-.29,0-.53.14-.74.41s-.31.6-.31.97v2.35h-.89V2.34h.89Z"/><path class="cls-1" d="M100.82,4.66h-3.16c.02.43.17.77.43,1.03s.61.38,1.03.38c.59,0,1.13-.18,1.62-.55v.87c-.27.18-.54.31-.81.39s-.58.12-.94.12c-.49,0-.9-.1-1.2-.31s-.55-.48-.73-.83-.28-.75-.28-1.2c0-.68.19-1.24.58-1.67s.89-.64,1.51-.64,1.07.21,1.43.62.53.98.53,1.67v.11ZM97.68,4.13h2.26c-.02-.35-.13-.63-.32-.82s-.44-.29-.76-.29-.58.1-.78.29-.34.47-.4.82Z"/><path class="cls-1" d="M105.46,3.57v3.26h-.89v-2.5c0-.5-.07-.85-.2-1.04s-.37-.3-.7-.3c-.19,0-.36.04-.51.13s-.33.23-.53.45v3.26h-.89V2.34h.89v.59c.45-.45.9-.68,1.33-.68.57,0,1.01.27,1.32.81.48-.55.97-.82,1.49-.82.44,0,.79.16,1.08.48s.42.81.42,1.46v2.65h-.89v-2.66c0-.37-.08-.66-.23-.86s-.37-.3-.66-.3c-.37,0-.71.19-1.03.56Z"/><path class="cls-1" d="M109.95.45c.15,0,.27.05.38.15.1.1.16.22.16.37s-.05.27-.16.37c-.1.1-.23.16-.38.16-.14,0-.26-.05-.36-.16s-.16-.23-.16-.37.05-.26.16-.36.22-.16.36-.16ZM109.51,2.34h.89v4.49h-.89V2.34Z"/><path class="cls-1" d="M115.51,4.66h-3.16c.02.43.17.77.43,1.03.27.25.61.38,1.03.38.59,0,1.13-.18,1.62-.55v.87c-.27.18-.54.31-.81.39-.27.08-.58.12-.94.12-.5,0-.9-.1-1.2-.31s-.55-.48-.74-.83c-.18-.35-.28-.75-.28-1.2,0-.68.19-1.24.58-1.67s.89-.64,1.51-.64,1.07.21,1.43.62.53.98.53,1.67v.11ZM112.37,4.13h2.26c-.02-.35-.13-.63-.32-.82s-.44-.29-.76-.29-.58.1-.78.29c-.2.19-.34.47-.4.82Z"/><path class="cls-1" d="M117.43,2.34v1.03l.05-.08c.43-.69.86-1.04,1.29-1.04.33,0,.69.17,1.05.51l-.47.78c-.31-.29-.6-.44-.86-.44-.29,0-.53.14-.75.41-.21.27-.31.6-.31.97v2.35h-.89V2.34h.89Z"/><path class="cls-1" d="M123.67.45c.15,0,.27.05.38.15s.16.22.16.37-.05.27-.16.37-.23.16-.38.16c-.14,0-.26-.05-.36-.16s-.16-.23-.16-.37.05-.26.16-.36.22-.16.36-.16ZM123.23,2.34h.89v4.49h-.89V2.34Z"/><path class="cls-1" d="M129.09,3.57v3.26h-.89v-2.5c0-.5-.07-.85-.2-1.04s-.37-.3-.7-.3c-.19,0-.36.04-.51.13-.16.08-.33.23-.53.45v3.26h-.89V2.34h.89v.59c.45-.45.9-.68,1.33-.68.57,0,1.01.27,1.32.81.48-.55.97-.82,1.49-.82.44,0,.79.16,1.08.48.28.32.42.81.42,1.46v2.65h-.89v-2.66c0-.37-.08-.66-.23-.86s-.37-.3-.66-.3c-.37,0-.71.19-1.03.56Z"/><path class="cls-1" d="M133.06,9.12V2.34h1.56c.8,0,1.42.2,1.86.6.44.4.67.95.67,1.67,0,.67-.21,1.23-.63,1.66-.42.43-.95.65-1.6.65-.29,0-.6-.06-.95-.19v2.4h-.91ZM134.6,3.17h-.63v2.76c.27.14.56.21.86.21.42,0,.76-.15,1.02-.43s.4-.66.4-1.12c0-.29-.06-.55-.19-.78s-.3-.39-.51-.49-.53-.15-.95-.15Z"/><path class="cls-1" d="M140.27,2.33c.68,0,1.25.22,1.7.66s.68,1,.68,1.66-.23,1.19-.69,1.61-1.04.64-1.73.64-1.24-.22-1.69-.65-.68-.98-.68-1.63.23-1.21.69-1.64c.46-.44,1.03-.66,1.72-.66ZM140.22,3.13c-.43,0-.78.14-1.05.42s-.41.64-.41,1.07.14.78.42,1.05.64.41,1.08.41.79-.14,1.07-.41c.28-.27.42-.63.42-1.06s-.14-.78-.43-1.06-.65-.42-1.09-.42Z"/><path class="cls-1" d="M144.59,2.34v1.03l.05-.08c.43-.69.86-1.04,1.29-1.04.33,0,.69.17,1.05.51l-.47.78c-.31-.29-.6-.44-.86-.44-.29,0-.53.14-.75.41-.21.27-.31.6-.31.97v2.35h-.89V2.34h.89Z"/><path class="cls-1" d="M147.16,3.05l1.67-1.64v.93h1.42v.8h-1.42v2.2c0,.51.21.77.64.77.32,0,.66-.11,1.01-.32v.83c-.34.19-.71.29-1.12.29s-.75-.12-1.02-.36c-.08-.07-.15-.15-.21-.24s-.1-.21-.14-.35c-.04-.15-.06-.42-.06-.83v-1.99h-.78v-.09Z"/><path class="cls-1" d="M153.95,4.13v1.91c0,.15.05.23.16.23s.28-.08.5-.24v.54c-.2.13-.36.22-.49.27-.12.05-.25.07-.38.07-.38,0-.61-.15-.67-.45-.38.29-.78.44-1.21.44-.31,0-.57-.1-.78-.31s-.31-.47-.31-.78c0-.28.1-.54.31-.76.2-.22.49-.4.87-.53l1.14-.39v-.24c0-.54-.27-.81-.81-.81-.49,0-.96.25-1.42.75v-.97c.34-.41.84-.61,1.49-.61.49,0,.87.13,1.17.38.1.08.19.19.26.32s.13.27.15.41c.02.14.03.39.03.77ZM153.07,5.94v-1.33l-.6.23c-.3.12-.52.24-.64.36-.12.12-.19.27-.19.46s.06.34.18.45c.12.12.27.18.46.18.28,0,.54-.12.79-.35Z"/><path class="cls-1" d="M154.76,3.05l1.67-1.64v.93h1.42v.8h-1.42v2.2c0,.51.21.77.64.77.32,0,.66-.11,1.01-.32v.83c-.34.19-.71.29-1.12.29s-.75-.12-1.02-.36c-.08-.07-.15-.15-.21-.24s-.1-.21-.14-.35c-.04-.15-.06-.42-.06-.83v-1.99h-.78v-.09Z"/><path class="cls-1" d="M162.55,4.66h-3.16c.02.43.17.77.43,1.03.27.25.61.38,1.03.38.59,0,1.13-.18,1.62-.55v.87c-.27.18-.54.31-.81.39-.27.08-.58.12-.94.12-.5,0-.9-.1-1.2-.31s-.55-.48-.74-.83c-.18-.35-.28-.75-.28-1.2,0-.68.19-1.24.58-1.67s.89-.64,1.51-.64,1.07.21,1.43.62.53.98.53,1.67v.11ZM159.41,4.13h2.26c-.02-.35-.13-.63-.32-.82s-.44-.29-.76-.29-.58.1-.78.29c-.2.19-.34.47-.4.82Z"/><path class="cls-1" d="M166.37,6.83v-.58c-.19.21-.4.37-.65.48-.24.11-.48.17-.72.17-.28,0-.54-.07-.78-.21-.24-.14-.42-.33-.54-.58-.12-.24-.18-.65-.18-1.21v-2.57h.89v2.56c0,.47.07.8.2.99.14.19.37.28.71.28.42,0,.78-.21,1.08-.62v-3.21h.89v4.49h-.89Z"/><path class="cls-1" d="M169.46,2.34v1.03l.05-.08c.43-.69.86-1.04,1.29-1.04.33,0,.69.17,1.05.51l-.47.78c-.31-.29-.6-.44-.86-.44-.29,0-.53.14-.75.41-.21.27-.31.6-.31.97v2.35h-.89V2.34h.89Z"/><path class="cls-1" d="M39.78,10.01h.89v6.82h-1.9c-.66,0-1.19-.21-1.59-.63s-.59-.98-.59-1.69c0-.66.21-1.2.62-1.63s.94-.64,1.59-.64c.3,0,.62.06.98.19v-2.42ZM39.78,16.07v-2.85c-.28-.14-.56-.21-.84-.21-.44,0-.79.15-1.06.43s-.39.68-.39,1.17c0,.46.11.82.34,1.07.14.15.28.25.43.3s.43.08.83.08h.69Z"/><path class="cls-1" d="M45.7,14.66h-3.16c.02.43.17.77.43,1.03s.61.38,1.03.38c.59,0,1.13-.18,1.62-.55v.87c-.27.18-.54.31-.81.39s-.58.12-.94.12c-.49,0-.9-.1-1.2-.31s-.55-.48-.73-.83-.28-.75-.28-1.2c0-.68.19-1.24.58-1.67s.89-.64,1.51-.64,1.07.21,1.43.62.53.98.53,1.67v.11ZM42.56,14.13h2.26c-.02-.35-.13-.63-.32-.82s-.44-.29-.76-.29-.58.1-.78.29-.34.47-.4.82Z"/><path class="cls-1" d="M49.39,19.12v-6.78h1.56c.8,0,1.42.2,1.86.6.44.4.67.95.67,1.67,0,.67-.21,1.23-.63,1.66s-.95.65-1.6.65c-.29,0-.6-.06-.95-.19v2.4h-.91ZM50.92,13.17h-.63v2.76c.27.14.56.21.86.21.42,0,.76-.15,1.02-.43s.4-.66.4-1.12c0-.29-.06-.55-.19-.78s-.3-.39-.51-.49-.53-.15-.95-.15Z"/><path class="cls-1" d="M58.27,14.66h-3.16c.02.43.17.77.43,1.03s.61.38,1.03.38c.59,0,1.13-.18,1.62-.55v.87c-.27.18-.54.31-.81.39s-.58.12-.94.12c-.49,0-.9-.1-1.2-.31s-.55-.48-.73-.83-.28-.75-.28-1.2c0-.68.19-1.24.58-1.67s.89-.64,1.51-.64,1.07.21,1.43.62.53.98.53,1.67v.11ZM55.13,14.13h2.26c-.02-.35-.13-.63-.32-.82s-.44-.29-.76-.29-.58.1-.78.29-.34.47-.4.82ZM57.31,9.9l-1.1,1.46h-.55l.66-1.46h.99Z"/><path class="cls-1" d="M58.6,13.05l1.67-1.64v.93h1.42v.8h-1.42v2.2c0,.51.21.77.64.77.32,0,.66-.11,1.01-.32v.83c-.34.19-.71.29-1.12.29s-.75-.12-1.02-.36c-.08-.07-.15-.15-.21-.24s-.1-.21-.14-.35-.06-.42-.06-.83v-1.99h-.78v-.09Z"/><path class="cls-1" d="M63.52,12.34v1.03l.05-.08c.43-.69.86-1.04,1.29-1.04.34,0,.69.17,1.05.51l-.47.78c-.31-.29-.6-.44-.86-.44-.29,0-.53.14-.74.41s-.31.6-.31.97v2.35h-.89v-4.49h.89Z"/><path class="cls-1" d="M68.42,12.33c.68,0,1.25.22,1.7.66s.68,1,.68,1.66-.23,1.19-.69,1.61-1.04.64-1.73.64-1.24-.22-1.69-.65-.68-.98-.68-1.63.23-1.21.69-1.64,1.03-.66,1.72-.66ZM68.37,13.13c-.43,0-.78.14-1.05.42s-.41.64-.41,1.07.14.78.42,1.05.64.41,1.08.41.79-.14,1.07-.41.42-.63.42-1.06-.15-.78-.43-1.06-.65-.42-1.09-.42Z"/><path class="cls-1" d="M71.81,10.01h.89v6.82h-.89v-6.82Z"/><path class="cls-1" d="M77.81,14.66h-3.16c.02.43.17.77.43,1.03s.61.38,1.03.38c.59,0,1.13-.18,1.62-.55v.87c-.27.18-.54.31-.81.39s-.58.12-.94.12c-.49,0-.9-.1-1.2-.31s-.55-.48-.73-.83-.28-.75-.28-1.2c0-.68.19-1.24.58-1.67s.89-.64,1.51-.64,1.07.21,1.43.62.53.98.53,1.67v.11ZM74.67,14.13h2.26c-.02-.35-.13-.63-.32-.82s-.44-.29-.76-.29-.58.1-.78.29-.34.47-.4.82Z"/><path class="cls-1" d="M81.33,16.51v-.96c.25.18.51.32.77.43s.48.16.66.16.35-.05.48-.14.2-.2.2-.33-.04-.24-.13-.32-.27-.21-.56-.37c-.57-.32-.95-.59-1.13-.82s-.27-.47-.27-.74c0-.35.13-.63.4-.84s.61-.33,1.04-.33.89.12,1.35.37v.88c-.53-.32-.96-.48-1.29-.48-.17,0-.31.04-.42.11s-.16.17-.16.29c0,.1.05.2.14.3.1.09.26.21.51.34l.32.18c.75.42,1.12.89,1.12,1.41,0,.37-.14.67-.43.91s-.66.35-1.11.35c-.27,0-.5-.03-.71-.09s-.47-.16-.79-.31Z"/><path class="cls-1" d="M87.55,12.33c.68,0,1.25.22,1.7.66s.68,1,.68,1.66-.23,1.19-.69,1.61-1.04.64-1.73.64-1.24-.22-1.69-.65-.68-.98-.68-1.63.23-1.21.69-1.64,1.03-.66,1.72-.66ZM87.5,13.13c-.43,0-.78.14-1.05.42s-.41.64-.41,1.07.14.78.42,1.05.64.41,1.08.41.79-.14,1.07-.41.42-.63.42-1.06-.15-.78-.43-1.06-.65-.42-1.09-.42Z"/><path class="cls-1" d="M91.81,12.34v.57c.4-.44.85-.66,1.35-.66.28,0,.54.07.78.22s.42.34.55.6.19.65.19,1.2v2.57h-.89v-2.56c0-.46-.07-.79-.21-.98s-.37-.3-.7-.3c-.42,0-.78.21-1.07.63v3.21h-.91v-4.49h.91Z"/><path class="cls-1" d="M95.29,13.05l1.67-1.64v.93h1.42v.8h-1.42v2.2c0,.51.21.77.64.77.32,0,.66-.11,1.01-.32v.83c-.34.19-.71.29-1.12.29s-.75-.12-1.02-.36c-.08-.07-.15-.15-.21-.24s-.1-.21-.14-.35-.06-.42-.06-.83v-1.99h-.78v-.09Z"/><path class="cls-1" d="M102.05,10.01h.89v6.82h-.89v-6.82Z"/><path class="cls-1" d="M108.05,14.66h-3.16c.02.43.17.77.43,1.03s.61.38,1.03.38c.59,0,1.13-.18,1.62-.55v.87c-.27.18-.54.31-.81.39s-.58.12-.94.12c-.49,0-.9-.1-1.2-.31s-.55-.48-.73-.83-.28-.75-.28-1.2c0-.68.19-1.24.58-1.67s.89-.64,1.51-.64,1.07.21,1.43.62.53.98.53,1.67v.11ZM104.91,14.13h2.26c-.02-.35-.13-.63-.32-.82s-.44-.29-.76-.29-.58.1-.78.29-.34.47-.4.82Z"/><path class="cls-1" d="M108.79,16.51v-.96c.25.18.51.32.77.43s.48.16.66.16.34-.05.48-.14c.13-.09.2-.2.2-.33s-.04-.24-.13-.32-.27-.21-.56-.37c-.57-.32-.95-.59-1.13-.82s-.27-.47-.27-.74c0-.35.13-.63.4-.84s.61-.33,1.04-.33.89.12,1.35.37v.88c-.53-.32-.96-.48-1.29-.48-.17,0-.31.04-.42.11s-.16.17-.16.29c0,.1.05.2.14.3.1.09.26.21.51.34l.32.18c.75.42,1.12.89,1.12,1.41,0,.37-.14.67-.43.91-.29.24-.66.35-1.11.35-.27,0-.5-.03-.71-.09s-.47-.16-.79-.31Z"/><path class="cls-1" d="M115.76,10.01h3.87v.87h-2.89v2.08h2.79v.87h-2.79v2.12h2.98v.87h-3.96v-6.81ZM118.6,8.04l-1.1,1.46h-.55l.66-1.46h.99Z"/><path class="cls-1" d="M120.01,13.05l1.67-1.64v.93h1.42v.8h-1.42v2.2c0,.51.21.77.64.77.32,0,.66-.11,1.01-.32v.83c-.34.19-.71.29-1.12.29s-.75-.12-1.02-.36c-.08-.07-.15-.15-.21-.24s-.1-.21-.14-.35c-.04-.15-.06-.42-.06-.83v-1.99h-.78v-.09Z"/><path class="cls-1" d="M126.79,14.13v1.91c0,.15.05.23.16.23s.28-.08.5-.24v.54c-.2.13-.36.22-.49.27-.12.05-.25.07-.38.07-.38,0-.61-.15-.67-.45-.38.29-.78.44-1.21.44-.31,0-.57-.1-.78-.31s-.31-.47-.31-.78c0-.28.1-.54.31-.76.2-.22.49-.4.87-.53l1.14-.39v-.24c0-.54-.27-.81-.81-.81-.49,0-.96.25-1.42.75v-.97c.34-.41.84-.61,1.49-.61.49,0,.87.13,1.17.38.1.08.19.19.26.32s.13.27.15.41c.02.14.03.39.03.77ZM125.91,15.94v-1.33l-.6.23c-.3.12-.52.24-.64.36-.12.12-.19.27-.19.46s.06.34.18.45c.12.12.27.18.46.18.28,0,.54-.12.79-.35Z"/><path class="cls-1" d="M127.6,13.05l1.67-1.64v.93h1.42v.8h-1.42v2.2c0,.51.21.77.64.77.32,0,.66-.11,1.01-.32v.83c-.34.19-.71.29-1.12.29s-.75-.12-1.02-.36c-.08-.07-.15-.15-.21-.24s-.1-.21-.14-.35c-.04-.15-.06-.42-.06-.83v-1.99h-.78v-.09Z"/><path class="cls-1" d="M131.34,16.51v-.96c.25.18.51.32.77.43.26.11.48.16.66.16s.34-.05.48-.14.2-.2.2-.33-.04-.24-.13-.32c-.09-.09-.27-.21-.56-.37-.57-.32-.95-.59-1.13-.82-.18-.23-.27-.47-.27-.74,0-.35.13-.63.4-.84.27-.22.62-.33,1.04-.33s.89.12,1.35.37v.88c-.53-.32-.96-.48-1.29-.48-.17,0-.31.04-.42.11-.11.07-.16.17-.16.29,0,.1.05.2.14.3.1.09.26.21.51.34l.32.18c.75.42,1.12.89,1.12,1.41,0,.37-.14.67-.43.91-.29.24-.66.35-1.11.35-.27,0-.5-.03-.71-.09s-.47-.16-.79-.31Z"/><path class="cls-1" d="M135.18,14.14h2.43v.95h-2.43v-.95Z"/><path class="cls-1" d="M143.51,10.01h.98v3.87c0,.52-.04.92-.11,1.19-.08.27-.17.49-.28.67-.11.18-.25.34-.41.48-.54.47-1.25.7-2.12.7s-1.6-.23-2.14-.69c-.16-.14-.3-.3-.41-.48-.11-.18-.21-.39-.28-.65-.07-.26-.11-.66-.11-1.21v-3.86h.98v3.87c0,.64.07,1.09.22,1.34s.37.45.67.6.65.23,1.06.23c.58,0,1.05-.15,1.42-.45.19-.16.33-.35.42-.58s.13-.6.13-1.14v-3.87Z"/><path class="cls-1" d="M146.61,12.34v.57c.4-.44.85-.66,1.35-.66.28,0,.54.07.78.22s.42.34.55.6c.13.25.19.65.19,1.2v2.57h-.89v-2.56c0-.46-.07-.79-.21-.98s-.37-.3-.7-.3c-.42,0-.78.21-1.07.63v3.21h-.91v-4.49h.91Z"/><path class="cls-1" d="M151.18,10.45c.15,0,.27.05.38.15s.16.22.16.37-.05.27-.16.37-.23.16-.38.16c-.14,0-.26-.05-.36-.16s-.16-.23-.16-.37.05-.26.16-.36.22-.16.36-.16ZM150.74,12.34h.89v4.49h-.89v-4.49Z"/><path class="cls-1" d="M152.7,16.51v-.96c.25.18.51.32.77.43.26.11.48.16.66.16s.34-.05.48-.14.2-.2.2-.33-.04-.24-.13-.32c-.09-.09-.27-.21-.56-.37-.57-.32-.95-.59-1.13-.82-.18-.23-.27-.47-.27-.74,0-.35.13-.63.4-.84.27-.22.62-.33,1.04-.33s.89.12,1.35.37v.88c-.53-.32-.96-.48-1.29-.48-.17,0-.31.04-.42.11-.11.07-.16.17-.16.29,0,.1.05.2.14.3.1.09.26.21.51.34l.32.18c.75.42,1.12.89,1.12,1.41,0,.37-.14.67-.43.91-.29.24-.66.35-1.11.35-.27,0-.5-.03-.71-.09s-.47-.16-.79-.31Z"/><path class="cls-1" d="M37.82,33.71v-6.83h2.16c.65,0,1.17.18,1.56.53s.58.82.58,1.42c0,.4-.1.75-.3,1.05s-.47.53-.82.67-.84.21-1.48.21h-.72v2.96h-.98ZM39.82,27.75h-1.01v2.13h1.07c.4,0,.7-.09.92-.28s.32-.46.32-.8c0-.7-.43-1.05-1.3-1.05Z"/><path class="cls-1" d="M45.68,31.01v1.91c0,.15.05.23.16.23s.27-.08.5-.24v.54c-.2.13-.36.22-.49.27s-.25.07-.38.07c-.38,0-.61-.15-.67-.45-.38.29-.78.44-1.21.44-.31,0-.57-.1-.78-.31s-.31-.47-.31-.78c0-.28.1-.54.31-.76s.49-.4.87-.53l1.14-.39v-.24c0-.54-.27-.81-.81-.81-.48,0-.96.25-1.42.75v-.97c.35-.41.84-.61,1.49-.61.48,0,.87.13,1.17.38.1.08.19.19.26.32s.13.27.15.41.03.39.03.77ZM44.8,32.83v-1.33l-.6.23c-.3.12-.52.24-.64.36s-.19.27-.19.46.06.34.18.45.27.18.46.18c.28,0,.55-.12.79-.35Z"/><path class="cls-1" d="M49.48,29.22h1l-3.18,6.78h-.99l1.52-3.25-1.73-3.53h1.01l1.21,2.54,1.16-2.54Z"/><path class="cls-1" d="M50.88,33.39v-.96c.25.18.51.32.77.43s.48.16.66.16.35-.05.48-.14.2-.2.2-.33-.04-.24-.13-.32-.27-.21-.56-.37c-.57-.32-.95-.59-1.13-.82s-.27-.47-.27-.74c0-.35.13-.63.4-.84s.61-.33,1.04-.33.89.12,1.35.37v.88c-.53-.32-.96-.48-1.29-.48-.17,0-.31.04-.42.11s-.16.17-.16.29c0,.1.05.2.14.3.1.09.26.21.51.34l.32.18c.75.42,1.12.89,1.12,1.41,0,.37-.14.67-.43.91s-.66.35-1.11.35c-.27,0-.5-.03-.71-.09s-.47-.16-.79-.31Z"/><path class="cls-1" d="M60.72,26.89h.89v6.82h-1.9c-.66,0-1.19-.21-1.59-.63s-.59-.98-.59-1.69c0-.66.21-1.2.62-1.63s.94-.64,1.59-.64c.3,0,.62.06.98.19v-2.42ZM60.72,32.95v-2.85c-.28-.14-.56-.21-.84-.21-.44,0-.79.15-1.06.43s-.39.68-.39,1.17c0,.46.11.82.34,1.07.14.15.28.25.43.3s.43.08.83.08h.69Z"/><path class="cls-1" d="M64.97,29.21c.68,0,1.25.22,1.7.66s.68,1,.68,1.66-.23,1.19-.69,1.61-1.04.64-1.73.64-1.24-.22-1.69-.65-.68-.98-.68-1.63.23-1.21.69-1.64,1.03-.66,1.72-.66ZM64.92,30.01c-.43,0-.78.14-1.05.42s-.41.64-.41,1.07.14.78.42,1.05.64.41,1.08.41.79-.14,1.07-.41.42-.63.42-1.06-.15-.78-.43-1.06-.65-.42-1.09-.42Z"/><path class="cls-1" d="M69.23,29.22v.57c.4-.44.85-.66,1.35-.66.28,0,.54.07.78.22s.42.34.55.6.19.65.19,1.2v2.57h-.89v-2.56c0-.46-.07-.79-.21-.98s-.37-.3-.7-.3c-.42,0-.78.21-1.07.63v3.21h-.91v-4.49h.91Z"/><path class="cls-1" d="M72.71,29.94l1.67-1.64v.93h1.42v.8h-1.42v2.2c0,.51.21.77.64.77.32,0,.66-.11,1.01-.32v.83c-.34.19-.71.29-1.12.29s-.75-.12-1.02-.36c-.08-.07-.15-.15-.21-.24s-.1-.21-.14-.35-.06-.42-.06-.83v-1.99h-.78v-.09Z"/><path class="cls-1" d="M79.47,26.89h.89v6.82h-.89v-6.82Z"/><path class="cls-1" d="M85.47,31.55h-3.16c.02.43.17.77.43,1.03s.61.38,1.03.38c.59,0,1.13-.18,1.62-.55v.87c-.27.18-.54.31-.81.39s-.58.12-.94.12c-.49,0-.9-.1-1.2-.31s-.55-.48-.73-.83-.28-.75-.28-1.2c0-.68.19-1.24.58-1.67s.89-.64,1.51-.64,1.07.21,1.43.62.53.98.53,1.67v.11ZM82.33,31.01h2.26c-.02-.35-.13-.63-.32-.82s-.44-.29-.76-.29-.58.1-.78.29-.34.47-.4.82Z"/><path class="cls-1" d="M89.15,36v-6.78h1.56c.8,0,1.42.2,1.86.6.44.4.67.95.67,1.67,0,.67-.21,1.23-.63,1.66s-.95.65-1.6.65c-.29,0-.6-.06-.95-.19v2.4h-.91ZM90.69,30.05h-.63v2.76c.27.14.56.21.86.21.42,0,.76-.15,1.02-.43s.4-.66.4-1.12c0-.29-.06-.55-.19-.78s-.3-.39-.51-.49-.53-.15-.95-.15Z"/><path class="cls-1" d="M95.16,29.22v1.03l.05-.08c.43-.69.86-1.04,1.29-1.04.34,0,.69.17,1.05.51l-.47.78c-.31-.29-.6-.44-.86-.44-.29,0-.53.14-.74.41s-.31.6-.31.97v2.35h-.89v-4.49h.89Z"/><path class="cls-1" d="M101.8,31.55h-3.16c.02.43.17.77.43,1.03s.61.38,1.03.38c.59,0,1.13-.18,1.62-.55v.87c-.27.18-.54.31-.81.39s-.58.12-.94.12c-.49,0-.9-.1-1.2-.31s-.55-.48-.73-.83-.28-.75-.28-1.2c0-.68.19-1.24.58-1.67s.89-.64,1.51-.64,1.07.21,1.43.62.53.98.53,1.67v.11ZM98.66,31.01h2.26c-.02-.35-.13-.63-.32-.82s-.44-.29-.76-.29-.58.1-.78.29-.34.47-.4.82Z"/><path class="cls-1" d="M106.44,30.45v3.26h-.89v-2.5c0-.5-.07-.85-.2-1.04s-.37-.3-.7-.3c-.19,0-.36.04-.51.13s-.33.23-.53.45v3.26h-.89v-4.49h.89v.59c.45-.45.9-.68,1.33-.68.57,0,1.01.27,1.32.81.48-.55.97-.82,1.49-.82.44,0,.79.16,1.08.48s.42.81.42,1.46v2.65h-.89v-2.66c0-.37-.08-.66-.23-.86s-.37-.3-.66-.3c-.37,0-.71.19-1.03.56Z"/><path class="cls-1" d="M110.93,27.33c.15,0,.27.05.38.15.1.1.16.22.16.37s-.05.27-.16.37c-.1.1-.23.16-.38.16-.14,0-.26-.05-.36-.16-.1-.11-.16-.23-.16-.37s.05-.26.16-.36c.1-.11.22-.16.36-.16ZM110.49,29.22h.89v4.49h-.89v-4.49Z"/><path class="cls-1" d="M116.49,31.55h-3.16c.02.43.17.77.43,1.03.27.25.61.38,1.03.38.59,0,1.13-.18,1.62-.55v.87c-.27.18-.54.31-.81.39-.27.08-.58.12-.94.12-.5,0-.9-.1-1.2-.31s-.55-.48-.74-.83c-.18-.35-.28-.75-.28-1.2,0-.68.19-1.24.58-1.67s.89-.64,1.51-.64,1.07.21,1.43.62.53.98.53,1.67v.11ZM113.35,31.01h2.26c-.02-.35-.13-.63-.32-.82s-.44-.29-.76-.29-.58.1-.78.29c-.2.19-.34.47-.4.82Z"/><path class="cls-1" d="M118.41,29.22v1.03l.05-.08c.43-.69.86-1.04,1.29-1.04.33,0,.69.17,1.05.51l-.47.78c-.31-.29-.6-.44-.86-.44-.29,0-.53.14-.75.41-.21.27-.31.6-.31.97v2.35h-.89v-4.49h.89Z"/><path class="cls-1" d="M124.65,27.33c.15,0,.27.05.38.15s.16.22.16.37-.05.27-.16.37-.23.16-.38.16c-.14,0-.26-.05-.36-.16s-.16-.23-.16-.37.05-.26.16-.36.22-.16.36-.16ZM124.21,29.22h.89v4.49h-.89v-4.49Z"/><path class="cls-1" d="M130.06,30.45v3.26h-.89v-2.5c0-.5-.07-.85-.2-1.04s-.37-.3-.7-.3c-.19,0-.36.04-.51.13-.16.08-.33.23-.53.45v3.26h-.89v-4.49h.89v.59c.45-.45.9-.68,1.33-.68.57,0,1.01.27,1.32.81.48-.55.97-.82,1.49-.82.44,0,.79.16,1.08.48.28.32.42.81.42,1.46v2.65h-.89v-2.66c0-.37-.08-.66-.23-.86s-.37-.3-.66-.3c-.37,0-.71.19-1.03.56Z"/><path class="cls-1" d="M134.04,36v-6.78h1.56c.8,0,1.42.2,1.86.6.44.4.67.95.67,1.67,0,.67-.21,1.23-.63,1.66-.42.43-.95.65-1.6.65-.29,0-.6-.06-.95-.19v2.4h-.91ZM135.57,30.05h-.63v2.76c.27.14.56.21.86.21.42,0,.76-.15,1.02-.43s.4-.66.4-1.12c0-.29-.06-.55-.19-.78s-.3-.39-.51-.49-.53-.15-.95-.15Z"/><path class="cls-1" d="M141.24,29.21c.68,0,1.25.22,1.7.66s.68,1,.68,1.66-.23,1.19-.69,1.61-1.04.64-1.73.64-1.24-.22-1.69-.65-.68-.98-.68-1.63.23-1.21.69-1.64c.46-.44,1.03-.66,1.72-.66ZM141.19,30.01c-.43,0-.78.14-1.05.42s-.41.64-.41,1.07.14.78.42,1.05.64.41,1.08.41.79-.14,1.07-.41c.28-.27.42-.63.42-1.06s-.14-.78-.43-1.06-.65-.42-1.09-.42Z"/><path class="cls-1" d="M145.56,29.22v1.03l.05-.08c.43-.69.86-1.04,1.29-1.04.33,0,.69.17,1.05.51l-.47.78c-.31-.29-.6-.44-.86-.44-.29,0-.53.14-.75.41-.21.27-.31.6-.31.97v2.35h-.89v-4.49h.89Z"/><path class="cls-1" d="M148.14,29.94l1.67-1.64v.93h1.42v.8h-1.42v2.2c0,.51.21.77.64.77.32,0,.66-.11,1.01-.32v.83c-.34.19-.71.29-1.12.29s-.75-.12-1.02-.36c-.08-.07-.15-.15-.21-.24s-.1-.21-.14-.35c-.04-.15-.06-.42-.06-.83v-1.99h-.78v-.09Z"/><path class="cls-1" d="M154.92,31.01v1.91c0,.15.05.23.16.23s.28-.08.5-.24v.54c-.2.13-.36.22-.49.27-.12.05-.25.07-.38.07-.38,0-.61-.15-.67-.45-.38.29-.78.44-1.21.44-.31,0-.57-.1-.78-.31s-.31-.47-.31-.78c0-.28.1-.54.31-.76.2-.22.49-.4.87-.53l1.14-.39v-.24c0-.54-.27-.81-.81-.81-.49,0-.96.25-1.42.75v-.97c.34-.41.84-.61,1.49-.61.49,0,.87.13,1.17.38.1.08.19.19.26.32s.13.27.15.41c.02.14.03.39.03.77ZM154.05,32.83v-1.33l-.6.23c-.3.12-.52.24-.64.36-.12.12-.19.27-.19.46s.06.34.18.45c.12.12.27.18.46.18.28,0,.54-.12.79-.35Z"/><path class="cls-1" d="M155.74,29.94l1.67-1.64v.93h1.42v.8h-1.42v2.2c0,.51.21.77.64.77.32,0,.66-.11,1.01-.32v.83c-.34.19-.71.29-1.12.29s-.75-.12-1.02-.36c-.08-.07-.15-.15-.21-.24s-.1-.21-.14-.35c-.04-.15-.06-.42-.06-.83v-1.99h-.78v-.09Z"/><path class="cls-1" d="M163.53,31.55h-3.16c.02.43.17.77.43,1.03.27.25.61.38,1.03.38.59,0,1.13-.18,1.62-.55v.87c-.27.18-.54.31-.81.39-.27.08-.58.12-.94.12-.5,0-.9-.1-1.2-.31s-.55-.48-.74-.83c-.18-.35-.28-.75-.28-1.2,0-.68.19-1.24.58-1.67s.89-.64,1.51-.64,1.07.21,1.43.62.53.98.53,1.67v.11ZM160.39,31.01h2.26c-.02-.35-.13-.63-.32-.82s-.44-.29-.76-.29-.58.1-.78.29c-.2.19-.34.47-.4.82Z"/><path class="cls-1" d="M167.35,33.71v-.58c-.19.21-.4.37-.65.48-.24.11-.48.17-.72.17-.28,0-.54-.07-.78-.21-.24-.14-.42-.33-.54-.58-.12-.24-.18-.65-.18-1.21v-2.57h.89v2.56c0,.47.07.8.2.99.14.19.37.28.71.28.42,0,.78-.21,1.08-.62v-3.21h.89v4.49h-.89Z"/><path class="cls-1" d="M170.44,29.22v1.03l.05-.08c.43-.69.86-1.04,1.29-1.04.33,0,.69.17,1.05.51l-.47.78c-.31-.29-.6-.44-.86-.44-.29,0-.53.14-.75.41-.21.27-.31.6-.31.97v2.35h-.89v-4.49h.89Z"/><path class="cls-1" d="M40.75,36.89h.89v6.82h-1.9c-.66,0-1.19-.21-1.59-.63s-.59-.98-.59-1.69c0-.66.21-1.2.62-1.63s.94-.64,1.59-.64c.3,0,.62.06.98.19v-2.42ZM40.75,42.95v-2.85c-.28-.14-.56-.21-.84-.21-.44,0-.79.15-1.06.43s-.39.68-.39,1.17c0,.46.11.82.34,1.07.14.15.28.25.43.3s.43.08.83.08h.69Z"/><path class="cls-1" d="M46.68,41.55h-3.16c.02.43.17.77.43,1.03s.61.38,1.03.38c.59,0,1.13-.18,1.62-.55v.87c-.27.18-.54.31-.81.39s-.58.12-.94.12c-.49,0-.9-.1-1.2-.31s-.55-.48-.73-.83-.28-.75-.28-1.2c0-.68.19-1.24.58-1.67s.89-.64,1.51-.64,1.07.21,1.43.62.53.98.53,1.67v.11ZM43.54,41.01h2.26c-.02-.35-.13-.63-.32-.82s-.44-.29-.76-.29-.58.1-.78.29-.34.47-.4.82Z"/><path class="cls-1" d="M50.36,46v-6.78h1.56c.8,0,1.42.2,1.86.6.44.4.67.95.67,1.67,0,.67-.21,1.23-.63,1.66s-.95.65-1.6.65c-.29,0-.6-.06-.95-.19v2.4h-.91ZM51.9,40.05h-.63v2.76c.27.14.56.21.86.21.42,0,.76-.15,1.02-.43s.4-.66.4-1.12c0-.29-.06-.55-.19-.78s-.3-.39-.51-.49-.53-.15-.95-.15Z"/><path class="cls-1" d="M59.25,41.55h-3.16c.02.43.17.77.43,1.03s.61.38,1.03.38c.59,0,1.13-.18,1.62-.55v.87c-.27.18-.54.31-.81.39s-.58.12-.94.12c-.49,0-.9-.1-1.2-.31s-.55-.48-.73-.83-.28-.75-.28-1.2c0-.68.19-1.24.58-1.67s.89-.64,1.51-.64,1.07.21,1.43.62.53.98.53,1.67v.11ZM56.11,41.01h2.26c-.02-.35-.13-.63-.32-.82s-.44-.29-.76-.29-.58.1-.78.29-.34.47-.4.82ZM58.28,36.79l-1.1,1.46h-.55l.66-1.46h.99Z"/><path class="cls-1" d="M59.58,39.94l1.67-1.64v.93h1.42v.8h-1.42v2.2c0,.51.21.77.64.77.32,0,.66-.11,1.01-.32v.83c-.34.19-.71.29-1.12.29s-.75-.12-1.02-.36c-.08-.07-.15-.15-.21-.24s-.1-.21-.14-.35-.06-.42-.06-.83v-1.99h-.78v-.09Z"/><path class="cls-1" d="M64.49,39.22v1.03l.05-.08c.43-.69.86-1.04,1.29-1.04.34,0,.69.17,1.05.51l-.47.78c-.31-.29-.6-.44-.86-.44-.29,0-.53.14-.74.41s-.31.6-.31.97v2.35h-.89v-4.49h.89Z"/><path class="cls-1" d="M69.4,39.21c.68,0,1.25.22,1.7.66s.68,1,.68,1.66-.23,1.19-.69,1.61-1.04.64-1.73.64-1.24-.22-1.69-.65-.68-.98-.68-1.63.23-1.21.69-1.64,1.03-.66,1.72-.66ZM69.35,40.01c-.43,0-.78.14-1.05.42s-.41.64-.41,1.07.14.78.42,1.05.64.41,1.08.41.79-.14,1.07-.41.42-.63.42-1.06-.15-.78-.43-1.06-.65-.42-1.09-.42Z"/><path class="cls-1" d="M72.79,36.89h.89v6.82h-.89v-6.82Z"/><path class="cls-1" d="M78.79,41.55h-3.16c.02.43.17.77.43,1.03s.61.38,1.03.38c.59,0,1.13-.18,1.62-.55v.87c-.27.18-.54.31-.81.39s-.58.12-.94.12c-.49,0-.9-.1-1.2-.31s-.55-.48-.73-.83-.28-.75-.28-1.2c0-.68.19-1.24.58-1.67s.89-.64,1.51-.64,1.07.21,1.43.62.53.98.53,1.67v.11ZM75.65,41.01h2.26c-.02-.35-.13-.63-.32-.82s-.44-.29-.76-.29-.58.1-.78.29-.34.47-.4.82Z"/><path class="cls-1" d="M86.36,41.55h-3.16c.02.43.17.77.43,1.03s.61.38,1.03.38c.59,0,1.13-.18,1.62-.55v.87c-.27.18-.54.31-.81.39s-.58.12-.94.12c-.49,0-.9-.1-1.2-.31s-.55-.48-.73-.83-.28-.75-.28-1.2c0-.68.19-1.24.58-1.67s.89-.64,1.51-.64,1.07.21,1.43.62.53.98.53,1.67v.11ZM83.22,41.01h2.26c-.02-.35-.13-.63-.32-.82s-.44-.29-.76-.29-.58.1-.78.29-.34.47-.4.82Z"/><path class="cls-1" d="M87.1,43.39v-.96c.25.18.51.32.77.43s.48.16.66.16.35-.05.48-.14.2-.2.2-.33-.04-.24-.13-.32-.27-.21-.56-.37c-.57-.32-.95-.59-1.13-.82s-.27-.47-.27-.74c0-.35.13-.63.4-.84s.61-.33,1.04-.33.89.12,1.35.37v.88c-.53-.32-.96-.48-1.29-.48-.17,0-.31.04-.42.11s-.16.17-.16.29c0,.1.05.2.14.3.1.09.26.21.51.34l.32.18c.75.42,1.12.89,1.12,1.41,0,.37-.14.67-.43.91s-.66.35-1.11.35c-.27,0-.5-.03-.71-.09s-.47-.16-.79-.31Z"/><path class="cls-1" d="M90.54,39.94l1.67-1.64v.93h1.42v.8h-1.42v2.2c0,.51.21.77.64.77.32,0,.66-.11,1.01-.32v.83c-.34.19-.71.29-1.12.29s-.75-.12-1.02-.36c-.08-.07-.15-.15-.21-.24s-.1-.21-.14-.35-.06-.42-.06-.83v-1.99h-.78v-.09Z"/><path class="cls-1" d="M97.3,36.89h.89v6.82h-.89v-6.82Z"/><path class="cls-1" d="M102.29,41.01v1.91c0,.15.05.23.16.23s.27-.08.5-.24v.54c-.2.13-.36.22-.49.27s-.25.07-.38.07c-.38,0-.61-.15-.67-.45-.38.29-.78.44-1.21.44-.31,0-.57-.1-.78-.31s-.31-.47-.31-.78c0-.28.1-.54.31-.76s.49-.4.87-.53l1.14-.39v-.24c0-.54-.27-.81-.81-.81-.48,0-.96.25-1.42.75v-.97c.35-.41.84-.61,1.49-.61.48,0,.87.13,1.17.38.1.08.19.19.26.32s.13.27.15.41.03.39.03.77ZM101.42,42.83v-1.33l-.6.23c-.3.12-.52.24-.64.36s-.19.27-.19.46.06.34.18.45.27.18.46.18c.28,0,.55-.12.79-.35Z"/><path class="cls-1" d="M112.52,42.13v1.07c-.72.39-1.54.59-2.48.59-.76,0-1.41-.15-1.94-.46s-.95-.73-1.26-1.26-.46-1.12-.46-1.74c0-.99.35-1.83,1.06-2.5s1.58-1.02,2.62-1.02c.72,0,1.51.19,2.39.56v1.05c-.8-.46-1.58-.68-2.34-.68s-1.43.25-1.95.74-.77,1.11-.77,1.85.25,1.36.76,1.85,1.16.72,1.95.72,1.63-.25,2.42-.76Z"/><path class="cls-1" d="M113.58,36.89h.89v2.92c.37-.45.83-.68,1.38-.68.3,0,.57.07.81.22s.41.36.53.62c.12.26.17.66.17,1.18v2.56h-.89v-2.78c0-.33-.08-.59-.24-.79-.16-.2-.37-.3-.64-.3-.2,0-.38.05-.55.15s-.36.27-.57.5v3.22h-.89v-6.82Z"/><path class="cls-1" d="M119.06,37.33c.15,0,.27.05.38.15s.16.22.16.37-.05.27-.16.37-.23.16-.38.16c-.14,0-.26-.05-.36-.16s-.16-.23-.16-.37.05-.26.16-.36.22-.16.36-.16ZM118.62,39.22h.89v4.49h-.89v-4.49Z"/><path class="cls-1" d="M121.68,39.22v.57c.4-.44.85-.66,1.35-.66.28,0,.54.07.78.22s.42.34.55.6c.13.25.19.65.19,1.2v2.57h-.89v-2.56c0-.46-.07-.79-.21-.98s-.37-.3-.7-.3c-.42,0-.78.21-1.07.63v3.21h-.91v-4.49h.91Z"/><path class="cls-1" d="M129.62,41.55h-3.16c.02.43.17.77.43,1.03.27.25.61.38,1.03.38.59,0,1.13-.18,1.62-.55v.87c-.27.18-.54.31-.81.39-.27.08-.58.12-.94.12-.5,0-.9-.1-1.2-.31s-.55-.48-.74-.83c-.18-.35-.28-.75-.28-1.2,0-.68.19-1.24.58-1.67s.89-.64,1.51-.64,1.07.21,1.43.62.53.98.53,1.67v.11ZM126.48,41.01h2.26c-.02-.35-.13-.63-.32-.82s-.44-.29-.76-.29-.58.1-.78.29c-.2.19-.34.47-.4.82Z"/></g></svg>