<?xml version="1.0" encoding="UTF-8"?><svg id="Calque_2" xmlns="http://www.w3.org/2000/svg" viewBox="0 0 886.94 591.29"><defs><style>.cls-1{fill:none;}.cls-2{fill:#81b9d6;}</style></defs><g id="Labels_mer"><path class="cls-2" d="M475.47,81.94c0,.76-.15,1.45-.46,2.07s-.74,1.1-1.29,1.44-1.16.52-1.82.52c-.55,0-1.05-.13-1.49-.39-.45-.26-.79-.62-1.03-1.08s-.37-.98-.37-1.55c0-.52.09-1.03.27-1.51.18-.49.44-.92.77-1.3s.72-.67,1.16-.87c.45-.2.92-.31,1.42-.31.55,0,1.04.13,1.48.38.44.25.77.6,1,1.06s.35.97.35,1.54ZM474.29,81.9c0-.37-.07-.71-.21-1-.14-.29-.34-.51-.6-.67-.26-.16-.56-.24-.9-.24-.43,0-.82.13-1.18.39s-.66.63-.88,1.11c-.23.48-.34.98-.34,1.51,0,.39.07.73.21,1.03s.34.52.61.68.56.24.9.24c.42,0,.82-.13,1.18-.4.37-.27.66-.64.87-1.12s.32-.99.32-1.53Z"/><path class="cls-2" d="M481.83,82.33c-.13-.05-.27-.08-.4-.1s-.29-.03-.48-.03c-.32,0-.61.07-.88.22-.27.15-.48.35-.64.61-.16.26-.24.54-.24.83,0,.38.11.68.32.89s.51.32.89.32c.22,0,.42-.03.6-.08.18-.05.4-.14.65-.26l-.12,1.01c-.42.17-.86.25-1.32.25-.42,0-.79-.09-1.11-.26-.32-.18-.57-.43-.75-.75-.18-.33-.27-.7-.27-1.12,0-.48.13-.92.38-1.32.25-.4.6-.72,1.05-.95.45-.23.94-.34,1.48-.34.16,0,.33.01.51.03s.34.05.48.09l-.14.96Z"/><path class="cls-2" d="M486.66,81.26c.34,0,.64.08.91.24.27.16.47.38.62.67.15.29.22.62.22.98,0,.16-.02.34-.05.52h-2.87c-.02.11-.03.22-.03.31,0,.24.05.45.14.63.1.18.23.32.4.42s.37.14.58.14.44-.04.7-.13.54-.23.86-.41l-.18.95c-.52.29-1.03.43-1.53.43-.41,0-.77-.09-1.08-.27-.31-.18-.55-.44-.72-.77-.17-.34-.25-.72-.25-1.15,0-.47.1-.9.3-1.29s.48-.71.83-.93c.35-.22.73-.34,1.15-.34ZM487.35,82.99v-.08c0-.26-.06-.47-.19-.62-.13-.15-.31-.23-.55-.23-.47,0-.81.31-1.01.93h1.75ZM488.6,79.16l-1.42,1.58h-.64l.78-1.58h1.28Z"/><path class="cls-2" d="M494.88,85.88h-1.08l.07-.47h0s-.01,0-.01,0c-.4.38-.82.57-1.24.57-.28,0-.54-.08-.78-.24s-.42-.39-.55-.67-.2-.6-.2-.94c0-.57.13-1.08.4-1.52s.63-.78,1.11-1,1.03-.34,1.66-.34c.43,0,.85.05,1.27.15l-.63,4.48ZM494.32,82.17c-.1,0-.19-.01-.28-.01-.27,0-.52.04-.74.12s-.41.2-.58.37-.29.37-.39.63c-.1.26-.15.52-.15.78,0,.32.07.58.21.78.14.2.33.29.57.29.15,0,.32-.05.5-.15s.35-.24.52-.41l.34-2.4Z"/><path class="cls-2" d="M502.02,85.88h-1.07l.35-2.51c.03-.19.04-.32.05-.4,0-.08.01-.17.01-.27,0-.17-.04-.3-.12-.41-.08-.11-.2-.16-.33-.16s-.32.07-.54.2-.46.35-.72.66l-.41,2.89h-1.07l.63-4.51h1.07l-.1.72c.26-.26.52-.46.77-.6s.51-.2.77-.2c.25,0,.46.06.63.17.17.11.31.26.39.45.09.19.13.41.13.66,0,.06,0,.11,0,.17,0,.05,0,.11,0,.17,0,.06-.01.13-.02.2s-.02.17-.03.28l-.37,2.5Z"/><path class="cls-2" d="M460.99,105.88h-1.13l-.32-1.85h-2.13l-.79,1.85h-1.22l3.15-6.88h1.17l1.27,6.88ZM459.41,103.2l-.45-2.9h-.02l-1.18,2.9h1.65Z"/><path class="cls-2" d="M466.65,101.37l-.13.81h-.95l-.34,1.94c-.04.22-.06.4-.06.53,0,.1.04.19.12.27s.18.11.31.11c.14,0,.28-.02.41-.07.13-.05.27-.11.42-.2l-.03,1c-.14.07-.3.13-.49.18s-.39.07-.61.07c-.24,0-.46-.04-.65-.13-.19-.09-.33-.21-.44-.38s-.16-.34-.16-.53.04-.53.13-1l.32-1.78h-.85l.13-.81h.87l.16-.94h1.08l-.17.94h.92Z"/><path class="cls-2" d="M471.07,99.06l-.96,6.82h-1.08l.96-6.82h1.08Z"/><path class="cls-2" d="M477.16,105.88h-1.08l.07-.47h0s-.01,0-.01,0c-.4.38-.82.57-1.24.57-.28,0-.54-.08-.78-.24s-.42-.39-.55-.67-.2-.6-.2-.94c0-.57.13-1.08.4-1.52s.63-.78,1.11-1,1.03-.34,1.66-.34c.43,0,.85.05,1.27.15l-.63,4.48ZM476.6,102.17c-.1,0-.19-.01-.28-.01-.27,0-.52.04-.74.12s-.41.2-.58.37-.29.37-.39.63c-.1.26-.15.52-.15.78,0,.32.07.58.21.78.14.2.33.29.57.29.15,0,.32-.05.5-.15s.35-.24.52-.41l.34-2.4Z"/><path class="cls-2" d="M484.3,105.88h-1.07l.35-2.51c.03-.19.04-.32.05-.4,0-.08.01-.17.01-.27,0-.17-.04-.3-.12-.41-.08-.11-.2-.16-.33-.16s-.32.07-.54.2-.46.35-.72.66l-.41,2.89h-1.07l.63-4.51h1.07l-.1.72c.26-.26.52-.46.77-.6s.51-.2.77-.2c.25,0,.46.06.63.17.17.11.31.26.39.45.09.19.13.41.13.66,0,.06,0,.11,0,.17,0,.05,0,.11,0,.17,0,.06-.01.13-.02.2s-.02.17-.03.28l-.37,2.5Z"/><path class="cls-2" d="M490.43,101.37l-.13.81h-.95l-.34,1.94c-.04.22-.06.4-.06.53,0,.1.04.19.12.27s.18.11.31.11c.14,0,.28-.02.41-.07.13-.05.27-.11.42-.2l-.03,1c-.14.07-.3.13-.49.18s-.39.07-.61.07c-.24,0-.46-.04-.65-.13-.19-.09-.33-.21-.44-.38s-.16-.34-.16-.53.04-.53.13-1l.32-1.78h-.85l.13-.81h.87l.16-.94h1.08l-.17.94h.92Z"/><path class="cls-2" d="M494.53,101.37l-.64,4.51h-1.07l.63-4.51h1.08ZM494.73,100.03c0,.1-.03.2-.08.29s-.12.16-.22.21c-.09.05-.19.08-.29.08s-.2-.03-.29-.08-.16-.13-.21-.21c-.05-.09-.08-.18-.08-.29s.03-.2.08-.29c.05-.09.12-.16.21-.22.09-.05.19-.08.29-.08s.21.03.3.08c.09.05.16.13.21.22.05.09.08.19.08.29Z"/><path class="cls-2" d="M501.59,101.32l-.96,6.86h-1.08l.36-2.51c-.22.11-.42.19-.6.24s-.35.08-.51.08c-.33,0-.62-.08-.87-.25s-.45-.4-.59-.71-.21-.65-.21-1.04c0-.54.13-1.02.39-1.44s.62-.72,1.09-.93c.47-.21,1.02-.31,1.66-.31h1.31ZM500.38,102.22h-.04c-.66,0-1.18.16-1.55.47s-.55.75-.55,1.33c0,.35.09.63.27.84.18.21.42.31.73.31.12,0,.24-.02.36-.06s.25-.11.41-.2l.37-2.68Z"/><path class="cls-2" d="M504.79,101.37h1.07l-.35,2.51c-.03.23-.05.38-.06.45,0,.07,0,.14,0,.22,0,.17.04.3.12.41.08.11.2.16.34.16s.32-.07.54-.2.46-.35.72-.66l.41-2.89h1.07l-.63,4.51h-1.07l.1-.72c-.26.26-.52.46-.77.59s-.51.2-.77.2c-.24,0-.45-.05-.62-.16-.17-.11-.31-.26-.4-.45-.09-.19-.14-.41-.14-.67,0-.23.02-.5.07-.81l.37-2.5Z"/><path class="cls-2" d="M513.57,101.26c.34,0,.64.08.91.24.27.16.47.38.62.67.15.29.22.62.22.98,0,.16-.02.34-.05.52h-2.87c-.02.11-.03.22-.03.31,0,.24.05.45.14.63.1.18.23.32.4.42s.37.14.58.14.44-.04.7-.13.54-.23.86-.41l-.18.95c-.52.29-1.03.43-1.53.43-.41,0-.77-.09-1.08-.27-.31-.18-.55-.44-.72-.77-.17-.34-.25-.72-.25-1.15,0-.47.1-.9.3-1.29s.48-.71.83-.93c.35-.22.73-.34,1.15-.34ZM514.27,102.99v-.08c0-.26-.06-.47-.19-.62-.13-.15-.31-.23-.55-.23-.47,0-.81.31-1.01.93h1.75Z"/><path class="cls-2" d="M322.69,376.4c0,.76-.15,1.45-.46,2.07s-.74,1.1-1.29,1.44-1.16.52-1.82.52c-.55,0-1.05-.13-1.49-.39-.45-.26-.79-.62-1.03-1.08-.24-.46-.37-.98-.37-1.54,0-.52.09-1.03.27-1.51.18-.49.44-.92.77-1.3.33-.38.72-.67,1.16-.87.45-.2.92-.3,1.42-.3.55,0,1.04.12,1.48.38.44.25.77.6,1,1.06s.35.97.35,1.54ZM321.51,376.37c0-.38-.07-.71-.21-1-.14-.29-.34-.51-.6-.67-.26-.16-.56-.24-.9-.24-.43,0-.82.13-1.18.39s-.66.63-.88,1.11c-.23.48-.34.98-.34,1.51,0,.39.07.73.21,1.03.14.3.34.52.61.68.26.16.56.24.9.24.42,0,.82-.13,1.18-.4.37-.27.66-.64.87-1.12.21-.48.32-.99.32-1.53Z"/><path class="cls-2" d="M329.05,376.8c-.13-.05-.27-.08-.4-.1-.13-.02-.29-.03-.48-.03-.32,0-.61.07-.88.22-.27.15-.48.35-.64.61-.16.26-.24.54-.24.83,0,.38.11.68.32.89.21.21.51.32.89.32.22,0,.42-.03.6-.08.18-.05.4-.14.65-.26l-.12,1.01c-.42.17-.86.25-1.32.25-.42,0-.79-.09-1.11-.26-.32-.18-.57-.43-.75-.75-.18-.33-.27-.7-.27-1.12,0-.48.13-.92.38-1.32.25-.4.6-.72,1.05-.95.45-.23.94-.34,1.48-.34.16,0,.33.01.51.03.18.02.34.05.48.09l-.14.96Z"/><path class="cls-2" d="M333.88,375.72c.34,0,.64.08.91.24.27.16.47.38.62.67.15.29.22.62.22.98,0,.16-.02.33-.05.52h-2.87c-.02.11-.03.22-.03.31,0,.24.05.45.14.63.1.18.23.32.4.42.17.1.37.14.58.14s.44-.04.7-.13c.25-.09.54-.23.86-.41l-.18.95c-.52.29-1.03.43-1.53.43-.41,0-.77-.09-1.08-.27-.31-.18-.55-.44-.72-.77-.17-.34-.25-.72-.25-1.15,0-.47.1-.9.3-1.29s.48-.71.83-.93c.35-.22.73-.34,1.15-.34ZM334.57,377.45v-.08c0-.26-.06-.47-.19-.62-.13-.15-.31-.23-.55-.23-.47,0-.81.31-1.01.93h1.75ZM335.82,373.62l-1.42,1.58h-.64l.78-1.58h1.28Z"/><path class="cls-2" d="M342.1,380.35h-1.08l.07-.47h0s-.01,0-.01,0c-.4.38-.82.57-1.24.57-.28,0-.54-.08-.78-.24-.23-.16-.42-.39-.55-.67-.13-.28-.2-.6-.2-.94,0-.57.13-1.08.4-1.52.26-.44.63-.78,1.11-1s1.03-.34,1.66-.34c.43,0,.85.05,1.27.15l-.63,4.48ZM341.54,376.63c-.1,0-.19-.01-.28-.01-.27,0-.52.04-.74.12-.22.08-.41.2-.58.37-.16.17-.29.38-.39.63-.1.26-.15.52-.15.78,0,.32.07.58.21.78.14.2.33.29.57.29.15,0,.32-.05.5-.15.18-.1.35-.24.52-.41l.34-2.4Z"/><path class="cls-2" d="M349.24,380.35h-1.07l.35-2.51c.03-.19.04-.32.05-.4,0-.08.01-.17.01-.27,0-.17-.04-.3-.12-.41-.08-.11-.2-.16-.33-.16s-.32.07-.54.2c-.22.14-.46.35-.72.66l-.41,2.89h-1.07l.63-4.51h1.07l-.1.72c.26-.26.52-.46.77-.6.25-.13.51-.2.77-.2.25,0,.46.05.63.17.17.11.31.26.39.45.09.19.13.41.13.66,0,.06,0,.11,0,.17,0,.05,0,.11,0,.17,0,.06-.01.12-.02.2,0,.07-.02.17-.03.28l-.37,2.5Z"/><path class="cls-2" d="M311.79,395.51c0,.4-.1.76-.29,1.08-.19.32-.46.57-.82.75-.35.18-.75.27-1.2.27h-.97l-.38,2.74h-1.17l.95-6.82h1.65c.28,0,.56.04.83.1.27.07.51.18.71.34.21.16.37.36.5.61.13.25.19.56.19.93ZM310.61,395.52c0-.21-.05-.4-.15-.56-.1-.16-.25-.29-.44-.37-.19-.08-.42-.13-.7-.13h-.37l-.31,2.22h.64c.28,0,.52-.05.71-.15.2-.1.35-.23.46-.41s.16-.37.16-.6Z"/><path class="cls-2" d="M317.62,400.35h-1.08l.07-.47h0s-.01,0-.01,0c-.4.38-.82.57-1.24.57-.28,0-.54-.08-.78-.24-.23-.16-.42-.39-.55-.67-.13-.28-.2-.6-.2-.94,0-.57.13-1.08.4-1.52.26-.44.63-.78,1.11-1s1.03-.34,1.66-.34c.43,0,.85.05,1.27.15l-.63,4.48ZM317.07,396.63c-.1,0-.19-.01-.28-.01-.27,0-.52.04-.74.12-.22.08-.41.2-.58.37-.16.17-.29.38-.39.63-.1.26-.15.52-.15.78,0,.32.07.58.21.78.14.2.33.29.57.29.15,0,.32-.05.5-.15.18-.1.35-.24.52-.41l.34-2.4Z"/><path class="cls-2" d="M324.7,396.8c-.13-.05-.27-.08-.4-.1-.13-.02-.29-.03-.48-.03-.32,0-.61.07-.88.22-.27.15-.48.35-.64.61-.16.26-.24.54-.24.83,0,.38.11.68.32.89.21.21.51.32.89.32.22,0,.42-.03.6-.08.18-.05.4-.14.65-.26l-.12,1.01c-.42.17-.86.25-1.32.25-.42,0-.79-.09-1.11-.26-.32-.18-.57-.43-.75-.75-.18-.33-.27-.7-.27-1.12,0-.48.13-.92.38-1.32.25-.4.6-.72,1.05-.95.45-.23.94-.34,1.48-.34.16,0,.33.01.51.03.18.02.34.05.48.09l-.14.96Z"/><path class="cls-2" d="M328.93,395.83l-.64,4.51h-1.07l.63-4.51h1.08ZM329.13,394.5c0,.1-.03.2-.08.29-.05.09-.12.16-.22.21-.09.05-.19.08-.29.08s-.2-.03-.29-.08-.16-.12-.21-.21c-.05-.09-.08-.18-.08-.29s.03-.2.08-.29c.05-.09.12-.16.21-.22.09-.05.19-.08.29-.08s.21.03.3.08c.09.05.16.13.21.22.05.09.08.19.08.29Z"/><path class="cls-2" d="M335.55,394.6c-.31-.15-.58-.23-.82-.23-.36,0-.65.12-.85.37s-.33.61-.37,1.09h.89l-.12.86h-.9l-.75,5.59h-1.06l.75-5.59h-.81l.12-.86h.81c.07-.75.29-1.34.66-1.76s.87-.64,1.5-.64c.19,0,.37.02.54.06.17.04.36.09.55.16l-.14.95Z"/><path class="cls-2" d="M338.28,395.83l-.64,4.51h-1.07l.63-4.51h1.08ZM338.48,394.5c0,.1-.03.2-.08.29-.05.09-.12.16-.22.21-.09.05-.19.08-.29.08s-.2-.03-.29-.08-.16-.12-.21-.21c-.05-.09-.08-.18-.08-.29s.03-.2.08-.29c.05-.09.12-.16.21-.22.09-.05.19-.08.29-.08s.21.03.3.08c.09.05.16.13.21.22.05.09.08.19.08.29Z"/><path class="cls-2" d="M345.34,395.78l-.96,6.86h-1.08l.36-2.51c-.22.11-.42.19-.6.24-.18.05-.35.08-.51.08-.33,0-.62-.08-.87-.25-.25-.17-.45-.4-.59-.71s-.21-.65-.21-1.04c0-.54.13-1.02.39-1.44.26-.41.62-.72,1.09-.93.47-.21,1.02-.31,1.66-.31h1.31ZM344.13,396.68h-.04c-.66,0-1.18.16-1.55.47-.37.31-.55.75-.55,1.33,0,.35.09.63.27.84.18.21.42.31.73.31.12,0,.24-.02.36-.06.12-.04.25-.11.41-.2l.37-2.68Z"/><path class="cls-2" d="M348.54,395.83h1.07l-.35,2.51c-.03.23-.05.38-.06.45,0,.07,0,.14,0,.22,0,.17.04.3.12.41.08.11.2.16.34.16s.32-.07.54-.2c.22-.13.46-.35.72-.66l.41-2.89h1.07l-.63,4.51h-1.07l.1-.72c-.26.26-.52.46-.77.59-.25.14-.51.2-.77.2-.24,0-.45-.05-.62-.16-.17-.11-.31-.26-.4-.45-.09-.19-.14-.41-.14-.67,0-.23.02-.5.07-.81l.37-2.5Z"/><path class="cls-2" d="M357.32,395.72c.34,0,.64.08.91.24.27.16.47.38.62.67.15.29.22.62.22.98,0,.16-.02.33-.05.52h-2.87c-.02.11-.03.22-.03.31,0,.24.05.45.14.63.1.18.23.32.4.42.17.1.37.14.58.14s.44-.04.7-.13c.25-.09.54-.23.86-.41l-.18.95c-.52.29-1.03.43-1.53.43-.41,0-.77-.09-1.08-.27-.31-.18-.55-.44-.72-.77-.17-.34-.25-.72-.25-1.15,0-.47.1-.9.3-1.29s.48-.71.83-.93c.35-.22.73-.34,1.15-.34ZM358.02,397.45v-.08c0-.26-.06-.47-.19-.62-.13-.15-.31-.23-.55-.23-.47,0-.81.31-1.01.93h1.75Z"/><path class="cls-2" d="M318.01,158.07l-.24,1.72c-.52.28-1.03.42-1.54.42-.61,0-1.1-.2-1.46-.6-.36-.4-.54-.9-.54-1.5,0-.76.28-1.41.85-1.97.57-.56,1.38-.83,2.42-.83.21,0,.48.02.83.06l-.08.57c-.38-.04-.66-.06-.85-.06-.78,0-1.39.22-1.84.66-.44.44-.66.96-.66,1.54,0,.46.13.83.39,1.11.26.29.59.43,1,.43.3,0,.61-.08.92-.23l.11-.83h-.68l.07-.5h1.32Z"/><path class="cls-2" d="M321.35,156.9c.35,0,.64.12.85.37.21.25.32.58.32,1,0,.57-.14,1.05-.43,1.42s-.64.55-1.06.55c-.37,0-.66-.12-.87-.37s-.31-.59-.31-1.04c0-.55.14-1.01.43-1.38.29-.37.65-.55,1.07-.55ZM321.35,157.36c-.24,0-.45.15-.63.45-.18.3-.26.66-.26,1.07,0,.25.05.45.16.6.11.15.24.23.39.23.25,0,.46-.14.64-.42s.26-.64.26-1.07c0-.26-.05-.48-.15-.63-.1-.16-.24-.24-.41-.24Z"/><path class="cls-2" d="M325.56,155.36l-.67,4.77h-.59l.67-4.77h.59Z"/><path class="cls-2" d="M328.86,156.99l-.08.53h-.64l-.5,3.94h-.58l.51-3.94h-.51l.08-.53h.49c.04-.54.19-.96.45-1.25.26-.29.62-.44,1.06-.44.23,0,.49.05.76.15l-.08.59c-.21-.12-.42-.17-.61-.17-.59,0-.92.38-.99,1.13h.64Z"/><path class="cls-2" d="M332.76,159.32l-.08.57c-.32.23-.67.35-1.05.35s-.71-.14-.96-.42c-.24-.28-.36-.65-.36-1.11,0-.51.14-.94.43-1.29.29-.35.64-.52,1.06-.52.32,0,.58.12.8.37.21.25.32.56.32.95,0,.1,0,.19-.02.29h-1.96c-.02.1-.03.21-.03.3,0,.29.08.52.24.69.16.17.36.25.6.25.29,0,.63-.14,1.02-.43ZM331.02,158.09h1.32c0-.22-.05-.39-.15-.52-.1-.13-.24-.19-.42-.19-.34,0-.59.24-.75.71Z"/><path class="cls-2" d="M304.98,170.36l-.67,4.77c-.23.07-.5.1-.8.1-.53,0-.94-.13-1.23-.38s-.43-.61-.43-1.08.19-.88.56-1.28c.37-.4.88-.6,1.51-.6h.25l.21-1.53h.59ZM303.77,174.73l.33-2.34h-.15c-.45,0-.8.14-1.08.4-.27.27-.41.59-.41.97,0,.31.09.55.27.72.18.17.44.25.77.25.12,0,.21,0,.27-.01Z"/><path class="cls-2" d="M309.38,171.99l-.45,3.14h-.59l.05-.53c-.36.39-.71.58-1.04.58-.21,0-.39-.08-.54-.23-.15-.15-.22-.37-.22-.65,0-.08,0-.16.02-.24l.29-2.07h.59l-.29,2.07c0,.07-.01.13-.01.19,0,.31.12.47.35.47.24,0,.56-.23.95-.69l.29-2.04h.59Z"/><path class="cls-2" d="M319.55,170.36v4.77h-.63v-3.64s-1.93,3.64-1.93,3.64l-.84-3.65-1.17,3.65h-.63l1.57-4.77h.55l.75,3.23,1.71-3.23h.63Z"/><path class="cls-2" d="M324.15,174.32l-.08.57c-.32.23-.67.35-1.05.35s-.71-.14-.96-.42c-.24-.28-.36-.65-.36-1.11,0-.51.14-.94.43-1.29.29-.35.64-.52,1.06-.52.32,0,.58.12.8.37.21.25.32.56.32.95,0,.1,0,.19-.02.29h-1.96c-.02.1-.03.21-.03.3,0,.29.08.52.24.69.16.17.36.25.6.25.29,0,.63-.14,1.02-.43ZM322.42,173.09h1.32c0-.22-.05-.39-.15-.52-.1-.13-.24-.19-.42-.19-.34,0-.59.24-.75.71Z"/><path class="cls-2" d="M329,171.99l-1.26,1.56.8,1.58h-.64l-.57-1.17-.91,1.17h-.73l1.37-1.67-.74-1.47h.63l.5,1.06.82-1.06h.73Z"/><path class="cls-2" d="M331.48,171.99l-.44,3.14h-.59l.44-3.14h.59ZM330.96,171.01c0-.1.03-.18.1-.24.07-.07.15-.1.24-.1s.17.03.24.1c.07.07.1.15.1.24s-.03.17-.1.24c-.07.07-.15.1-.24.1s-.17-.03-.24-.1c-.07-.07-.1-.15-.1-.24Z"/><path class="cls-2" d="M336.11,171.9l-.68,4.85h-.59l.24-1.7c-.26.13-.47.19-.65.19-.36,0-.65-.13-.87-.39-.22-.26-.34-.6-.34-1.02,0-.55.19-1.01.58-1.37s.94-.55,1.65-.55h.66ZM335.14,174.6l.31-2.22c-.51-.02-.9.1-1.19.37-.28.27-.43.64-.43,1.1,0,.27.07.48.22.65.15.16.35.24.59.24.13,0,.29-.05.49-.14Z"/><path class="cls-2" d="M340.76,171.99l-.45,3.14h-.59l.05-.53c-.36.39-.71.58-1.04.58-.21,0-.39-.08-.54-.23-.15-.15-.22-.37-.22-.65,0-.08,0-.16.02-.24l.29-2.07h.59l-.29,2.07c0,.07-.01.13-.01.19,0,.31.12.47.35.47.24,0,.56-.23.95-.69l.29-2.04h.59Z"/><path class="cls-2" d="M345.09,174.32l-.08.57c-.32.23-.67.35-1.05.35s-.71-.14-.96-.42c-.24-.28-.36-.65-.36-1.11,0-.51.14-.94.43-1.29.29-.35.64-.52,1.06-.52.32,0,.58.12.8.37.21.25.32.56.32.95,0,.1,0,.19-.02.29h-1.96c-.02.1-.03.21-.03.3,0,.29.08.52.24.69.16.17.36.25.6.25.29,0,.63-.14,1.02-.43ZM343.35,173.09h1.32c0-.22-.05-.39-.15-.52-.1-.13-.24-.19-.42-.19-.34,0-.59.24-.75.71Z"/><path class="cls-2" d="M453.1,252.67v4.77h-.63v-3.64s-1.93,3.64-1.93,3.64l-.84-3.65-1.17,3.65h-.63l1.57-4.77h.55l.75,3.23,1.71-3.23h.63Z"/><path class="cls-2" d="M457.71,256.63l-.08.57c-.32.23-.67.35-1.05.35s-.71-.14-.96-.42c-.24-.28-.36-.65-.36-1.11,0-.51.14-.94.43-1.29.29-.35.64-.52,1.06-.52.32,0,.58.12.8.37.21.25.32.56.32.95,0,.1,0,.19-.02.29h-1.96c-.02.1-.03.21-.03.3,0,.29.08.52.24.69.16.17.36.25.6.25.29,0,.63-.14,1.02-.43ZM455.97,255.4h1.32c0-.22-.05-.39-.15-.52-.1-.13-.24-.19-.42-.19-.34,0-.59.24-.75.71Z"/><path class="cls-2" d="M460.75,254.3l-.09.6h.01c.19-.25.33-.43.44-.52s.24-.13.39-.13c.09,0,.18.02.26.05v.67c-.12-.07-.25-.11-.37-.11s-.22.03-.31.09c-.09.06-.2.18-.33.37-.13.19-.2.31-.2.35l-.25,1.77h-.59l.44-3.14h.59Z"/><path class="cls-2" d="M433.72,267.67l-.67,4.77c-.23.07-.5.1-.8.1-.53,0-.94-.13-1.23-.38s-.43-.61-.43-1.08.19-.88.56-1.28c.37-.4.88-.6,1.51-.6h.25l.21-1.53h.59ZM432.52,272.04l.33-2.34h-.15c-.45,0-.8.14-1.08.4-.27.27-.41.59-.41.97,0,.31.09.55.27.72.18.17.44.25.77.25.12,0,.21,0,.27-.01Z"/><path class="cls-2" d="M437.78,271.63l-.08.57c-.32.23-.67.35-1.05.35s-.71-.14-.96-.42c-.24-.28-.36-.65-.36-1.11,0-.51.14-.94.43-1.29.29-.35.64-.52,1.06-.52.32,0,.58.12.8.37.21.25.32.56.32.95,0,.1,0,.19-.02.29h-1.96c-.02.1-.03.21-.03.3,0,.29.08.52.24.69.16.17.36.25.6.25.29,0,.63-.14,1.02-.43ZM436.04,270.4h1.32c0-.22-.05-.39-.15-.52-.1-.13-.24-.19-.42-.19-.34,0-.59.24-.75.71Z"/><path class="cls-2" d="M441.79,269.54v.62c-.36-.28-.68-.41-.95-.41-.12,0-.22.03-.3.1-.08.07-.12.14-.12.23,0,.06.03.12.08.19.05.07.21.19.49.37s.46.35.55.5.14.31.14.46c0,.28-.09.5-.27.68s-.42.26-.7.26c-.35,0-.71-.14-1.09-.41l.1-.57c.39.31.71.47.97.47.12,0,.22-.03.29-.1.08-.07.11-.15.11-.25,0-.08-.03-.15-.08-.23s-.22-.21-.49-.4c-.27-.19-.45-.35-.53-.5-.09-.15-.13-.29-.13-.44,0-.27.09-.49.27-.65.18-.17.42-.25.72-.25.31,0,.63.11.95.33Z"/><path class="cls-2" d="M450.81,267.61l-.13.6h-.35c-.83,0-1.46.22-1.9.66-.44.44-.66.98-.66,1.61,0,.43.11.78.34,1.04.23.26.53.39.91.39.2,0,.43-.05.69-.16.27-.11.51-.25.73-.43l-.1.77c-.5.28-.97.42-1.42.42-.54,0-.98-.19-1.33-.56-.34-.37-.52-.85-.52-1.43,0-.86.3-1.56.89-2.1s1.39-.81,2.37-.81h.46Z"/><path class="cls-2" d="M455.13,269.3l-.44,3.14h-.59l.06-.36v-.02c-.29.29-.57.44-.86.44s-.53-.12-.73-.36c-.2-.24-.3-.54-.3-.88,0-.6.19-1.09.56-1.48s.9-.58,1.57-.58c.27,0,.52.03.74.1ZM454.22,271.54l.26-1.82c-.06,0-.12,0-.18,0-.47,0-.82.15-1.07.45-.24.3-.37.63-.37,1,0,.25.06.46.18.62.12.16.27.24.45.24.14,0,.3-.07.47-.21.17-.14.26-.23.26-.27Z"/><path class="cls-2" d="M457.99,269.3l-.09.6h.01c.19-.25.33-.43.44-.52s.24-.13.39-.13c.09,0,.18.02.26.05v.67c-.12-.07-.25-.11-.37-.11s-.22.03-.31.09c-.09.06-.2.18-.33.37-.13.19-.2.31-.2.35l-.25,1.77h-.59l.44-3.14h.59Z"/><path class="cls-2" d="M463.27,269.3l-.44,3.14h-.59l.06-.36v-.02c-.29.29-.57.44-.86.44s-.53-.12-.73-.36c-.2-.24-.3-.54-.3-.88,0-.6.19-1.09.56-1.48s.9-.58,1.57-.58c.27,0,.52.03.74.1ZM462.36,271.54l.26-1.82c-.06,0-.12,0-.18,0-.47,0-.82.15-1.07.45-.24.3-.37.63-.37,1,0,.25.06.46.18.62.12.16.27.24.45.24.14,0,.3-.07.47-.21.17-.14.26-.23.26-.27Z"/><path class="cls-2" d="M464.92,268.3c0-.09.03-.17.1-.23s.14-.1.23-.1.16.03.23.1.1.14.1.23-.03.16-.1.23-.14.1-.23.1-.16-.03-.23-.1-.1-.14-.1-.23ZM466.03,269.3l-.44,3.14h-.59l.44-3.14h.59ZM466.18,268.3c0-.09.03-.17.1-.23.06-.06.14-.1.22-.1s.16.03.23.1c.06.06.1.14.1.23s-.03.16-.1.23c-.06.06-.14.1-.23.1s-.16-.03-.22-.1c-.06-.06-.1-.14-.1-.23Z"/><path class="cls-2" d="M469.02,267.67l-.25,1.88c.23-.23.48-.35.77-.35.32,0,.59.13.79.4.21.27.31.61.31,1.04,0,.56-.17,1.01-.53,1.37-.35.36-.86.53-1.52.53-.33,0-.6-.02-.83-.05l.65-4.82h.61ZM468.4,272.05h.33c.4,0,.72-.13.95-.39s.35-.6.35-1.04c0-.28-.06-.51-.18-.67s-.29-.24-.5-.24c-.13,0-.28.04-.42.12s-.23.17-.25.28l-.27,1.93Z"/><path class="cls-2" d="M474.95,271.63l-.08.57c-.32.23-.67.35-1.05.35s-.71-.14-.96-.42c-.24-.28-.36-.65-.36-1.11,0-.51.14-.94.43-1.29.29-.35.64-.52,1.06-.52.32,0,.58.12.8.37.21.25.32.56.32.95,0,.1,0,.19-.02.29h-1.96c-.02.1-.03.21-.03.3,0,.29.08.52.24.69.16.17.36.25.6.25.29,0,.63-.14,1.02-.43ZM473.21,270.4h1.32c0-.22-.05-.39-.15-.52-.1-.13-.24-.19-.42-.19-.34,0-.59.24-.75.71Z"/><path class="cls-2" d="M478.96,269.54v.62c-.36-.28-.68-.41-.95-.41-.12,0-.22.03-.3.1-.08.07-.12.14-.12.23,0,.06.03.12.08.19.05.07.21.19.49.37s.46.35.55.5.14.31.14.46c0,.28-.09.5-.27.68s-.42.26-.7.26c-.35,0-.71-.14-1.09-.41l.1-.57c.39.31.71.47.97.47.12,0,.22-.03.29-.1.08-.07.11-.15.11-.25,0-.08-.03-.15-.08-.23s-.22-.21-.49-.4c-.27-.19-.45-.35-.53-.5-.09-.15-.13-.29-.13-.44,0-.27.09-.49.27-.65.18-.17.42-.25.72-.25.31,0,.63.11.95.33Z"/><rect id="Cadre" class="cls-1" width="886.94" height="591.29"/></g></svg>